<svg width="220" height="80" viewBox="0 0 220 80" fill="none" xmlns="http://www.w3.org/2000/svg">
<rect width="220" height="80" fill="white"/>
<g clip-path="url(#clip0)">
<g opacity="0.9">
<path opacity="0.9" d="M40.0285 58.3207C40.0285 59.0054 39.9146 59.5761 39.6868 60.1467C39.4591 60.7174 39.1744 61.1739 38.7758 61.5734C38.3772 61.9728 37.8648 62.2582 37.3523 62.4864C36.7829 62.7147 36.1566 62.8288 35.4733 62.8288H32V53.8125H35.4733C36.1566 53.8125 36.7829 53.9266 37.3523 54.1549C37.9217 54.3832 38.3772 54.6685 38.7758 55.0679C39.1744 55.4674 39.516 55.9239 39.6868 56.4946C39.8577 57.0652 40.0285 57.6929 40.0285 58.3207ZM38.3203 58.3207C38.3203 57.8071 38.2633 57.3505 38.0925 57.0082C37.9786 56.6087 37.7509 56.2663 37.5231 55.981C37.2954 55.6957 36.9537 55.5245 36.6121 55.3533C36.2705 55.1821 35.8719 55.125 35.4164 55.125H33.7082V61.5163H35.4733C35.9288 61.5163 36.3274 61.4592 36.669 61.288C37.0107 61.1168 37.2954 60.9457 37.5801 60.6603C37.8648 60.375 38.0356 60.0326 38.1495 59.6332C38.2633 59.2908 38.3203 58.8342 38.3203 58.3207Z" fill="#212121"/>
<path opacity="0.9" d="M44.7544 56.3232C45.153 56.3232 45.5516 56.3803 45.8932 56.4944C46.2348 56.6086 46.5195 56.8368 46.7473 57.0651C46.9751 57.2934 47.2028 57.6357 47.3167 57.9781C47.4306 58.3205 47.5445 58.777 47.5445 59.2336C47.5445 59.3477 47.5445 59.4618 47.5445 59.5189C47.5445 59.576 47.4875 59.633 47.4875 59.6901C47.4875 59.7472 47.4306 59.7472 47.3736 59.8042C47.3167 59.8042 47.2598 59.8042 47.2028 59.8042H43.2171C43.274 60.489 43.4448 60.9455 43.7295 61.2879C44.0142 61.5732 44.4697 61.7444 44.9822 61.7444C45.2099 61.7444 45.4377 61.6874 45.6085 61.6303C45.7793 61.5732 45.9502 61.5162 46.064 61.4591C46.1779 61.402 46.2918 61.345 46.4057 61.2879C46.5195 61.2308 46.6334 61.1738 46.6904 61.1738C46.7473 61.1738 46.8042 61.1738 46.8612 61.2308C46.9181 61.2879 46.9751 61.2879 46.9751 61.345L47.4306 61.9156C47.2598 62.1439 47.0889 62.258 46.8612 62.4292C46.6334 62.6004 46.4626 62.6575 46.2348 62.7716C46.0071 62.8287 45.7793 62.8857 45.5516 62.9428C45.3238 62.9999 45.0961 62.9999 44.8683 62.9999C44.4128 62.9999 44.0142 62.9428 43.6156 62.7716C43.2171 62.6004 42.8754 62.4292 42.5907 62.0868C42.306 61.8015 42.0783 61.4591 41.9074 61.0026C41.7366 60.5461 41.6797 60.0895 41.6797 59.5189C41.6797 59.0624 41.7366 58.6629 41.9074 58.2635C42.0213 57.864 42.2491 57.5216 42.5338 57.2363C42.8185 56.951 43.1032 56.7227 43.5018 56.5515C43.8434 56.4374 44.242 56.3232 44.7544 56.3232ZM44.7544 57.4645C44.2989 57.4645 43.9573 57.5787 43.6726 57.864C43.3879 58.1493 43.274 58.4917 43.1601 58.9482H46.064C46.064 58.72 46.064 58.5488 46.0071 58.3776C45.9502 58.2064 45.8932 58.0352 45.7793 57.9211C45.6655 57.8069 45.5516 57.6928 45.3808 57.5787C45.2099 57.4645 44.9822 57.4645 44.7544 57.4645Z" fill="#212121"/>
<path opacity="0.9" d="M53.4091 57.6928C53.3521 57.7498 53.2952 57.8069 53.2952 57.8069C53.2382 57.8069 53.1813 57.8639 53.1244 57.8639C53.0674 57.8639 52.9535 57.8639 52.8966 57.8069C52.8397 57.7498 52.7258 57.6928 52.6119 57.6928C52.498 57.6357 52.3841 57.5786 52.2133 57.5786C52.0425 57.5216 51.8717 57.5216 51.7009 57.5216C51.4162 57.5216 51.1315 57.5786 50.9607 57.6928C50.7898 57.8069 50.676 57.9781 50.676 58.2063C50.676 58.3205 50.7329 58.4346 50.7898 58.5487C50.8468 58.6629 51.0176 58.7199 51.1315 58.777C51.2454 58.8341 51.4731 58.8911 51.6439 58.9482C51.8147 59.0053 52.0425 59.0623 52.2133 59.1194C52.3841 59.1765 52.6119 59.2906 52.7827 59.3476C52.9535 59.4047 53.1244 59.5188 53.2952 59.69C53.466 59.8042 53.5799 59.9754 53.6368 60.1466C53.7507 60.3178 53.7507 60.546 53.7507 60.8313C53.7507 61.1167 53.6938 61.402 53.5799 61.6873C53.466 61.9726 53.2952 62.2009 53.0674 62.3721C52.8397 62.5433 52.555 62.7145 52.2703 62.8286C51.9856 62.9428 51.587 62.9998 51.1884 62.9998C50.9607 62.9998 50.7329 62.9998 50.5621 62.9428C50.3343 62.8857 50.1635 62.8286 49.9357 62.7716C49.7649 62.7145 49.5372 62.6004 49.4233 62.5433C49.2525 62.4292 49.1386 62.315 48.9678 62.258L49.3094 61.6873C49.3663 61.6303 49.4233 61.5732 49.4802 61.5161C49.5372 61.4591 49.5941 61.4591 49.708 61.4591C49.8219 61.4591 49.8788 61.4591 49.9927 61.5161C50.1066 61.5732 50.1635 61.6303 50.2774 61.6873C50.3913 61.7444 50.5051 61.8014 50.676 61.8585C50.8468 61.9156 51.0176 61.9156 51.2454 61.9156C51.4162 61.9156 51.587 61.9156 51.7009 61.8585C51.8147 61.8014 51.9286 61.7444 52.0425 61.6873C52.0994 61.6303 52.2133 61.5161 52.2133 61.4591C52.2703 61.3449 52.2703 61.2879 52.2703 61.1737C52.2703 61.0025 52.2133 60.8884 52.1564 60.8313C52.0425 60.7172 51.9286 60.6601 51.8147 60.6031C51.6439 60.546 51.4731 60.4889 51.3023 60.4319C51.1315 60.3748 50.9037 60.3178 50.7329 60.2607C50.5621 60.2036 50.3343 60.0895 50.1635 60.0324C49.9927 59.9183 49.8219 59.8042 49.651 59.69C49.4802 59.5759 49.3663 59.4047 49.3094 59.1765C49.1955 58.9482 49.1955 58.7199 49.1955 58.4346C49.1955 58.1493 49.2525 57.921 49.3664 57.6928C49.4802 57.4645 49.651 57.2362 49.8219 57.065C50.0496 56.8938 50.2774 56.7226 50.5621 56.6656C50.8468 56.5514 51.1884 56.4944 51.587 56.4944C52.0425 56.4944 52.4411 56.5514 52.7827 56.7226C53.1244 56.8938 53.466 57.065 53.6937 57.2933L53.4091 57.6928Z" fill="#212121"/>
<path opacity="0.9" d="M60.9253 62.8857H60.242C60.0712 62.8857 59.9573 62.8857 59.9003 62.8286C59.8434 62.7716 59.7295 62.7145 59.7295 62.5433L59.5587 62.0868C59.3879 62.258 59.2171 62.3721 59.1032 62.4862C58.9324 62.6004 58.7616 62.7145 58.5907 62.7715C58.4199 62.8286 58.2491 62.8857 58.0783 62.9427C57.9075 62.9998 57.6797 62.9998 57.4519 62.9998C57.1672 62.9998 56.9395 62.9427 56.7117 62.8857C56.484 62.8286 56.2562 62.7145 56.1423 62.5433C55.9715 62.3721 55.8576 62.2009 55.7438 61.9726C55.6299 61.7444 55.6299 61.5161 55.6299 61.2308C55.6299 61.0025 55.6868 60.7743 55.8007 60.4889C55.9146 60.2607 56.1423 60.0324 56.427 59.8612C56.7117 59.69 57.1103 59.5188 57.6228 59.4047C58.1352 59.2906 58.7046 59.2335 59.4448 59.2335V58.8341C59.4448 58.3775 59.331 58.0922 59.1601 57.8639C58.9893 57.6357 58.7046 57.5786 58.363 57.5786C58.1352 57.5786 57.9075 57.6357 57.7366 57.6927C57.5658 57.7498 57.4519 57.8069 57.2811 57.8639C57.1672 57.921 57.0534 57.9781 56.9395 58.0351C56.8256 58.0922 56.7117 58.0922 56.5979 58.0922C56.484 58.0922 56.427 58.0922 56.3132 58.0351C56.2562 57.9781 56.1993 57.921 56.1423 57.8069L55.8576 57.2933C56.5979 56.6085 57.5089 56.2661 58.5338 56.2661C58.9324 56.2661 59.2171 56.3232 59.5587 56.4373C59.8434 56.5514 60.1281 56.7226 60.2989 56.9509C60.4697 57.1792 60.6406 57.4074 60.7544 57.7498C60.8683 58.0351 60.9253 58.3775 60.9253 58.777V62.8857ZM57.9075 61.9156C58.0783 61.9156 58.1922 61.9156 58.363 61.8585C58.4769 61.8014 58.6477 61.8014 58.7616 61.7444C58.8754 61.6873 58.9893 61.6302 59.1032 61.5161C59.2171 61.459 59.331 61.3449 59.4448 61.2308V60.1465C58.9893 60.1465 58.5907 60.1465 58.306 60.2036C58.0213 60.2607 57.7366 60.3177 57.5658 60.4319C57.395 60.546 57.2242 60.6031 57.1672 60.7172C57.1103 60.8313 57.0534 60.9455 57.0534 61.1167C57.0534 61.402 57.1103 61.5732 57.2811 61.6873C57.4519 61.8585 57.6797 61.9156 57.9075 61.9156Z" fill="#212121"/>
<path opacity="0.9" d="M63.2598 62.8858V56.4374H64.1708C64.3416 56.4374 64.4555 56.4945 64.5124 56.5516C64.5694 56.6086 64.6263 56.7228 64.6263 56.8369L64.7402 57.6358C64.9679 57.2363 65.2526 56.951 65.5373 56.7228C65.822 56.4945 66.2206 56.3804 66.5623 56.3804C66.9039 56.3804 67.1316 56.4374 67.3594 56.6086L67.1317 57.7499C67.1317 57.807 67.0747 57.8641 67.0747 57.9211C67.0178 57.9782 66.9608 57.9782 66.9039 57.9782C66.847 57.9782 66.7331 57.9782 66.6192 57.9211C66.5053 57.8641 66.3914 57.8641 66.1637 57.8641C65.822 57.8641 65.5943 57.9782 65.3096 58.1494C65.0249 58.3206 64.911 58.6059 64.7402 58.9483V62.9429H63.2598V62.8858Z" fill="#212121"/>
<path opacity="0.9" d="M69.1816 62.8858V56.4374H70.0927C70.2635 56.4374 70.3774 56.4945 70.4343 56.5516C70.4912 56.6086 70.5482 56.7228 70.5482 56.8369L70.6621 57.6358C70.8898 57.2363 71.1745 56.951 71.4592 56.7228C71.7439 56.4945 72.1425 56.3804 72.4841 56.3804C72.8258 56.3804 73.0535 56.4374 73.2813 56.6086L73.0535 57.7499C73.0535 57.807 72.9966 57.8641 72.9966 57.9211C72.9396 57.9782 72.8827 57.9782 72.8258 57.9782C72.7688 57.9782 72.6549 57.9782 72.5411 57.9211C72.4272 57.8641 72.3133 57.8641 72.0856 57.8641C71.7439 57.8641 71.5162 57.9782 71.2315 58.1494C70.9468 58.3206 70.8329 58.6059 70.6621 58.9483V62.9429H69.1816V62.8858Z" fill="#212121"/>
<path opacity="0.9" d="M77.8932 56.3232C78.3487 56.3232 78.8042 56.3803 79.2028 56.5515C79.6014 56.7227 79.943 56.951 80.2277 57.2363C80.5124 57.5216 80.7402 57.864 80.8541 58.2635C80.9679 58.6629 81.0818 59.1194 81.0818 59.633C81.0818 60.1466 81.0249 60.6031 80.8541 61.0026C80.6832 61.402 80.5124 61.7444 80.2277 62.0298C79.943 62.3151 79.6014 62.5433 79.2028 62.7145C78.8042 62.8857 78.3487 62.9428 77.8932 62.9428C77.4377 62.9428 76.9822 62.8857 76.5836 62.7145C76.185 62.5433 75.8434 62.3151 75.5587 62.0298C75.274 61.7444 75.0462 61.402 74.9323 61.0026C74.7615 60.6031 74.7046 60.1466 74.7046 59.633C74.7046 59.1194 74.7615 58.6629 74.9323 58.2635C75.1032 57.864 75.274 57.5216 75.5587 57.2363C75.8434 56.951 76.185 56.7227 76.5836 56.5515C76.9252 56.4374 77.3807 56.3232 77.8932 56.3232ZM77.8932 61.8015C78.4057 61.8015 78.8042 61.6303 79.0889 61.2879C79.3736 60.9455 79.4875 60.3749 79.4875 59.6901C79.4875 59.0053 79.3736 58.4917 79.0889 58.0923C78.8042 57.7499 78.4626 57.5216 77.8932 57.5216C77.3238 57.5216 76.9252 57.6928 76.6975 58.0923C76.4128 58.4347 76.2989 59.0053 76.2989 59.6901C76.2989 60.3749 76.4128 60.8885 76.6975 61.2879C76.9252 61.5732 77.3238 61.8015 77.8932 61.8015Z" fill="#212121"/>
<path opacity="0.9" d="M84.7258 53.5271V62.8287H83.1885V53.5271H84.7258Z" fill="#212121"/>
<path opacity="0.9" d="M88.9397 53.5271V62.8287H87.4023V53.5271H88.9397Z" fill="#212121"/>
<path opacity="0.9" d="M94.235 56.3232C94.6905 56.3232 95.146 56.3803 95.5446 56.5515C95.9432 56.7227 96.2848 56.951 96.5695 57.2363C96.8542 57.5216 97.082 57.864 97.1959 58.2635C97.3097 58.6629 97.4236 59.1194 97.4236 59.633C97.4236 60.1466 97.3667 60.6031 97.1959 61.0026C97.025 61.402 96.8542 61.7444 96.5695 62.0298C96.2848 62.3151 95.9432 62.5433 95.5446 62.7145C95.146 62.8857 94.6905 62.9428 94.235 62.9428C93.7795 62.9428 93.324 62.8857 92.9254 62.7145C92.5268 62.5433 92.1852 62.3151 91.9005 62.0298C91.6158 61.7444 91.388 61.402 91.2741 61.0026C91.1033 60.6031 91.0464 60.1466 91.0464 59.633C91.0464 59.1194 91.1033 58.6629 91.2741 58.2635C91.445 57.864 91.6158 57.5216 91.9005 57.2363C92.1852 56.951 92.5268 56.7227 92.9254 56.5515C93.324 56.4374 93.7225 56.3232 94.235 56.3232ZM94.235 61.8015C94.7475 61.8015 95.146 61.6303 95.4307 61.2879C95.7154 60.9455 95.8293 60.3749 95.8293 59.6901C95.8293 59.0053 95.7154 58.4917 95.4307 58.0923C95.146 57.7499 94.8044 57.5216 94.235 57.5216C93.6656 57.5216 93.267 57.6928 93.0393 58.0923C92.7546 58.4347 92.6407 59.0053 92.6407 59.6901C92.6407 60.3749 92.7546 60.8885 93.0393 61.2879C93.267 61.5732 93.6656 61.8015 94.235 61.8015Z" fill="#212121"/>
<path opacity="0.9" d="M103.231 57.6928C103.174 57.7498 103.117 57.8069 103.117 57.8069C103.06 57.8069 103.004 57.8639 102.947 57.8639C102.89 57.8639 102.776 57.8639 102.719 57.8069C102.662 57.7498 102.548 57.6928 102.434 57.6928C102.32 57.6357 102.206 57.5786 102.036 57.5786C101.865 57.5216 101.694 57.5216 101.523 57.5216C101.238 57.5216 100.954 57.5786 100.783 57.6928C100.612 57.8069 100.498 57.9781 100.498 58.2063C100.498 58.3205 100.555 58.4346 100.612 58.5487C100.669 58.6629 100.84 58.7199 100.954 58.777C101.068 58.8341 101.295 58.8911 101.466 58.9482C101.637 59.0053 101.865 59.0623 102.036 59.1194C102.206 59.1765 102.434 59.2906 102.605 59.3476C102.776 59.4047 102.947 59.5188 103.117 59.69C103.288 59.8042 103.402 59.9754 103.459 60.1466C103.573 60.3178 103.573 60.546 103.573 60.8313C103.573 61.1167 103.516 61.402 103.402 61.6873C103.288 61.9726 103.117 62.2009 102.89 62.3721C102.662 62.5433 102.377 62.7145 102.093 62.8286C101.808 62.9428 101.409 62.9998 101.011 62.9998C100.783 62.9998 100.555 62.9998 100.384 62.9428C100.157 62.8857 99.9858 62.8286 99.758 62.7716C99.5872 62.7145 99.3594 62.6004 99.2456 62.5433C99.0747 62.4292 98.9609 62.315 98.79 62.258L99.1317 61.6873C99.1886 61.6303 99.2456 61.5732 99.3025 61.5161C99.3594 61.4591 99.4164 61.4591 99.5302 61.4591C99.6441 61.4591 99.7011 61.4591 99.8149 61.5161C99.9288 61.5732 99.9858 61.6303 100.1 61.6873C100.214 61.7444 100.327 61.8014 100.498 61.8585C100.669 61.9156 100.84 61.9156 101.068 61.9156C101.238 61.9156 101.409 61.9156 101.523 61.8585C101.637 61.8014 101.751 61.7444 101.865 61.6873C101.922 61.6303 102.036 61.5161 102.036 61.4591C102.093 61.3449 102.093 61.2879 102.093 61.1737C102.093 61.0025 102.036 60.8884 101.979 60.8313C101.865 60.7172 101.751 60.6601 101.637 60.6031C101.466 60.546 101.295 60.4889 101.125 60.4319C100.954 60.3748 100.726 60.3178 100.555 60.2607C100.384 60.2036 100.157 60.0895 99.9858 60.0324C99.8149 59.9183 99.6441 59.8042 99.4733 59.69C99.3025 59.5759 99.1886 59.4047 99.1317 59.1765C99.0178 58.9482 99.0178 58.7199 99.0178 58.4346C99.0178 58.1493 99.0747 57.921 99.1886 57.6928C99.3025 57.4645 99.4733 57.2362 99.6441 57.065C99.8719 56.8938 100.1 56.7226 100.384 56.6656C100.669 56.5514 101.011 56.4944 101.409 56.4944C101.865 56.4944 102.263 56.5514 102.605 56.7226C102.947 56.8938 103.288 57.065 103.516 57.2933L103.231 57.6928Z" fill="#212121"/>
<path opacity="0.9" d="M110.918 62.8859H109.21V53.8125H110.918V62.8859Z" fill="#212121"/>
<path opacity="0.9" d="M113.708 62.8858V56.4374H114.676C114.904 56.4374 115.018 56.5516 115.075 56.7228L115.188 57.2363C115.302 57.1222 115.473 57.0081 115.587 56.894C115.701 56.7798 115.872 56.6657 116.043 56.6086C116.213 56.5516 116.384 56.4945 116.555 56.4374C116.726 56.3804 116.954 56.3804 117.181 56.3804C117.523 56.3804 117.865 56.4374 118.092 56.5516C118.377 56.6657 118.605 56.8369 118.776 57.0652C118.946 57.2934 119.117 57.5217 119.174 57.8641C119.288 58.1494 119.288 58.4918 119.288 58.8342V62.9429H117.751V58.8342C117.751 58.4347 117.637 58.1494 117.466 57.9211C117.295 57.6929 117.01 57.5787 116.669 57.5787C116.384 57.5787 116.156 57.6358 115.929 57.7499C115.701 57.8641 115.473 58.0353 115.245 58.2635V62.9429H113.708V62.8858Z" fill="#212121"/>
<path opacity="0.9" d="M121.623 62.8857V56.4373H122.591C122.818 56.4373 122.932 56.5514 122.989 56.7226L123.103 57.1792C123.217 57.065 123.331 56.9509 123.445 56.8368C123.559 56.7226 123.672 56.6656 123.843 56.5514C123.957 56.4944 124.128 56.4373 124.299 56.3802C124.47 56.3232 124.64 56.3232 124.811 56.3232C125.21 56.3232 125.551 56.4373 125.836 56.6656C126.121 56.8938 126.292 57.1792 126.405 57.5215C126.519 57.2933 126.633 57.1221 126.804 56.9509C126.975 56.7797 127.146 56.6656 127.317 56.5514C127.487 56.4373 127.715 56.3802 127.886 56.3232C128.057 56.2661 128.284 56.2661 128.512 56.2661C128.854 56.2661 129.196 56.3232 129.48 56.4373C129.765 56.5514 129.993 56.7226 130.163 56.8938C130.334 57.1221 130.505 57.3504 130.619 57.6357C130.733 57.921 130.79 58.2634 130.79 58.6629V62.7715H129.252V58.6629C129.252 58.2634 129.139 57.921 128.968 57.7498C128.797 57.5786 128.512 57.4645 128.171 57.4645C128 57.4645 127.886 57.4645 127.715 57.5215C127.601 57.5786 127.487 57.6357 127.373 57.7498C127.26 57.8639 127.203 57.9781 127.146 58.1493C127.089 58.3205 127.032 58.4917 127.032 58.6629V62.7715H125.381V58.6629C125.381 58.2063 125.267 57.921 125.096 57.6927C124.925 57.5215 124.64 57.4074 124.356 57.4074C124.128 57.4074 123.9 57.4645 123.729 57.5786C123.559 57.6927 123.331 57.8639 123.16 58.0351V62.7715H121.623V62.8857Z" fill="#212121"/>
<path opacity="0.9" d="M135.744 56.3232C136.199 56.3232 136.655 56.3803 137.053 56.5515C137.452 56.7227 137.794 56.951 138.078 57.2363C138.363 57.5216 138.591 57.864 138.705 58.2635C138.875 58.6629 138.932 59.1194 138.932 59.633C138.932 60.1466 138.875 60.6031 138.705 61.0026C138.534 61.402 138.363 61.7444 138.078 62.0298C137.794 62.3151 137.452 62.5433 137.053 62.7145C136.655 62.8857 136.199 62.9428 135.744 62.9428C135.288 62.9428 134.833 62.8857 134.434 62.7145C134.036 62.5433 133.694 62.3151 133.409 62.0298C133.125 61.7444 132.897 61.402 132.783 61.0026C132.669 60.6031 132.555 60.1466 132.555 59.633C132.555 59.1194 132.612 58.6629 132.783 58.2635C132.954 57.864 133.125 57.5216 133.409 57.2363C133.694 56.951 134.036 56.7227 134.434 56.5515C134.833 56.3803 135.231 56.3232 135.744 56.3232ZM135.744 61.8015C136.256 61.8015 136.655 61.6303 136.94 61.2879C137.224 60.9455 137.338 60.3749 137.338 59.6901C137.338 59.0053 137.224 58.4917 136.94 58.0923C136.655 57.7499 136.313 57.5216 135.744 57.5216C135.174 57.5216 134.776 57.6928 134.548 58.0923C134.263 58.4347 134.149 59.0053 134.149 59.6901C134.149 60.3749 134.263 60.8885 134.548 61.2879C134.776 61.5732 135.174 61.8015 135.744 61.8015Z" fill="#212121"/>
<path opacity="0.9" d="M140.925 62.8858V53.5271H142.463V57.1793C142.69 56.8939 143.032 56.6657 143.317 56.5516C143.658 56.3804 144 56.3233 144.456 56.3233C144.797 56.3233 145.139 56.3804 145.424 56.5516C145.708 56.7227 145.936 56.8939 146.164 57.1793C146.391 57.4646 146.562 57.807 146.676 58.2064C146.79 58.6059 146.847 59.0624 146.847 59.6331C146.847 60.0896 146.79 60.5461 146.676 60.9456C146.562 61.345 146.335 61.6874 146.107 62.0298C145.879 62.3151 145.594 62.5434 145.253 62.7146C144.911 62.8858 144.512 62.9429 144.114 62.9429C143.943 62.9429 143.715 62.9429 143.601 62.8858C143.488 62.8287 143.317 62.7717 143.146 62.7146C143.032 62.6575 142.861 62.5434 142.747 62.4293C142.633 62.3151 142.52 62.201 142.406 62.0869L142.349 62.5434C142.349 62.6575 142.292 62.7146 142.235 62.7717C142.178 62.8287 142.064 62.8287 142.007 62.8287H140.925V62.8858ZM143.943 57.5217C143.601 57.5217 143.374 57.5787 143.146 57.7499C142.918 57.8641 142.69 58.0923 142.52 58.3206V61.2309C142.69 61.4592 142.861 61.5733 143.089 61.6874C143.317 61.8016 143.545 61.8016 143.772 61.8016C144 61.8016 144.228 61.7445 144.399 61.6874C144.569 61.5733 144.74 61.4592 144.854 61.288C144.968 61.1168 145.082 60.8885 145.139 60.6032C145.196 60.3179 145.253 60.0325 145.253 59.6331C145.253 59.2336 145.196 58.9483 145.139 58.663C145.082 58.3776 144.968 58.2064 144.854 58.0353C144.74 57.8641 144.626 57.7499 144.456 57.6929C144.342 57.5787 144.114 57.5217 143.943 57.5217Z" fill="#212121"/>
<path opacity="0.9" d="M150.719 54.5543C150.719 54.6685 150.719 54.8397 150.662 54.9538C150.605 55.0679 150.548 55.1821 150.434 55.2391C150.32 55.3533 150.263 55.4103 150.093 55.4674C149.979 55.5244 149.865 55.5244 149.694 55.5244C149.58 55.5244 149.409 55.5244 149.295 55.4674C149.182 55.4103 149.068 55.3533 149.011 55.2391C148.897 55.125 148.84 55.0679 148.783 54.9538C148.726 54.8397 148.726 54.7255 148.726 54.5543C148.726 54.4402 148.726 54.269 148.783 54.1549C148.84 54.0408 148.897 53.9266 149.011 53.8696C149.125 53.7554 149.182 53.6984 149.295 53.6413C149.409 53.5842 149.523 53.5842 149.694 53.5842C149.808 53.5842 149.979 53.5842 150.093 53.6413C150.206 53.6984 150.32 53.7554 150.434 53.8696C150.548 53.9837 150.605 54.0408 150.662 54.1549C150.719 54.269 150.719 54.4402 150.719 54.5543ZM150.491 56.4375V62.8859H148.954V56.4375H150.491Z" fill="#212121"/>
<path opacity="0.9" d="M154.705 53.5271V62.8287H153.167V53.5271H154.705Z" fill="#212121"/>
<path opacity="0.9" d="M159.146 54.5543C159.146 54.6685 159.146 54.8397 159.089 54.9538C159.032 55.0679 158.975 55.1821 158.861 55.2391C158.747 55.3533 158.69 55.4103 158.519 55.4674C158.406 55.5244 158.292 55.5244 158.121 55.5244C158.007 55.5244 157.836 55.5244 157.722 55.4674C157.608 55.4103 157.494 55.3533 157.438 55.2391C157.381 55.125 157.267 55.0679 157.21 54.9538C157.153 54.8397 157.153 54.7255 157.153 54.5543C157.153 54.4402 157.153 54.269 157.21 54.1549C157.267 54.0408 157.324 53.9266 157.438 53.8696C157.551 53.7554 157.608 53.6984 157.722 53.6413C157.836 53.5842 157.95 53.5842 158.121 53.5842C158.235 53.5842 158.406 53.5842 158.519 53.6413C158.633 53.6984 158.747 53.7554 158.861 53.8696C158.975 53.9837 159.032 54.0408 159.089 54.1549C159.146 54.269 159.146 54.4402 159.146 54.5543ZM158.918 56.4375V62.8859H157.381V56.4375H158.918Z" fill="#212121"/>
<path opacity="0.9" d="M166.548 62.8857H165.808C165.637 62.8857 165.523 62.8857 165.466 62.8287C165.409 62.7716 165.295 62.7145 165.295 62.5434L165.181 62.0868C165.01 62.258 164.84 62.3722 164.726 62.4863C164.555 62.6004 164.384 62.7145 164.213 62.7716C164.042 62.8287 163.872 62.8857 163.701 62.9428C163.53 62.9999 163.302 62.9999 163.075 62.9999C162.79 62.9999 162.562 62.9428 162.334 62.8857C162.107 62.8287 161.879 62.7145 161.765 62.5434C161.594 62.3722 161.48 62.201 161.366 61.9727C161.252 61.7444 161.252 61.5162 161.252 61.2308C161.252 61.0026 161.309 60.7743 161.423 60.489C161.537 60.2607 161.765 60.0325 162.05 59.8613C162.334 59.6901 162.733 59.5189 163.245 59.4048C163.758 59.2906 164.327 59.2336 165.067 59.2336V58.8341C165.067 58.3776 164.954 58.0923 164.783 57.864C164.612 57.6357 164.327 57.5787 163.986 57.5787C163.758 57.5787 163.53 57.6357 163.359 57.6928C163.188 57.7499 163.075 57.8069 162.904 57.864C162.79 57.9211 162.676 57.9781 162.562 58.0352C162.448 58.0923 162.334 58.1493 162.22 58.1493C162.107 58.1493 162.05 58.1493 161.936 58.0923C161.879 58.0352 161.822 57.9781 161.765 57.864L161.48 57.3504C162.22 56.6656 163.131 56.3232 164.156 56.3232C164.555 56.3232 164.84 56.3803 165.181 56.4944C165.466 56.6086 165.751 56.7798 165.921 57.008C166.092 57.2363 166.263 57.4645 166.377 57.8069C166.491 58.0923 166.548 58.4347 166.548 58.8341V62.8857ZM163.53 61.9156C163.701 61.9156 163.815 61.9156 163.986 61.8586C164.099 61.8015 164.27 61.8015 164.384 61.7444C164.498 61.6874 164.612 61.6303 164.726 61.5162C164.84 61.4591 164.954 61.345 165.067 61.2308V60.1466C164.612 60.1466 164.213 60.1466 163.929 60.2037C163.644 60.2607 163.359 60.3178 163.188 60.4319C163.018 60.5461 162.847 60.6031 162.79 60.7173C162.733 60.8314 162.676 60.9455 162.676 61.1167C162.676 61.402 162.733 61.5732 162.904 61.6874C163.075 61.8586 163.245 61.9156 163.53 61.9156Z" fill="#212121"/>
<path opacity="0.9" d="M168.883 62.8858V56.4374H169.794C169.965 56.4374 170.079 56.4945 170.135 56.5516C170.192 56.6086 170.249 56.7228 170.249 56.8369L170.363 57.6358C170.591 57.2363 170.876 56.951 171.16 56.7228C171.445 56.4945 171.844 56.3804 172.185 56.3804C172.527 56.3804 172.755 56.4374 172.982 56.6086L172.755 57.7499C172.755 57.807 172.698 57.8641 172.698 57.9211C172.641 57.9782 172.584 57.9782 172.527 57.9782C172.47 57.9782 172.356 57.9782 172.242 57.9211C172.128 57.8641 172.014 57.8641 171.787 57.8641C171.445 57.8641 171.217 57.9782 170.933 58.1494C170.648 58.3206 170.534 58.6059 170.363 58.9483V62.9429H168.883V62.8858Z" fill="#212121"/>
<path opacity="0.9" d="M176.683 54.5543C176.683 54.6685 176.683 54.8397 176.626 54.9538C176.569 55.0679 176.513 55.1821 176.399 55.2391C176.285 55.3533 176.228 55.4103 176.057 55.4674C175.943 55.5244 175.829 55.5244 175.658 55.5244C175.545 55.5244 175.374 55.5244 175.26 55.4674C175.146 55.4103 175.032 55.3533 174.975 55.2391C174.918 55.125 174.804 55.0679 174.747 54.9538C174.69 54.8397 174.69 54.7255 174.69 54.5543C174.69 54.4402 174.69 54.269 174.747 54.1549C174.804 54.0408 174.861 53.9266 174.975 53.8696C175.089 53.7554 175.146 53.6984 175.26 53.6413C175.374 53.5842 175.488 53.5842 175.658 53.5842C175.772 53.5842 175.943 53.5842 176.057 53.6413C176.171 53.6984 176.285 53.7554 176.399 53.8696C176.513 53.9837 176.569 54.0408 176.626 54.1549C176.626 54.269 176.683 54.4402 176.683 54.5543ZM176.456 56.4375V62.8859H174.918V56.4375H176.456Z" fill="#212121"/>
<path opacity="0.9" d="M181.751 56.3232C182.207 56.3232 182.662 56.3803 183.061 56.5515C183.459 56.7227 183.801 56.951 184.086 57.2363C184.37 57.5216 184.598 57.864 184.712 58.2635C184.883 58.6629 184.94 59.1194 184.94 59.633C184.94 60.1466 184.883 60.6031 184.712 61.0026C184.541 61.402 184.37 61.7444 184.086 62.0298C183.801 62.3151 183.459 62.5433 183.061 62.7145C182.662 62.8857 182.207 62.9428 181.751 62.9428C181.296 62.9428 180.84 62.8857 180.442 62.7145C180.043 62.5433 179.701 62.3151 179.417 62.0298C179.132 61.7444 178.904 61.402 178.79 61.0026C178.619 60.6031 178.562 60.1466 178.562 59.633C178.562 59.1194 178.619 58.6629 178.79 58.2635C178.961 57.864 179.132 57.5216 179.417 57.2363C179.701 56.951 180.043 56.7227 180.442 56.5515C180.84 56.4374 181.296 56.3232 181.751 56.3232ZM181.751 61.8015C182.264 61.8015 182.662 61.6303 182.947 61.2879C183.232 60.9455 183.345 60.3749 183.345 59.6901C183.345 59.0053 183.232 58.4917 182.947 58.0923C182.662 57.7499 182.321 57.5216 181.751 57.5216C181.182 57.5216 180.783 57.6928 180.555 58.0923C180.271 58.4347 180.157 59.0053 180.157 59.6901C180.157 60.3749 180.271 60.8885 180.555 61.2879C180.783 61.5732 181.182 61.8015 181.751 61.8015Z" fill="#212121"/>
<path opacity="0.9" d="M190.747 57.6928C190.69 57.7498 190.634 57.8069 190.634 57.8069C190.577 57.8069 190.52 57.8639 190.463 57.8639C190.406 57.8639 190.292 57.8639 190.235 57.8069C190.178 57.7498 190.064 57.6928 189.95 57.6928C189.836 57.6357 189.723 57.5786 189.552 57.5786C189.381 57.5216 189.21 57.5216 189.039 57.5216C188.755 57.5216 188.47 57.5786 188.299 57.6928C188.128 57.8069 188.014 57.9781 188.014 58.2063C188.014 58.3205 188.071 58.4346 188.128 58.5487C188.242 58.6629 188.356 58.7199 188.47 58.777C188.641 58.8341 188.811 58.8911 188.982 58.9482C189.153 59.0053 189.381 59.0623 189.552 59.1194C189.723 59.1765 189.95 59.2906 190.121 59.3476C190.292 59.4047 190.463 59.5188 190.634 59.69C190.804 59.8042 190.918 59.9754 190.975 60.1466C191.089 60.3178 191.089 60.546 191.089 60.8313C191.089 61.1167 191.032 61.402 190.918 61.6873C190.804 61.9726 190.634 62.2009 190.406 62.3721C190.178 62.5433 189.893 62.7145 189.609 62.8286C189.267 62.9428 188.925 62.9998 188.527 62.9998C188.299 62.9998 188.071 62.9998 187.9 62.9428C187.73 62.8857 187.502 62.8286 187.274 62.7716C187.103 62.7145 186.876 62.6004 186.762 62.5433C186.591 62.4292 186.477 62.315 186.306 62.258L186.648 61.6873C186.705 61.6303 186.762 61.5732 186.819 61.5161C186.876 61.4591 186.932 61.4591 187.046 61.4591C187.16 61.4591 187.217 61.4591 187.331 61.5161C187.445 61.5732 187.502 61.6303 187.616 61.6873C187.73 61.7444 187.844 61.8014 188.014 61.8585C188.185 61.9156 188.356 61.9156 188.584 61.9156C188.755 61.9156 188.925 61.9156 189.039 61.8585C189.153 61.8014 189.267 61.7444 189.381 61.6873C189.495 61.6303 189.552 61.5161 189.552 61.4591C189.552 61.402 189.609 61.2879 189.609 61.1737C189.609 61.0025 189.552 60.8884 189.495 60.8313C189.381 60.7172 189.267 60.6601 189.153 60.6031C188.982 60.546 188.811 60.4889 188.641 60.4319C188.47 60.3748 188.242 60.3178 188.071 60.2607C187.9 60.2036 187.673 60.0895 187.502 60.0324C187.331 59.9183 187.16 59.8042 186.989 59.69C186.819 59.5759 186.705 59.4047 186.648 59.1765C186.534 58.9482 186.534 58.7199 186.534 58.4346C186.534 58.1493 186.591 57.921 186.705 57.6928C186.819 57.4645 186.989 57.2362 187.16 57.065C187.331 56.8938 187.616 56.7226 187.9 56.6656C188.185 56.5514 188.527 56.4944 188.925 56.4944C189.381 56.4944 189.779 56.5514 190.121 56.7226C190.463 56.8938 190.804 57.065 191.032 57.2933L190.747 57.6928Z" fill="#212121"/>
</g>
<path d="M50.0497 33.8968V33.7256C51.2454 33.3262 52.3273 32.5273 53.1244 31.5001C54.6049 29.3887 54.7188 26.5354 53.3522 24.3099C52.7259 23.3398 51.8148 22.5409 50.733 22.0273C49.5942 21.4566 48.2846 21.1713 47.0319 21.2284H32.1138V47.5354H47.0319C49.1387 47.5925 51.1316 46.9648 52.7828 45.6523C54.2632 44.3968 55.0604 42.5707 55.0604 40.174C55.1173 38.6903 54.6049 37.2066 53.6938 36.0653C52.7828 34.924 51.4732 34.1251 50.0497 33.8968ZM37.6369 25.9648H45.7223C46.5195 25.9077 47.2597 26.193 47.886 26.7066C48.4554 27.3343 48.7401 28.1332 48.6832 28.9322C48.6832 29.674 48.3985 30.4159 47.8291 30.9294C47.1458 31.5001 46.3486 31.7854 45.4946 31.7284H37.6369V25.9648ZM48.4554 42.0001C47.8291 42.5708 46.975 42.8561 46.1209 42.8561H37.6369V36.3506H45.7792C46.7472 36.2936 47.7152 36.5789 48.4554 37.2637C49.0817 37.8914 49.4234 38.6903 49.3664 39.5463C49.4234 40.4593 49.0817 41.3153 48.4554 42.0001Z" fill="#EA5F32"/>
<path d="M76.1848 21.1143L58.9891 39.1469L58.9321 39.2039V47.7066L76.1848 29.5028L92.925 47.7066V39.2039L76.1848 21.1143Z" fill="#EA5F32"/>
<path d="M113.651 21V37.2636C113.651 39.1467 113.139 40.5734 112.171 41.6005C111.203 42.6277 109.78 43.0842 107.957 43.0842C106.135 43.0842 104.769 42.5707 103.801 41.6005C102.833 40.6304 102.32 39.2038 102.32 37.2636V21H96.7974V37.5489C96.7974 40.9158 97.7653 43.4266 99.7013 45.1957C101.637 46.9647 104.37 47.8207 107.901 47.8207C111.431 47.8207 114.221 46.9647 116.157 45.1957C118.093 43.4837 119.118 40.9158 119.118 37.5489V21H113.651Z" fill="#EA5F32"/>
<path d="M123.046 26.022H131.132V47.5356H136.598V26.022H144.683V21.2285H123.046V26.022Z" fill="#949CA3"/>
<path d="M154.021 36.4649H167.345V31.7285H154.021V25.9649H168.996V21.2285H148.555V47.5356H169.224V42.7992H154.021V36.4649Z" fill="#949CA3"/>
<path d="M179.303 33.8966L192 21.2852H183.801L171.16 33.8966L183.63 47.4781H192L179.303 33.8966Z" fill="#949CA3"/>
</g>
<defs>
<clipPath id="clip0">
<rect width="160" height="42" fill="white" transform="translate(32 21)"/>
</clipPath>
</defs>
</svg>
