<svg width="23" height="14" viewBox="0 0 23 14" fill="none" xmlns="http://www.w3.org/2000/svg">
<path d="M1.02222 0C0.46 0 0 0.42 0 0.933333V13.0667C0 13.58 0.46 14 1.02222 14H21.9778C22.54 14 23 13.58 23 13.0667V0.933333C23 0.42 22.54 0 21.9778 0H1.02222ZM2.53 1.4H20.4444L11.5 8.4L2.53 1.4ZM1.53333 2.42666L6.92556 6.65L1.53333 11.5733V2.42666ZM21.4667 2.42666V11.5733L16.0744 6.65L21.4667 2.42666ZM8.10111 7.58333L11.0144 9.87C11.2956 10.08 11.73 10.08 12.0111 9.87L14.9244 7.58333L20.4189 12.6H2.60667L8.10111 7.58333Z" fill="#EA5F32"/>
</svg>
