<svg width="22" height="22" viewBox="0 0 22 22" fill="none" xmlns="http://www.w3.org/2000/svg">
<path d="M15.4088 22C12.8421 22 9.32984 20.8861 5.2502 16.6752C0.73828 12.0025 -0.0992617 8.17191 0.00880822 5.7812C0.0898607 3.74366 0.900386 1.86912 2.17021 0.755271C2.98073 0.0489241 3.95336 -0.168413 4.98003 0.130426C6.84423 0.673769 8.57335 2.87431 8.97861 4.23267C9.43791 5.75403 8.41125 6.94939 7.57371 7.9274C7.19546 8.36208 6.62809 9.04126 6.68213 9.28576C6.81722 9.80194 8.57335 11.9481 11.5993 14.855C12.707 15.9146 13.0583 15.6429 13.7877 14.8822C13.9769 14.692 14.139 14.5019 14.3011 14.3117C14.9495 13.5782 15.6249 12.8175 16.9488 12.6817C18.7589 12.4915 20.9474 14.7464 21.6498 15.8059C22.5954 17.2186 21.4877 19.3648 19.9747 20.6416C19.9207 20.6416 18.2456 22 15.4088 22ZM4.08845 1.62462C3.76424 1.62462 3.49406 1.73329 3.22389 1.97779C2.27828 2.81998 1.65688 4.25984 1.60284 5.83553C1.52179 7.90024 2.27828 11.269 6.41195 15.5342C12.68 22.0272 17.5702 20.5058 18.9211 19.3648C19.9477 18.4954 20.6232 17.1914 20.2989 16.7024C19.5425 15.5885 17.8674 14.2302 17.1109 14.3117C16.4354 14.366 16.1383 14.692 15.5168 15.3984C15.3547 15.5885 15.1656 15.8059 14.9495 16.0232C13.9498 17.0556 12.5179 18.0064 10.4646 16.0504C8.60037 14.2574 5.38529 11.0245 5.0881 9.69327C4.84494 8.63375 5.60143 7.73723 6.3309 6.89505C7.11441 5.99853 7.60072 5.34652 7.4116 4.74884C7.11441 3.79799 5.76353 2.08646 4.52073 1.73329C4.38564 1.65179 4.22354 1.62462 4.08845 1.62462Z" fill="#EA5F32"/>
</svg>
