<svg width="47" height="44" viewBox="0 0 47 44" fill="none" xmlns="http://www.w3.org/2000/svg">
<path d="M24.85 15V15.15H25H29H29.15V15V12V11.85H29H25H24.85V12V15ZM25.9443 12.857H28.0557V14.1366H25.9443V12.857Z" fill="#EA5F32" stroke="#EA5F32" stroke-width="0.3"/>
<path d="M14.8495 15V15.15H14.9995H17.9995H18.1495V15V12V11.85H17.9995H14.9995H14.8495V12V15ZM16.0479 12.857H16.9591V14.1366H16.0479V12.857Z" fill="#EA5F32" stroke="#EA5F32" stroke-width="0.3"/>
<path d="M25.1495 7V6.85H24.9995H14.9995H14.8495V7V9V9.15H14.9995H24.9995H25.1495V9V7ZM23.9741 8.29913H16.0328V7.70583H23.9741V8.29913Z" fill="#EA5F32" stroke="#EA5F32" stroke-width="0.3"/>
<path d="M14.8495 18V18.15H14.9995H20.2878H22.1031H22.8042H24.8881H30.681H32.4962H32.6462V18V17.208V17.058H32.6266V12.2884C33.2378 12.0249 33.8195 11.4518 34.2598 10.6393L34.2602 10.6385C34.8379 9.55857 35.1495 8.14706 35.1495 6.65724C35.1495 5.16739 34.8313 3.74895 34.2538 2.67613C33.6438 1.51917 32.7836 0.85 31.8147 0.85C30.8459 0.85 29.9856 1.51908 29.3756 2.66909C28.7982 3.74875 28.4799 5.16712 28.4799 6.65724C28.4799 7.69824 28.6352 8.67861 28.9199 9.56922H26.4863V4.87521V4.72521H26.3363H14.9995H14.8495V4.87521V17.208V18ZM32.902 6.39432L32.6266 6.89782V5.28536V5.13536H32.4766H31.7426H31.5926V5.28536V8.40276L30.4444 6.38505L30.3652 6.24589L30.2315 6.33398L29.609 6.74413L29.5153 6.80585C29.5144 6.75192 29.5139 6.69779 29.5139 6.64347C29.5171 5.34723 29.7935 4.1564 30.2269 3.29495C30.6655 2.42307 31.2382 1.93494 31.8147 1.93494C32.3915 1.93494 32.9674 2.42346 33.4084 3.29525C33.8442 4.15661 34.1221 5.34724 34.1221 6.6431C34.1221 7.71892 33.9316 8.72384 33.6179 9.52862C33.3536 10.2067 33.0075 10.729 32.6266 11.0388V9.07866L33.7943 6.9413L33.8614 6.81855L33.7436 6.74309L33.1145 6.34001L32.9791 6.25327L32.902 6.39432ZM30.1989 9.94228C29.8034 9.1349 29.5454 8.05042 29.5166 6.86502L29.5611 6.94343L31.5926 10.5225V11.3289C31.0796 11.2166 30.5839 10.7281 30.1989 9.94228ZM20.1313 10.6612V17.058H15.8835V5.81722H25.4524V9.56922H20.2878H18.7544H18.6044V9.71922V10.5112V10.6612H18.7544H20.1313ZM29.8102 11.3044V17.058H25.0512V12.0882V11.9382H24.9012H22.0965H21.9465V12.0882V17.058H21.1652V10.6612H28.9314H29.3881C29.5185 10.8991 29.6646 11.1119 29.8102 11.3044ZM22.9804 17.058V13.0302H24.0173V17.058H22.9804ZM31.5926 12.4329V17.058H30.8441V12.2048C31.0792 12.3279 31.3283 12.405 31.5926 12.4329Z" fill="#EA5F32" stroke="#EA5F32" stroke-width="0.3"/>
<mask id="path-5-outside-1" maskUnits="userSpaceOnUse" x="0" y="19" width="47" height="25" fill="black">
<rect fill="white" y="19" width="47" height="25"/>
<path d="M46 31.5529V20.374C46 20.1411 45.805 20 45.631 20H26.1006C25.9892 20 25.9265 20.0282 25.843 20.1129L24.0675 21.9126L22.292 20.1129C22.2084 20.0282 22.1388 20 22.0343 20H1.36902C1.13925 20 1 20.1411 1 20.374V31.5529C1 31.7858 1.13925 31.927 1.36902 31.927H13.317L13.2335 32.2022C13.0176 32.9221 13.1987 33.7195 13.7069 34.2912C14.069 34.6582 14.5982 34.8699 15.1204 34.8699H15.4685L15.4476 35.1028C15.3919 35.6321 15.6147 36.2249 16.0255 36.6413C16.3876 37.0083 16.9168 37.2271 17.4459 37.2271H17.7941L17.7732 37.46C17.7175 37.9893 17.9403 38.5821 18.3511 38.9985C18.7131 39.3654 19.2423 39.5842 19.7715 39.5842H20.1196L20.0987 39.8171C20.043 40.3464 20.2658 40.9392 20.6766 41.3556C21.0387 41.7226 21.5678 41.9414 22.097 41.9414C22.5914 41.9414 23.0579 41.772 23.413 41.4615L23.5592 41.3345L24.6245 42.4142C24.9865 42.7812 25.5157 43 26.0449 43C26.574 43 27.1032 42.7812 27.4653 42.4142C27.8761 41.9979 28.0989 41.4121 28.0432 40.8757L28.0223 40.6428H28.3704C28.8996 40.6428 29.4287 40.4241 29.7908 40.0571C30.2016 39.6407 30.4244 39.0549 30.3687 38.5186L30.3478 38.2857H30.696C31.2251 38.2857 31.7543 38.0669 32.1164 37.6999C32.5272 37.2835 32.75 36.6978 32.6943 36.1614L32.6734 35.9285H33.0215C33.5507 35.9285 34.0798 35.7097 34.4419 35.3427C35.2217 34.5523 35.2217 33.2608 34.4419 32.4633L34.428 32.4492L34.0868 31.927H45.6449C45.8607 31.927 46 31.7858 46 31.5529ZM11.2143 31.1789H1.74501V20.7481H11.2143V31.1789ZM15.1273 34.1359C14.7862 34.1359 14.4589 34.0018 14.2222 33.7619C13.7348 33.2679 13.7348 32.428 14.2222 31.934L15.9629 30.1697C16.2692 29.8592 16.5895 29.8168 16.868 29.8168C17.2579 29.8168 17.5434 29.9932 17.7453 30.1556L17.7662 30.1767C17.996 30.4096 18.1352 30.7484 18.1352 31.0942C18.1352 31.44 18.0029 31.7717 17.7662 32.0117L16.0255 33.776C15.7958 33.9948 15.4685 34.1359 15.1273 34.1359ZM17.4529 36.486C17.1256 36.486 16.7984 36.359 16.5477 36.112C16.0603 35.618 16.0603 34.7782 16.5477 34.2841L18.2884 32.5198C18.5948 32.2093 18.9151 32.1669 19.1936 32.1669C19.5835 32.1669 19.8689 32.3434 20.0709 32.5057L20.0918 32.5268C20.5791 33.0209 20.5791 33.8607 20.0918 34.3547L18.3511 36.1191C18.1074 36.3661 17.7801 36.486 17.4529 36.486ZM19.7715 38.8432C19.4442 38.8432 19.117 38.7162 18.8663 38.4692C18.3789 37.9751 18.3789 37.1353 18.8663 36.6413L20.607 34.877C20.9134 34.5664 21.2336 34.5241 21.5121 34.5241C21.9021 34.5241 22.1875 34.7005 22.3894 34.8628L22.4103 34.884C22.8977 35.378 22.8977 36.2179 22.4103 36.7119L20.6697 38.4762C20.4329 38.7162 20.0987 38.8432 19.7715 38.8432ZM22.9952 40.8263C22.7654 41.0592 22.4312 41.2004 22.09 41.2004C21.7489 41.2004 21.4216 41.0663 21.1849 40.8263C20.9551 40.5934 20.8159 40.2547 20.8159 39.9089C20.8159 39.5631 20.9482 39.2314 21.1849 38.9914L22.9256 37.2271C23.2319 36.9165 23.5522 36.8742 23.8307 36.8742C24.2206 36.8742 24.5061 37.0506 24.708 37.2129L24.7289 37.2341C25.2163 37.7281 25.2163 38.568 24.7289 39.062L22.9952 40.8263ZM34.3375 33.9101C34.3375 34.2559 34.2052 34.5876 33.9684 34.8276C33.481 35.3216 32.6525 35.3216 32.1651 34.8276L31.1485 33.7972L30.6333 34.3194L31.6499 35.3498C32.1372 35.8438 32.1372 36.6836 31.6499 37.1777C31.4201 37.4106 31.0859 37.5517 30.7447 37.5517C30.4035 37.5517 30.0763 37.4176 29.8395 37.1777L28.823 36.1473L28.3078 36.6695L29.3243 37.6999C29.8117 38.1939 29.8117 39.0338 29.3243 39.5278C28.8369 40.0218 28.0084 40.0218 27.521 39.5278L26.4974 38.4903L25.9474 38.9844L27.0545 40.1065C27.2633 40.3182 27.3817 40.6358 27.3678 40.9745C27.3608 41.3133 27.2216 41.645 26.9918 41.8779C26.7481 42.1249 26.4209 42.2519 26.0866 42.2519C25.7594 42.2519 25.4321 42.1249 25.1815 41.8779L24.1023 40.784L25.2929 39.5772C25.4391 39.429 25.5436 39.2808 25.648 39.1255L25.7594 38.6244C25.9265 37.8905 25.7315 37.1494 25.2372 36.6413C24.8264 36.2249 24.2485 35.9991 23.7193 36.0555L23.4687 36.0838L23.4965 35.8297C23.5522 35.3004 23.3294 34.7076 22.9186 34.2912C22.5078 33.8748 21.9299 33.649 21.4007 33.7054L21.1501 33.7337L21.1779 33.4796C21.2336 32.9503 21.0108 32.3575 20.6 31.9411C20.1892 31.5247 19.6113 31.2989 19.0822 31.3553L18.8315 31.3836L18.8594 31.1295C18.9151 30.6002 18.6922 30.0074 18.2814 29.591C17.8985 29.2028 17.3972 28.9911 16.8611 28.9911C16.3249 28.9911 15.8236 29.2028 15.4407 29.591L13.9298 31.1859H11.9454V20.7481H21.8812L23.5383 22.4277L18.8594 27.1703C18.7758 27.255 18.7479 27.3256 18.7479 27.4314C18.7479 27.5443 18.7758 27.6079 18.8594 27.6925C19.7297 28.5747 20.8228 29.0405 22.0204 29.0405C23.218 29.0405 24.3112 28.5747 25.1815 27.6925L26.957 25.8929L33.9684 32.9926C34.2052 33.2255 34.3375 33.5643 34.3375 33.9101ZM35.5977 31.1789H33.2095L27.4931 25.3707L27.9596 24.8978L27.4444 24.3756L24.6871 27.1703C24.0675 27.7984 23.2319 28.1795 22.3337 28.2501C21.4495 28.3136 20.5791 28.0666 19.8898 27.5443L19.6949 27.3961L26.2538 20.7481H35.6047V31.1789H35.5977ZM45.255 31.1789H36.3427V20.7481H45.255V31.1789Z"/>
</mask>
<path d="M46 31.5529V20.374C46 20.1411 45.805 20 45.631 20H26.1006C25.9892 20 25.9265 20.0282 25.843 20.1129L24.0675 21.9126L22.292 20.1129C22.2084 20.0282 22.1388 20 22.0343 20H1.36902C1.13925 20 1 20.1411 1 20.374V31.5529C1 31.7858 1.13925 31.927 1.36902 31.927H13.317L13.2335 32.2022C13.0176 32.9221 13.1987 33.7195 13.7069 34.2912C14.069 34.6582 14.5982 34.8699 15.1204 34.8699H15.4685L15.4476 35.1028C15.3919 35.6321 15.6147 36.2249 16.0255 36.6413C16.3876 37.0083 16.9168 37.2271 17.4459 37.2271H17.7941L17.7732 37.46C17.7175 37.9893 17.9403 38.5821 18.3511 38.9985C18.7131 39.3654 19.2423 39.5842 19.7715 39.5842H20.1196L20.0987 39.8171C20.043 40.3464 20.2658 40.9392 20.6766 41.3556C21.0387 41.7226 21.5678 41.9414 22.097 41.9414C22.5914 41.9414 23.0579 41.772 23.413 41.4615L23.5592 41.3345L24.6245 42.4142C24.9865 42.7812 25.5157 43 26.0449 43C26.574 43 27.1032 42.7812 27.4653 42.4142C27.8761 41.9979 28.0989 41.4121 28.0432 40.8757L28.0223 40.6428H28.3704C28.8996 40.6428 29.4287 40.4241 29.7908 40.0571C30.2016 39.6407 30.4244 39.0549 30.3687 38.5186L30.3478 38.2857H30.696C31.2251 38.2857 31.7543 38.0669 32.1164 37.6999C32.5272 37.2835 32.75 36.6978 32.6943 36.1614L32.6734 35.9285H33.0215C33.5507 35.9285 34.0798 35.7097 34.4419 35.3427C35.2217 34.5523 35.2217 33.2608 34.4419 32.4633L34.428 32.4492L34.0868 31.927H45.6449C45.8607 31.927 46 31.7858 46 31.5529ZM11.2143 31.1789H1.74501V20.7481H11.2143V31.1789ZM15.1273 34.1359C14.7862 34.1359 14.4589 34.0018 14.2222 33.7619C13.7348 33.2679 13.7348 32.428 14.2222 31.934L15.9629 30.1697C16.2692 29.8592 16.5895 29.8168 16.868 29.8168C17.2579 29.8168 17.5434 29.9932 17.7453 30.1556L17.7662 30.1767C17.996 30.4096 18.1352 30.7484 18.1352 31.0942C18.1352 31.44 18.0029 31.7717 17.7662 32.0117L16.0255 33.776C15.7958 33.9948 15.4685 34.1359 15.1273 34.1359ZM17.4529 36.486C17.1256 36.486 16.7984 36.359 16.5477 36.112C16.0603 35.618 16.0603 34.7782 16.5477 34.2841L18.2884 32.5198C18.5948 32.2093 18.9151 32.1669 19.1936 32.1669C19.5835 32.1669 19.8689 32.3434 20.0709 32.5057L20.0918 32.5268C20.5791 33.0209 20.5791 33.8607 20.0918 34.3547L18.3511 36.1191C18.1074 36.3661 17.7801 36.486 17.4529 36.486ZM19.7715 38.8432C19.4442 38.8432 19.117 38.7162 18.8663 38.4692C18.3789 37.9751 18.3789 37.1353 18.8663 36.6413L20.607 34.877C20.9134 34.5664 21.2336 34.5241 21.5121 34.5241C21.9021 34.5241 22.1875 34.7005 22.3894 34.8628L22.4103 34.884C22.8977 35.378 22.8977 36.2179 22.4103 36.7119L20.6697 38.4762C20.4329 38.7162 20.0987 38.8432 19.7715 38.8432ZM22.9952 40.8263C22.7654 41.0592 22.4312 41.2004 22.09 41.2004C21.7489 41.2004 21.4216 41.0663 21.1849 40.8263C20.9551 40.5934 20.8159 40.2547 20.8159 39.9089C20.8159 39.5631 20.9482 39.2314 21.1849 38.9914L22.9256 37.2271C23.2319 36.9165 23.5522 36.8742 23.8307 36.8742C24.2206 36.8742 24.5061 37.0506 24.708 37.2129L24.7289 37.2341C25.2163 37.7281 25.2163 38.568 24.7289 39.062L22.9952 40.8263ZM34.3375 33.9101C34.3375 34.2559 34.2052 34.5876 33.9684 34.8276C33.481 35.3216 32.6525 35.3216 32.1651 34.8276L31.1485 33.7972L30.6333 34.3194L31.6499 35.3498C32.1372 35.8438 32.1372 36.6836 31.6499 37.1777C31.4201 37.4106 31.0859 37.5517 30.7447 37.5517C30.4035 37.5517 30.0763 37.4176 29.8395 37.1777L28.823 36.1473L28.3078 36.6695L29.3243 37.6999C29.8117 38.1939 29.8117 39.0338 29.3243 39.5278C28.8369 40.0218 28.0084 40.0218 27.521 39.5278L26.4974 38.4903L25.9474 38.9844L27.0545 40.1065C27.2633 40.3182 27.3817 40.6358 27.3678 40.9745C27.3608 41.3133 27.2216 41.645 26.9918 41.8779C26.7481 42.1249 26.4209 42.2519 26.0866 42.2519C25.7594 42.2519 25.4321 42.1249 25.1815 41.8779L24.1023 40.784L25.2929 39.5772C25.4391 39.429 25.5436 39.2808 25.648 39.1255L25.7594 38.6244C25.9265 37.8905 25.7315 37.1494 25.2372 36.6413C24.8264 36.2249 24.2485 35.9991 23.7193 36.0555L23.4687 36.0838L23.4965 35.8297C23.5522 35.3004 23.3294 34.7076 22.9186 34.2912C22.5078 33.8748 21.9299 33.649 21.4007 33.7054L21.1501 33.7337L21.1779 33.4796C21.2336 32.9503 21.0108 32.3575 20.6 31.9411C20.1892 31.5247 19.6113 31.2989 19.0822 31.3553L18.8315 31.3836L18.8594 31.1295C18.9151 30.6002 18.6922 30.0074 18.2814 29.591C17.8985 29.2028 17.3972 28.9911 16.8611 28.9911C16.3249 28.9911 15.8236 29.2028 15.4407 29.591L13.9298 31.1859H11.9454V20.7481H21.8812L23.5383 22.4277L18.8594 27.1703C18.7758 27.255 18.7479 27.3256 18.7479 27.4314C18.7479 27.5443 18.7758 27.6079 18.8594 27.6925C19.7297 28.5747 20.8228 29.0405 22.0204 29.0405C23.218 29.0405 24.3112 28.5747 25.1815 27.6925L26.957 25.8929L33.9684 32.9926C34.2052 33.2255 34.3375 33.5643 34.3375 33.9101ZM35.5977 31.1789H33.2095L27.4931 25.3707L27.9596 24.8978L27.4444 24.3756L24.6871 27.1703C24.0675 27.7984 23.2319 28.1795 22.3337 28.2501C21.4495 28.3136 20.5791 28.0666 19.8898 27.5443L19.6949 27.3961L26.2538 20.7481H35.6047V31.1789H35.5977ZM45.255 31.1789H36.3427V20.7481H45.255V31.1789Z" fill="#EA5F32"/>
<path d="M46 31.5529V20.374C46 20.1411 45.805 20 45.631 20H26.1006C25.9892 20 25.9265 20.0282 25.843 20.1129L24.0675 21.9126L22.292 20.1129C22.2084 20.0282 22.1388 20 22.0343 20H1.36902C1.13925 20 1 20.1411 1 20.374V31.5529C1 31.7858 1.13925 31.927 1.36902 31.927H13.317L13.2335 32.2022C13.0176 32.9221 13.1987 33.7195 13.7069 34.2912C14.069 34.6582 14.5982 34.8699 15.1204 34.8699H15.4685L15.4476 35.1028C15.3919 35.6321 15.6147 36.2249 16.0255 36.6413C16.3876 37.0083 16.9168 37.2271 17.4459 37.2271H17.7941L17.7732 37.46C17.7175 37.9893 17.9403 38.5821 18.3511 38.9985C18.7131 39.3654 19.2423 39.5842 19.7715 39.5842H20.1196L20.0987 39.8171C20.043 40.3464 20.2658 40.9392 20.6766 41.3556C21.0387 41.7226 21.5678 41.9414 22.097 41.9414C22.5914 41.9414 23.0579 41.772 23.413 41.4615L23.5592 41.3345L24.6245 42.4142C24.9865 42.7812 25.5157 43 26.0449 43C26.574 43 27.1032 42.7812 27.4653 42.4142C27.8761 41.9979 28.0989 41.4121 28.0432 40.8757L28.0223 40.6428H28.3704C28.8996 40.6428 29.4287 40.4241 29.7908 40.0571C30.2016 39.6407 30.4244 39.0549 30.3687 38.5186L30.3478 38.2857H30.696C31.2251 38.2857 31.7543 38.0669 32.1164 37.6999C32.5272 37.2835 32.75 36.6978 32.6943 36.1614L32.6734 35.9285H33.0215C33.5507 35.9285 34.0798 35.7097 34.4419 35.3427C35.2217 34.5523 35.2217 33.2608 34.4419 32.4633L34.428 32.4492L34.0868 31.927H45.6449C45.8607 31.927 46 31.7858 46 31.5529ZM11.2143 31.1789H1.74501V20.7481H11.2143V31.1789ZM15.1273 34.1359C14.7862 34.1359 14.4589 34.0018 14.2222 33.7619C13.7348 33.2679 13.7348 32.428 14.2222 31.934L15.9629 30.1697C16.2692 29.8592 16.5895 29.8168 16.868 29.8168C17.2579 29.8168 17.5434 29.9932 17.7453 30.1556L17.7662 30.1767C17.996 30.4096 18.1352 30.7484 18.1352 31.0942C18.1352 31.44 18.0029 31.7717 17.7662 32.0117L16.0255 33.776C15.7958 33.9948 15.4685 34.1359 15.1273 34.1359ZM17.4529 36.486C17.1256 36.486 16.7984 36.359 16.5477 36.112C16.0603 35.618 16.0603 34.7782 16.5477 34.2841L18.2884 32.5198C18.5948 32.2093 18.9151 32.1669 19.1936 32.1669C19.5835 32.1669 19.8689 32.3434 20.0709 32.5057L20.0918 32.5268C20.5791 33.0209 20.5791 33.8607 20.0918 34.3547L18.3511 36.1191C18.1074 36.3661 17.7801 36.486 17.4529 36.486ZM19.7715 38.8432C19.4442 38.8432 19.117 38.7162 18.8663 38.4692C18.3789 37.9751 18.3789 37.1353 18.8663 36.6413L20.607 34.877C20.9134 34.5664 21.2336 34.5241 21.5121 34.5241C21.9021 34.5241 22.1875 34.7005 22.3894 34.8628L22.4103 34.884C22.8977 35.378 22.8977 36.2179 22.4103 36.7119L20.6697 38.4762C20.4329 38.7162 20.0987 38.8432 19.7715 38.8432ZM22.9952 40.8263C22.7654 41.0592 22.4312 41.2004 22.09 41.2004C21.7489 41.2004 21.4216 41.0663 21.1849 40.8263C20.9551 40.5934 20.8159 40.2547 20.8159 39.9089C20.8159 39.5631 20.9482 39.2314 21.1849 38.9914L22.9256 37.2271C23.2319 36.9165 23.5522 36.8742 23.8307 36.8742C24.2206 36.8742 24.5061 37.0506 24.708 37.2129L24.7289 37.2341C25.2163 37.7281 25.2163 38.568 24.7289 39.062L22.9952 40.8263ZM34.3375 33.9101C34.3375 34.2559 34.2052 34.5876 33.9684 34.8276C33.481 35.3216 32.6525 35.3216 32.1651 34.8276L31.1485 33.7972L30.6333 34.3194L31.6499 35.3498C32.1372 35.8438 32.1372 36.6836 31.6499 37.1777C31.4201 37.4106 31.0859 37.5517 30.7447 37.5517C30.4035 37.5517 30.0763 37.4176 29.8395 37.1777L28.823 36.1473L28.3078 36.6695L29.3243 37.6999C29.8117 38.1939 29.8117 39.0338 29.3243 39.5278C28.8369 40.0218 28.0084 40.0218 27.521 39.5278L26.4974 38.4903L25.9474 38.9844L27.0545 40.1065C27.2633 40.3182 27.3817 40.6358 27.3678 40.9745C27.3608 41.3133 27.2216 41.645 26.9918 41.8779C26.7481 42.1249 26.4209 42.2519 26.0866 42.2519C25.7594 42.2519 25.4321 42.1249 25.1815 41.8779L24.1023 40.784L25.2929 39.5772C25.4391 39.429 25.5436 39.2808 25.648 39.1255L25.7594 38.6244C25.9265 37.8905 25.7315 37.1494 25.2372 36.6413C24.8264 36.2249 24.2485 35.9991 23.7193 36.0555L23.4687 36.0838L23.4965 35.8297C23.5522 35.3004 23.3294 34.7076 22.9186 34.2912C22.5078 33.8748 21.9299 33.649 21.4007 33.7054L21.1501 33.7337L21.1779 33.4796C21.2336 32.9503 21.0108 32.3575 20.6 31.9411C20.1892 31.5247 19.6113 31.2989 19.0822 31.3553L18.8315 31.3836L18.8594 31.1295C18.9151 30.6002 18.6922 30.0074 18.2814 29.591C17.8985 29.2028 17.3972 28.9911 16.8611 28.9911C16.3249 28.9911 15.8236 29.2028 15.4407 29.591L13.9298 31.1859H11.9454V20.7481H21.8812L23.5383 22.4277L18.8594 27.1703C18.7758 27.255 18.7479 27.3256 18.7479 27.4314C18.7479 27.5443 18.7758 27.6079 18.8594 27.6925C19.7297 28.5747 20.8228 29.0405 22.0204 29.0405C23.218 29.0405 24.3112 28.5747 25.1815 27.6925L26.957 25.8929L33.9684 32.9926C34.2052 33.2255 34.3375 33.5643 34.3375 33.9101ZM35.5977 31.1789H33.2095L27.4931 25.3707L27.9596 24.8978L27.4444 24.3756L24.6871 27.1703C24.0675 27.7984 23.2319 28.1795 22.3337 28.2501C21.4495 28.3136 20.5791 28.0666 19.8898 27.5443L19.6949 27.3961L26.2538 20.7481H35.6047V31.1789H35.5977ZM45.255 31.1789H36.3427V20.7481H45.255V31.1789Z" stroke="#EA5F32" stroke-width="0.6" mask="url(#path-5-outside-1)"/>
<mask id="path-6-outside-2" maskUnits="userSpaceOnUse" x="0" y="19" width="47" height="25" fill="black">
<rect fill="white" y="19" width="47" height="25"/>
<path d="M26.0409 43C25.5056 43 24.9634 42.7748 24.6019 42.4088L23.5591 41.3531L23.434 41.4587C23.0725 41.7754 22.5997 41.9443 22.0992 41.9443C21.5639 41.9443 21.0216 41.7191 20.6601 41.3531C20.243 40.9308 20.0205 40.3326 20.0692 39.7907L20.0901 39.6007H19.7842C19.2489 39.6007 18.7066 39.3755 18.3451 39.0095C17.928 38.5872 17.7055 37.989 17.7542 37.4471L17.7751 37.257H17.4692C16.9339 37.257 16.3916 37.0318 16.0301 36.6659C15.613 36.2436 15.3905 35.6453 15.4392 35.1034L15.4601 34.9134H15.1542C14.6189 34.9134 14.0836 34.6952 13.7151 34.3222C13.1937 33.7451 13.013 32.9287 13.2354 32.2038L13.305 31.9786H1.40321C1.15294 31.9786 1 31.8237 1 31.5704V20.4082C1 20.1548 1.15294 20 1.40321 20H22.0366C22.1548 20 22.2313 20.0352 22.3216 20.1267L24.0666 21.8932L25.8115 20.1267C25.9019 20.0352 25.9784 20 26.0966 20H45.5968C45.7914 20 46 20.1548 46 20.4082V31.5563C46 31.8097 45.8471 31.9645 45.5968 31.9645H34.1191L34.4389 32.4431C35.2314 33.2454 35.2314 34.5615 34.4389 35.3638C34.0704 35.7368 33.5351 35.955 32.9998 35.955H32.694L32.7148 36.145C32.7704 36.687 32.541 37.2852 32.1239 37.7075C31.7554 38.0805 31.2201 38.2987 30.6848 38.2987H30.379L30.3998 38.4887C30.4554 39.0306 30.226 39.6288 29.8089 40.0511C29.4404 40.4241 28.9051 40.6423 28.3698 40.6423H28.064L28.0848 40.8323C28.1404 41.3742 27.911 41.9725 27.4939 42.3947C27.1115 42.7748 26.5762 43 26.0409 43ZM23.5591 41.2687C23.566 41.2687 23.5799 41.2687 23.5869 41.2757L24.6505 42.3525C25.0051 42.7114 25.5265 42.9226 26.0409 42.9226C26.5554 42.9226 27.0768 42.7114 27.4313 42.3525C27.8345 41.9443 28.0501 41.3672 28.0014 40.8464L27.9805 40.6141C27.9805 40.6071 27.9805 40.593 27.9875 40.586C27.9944 40.5789 28.0014 40.5719 28.0153 40.5719H28.3629C28.8773 40.5719 29.3987 40.3608 29.7533 40.0018C30.1565 39.5936 30.372 39.0165 30.3233 38.4957L30.3025 38.2635C30.3025 38.2564 30.3025 38.2423 30.3094 38.2353C30.3164 38.2283 30.3233 38.2212 30.3372 38.2212H30.6848C31.1993 38.2212 31.7207 38.0101 32.0752 37.6512C32.4784 37.243 32.694 36.6658 32.6453 36.145L32.6244 35.9128C32.6244 35.9058 32.6244 35.8917 32.6314 35.8846C32.6383 35.8776 32.6453 35.8706 32.6592 35.8706H33.0068C33.5212 35.8706 34.0426 35.6594 34.3972 35.3005C35.1619 34.5263 35.1619 33.2595 34.3972 32.4783L34.3833 32.4642L34.0357 31.9364C34.0287 31.9223 34.0287 31.9082 34.0357 31.9012C34.0426 31.8871 34.0565 31.88 34.0635 31.88H45.6037C45.8192 31.88 45.9374 31.7534 45.9374 31.5422V20.4082C45.9374 20.1971 45.7636 20.0704 45.6037 20.0704H26.0966C25.9992 20.0704 25.9436 20.0985 25.8602 20.1759L24.0874 21.9706C24.0735 21.9847 24.0527 21.9847 24.0388 21.9706L22.273 20.1689C22.1965 20.0915 22.1409 20.0633 22.0366 20.0633H1.40321C1.1877 20.0633 1.06952 20.19 1.06952 20.4012V31.5493C1.06952 31.7674 1.19465 31.8871 1.40321 31.8871H13.3328C13.3467 31.8871 13.3536 31.8941 13.3606 31.9012C13.3675 31.9082 13.3675 31.9223 13.3675 31.9293L13.2841 32.2038C13.0686 32.9076 13.2493 33.6888 13.7499 34.2518C14.1044 34.6108 14.6258 34.8219 15.1403 34.8219H15.4879C15.4948 34.8219 15.5087 34.8289 15.5157 34.836C15.5226 34.843 15.5226 34.8501 15.5226 34.8641L15.5018 35.0964C15.4531 35.6172 15.6686 36.1943 16.0718 36.6025C16.4264 36.9614 16.9478 37.1726 17.4622 37.1726H17.8098C17.8168 37.1726 17.8307 37.1796 17.8376 37.1867C17.8446 37.1937 17.8446 37.2007 17.8446 37.2148L17.8237 37.4471C17.7751 37.9679 17.9906 38.545 18.3938 38.9532C18.7483 39.3121 19.2697 39.5233 19.7842 39.5233H20.1318C20.1387 39.5233 20.1526 39.5303 20.1596 39.5373C20.1665 39.5444 20.1665 39.5514 20.1665 39.5655L20.1457 39.7977C20.097 40.3185 20.3125 40.8957 20.7157 41.3039C21.0703 41.6628 21.5917 41.8739 22.1061 41.8739C22.5928 41.8739 23.0516 41.705 23.3992 41.4024L23.5452 41.2757C23.5382 41.2687 23.5521 41.2687 23.5591 41.2687ZM26.0966 42.261C25.742 42.261 25.4153 42.1273 25.1719 41.881L24.0944 40.7901C24.0805 40.776 24.0805 40.7549 24.0944 40.7408L25.2832 39.5373C25.4222 39.3966 25.5265 39.2488 25.6238 39.0939L25.7351 38.6013C25.9019 37.8764 25.7072 37.1515 25.2206 36.6588C24.8174 36.2506 24.2473 36.0324 23.7329 36.0817L23.4826 36.1099C23.4687 36.1099 23.4618 36.1099 23.4548 36.1028C23.4479 36.0958 23.4409 36.0817 23.4479 36.0747L23.4757 35.8213C23.5243 35.3005 23.3088 34.7234 22.9056 34.3152C22.5024 33.907 21.9323 33.6888 21.4179 33.7381L21.1676 33.7662C21.1537 33.7662 21.1468 33.7662 21.1398 33.7592C21.1329 33.7521 21.1259 33.7381 21.1329 33.731L21.1607 33.4777C21.2093 32.9569 20.9938 32.3797 20.5906 31.9715C20.1874 31.5633 19.6173 31.3452 19.1029 31.3944L18.8526 31.4226C18.8387 31.4226 18.8318 31.4226 18.8248 31.4155C18.8179 31.4085 18.8109 31.3944 18.8179 31.3874L18.8457 31.134C18.8943 30.6132 18.6788 30.0361 18.2756 29.6279C17.9002 29.2479 17.4066 29.0367 16.8852 29.0367C16.3638 29.0367 15.8633 29.2479 15.4948 29.6279L13.9863 31.2185C13.9793 31.2255 13.9723 31.2326 13.9584 31.2326H11.9771C11.9563 31.2326 11.9424 31.2185 11.9424 31.1974V20.7812C11.9424 20.7601 11.9563 20.746 11.9771 20.746H21.8976C21.9045 20.746 21.9184 20.7531 21.9254 20.7531L23.5799 22.4281C23.5939 22.4422 23.5939 22.4633 23.5799 22.4774L18.9082 27.2069C18.8318 27.2843 18.804 27.3406 18.804 27.4461C18.804 27.5517 18.8318 27.601 18.9082 27.6854C19.7703 28.5581 20.8548 29.0226 22.0436 29.0226C23.2324 29.0226 24.3099 28.5581 25.1789 27.6854L26.9516 25.8908C26.9655 25.8767 26.9864 25.8767 27.0003 25.8908L33.987 32.9639C34.2234 33.2032 34.3624 33.548 34.3624 33.8999C34.3624 34.2518 34.2234 34.5967 33.987 34.836C33.4865 35.3427 32.6383 35.3427 32.1378 34.836L31.1506 33.8366L30.6848 34.3081L31.6581 35.3146C31.9014 35.5609 32.0335 35.8917 32.0335 36.2506C32.0335 36.6095 31.9014 36.9403 31.6581 37.1867C31.4218 37.4259 31.0811 37.5667 30.7335 37.5667C30.3859 37.5667 30.0453 37.4259 29.8089 37.1867L28.8217 36.1873L28.3559 36.6588L29.3431 37.6582C29.5864 37.9045 29.7185 38.2353 29.7185 38.5942C29.7185 38.9532 29.5864 39.284 29.3431 39.5303C29.0998 39.7766 28.7731 39.9103 28.4185 39.9103C28.064 39.9103 27.7372 39.7766 27.4939 39.5303L26.4998 38.5239L26.0062 38.9673L27.0907 40.0652C27.3062 40.2834 27.4244 40.6071 27.4174 40.959C27.4105 41.3109 27.2714 41.6487 27.0351 41.881C26.7778 42.1273 26.4511 42.261 26.0966 42.261ZM24.1709 40.769L25.2206 41.8317C25.45 42.064 25.7629 42.1906 26.0966 42.1906C26.4302 42.1906 26.7431 42.064 26.9725 41.8317C27.195 41.6065 27.327 41.2898 27.334 40.959C27.341 40.6282 27.2297 40.3256 27.0281 40.1215L25.9228 39.0024C25.9158 38.9954 25.9089 38.9884 25.9158 38.9743C25.9228 38.9602 25.9228 38.9532 25.9297 38.9461L26.4789 38.4535C26.4928 38.4394 26.5137 38.4394 26.5276 38.4535L27.5495 39.4881C27.7789 39.7203 28.0918 39.847 28.4255 39.847C28.7592 39.847 29.072 39.7203 29.3014 39.4881C29.5308 39.2558 29.656 38.9391 29.656 38.6013C29.656 38.2635 29.5308 37.9468 29.3014 37.7145L28.2864 36.687C28.2725 36.6729 28.2725 36.6518 28.2864 36.6377L28.8009 36.1169C28.8148 36.1028 28.8356 36.1028 28.8495 36.1169L29.8645 37.1444C30.087 37.3696 30.4068 37.5034 30.7405 37.5034C31.0742 37.5034 31.3939 37.3696 31.6164 37.1444C31.8458 36.9122 31.971 36.5955 31.971 36.2577C31.971 35.9198 31.8458 35.6031 31.6164 35.3709L30.6014 34.3433C30.5875 34.3293 30.5875 34.3081 30.6014 34.2941L31.1159 33.7733C31.1298 33.7592 31.1506 33.7592 31.1645 33.7733L32.1795 34.8008C32.6522 35.2794 33.4587 35.2794 33.9314 34.8008C34.1539 34.5756 34.286 34.2518 34.286 33.914C34.286 33.5762 34.1539 33.2524 33.9314 33.0272L26.9655 25.9682L25.2206 27.7347C24.3447 28.6215 23.2463 29.093 22.0366 29.093C20.8339 29.093 19.7286 28.6215 18.8526 27.7347C18.7622 27.6432 18.7275 27.5658 18.7275 27.4461C18.7275 27.3265 18.7622 27.2491 18.8526 27.1576L23.4965 22.4562L21.8767 20.8164H12.0049V31.1481H13.9306L15.4253 29.5716C15.8146 29.1775 16.3291 28.9593 16.8713 28.9593C17.4136 28.9593 17.928 29.1775 18.3104 29.5646C18.7275 29.9868 18.9499 30.5851 18.9013 31.127L18.8804 31.3381L19.089 31.317C19.6243 31.2607 20.2152 31.493 20.6323 31.9152C21.0494 32.3375 21.2719 32.9357 21.2232 33.4777L21.2024 33.6888L21.4109 33.6677C21.9462 33.6114 22.5372 33.8436 22.9543 34.2659C23.3714 34.6882 23.5939 35.2864 23.5452 35.8283L23.5243 36.0395L23.7329 36.0184C24.2682 35.9621 24.8591 36.1943 25.2762 36.6166C25.7837 37.1304 25.9784 37.8764 25.8115 38.6224L25.7003 39.1221C25.7003 39.1291 25.7003 39.1291 25.6933 39.1362C25.5891 39.291 25.4848 39.4458 25.3388 39.5936L24.1709 40.769ZM22.0992 41.2053C21.7516 41.2053 21.4109 41.0646 21.1746 40.8253C20.9382 40.586 20.7992 40.2411 20.7992 39.8892C20.7992 39.5373 20.9382 39.1925 21.1746 38.9532L22.9126 37.1937C23.2324 36.87 23.5591 36.8277 23.8372 36.8277C24.2334 36.8277 24.5254 37.0107 24.734 37.1726L24.7548 37.1937C25.2554 37.7004 25.2554 38.5591 24.7548 39.0728L23.0168 40.8323C22.7874 41.0716 22.4468 41.2053 22.0992 41.2053ZM23.8372 36.8981C23.573 36.8981 23.2602 36.9403 22.9612 37.243L21.2232 39.0024C21.0008 39.2277 20.8687 39.5514 20.8687 39.8892C20.8687 40.2271 21.0008 40.5508 21.2232 40.776C21.4457 41.0012 21.7655 41.1349 22.0992 41.1349C22.4329 41.1349 22.7527 41.0012 22.9751 40.776L24.7131 39.0165C25.1858 38.5379 25.1858 37.7215 24.7131 37.243L24.6923 37.2218C24.4907 37.074 24.2126 36.8981 23.8372 36.8981ZM19.7772 38.8617C19.4227 38.8617 19.0959 38.728 18.8526 38.4816C18.6093 38.2353 18.4772 37.9045 18.4772 37.5456C18.4772 37.1867 18.6093 36.8559 18.8526 36.6095L20.5906 34.8501C20.9104 34.5263 21.2371 34.4841 21.5152 34.4841C21.9115 34.4841 22.2035 34.6671 22.412 34.8289L22.4329 34.8501C22.9334 35.3568 22.9334 36.2154 22.4329 36.7292L20.6949 38.4887C20.4585 38.728 20.1318 38.8617 19.7772 38.8617ZM21.5152 34.5474C21.251 34.5474 20.9382 34.5897 20.6393 34.8923L18.9013 36.6518C18.6719 36.884 18.5467 37.2007 18.5467 37.5386C18.5467 37.8764 18.6719 38.1931 18.9013 38.4253C19.1307 38.6576 19.4435 38.7843 19.7772 38.7843C20.1109 38.7843 20.4238 38.6576 20.6532 38.4253L22.3912 36.6659C22.8639 36.1873 22.8639 35.3709 22.3912 34.8923L22.3703 34.8712C22.1757 34.7234 21.8976 34.5474 21.5152 34.5474ZM17.4622 36.511C17.1077 36.511 16.7809 36.3773 16.5376 36.131C16.0371 35.6242 16.0371 34.7656 16.5376 34.2589L18.2756 32.4994C18.5954 32.1756 18.9221 32.1334 19.2002 32.1334C19.5965 32.1334 19.8885 32.3164 20.097 32.4783L20.1179 32.4994C20.3612 32.7457 20.4933 33.0765 20.4933 33.4354C20.4933 33.7944 20.3612 34.1252 20.1179 34.3715L18.3799 36.131C18.1435 36.3773 17.8168 36.511 17.4622 36.511ZM19.2002 32.2038C18.936 32.2038 18.6232 32.246 18.3243 32.5487L16.5863 34.3081C16.1135 34.7867 16.1135 35.6031 16.5863 36.0817C16.8157 36.314 17.1285 36.4406 17.4622 36.4406C17.7959 36.4406 18.1088 36.314 18.3382 36.0817L20.0762 34.3222C20.3056 34.09 20.4307 33.7733 20.4307 33.4354C20.4307 33.0976 20.3056 32.7809 20.0762 32.5487L20.0553 32.5275C19.8537 32.3797 19.5756 32.2038 19.2002 32.2038ZM15.1403 34.1674C14.7927 34.1674 14.452 34.0266 14.2157 33.7873C13.7151 33.2806 13.7151 32.422 14.2157 31.9152L15.9537 30.1558C16.2734 29.832 16.6002 29.7898 16.8783 29.7898C17.2745 29.7898 17.5665 29.9728 17.7751 30.1346L17.7959 30.1558C18.0392 30.4021 18.1713 30.7399 18.1713 31.0918C18.1713 31.4437 18.0323 31.7886 17.7959 32.0278L16.0579 33.7873C15.8285 34.0266 15.4879 34.1674 15.1403 34.1674ZM16.8783 29.8531C16.6141 29.8531 16.3013 29.8953 16.0023 30.198L14.2643 31.9575C13.7916 32.436 13.7916 33.2524 14.2643 33.731C14.4868 33.9562 14.8066 34.09 15.1403 34.09C15.474 34.09 15.7938 33.9562 16.0162 33.731L17.7542 31.9715C17.9767 31.7463 18.1088 31.4226 18.1088 31.0848C18.1088 30.7469 17.9767 30.4232 17.7542 30.198L17.7334 30.1769C17.5387 30.0291 17.2537 29.8531 16.8783 29.8531ZM45.2214 31.2185H36.3229C36.302 31.2185 36.2881 31.2044 36.2881 31.1833V20.7812C36.2881 20.7601 36.302 20.746 36.3229 20.746H45.2214C45.2422 20.746 45.2561 20.7601 45.2561 20.7812V31.1833C45.2561 31.1974 45.2422 31.2185 45.2214 31.2185ZM36.3576 31.1481H45.1866V20.8164H36.3576V31.1481ZM35.579 31.2185H33.1945C33.1875 31.2185 33.1736 31.2114 33.1667 31.2114L27.4522 25.4263C27.4383 25.4122 27.4383 25.3911 27.4522 25.377L27.8902 24.9336L27.4244 24.4621L24.7062 27.2139C24.0805 27.8473 23.2393 28.2344 22.3355 28.2977C21.4387 28.3611 20.5628 28.1077 19.8676 27.5869L19.6729 27.4391C19.666 27.4321 19.659 27.425 19.659 27.411C19.659 27.4039 19.659 27.3898 19.666 27.3828L26.2147 20.7531C26.2217 20.746 26.2286 20.746 26.2425 20.746H35.579C35.5999 20.746 35.6138 20.7601 35.6138 20.7812V31.1833C35.6138 31.1974 35.5999 31.2185 35.579 31.2185ZM33.2154 31.1481H35.5512V20.8164H26.2564L19.7425 27.411L19.9024 27.5306C20.5837 28.0444 21.4457 28.2907 22.3216 28.2274C23.2115 28.164 24.0388 27.784 24.6505 27.1646L27.4035 24.3776C27.4174 24.3635 27.4383 24.3635 27.4522 24.3776L27.9666 24.8984C27.9805 24.9125 27.9805 24.9336 27.9666 24.9477L27.5287 25.3911L33.2154 31.1481ZM11.2333 31.2185H1.77862C1.75776 31.2185 1.74386 31.2044 1.74386 31.1833V20.7812C1.74386 20.7601 1.75776 20.746 1.77862 20.746H11.2333C11.2541 20.746 11.268 20.7601 11.268 20.7812V31.1833C11.268 31.1974 11.2541 31.2185 11.2333 31.2185ZM1.81338 31.1481H11.1985V20.8164H1.81338V31.1481Z"/>
</mask>
<path d="M26.0409 43C25.5056 43 24.9634 42.7748 24.6019 42.4088L23.5591 41.3531L23.434 41.4587C23.0725 41.7754 22.5997 41.9443 22.0992 41.9443C21.5639 41.9443 21.0216 41.7191 20.6601 41.3531C20.243 40.9308 20.0205 40.3326 20.0692 39.7907L20.0901 39.6007H19.7842C19.2489 39.6007 18.7066 39.3755 18.3451 39.0095C17.928 38.5872 17.7055 37.989 17.7542 37.4471L17.7751 37.257H17.4692C16.9339 37.257 16.3916 37.0318 16.0301 36.6659C15.613 36.2436 15.3905 35.6453 15.4392 35.1034L15.4601 34.9134H15.1542C14.6189 34.9134 14.0836 34.6952 13.7151 34.3222C13.1937 33.7451 13.013 32.9287 13.2354 32.2038L13.305 31.9786H1.40321C1.15294 31.9786 1 31.8237 1 31.5704V20.4082C1 20.1548 1.15294 20 1.40321 20H22.0366C22.1548 20 22.2313 20.0352 22.3216 20.1267L24.0666 21.8932L25.8115 20.1267C25.9019 20.0352 25.9784 20 26.0966 20H45.5968C45.7914 20 46 20.1548 46 20.4082V31.5563C46 31.8097 45.8471 31.9645 45.5968 31.9645H34.1191L34.4389 32.4431C35.2314 33.2454 35.2314 34.5615 34.4389 35.3638C34.0704 35.7368 33.5351 35.955 32.9998 35.955H32.694L32.7148 36.145C32.7704 36.687 32.541 37.2852 32.1239 37.7075C31.7554 38.0805 31.2201 38.2987 30.6848 38.2987H30.379L30.3998 38.4887C30.4554 39.0306 30.226 39.6288 29.8089 40.0511C29.4404 40.4241 28.9051 40.6423 28.3698 40.6423H28.064L28.0848 40.8323C28.1404 41.3742 27.911 41.9725 27.4939 42.3947C27.1115 42.7748 26.5762 43 26.0409 43ZM23.5591 41.2687C23.566 41.2687 23.5799 41.2687 23.5869 41.2757L24.6505 42.3525C25.0051 42.7114 25.5265 42.9226 26.0409 42.9226C26.5554 42.9226 27.0768 42.7114 27.4313 42.3525C27.8345 41.9443 28.0501 41.3672 28.0014 40.8464L27.9805 40.6141C27.9805 40.6071 27.9805 40.593 27.9875 40.586C27.9944 40.5789 28.0014 40.5719 28.0153 40.5719H28.3629C28.8773 40.5719 29.3987 40.3608 29.7533 40.0018C30.1565 39.5936 30.372 39.0165 30.3233 38.4957L30.3025 38.2635C30.3025 38.2564 30.3025 38.2423 30.3094 38.2353C30.3164 38.2283 30.3233 38.2212 30.3372 38.2212H30.6848C31.1993 38.2212 31.7207 38.0101 32.0752 37.6512C32.4784 37.243 32.694 36.6658 32.6453 36.145L32.6244 35.9128C32.6244 35.9058 32.6244 35.8917 32.6314 35.8846C32.6383 35.8776 32.6453 35.8706 32.6592 35.8706H33.0068C33.5212 35.8706 34.0426 35.6594 34.3972 35.3005C35.1619 34.5263 35.1619 33.2595 34.3972 32.4783L34.3833 32.4642L34.0357 31.9364C34.0287 31.9223 34.0287 31.9082 34.0357 31.9012C34.0426 31.8871 34.0565 31.88 34.0635 31.88H45.6037C45.8192 31.88 45.9374 31.7534 45.9374 31.5422V20.4082C45.9374 20.1971 45.7636 20.0704 45.6037 20.0704H26.0966C25.9992 20.0704 25.9436 20.0985 25.8602 20.1759L24.0874 21.9706C24.0735 21.9847 24.0527 21.9847 24.0388 21.9706L22.273 20.1689C22.1965 20.0915 22.1409 20.0633 22.0366 20.0633H1.40321C1.1877 20.0633 1.06952 20.19 1.06952 20.4012V31.5493C1.06952 31.7674 1.19465 31.8871 1.40321 31.8871H13.3328C13.3467 31.8871 13.3536 31.8941 13.3606 31.9012C13.3675 31.9082 13.3675 31.9223 13.3675 31.9293L13.2841 32.2038C13.0686 32.9076 13.2493 33.6888 13.7499 34.2518C14.1044 34.6108 14.6258 34.8219 15.1403 34.8219H15.4879C15.4948 34.8219 15.5087 34.8289 15.5157 34.836C15.5226 34.843 15.5226 34.8501 15.5226 34.8641L15.5018 35.0964C15.4531 35.6172 15.6686 36.1943 16.0718 36.6025C16.4264 36.9614 16.9478 37.1726 17.4622 37.1726H17.8098C17.8168 37.1726 17.8307 37.1796 17.8376 37.1867C17.8446 37.1937 17.8446 37.2007 17.8446 37.2148L17.8237 37.4471C17.7751 37.9679 17.9906 38.545 18.3938 38.9532C18.7483 39.3121 19.2697 39.5233 19.7842 39.5233H20.1318C20.1387 39.5233 20.1526 39.5303 20.1596 39.5373C20.1665 39.5444 20.1665 39.5514 20.1665 39.5655L20.1457 39.7977C20.097 40.3185 20.3125 40.8957 20.7157 41.3039C21.0703 41.6628 21.5917 41.8739 22.1061 41.8739C22.5928 41.8739 23.0516 41.705 23.3992 41.4024L23.5452 41.2757C23.5382 41.2687 23.5521 41.2687 23.5591 41.2687ZM26.0966 42.261C25.742 42.261 25.4153 42.1273 25.1719 41.881L24.0944 40.7901C24.0805 40.776 24.0805 40.7549 24.0944 40.7408L25.2832 39.5373C25.4222 39.3966 25.5265 39.2488 25.6238 39.0939L25.7351 38.6013C25.9019 37.8764 25.7072 37.1515 25.2206 36.6588C24.8174 36.2506 24.2473 36.0324 23.7329 36.0817L23.4826 36.1099C23.4687 36.1099 23.4618 36.1099 23.4548 36.1028C23.4479 36.0958 23.4409 36.0817 23.4479 36.0747L23.4757 35.8213C23.5243 35.3005 23.3088 34.7234 22.9056 34.3152C22.5024 33.907 21.9323 33.6888 21.4179 33.7381L21.1676 33.7662C21.1537 33.7662 21.1468 33.7662 21.1398 33.7592C21.1329 33.7521 21.1259 33.7381 21.1329 33.731L21.1607 33.4777C21.2093 32.9569 20.9938 32.3797 20.5906 31.9715C20.1874 31.5633 19.6173 31.3452 19.1029 31.3944L18.8526 31.4226C18.8387 31.4226 18.8318 31.4226 18.8248 31.4155C18.8179 31.4085 18.8109 31.3944 18.8179 31.3874L18.8457 31.134C18.8943 30.6132 18.6788 30.0361 18.2756 29.6279C17.9002 29.2479 17.4066 29.0367 16.8852 29.0367C16.3638 29.0367 15.8633 29.2479 15.4948 29.6279L13.9863 31.2185C13.9793 31.2255 13.9723 31.2326 13.9584 31.2326H11.9771C11.9563 31.2326 11.9424 31.2185 11.9424 31.1974V20.7812C11.9424 20.7601 11.9563 20.746 11.9771 20.746H21.8976C21.9045 20.746 21.9184 20.7531 21.9254 20.7531L23.5799 22.4281C23.5939 22.4422 23.5939 22.4633 23.5799 22.4774L18.9082 27.2069C18.8318 27.2843 18.804 27.3406 18.804 27.4461C18.804 27.5517 18.8318 27.601 18.9082 27.6854C19.7703 28.5581 20.8548 29.0226 22.0436 29.0226C23.2324 29.0226 24.3099 28.5581 25.1789 27.6854L26.9516 25.8908C26.9655 25.8767 26.9864 25.8767 27.0003 25.8908L33.987 32.9639C34.2234 33.2032 34.3624 33.548 34.3624 33.8999C34.3624 34.2518 34.2234 34.5967 33.987 34.836C33.4865 35.3427 32.6383 35.3427 32.1378 34.836L31.1506 33.8366L30.6848 34.3081L31.6581 35.3146C31.9014 35.5609 32.0335 35.8917 32.0335 36.2506C32.0335 36.6095 31.9014 36.9403 31.6581 37.1867C31.4218 37.4259 31.0811 37.5667 30.7335 37.5667C30.3859 37.5667 30.0453 37.4259 29.8089 37.1867L28.8217 36.1873L28.3559 36.6588L29.3431 37.6582C29.5864 37.9045 29.7185 38.2353 29.7185 38.5942C29.7185 38.9532 29.5864 39.284 29.3431 39.5303C29.0998 39.7766 28.7731 39.9103 28.4185 39.9103C28.064 39.9103 27.7372 39.7766 27.4939 39.5303L26.4998 38.5239L26.0062 38.9673L27.0907 40.0652C27.3062 40.2834 27.4244 40.6071 27.4174 40.959C27.4105 41.3109 27.2714 41.6487 27.0351 41.881C26.7778 42.1273 26.4511 42.261 26.0966 42.261ZM24.1709 40.769L25.2206 41.8317C25.45 42.064 25.7629 42.1906 26.0966 42.1906C26.4302 42.1906 26.7431 42.064 26.9725 41.8317C27.195 41.6065 27.327 41.2898 27.334 40.959C27.341 40.6282 27.2297 40.3256 27.0281 40.1215L25.9228 39.0024C25.9158 38.9954 25.9089 38.9884 25.9158 38.9743C25.9228 38.9602 25.9228 38.9532 25.9297 38.9461L26.4789 38.4535C26.4928 38.4394 26.5137 38.4394 26.5276 38.4535L27.5495 39.4881C27.7789 39.7203 28.0918 39.847 28.4255 39.847C28.7592 39.847 29.072 39.7203 29.3014 39.4881C29.5308 39.2558 29.656 38.9391 29.656 38.6013C29.656 38.2635 29.5308 37.9468 29.3014 37.7145L28.2864 36.687C28.2725 36.6729 28.2725 36.6518 28.2864 36.6377L28.8009 36.1169C28.8148 36.1028 28.8356 36.1028 28.8495 36.1169L29.8645 37.1444C30.087 37.3696 30.4068 37.5034 30.7405 37.5034C31.0742 37.5034 31.3939 37.3696 31.6164 37.1444C31.8458 36.9122 31.971 36.5955 31.971 36.2577C31.971 35.9198 31.8458 35.6031 31.6164 35.3709L30.6014 34.3433C30.5875 34.3293 30.5875 34.3081 30.6014 34.2941L31.1159 33.7733C31.1298 33.7592 31.1506 33.7592 31.1645 33.7733L32.1795 34.8008C32.6522 35.2794 33.4587 35.2794 33.9314 34.8008C34.1539 34.5756 34.286 34.2518 34.286 33.914C34.286 33.5762 34.1539 33.2524 33.9314 33.0272L26.9655 25.9682L25.2206 27.7347C24.3447 28.6215 23.2463 29.093 22.0366 29.093C20.8339 29.093 19.7286 28.6215 18.8526 27.7347C18.7622 27.6432 18.7275 27.5658 18.7275 27.4461C18.7275 27.3265 18.7622 27.2491 18.8526 27.1576L23.4965 22.4562L21.8767 20.8164H12.0049V31.1481H13.9306L15.4253 29.5716C15.8146 29.1775 16.3291 28.9593 16.8713 28.9593C17.4136 28.9593 17.928 29.1775 18.3104 29.5646C18.7275 29.9868 18.9499 30.5851 18.9013 31.127L18.8804 31.3381L19.089 31.317C19.6243 31.2607 20.2152 31.493 20.6323 31.9152C21.0494 32.3375 21.2719 32.9357 21.2232 33.4777L21.2024 33.6888L21.4109 33.6677C21.9462 33.6114 22.5372 33.8436 22.9543 34.2659C23.3714 34.6882 23.5939 35.2864 23.5452 35.8283L23.5243 36.0395L23.7329 36.0184C24.2682 35.9621 24.8591 36.1943 25.2762 36.6166C25.7837 37.1304 25.9784 37.8764 25.8115 38.6224L25.7003 39.1221C25.7003 39.1291 25.7003 39.1291 25.6933 39.1362C25.5891 39.291 25.4848 39.4458 25.3388 39.5936L24.1709 40.769ZM22.0992 41.2053C21.7516 41.2053 21.4109 41.0646 21.1746 40.8253C20.9382 40.586 20.7992 40.2411 20.7992 39.8892C20.7992 39.5373 20.9382 39.1925 21.1746 38.9532L22.9126 37.1937C23.2324 36.87 23.5591 36.8277 23.8372 36.8277C24.2334 36.8277 24.5254 37.0107 24.734 37.1726L24.7548 37.1937C25.2554 37.7004 25.2554 38.5591 24.7548 39.0728L23.0168 40.8323C22.7874 41.0716 22.4468 41.2053 22.0992 41.2053ZM23.8372 36.8981C23.573 36.8981 23.2602 36.9403 22.9612 37.243L21.2232 39.0024C21.0008 39.2277 20.8687 39.5514 20.8687 39.8892C20.8687 40.2271 21.0008 40.5508 21.2232 40.776C21.4457 41.0012 21.7655 41.1349 22.0992 41.1349C22.4329 41.1349 22.7527 41.0012 22.9751 40.776L24.7131 39.0165C25.1858 38.5379 25.1858 37.7215 24.7131 37.243L24.6923 37.2218C24.4907 37.074 24.2126 36.8981 23.8372 36.8981ZM19.7772 38.8617C19.4227 38.8617 19.0959 38.728 18.8526 38.4816C18.6093 38.2353 18.4772 37.9045 18.4772 37.5456C18.4772 37.1867 18.6093 36.8559 18.8526 36.6095L20.5906 34.8501C20.9104 34.5263 21.2371 34.4841 21.5152 34.4841C21.9115 34.4841 22.2035 34.6671 22.412 34.8289L22.4329 34.8501C22.9334 35.3568 22.9334 36.2154 22.4329 36.7292L20.6949 38.4887C20.4585 38.728 20.1318 38.8617 19.7772 38.8617ZM21.5152 34.5474C21.251 34.5474 20.9382 34.5897 20.6393 34.8923L18.9013 36.6518C18.6719 36.884 18.5467 37.2007 18.5467 37.5386C18.5467 37.8764 18.6719 38.1931 18.9013 38.4253C19.1307 38.6576 19.4435 38.7843 19.7772 38.7843C20.1109 38.7843 20.4238 38.6576 20.6532 38.4253L22.3912 36.6659C22.8639 36.1873 22.8639 35.3709 22.3912 34.8923L22.3703 34.8712C22.1757 34.7234 21.8976 34.5474 21.5152 34.5474ZM17.4622 36.511C17.1077 36.511 16.7809 36.3773 16.5376 36.131C16.0371 35.6242 16.0371 34.7656 16.5376 34.2589L18.2756 32.4994C18.5954 32.1756 18.9221 32.1334 19.2002 32.1334C19.5965 32.1334 19.8885 32.3164 20.097 32.4783L20.1179 32.4994C20.3612 32.7457 20.4933 33.0765 20.4933 33.4354C20.4933 33.7944 20.3612 34.1252 20.1179 34.3715L18.3799 36.131C18.1435 36.3773 17.8168 36.511 17.4622 36.511ZM19.2002 32.2038C18.936 32.2038 18.6232 32.246 18.3243 32.5487L16.5863 34.3081C16.1135 34.7867 16.1135 35.6031 16.5863 36.0817C16.8157 36.314 17.1285 36.4406 17.4622 36.4406C17.7959 36.4406 18.1088 36.314 18.3382 36.0817L20.0762 34.3222C20.3056 34.09 20.4307 33.7733 20.4307 33.4354C20.4307 33.0976 20.3056 32.7809 20.0762 32.5487L20.0553 32.5275C19.8537 32.3797 19.5756 32.2038 19.2002 32.2038ZM15.1403 34.1674C14.7927 34.1674 14.452 34.0266 14.2157 33.7873C13.7151 33.2806 13.7151 32.422 14.2157 31.9152L15.9537 30.1558C16.2734 29.832 16.6002 29.7898 16.8783 29.7898C17.2745 29.7898 17.5665 29.9728 17.7751 30.1346L17.7959 30.1558C18.0392 30.4021 18.1713 30.7399 18.1713 31.0918C18.1713 31.4437 18.0323 31.7886 17.7959 32.0278L16.0579 33.7873C15.8285 34.0266 15.4879 34.1674 15.1403 34.1674ZM16.8783 29.8531C16.6141 29.8531 16.3013 29.8953 16.0023 30.198L14.2643 31.9575C13.7916 32.436 13.7916 33.2524 14.2643 33.731C14.4868 33.9562 14.8066 34.09 15.1403 34.09C15.474 34.09 15.7938 33.9562 16.0162 33.731L17.7542 31.9715C17.9767 31.7463 18.1088 31.4226 18.1088 31.0848C18.1088 30.7469 17.9767 30.4232 17.7542 30.198L17.7334 30.1769C17.5387 30.0291 17.2537 29.8531 16.8783 29.8531ZM45.2214 31.2185H36.3229C36.302 31.2185 36.2881 31.2044 36.2881 31.1833V20.7812C36.2881 20.7601 36.302 20.746 36.3229 20.746H45.2214C45.2422 20.746 45.2561 20.7601 45.2561 20.7812V31.1833C45.2561 31.1974 45.2422 31.2185 45.2214 31.2185ZM36.3576 31.1481H45.1866V20.8164H36.3576V31.1481ZM35.579 31.2185H33.1945C33.1875 31.2185 33.1736 31.2114 33.1667 31.2114L27.4522 25.4263C27.4383 25.4122 27.4383 25.3911 27.4522 25.377L27.8902 24.9336L27.4244 24.4621L24.7062 27.2139C24.0805 27.8473 23.2393 28.2344 22.3355 28.2977C21.4387 28.3611 20.5628 28.1077 19.8676 27.5869L19.6729 27.4391C19.666 27.4321 19.659 27.425 19.659 27.411C19.659 27.4039 19.659 27.3898 19.666 27.3828L26.2147 20.7531C26.2217 20.746 26.2286 20.746 26.2425 20.746H35.579C35.5999 20.746 35.6138 20.7601 35.6138 20.7812V31.1833C35.6138 31.1974 35.5999 31.2185 35.579 31.2185ZM33.2154 31.1481H35.5512V20.8164H26.2564L19.7425 27.411L19.9024 27.5306C20.5837 28.0444 21.4457 28.2907 22.3216 28.2274C23.2115 28.164 24.0388 27.784 24.6505 27.1646L27.4035 24.3776C27.4174 24.3635 27.4383 24.3635 27.4522 24.3776L27.9666 24.8984C27.9805 24.9125 27.9805 24.9336 27.9666 24.9477L27.5287 25.3911L33.2154 31.1481ZM11.2333 31.2185H1.77862C1.75776 31.2185 1.74386 31.2044 1.74386 31.1833V20.7812C1.74386 20.7601 1.75776 20.746 1.77862 20.746H11.2333C11.2541 20.746 11.268 20.7601 11.268 20.7812V31.1833C11.268 31.1974 11.2541 31.2185 11.2333 31.2185ZM1.81338 31.1481H11.1985V20.8164H1.81338V31.1481Z" fill="#EA5F32"/>
<path d="M26.0409 43C25.5056 43 24.9634 42.7748 24.6019 42.4088L23.5591 41.3531L23.434 41.4587C23.0725 41.7754 22.5997 41.9443 22.0992 41.9443C21.5639 41.9443 21.0216 41.7191 20.6601 41.3531C20.243 40.9308 20.0205 40.3326 20.0692 39.7907L20.0901 39.6007H19.7842C19.2489 39.6007 18.7066 39.3755 18.3451 39.0095C17.928 38.5872 17.7055 37.989 17.7542 37.4471L17.7751 37.257H17.4692C16.9339 37.257 16.3916 37.0318 16.0301 36.6659C15.613 36.2436 15.3905 35.6453 15.4392 35.1034L15.4601 34.9134H15.1542C14.6189 34.9134 14.0836 34.6952 13.7151 34.3222C13.1937 33.7451 13.013 32.9287 13.2354 32.2038L13.305 31.9786H1.40321C1.15294 31.9786 1 31.8237 1 31.5704V20.4082C1 20.1548 1.15294 20 1.40321 20H22.0366C22.1548 20 22.2313 20.0352 22.3216 20.1267L24.0666 21.8932L25.8115 20.1267C25.9019 20.0352 25.9784 20 26.0966 20H45.5968C45.7914 20 46 20.1548 46 20.4082V31.5563C46 31.8097 45.8471 31.9645 45.5968 31.9645H34.1191L34.4389 32.4431C35.2314 33.2454 35.2314 34.5615 34.4389 35.3638C34.0704 35.7368 33.5351 35.955 32.9998 35.955H32.694L32.7148 36.145C32.7704 36.687 32.541 37.2852 32.1239 37.7075C31.7554 38.0805 31.2201 38.2987 30.6848 38.2987H30.379L30.3998 38.4887C30.4554 39.0306 30.226 39.6288 29.8089 40.0511C29.4404 40.4241 28.9051 40.6423 28.3698 40.6423H28.064L28.0848 40.8323C28.1404 41.3742 27.911 41.9725 27.4939 42.3947C27.1115 42.7748 26.5762 43 26.0409 43ZM23.5591 41.2687C23.566 41.2687 23.5799 41.2687 23.5869 41.2757L24.6505 42.3525C25.0051 42.7114 25.5265 42.9226 26.0409 42.9226C26.5554 42.9226 27.0768 42.7114 27.4313 42.3525C27.8345 41.9443 28.0501 41.3672 28.0014 40.8464L27.9805 40.6141C27.9805 40.6071 27.9805 40.593 27.9875 40.586C27.9944 40.5789 28.0014 40.5719 28.0153 40.5719H28.3629C28.8773 40.5719 29.3987 40.3608 29.7533 40.0018C30.1565 39.5936 30.372 39.0165 30.3233 38.4957L30.3025 38.2635C30.3025 38.2564 30.3025 38.2423 30.3094 38.2353C30.3164 38.2283 30.3233 38.2212 30.3372 38.2212H30.6848C31.1993 38.2212 31.7207 38.0101 32.0752 37.6512C32.4784 37.243 32.694 36.6658 32.6453 36.145L32.6244 35.9128C32.6244 35.9058 32.6244 35.8917 32.6314 35.8846C32.6383 35.8776 32.6453 35.8706 32.6592 35.8706H33.0068C33.5212 35.8706 34.0426 35.6594 34.3972 35.3005C35.1619 34.5263 35.1619 33.2595 34.3972 32.4783L34.3833 32.4642L34.0357 31.9364C34.0287 31.9223 34.0287 31.9082 34.0357 31.9012C34.0426 31.8871 34.0565 31.88 34.0635 31.88H45.6037C45.8192 31.88 45.9374 31.7534 45.9374 31.5422V20.4082C45.9374 20.1971 45.7636 20.0704 45.6037 20.0704H26.0966C25.9992 20.0704 25.9436 20.0985 25.8602 20.1759L24.0874 21.9706C24.0735 21.9847 24.0527 21.9847 24.0388 21.9706L22.273 20.1689C22.1965 20.0915 22.1409 20.0633 22.0366 20.0633H1.40321C1.1877 20.0633 1.06952 20.19 1.06952 20.4012V31.5493C1.06952 31.7674 1.19465 31.8871 1.40321 31.8871H13.3328C13.3467 31.8871 13.3536 31.8941 13.3606 31.9012C13.3675 31.9082 13.3675 31.9223 13.3675 31.9293L13.2841 32.2038C13.0686 32.9076 13.2493 33.6888 13.7499 34.2518C14.1044 34.6108 14.6258 34.8219 15.1403 34.8219H15.4879C15.4948 34.8219 15.5087 34.8289 15.5157 34.836C15.5226 34.843 15.5226 34.8501 15.5226 34.8641L15.5018 35.0964C15.4531 35.6172 15.6686 36.1943 16.0718 36.6025C16.4264 36.9614 16.9478 37.1726 17.4622 37.1726H17.8098C17.8168 37.1726 17.8307 37.1796 17.8376 37.1867C17.8446 37.1937 17.8446 37.2007 17.8446 37.2148L17.8237 37.4471C17.7751 37.9679 17.9906 38.545 18.3938 38.9532C18.7483 39.3121 19.2697 39.5233 19.7842 39.5233H20.1318C20.1387 39.5233 20.1526 39.5303 20.1596 39.5373C20.1665 39.5444 20.1665 39.5514 20.1665 39.5655L20.1457 39.7977C20.097 40.3185 20.3125 40.8957 20.7157 41.3039C21.0703 41.6628 21.5917 41.8739 22.1061 41.8739C22.5928 41.8739 23.0516 41.705 23.3992 41.4024L23.5452 41.2757C23.5382 41.2687 23.5521 41.2687 23.5591 41.2687ZM26.0966 42.261C25.742 42.261 25.4153 42.1273 25.1719 41.881L24.0944 40.7901C24.0805 40.776 24.0805 40.7549 24.0944 40.7408L25.2832 39.5373C25.4222 39.3966 25.5265 39.2488 25.6238 39.0939L25.7351 38.6013C25.9019 37.8764 25.7072 37.1515 25.2206 36.6588C24.8174 36.2506 24.2473 36.0324 23.7329 36.0817L23.4826 36.1099C23.4687 36.1099 23.4618 36.1099 23.4548 36.1028C23.4479 36.0958 23.4409 36.0817 23.4479 36.0747L23.4757 35.8213C23.5243 35.3005 23.3088 34.7234 22.9056 34.3152C22.5024 33.907 21.9323 33.6888 21.4179 33.7381L21.1676 33.7662C21.1537 33.7662 21.1468 33.7662 21.1398 33.7592C21.1329 33.7521 21.1259 33.7381 21.1329 33.731L21.1607 33.4777C21.2093 32.9569 20.9938 32.3797 20.5906 31.9715C20.1874 31.5633 19.6173 31.3452 19.1029 31.3944L18.8526 31.4226C18.8387 31.4226 18.8318 31.4226 18.8248 31.4155C18.8179 31.4085 18.8109 31.3944 18.8179 31.3874L18.8457 31.134C18.8943 30.6132 18.6788 30.0361 18.2756 29.6279C17.9002 29.2479 17.4066 29.0367 16.8852 29.0367C16.3638 29.0367 15.8633 29.2479 15.4948 29.6279L13.9863 31.2185C13.9793 31.2255 13.9723 31.2326 13.9584 31.2326H11.9771C11.9563 31.2326 11.9424 31.2185 11.9424 31.1974V20.7812C11.9424 20.7601 11.9563 20.746 11.9771 20.746H21.8976C21.9045 20.746 21.9184 20.7531 21.9254 20.7531L23.5799 22.4281C23.5939 22.4422 23.5939 22.4633 23.5799 22.4774L18.9082 27.2069C18.8318 27.2843 18.804 27.3406 18.804 27.4461C18.804 27.5517 18.8318 27.601 18.9082 27.6854C19.7703 28.5581 20.8548 29.0226 22.0436 29.0226C23.2324 29.0226 24.3099 28.5581 25.1789 27.6854L26.9516 25.8908C26.9655 25.8767 26.9864 25.8767 27.0003 25.8908L33.987 32.9639C34.2234 33.2032 34.3624 33.548 34.3624 33.8999C34.3624 34.2518 34.2234 34.5967 33.987 34.836C33.4865 35.3427 32.6383 35.3427 32.1378 34.836L31.1506 33.8366L30.6848 34.3081L31.6581 35.3146C31.9014 35.5609 32.0335 35.8917 32.0335 36.2506C32.0335 36.6095 31.9014 36.9403 31.6581 37.1867C31.4218 37.4259 31.0811 37.5667 30.7335 37.5667C30.3859 37.5667 30.0453 37.4259 29.8089 37.1867L28.8217 36.1873L28.3559 36.6588L29.3431 37.6582C29.5864 37.9045 29.7185 38.2353 29.7185 38.5942C29.7185 38.9532 29.5864 39.284 29.3431 39.5303C29.0998 39.7766 28.7731 39.9103 28.4185 39.9103C28.064 39.9103 27.7372 39.7766 27.4939 39.5303L26.4998 38.5239L26.0062 38.9673L27.0907 40.0652C27.3062 40.2834 27.4244 40.6071 27.4174 40.959C27.4105 41.3109 27.2714 41.6487 27.0351 41.881C26.7778 42.1273 26.4511 42.261 26.0966 42.261ZM24.1709 40.769L25.2206 41.8317C25.45 42.064 25.7629 42.1906 26.0966 42.1906C26.4302 42.1906 26.7431 42.064 26.9725 41.8317C27.195 41.6065 27.327 41.2898 27.334 40.959C27.341 40.6282 27.2297 40.3256 27.0281 40.1215L25.9228 39.0024C25.9158 38.9954 25.9089 38.9884 25.9158 38.9743C25.9228 38.9602 25.9228 38.9532 25.9297 38.9461L26.4789 38.4535C26.4928 38.4394 26.5137 38.4394 26.5276 38.4535L27.5495 39.4881C27.7789 39.7203 28.0918 39.847 28.4255 39.847C28.7592 39.847 29.072 39.7203 29.3014 39.4881C29.5308 39.2558 29.656 38.9391 29.656 38.6013C29.656 38.2635 29.5308 37.9468 29.3014 37.7145L28.2864 36.687C28.2725 36.6729 28.2725 36.6518 28.2864 36.6377L28.8009 36.1169C28.8148 36.1028 28.8356 36.1028 28.8495 36.1169L29.8645 37.1444C30.087 37.3696 30.4068 37.5034 30.7405 37.5034C31.0742 37.5034 31.3939 37.3696 31.6164 37.1444C31.8458 36.9122 31.971 36.5955 31.971 36.2577C31.971 35.9198 31.8458 35.6031 31.6164 35.3709L30.6014 34.3433C30.5875 34.3293 30.5875 34.3081 30.6014 34.2941L31.1159 33.7733C31.1298 33.7592 31.1506 33.7592 31.1645 33.7733L32.1795 34.8008C32.6522 35.2794 33.4587 35.2794 33.9314 34.8008C34.1539 34.5756 34.286 34.2518 34.286 33.914C34.286 33.5762 34.1539 33.2524 33.9314 33.0272L26.9655 25.9682L25.2206 27.7347C24.3447 28.6215 23.2463 29.093 22.0366 29.093C20.8339 29.093 19.7286 28.6215 18.8526 27.7347C18.7622 27.6432 18.7275 27.5658 18.7275 27.4461C18.7275 27.3265 18.7622 27.2491 18.8526 27.1576L23.4965 22.4562L21.8767 20.8164H12.0049V31.1481H13.9306L15.4253 29.5716C15.8146 29.1775 16.3291 28.9593 16.8713 28.9593C17.4136 28.9593 17.928 29.1775 18.3104 29.5646C18.7275 29.9868 18.9499 30.5851 18.9013 31.127L18.8804 31.3381L19.089 31.317C19.6243 31.2607 20.2152 31.493 20.6323 31.9152C21.0494 32.3375 21.2719 32.9357 21.2232 33.4777L21.2024 33.6888L21.4109 33.6677C21.9462 33.6114 22.5372 33.8436 22.9543 34.2659C23.3714 34.6882 23.5939 35.2864 23.5452 35.8283L23.5243 36.0395L23.7329 36.0184C24.2682 35.9621 24.8591 36.1943 25.2762 36.6166C25.7837 37.1304 25.9784 37.8764 25.8115 38.6224L25.7003 39.1221C25.7003 39.1291 25.7003 39.1291 25.6933 39.1362C25.5891 39.291 25.4848 39.4458 25.3388 39.5936L24.1709 40.769ZM22.0992 41.2053C21.7516 41.2053 21.4109 41.0646 21.1746 40.8253C20.9382 40.586 20.7992 40.2411 20.7992 39.8892C20.7992 39.5373 20.9382 39.1925 21.1746 38.9532L22.9126 37.1937C23.2324 36.87 23.5591 36.8277 23.8372 36.8277C24.2334 36.8277 24.5254 37.0107 24.734 37.1726L24.7548 37.1937C25.2554 37.7004 25.2554 38.5591 24.7548 39.0728L23.0168 40.8323C22.7874 41.0716 22.4468 41.2053 22.0992 41.2053ZM23.8372 36.8981C23.573 36.8981 23.2602 36.9403 22.9612 37.243L21.2232 39.0024C21.0008 39.2277 20.8687 39.5514 20.8687 39.8892C20.8687 40.2271 21.0008 40.5508 21.2232 40.776C21.4457 41.0012 21.7655 41.1349 22.0992 41.1349C22.4329 41.1349 22.7527 41.0012 22.9751 40.776L24.7131 39.0165C25.1858 38.5379 25.1858 37.7215 24.7131 37.243L24.6923 37.2218C24.4907 37.074 24.2126 36.8981 23.8372 36.8981ZM19.7772 38.8617C19.4227 38.8617 19.0959 38.728 18.8526 38.4816C18.6093 38.2353 18.4772 37.9045 18.4772 37.5456C18.4772 37.1867 18.6093 36.8559 18.8526 36.6095L20.5906 34.8501C20.9104 34.5263 21.2371 34.4841 21.5152 34.4841C21.9115 34.4841 22.2035 34.6671 22.412 34.8289L22.4329 34.8501C22.9334 35.3568 22.9334 36.2154 22.4329 36.7292L20.6949 38.4887C20.4585 38.728 20.1318 38.8617 19.7772 38.8617ZM21.5152 34.5474C21.251 34.5474 20.9382 34.5897 20.6393 34.8923L18.9013 36.6518C18.6719 36.884 18.5467 37.2007 18.5467 37.5386C18.5467 37.8764 18.6719 38.1931 18.9013 38.4253C19.1307 38.6576 19.4435 38.7843 19.7772 38.7843C20.1109 38.7843 20.4238 38.6576 20.6532 38.4253L22.3912 36.6659C22.8639 36.1873 22.8639 35.3709 22.3912 34.8923L22.3703 34.8712C22.1757 34.7234 21.8976 34.5474 21.5152 34.5474ZM17.4622 36.511C17.1077 36.511 16.7809 36.3773 16.5376 36.131C16.0371 35.6242 16.0371 34.7656 16.5376 34.2589L18.2756 32.4994C18.5954 32.1756 18.9221 32.1334 19.2002 32.1334C19.5965 32.1334 19.8885 32.3164 20.097 32.4783L20.1179 32.4994C20.3612 32.7457 20.4933 33.0765 20.4933 33.4354C20.4933 33.7944 20.3612 34.1252 20.1179 34.3715L18.3799 36.131C18.1435 36.3773 17.8168 36.511 17.4622 36.511ZM19.2002 32.2038C18.936 32.2038 18.6232 32.246 18.3243 32.5487L16.5863 34.3081C16.1135 34.7867 16.1135 35.6031 16.5863 36.0817C16.8157 36.314 17.1285 36.4406 17.4622 36.4406C17.7959 36.4406 18.1088 36.314 18.3382 36.0817L20.0762 34.3222C20.3056 34.09 20.4307 33.7733 20.4307 33.4354C20.4307 33.0976 20.3056 32.7809 20.0762 32.5487L20.0553 32.5275C19.8537 32.3797 19.5756 32.2038 19.2002 32.2038ZM15.1403 34.1674C14.7927 34.1674 14.452 34.0266 14.2157 33.7873C13.7151 33.2806 13.7151 32.422 14.2157 31.9152L15.9537 30.1558C16.2734 29.832 16.6002 29.7898 16.8783 29.7898C17.2745 29.7898 17.5665 29.9728 17.7751 30.1346L17.7959 30.1558C18.0392 30.4021 18.1713 30.7399 18.1713 31.0918C18.1713 31.4437 18.0323 31.7886 17.7959 32.0278L16.0579 33.7873C15.8285 34.0266 15.4879 34.1674 15.1403 34.1674ZM16.8783 29.8531C16.6141 29.8531 16.3013 29.8953 16.0023 30.198L14.2643 31.9575C13.7916 32.436 13.7916 33.2524 14.2643 33.731C14.4868 33.9562 14.8066 34.09 15.1403 34.09C15.474 34.09 15.7938 33.9562 16.0162 33.731L17.7542 31.9715C17.9767 31.7463 18.1088 31.4226 18.1088 31.0848C18.1088 30.7469 17.9767 30.4232 17.7542 30.198L17.7334 30.1769C17.5387 30.0291 17.2537 29.8531 16.8783 29.8531ZM45.2214 31.2185H36.3229C36.302 31.2185 36.2881 31.2044 36.2881 31.1833V20.7812C36.2881 20.7601 36.302 20.746 36.3229 20.746H45.2214C45.2422 20.746 45.2561 20.7601 45.2561 20.7812V31.1833C45.2561 31.1974 45.2422 31.2185 45.2214 31.2185ZM36.3576 31.1481H45.1866V20.8164H36.3576V31.1481ZM35.579 31.2185H33.1945C33.1875 31.2185 33.1736 31.2114 33.1667 31.2114L27.4522 25.4263C27.4383 25.4122 27.4383 25.3911 27.4522 25.377L27.8902 24.9336L27.4244 24.4621L24.7062 27.2139C24.0805 27.8473 23.2393 28.2344 22.3355 28.2977C21.4387 28.3611 20.5628 28.1077 19.8676 27.5869L19.6729 27.4391C19.666 27.4321 19.659 27.425 19.659 27.411C19.659 27.4039 19.659 27.3898 19.666 27.3828L26.2147 20.7531C26.2217 20.746 26.2286 20.746 26.2425 20.746H35.579C35.5999 20.746 35.6138 20.7601 35.6138 20.7812V31.1833C35.6138 31.1974 35.5999 31.2185 35.579 31.2185ZM33.2154 31.1481H35.5512V20.8164H26.2564L19.7425 27.411L19.9024 27.5306C20.5837 28.0444 21.4457 28.2907 22.3216 28.2274C23.2115 28.164 24.0388 27.784 24.6505 27.1646L27.4035 24.3776C27.4174 24.3635 27.4383 24.3635 27.4522 24.3776L27.9666 24.8984C27.9805 24.9125 27.9805 24.9336 27.9666 24.9477L27.5287 25.3911L33.2154 31.1481ZM11.2333 31.2185H1.77862C1.75776 31.2185 1.74386 31.2044 1.74386 31.1833V20.7812C1.74386 20.7601 1.75776 20.746 1.77862 20.746H11.2333C11.2541 20.746 11.268 20.7601 11.268 20.7812V31.1833C11.268 31.1974 11.2541 31.2185 11.2333 31.2185ZM1.81338 31.1481H11.1985V20.8164H1.81338V31.1481Z" stroke="#EA5F32" stroke-width="0.6" mask="url(#path-6-outside-2)"/>
<path d="M8.15 20V19.85H8H7H6.85V20V32V32.15H7H8H8.15V32V20Z" fill="#EA5F32" stroke="#EA5F32" stroke-width="0.3"/>
<path d="M7.75909 20.2232V31.7768H7.24091V20.2232H7.75909ZM7.04545 32.15H7.95455C8.06946 32.15 8.15 32.056 8.15 31.9561V20.0366C8.15 19.9804 8.12501 19.9282 8.08155 19.8932C8.04091 19.8605 7.99375 19.85 7.95455 19.85H7.04545C7.00625 19.85 6.95909 19.8605 6.91845 19.8932C6.87499 19.9282 6.85 19.9804 6.85 20.0366V31.9634C6.85 32.0196 6.87498 32.0718 6.91845 32.1068C6.95909 32.1395 7.00625 32.15 7.04545 32.15Z" fill="#EA5F32" stroke="#EA5F32" stroke-width="0.3"/>
</svg>
