<svg width="197" height="158" viewBox="0 0 197 158" fill="none" xmlns="http://www.w3.org/2000/svg">
<path d="M122 86V107H148V86H122ZM145.25 104.282H124.75V88.7176H145.25V104.282Z" fill="white"/>
<path d="M177.111 83.2212C181.977 81.5244 186.553 77.3355 189.965 71.4234C194.514 63.5493 197 53.1301 197 42.0215C197 30.9395 194.487 20.5203 189.938 12.6197C185.204 4.48053 178.883 0 172.086 0C165.289 0 158.968 4.48053 154.286 12.6197C149.737 20.5203 147.225 30.966 147.225 42.0746C147.225 50.2403 148.573 58.0083 151.245 65.1665L152.038 67.314H124.982V29.9056H34V123.493L34.0264 128H192.953V125.084H176.027V83.5924L177.111 83.2212ZM77.9039 125.084H36.9093V32.8219H122.072V67.2875H65.2088V70.2038H77.9039V125.084ZM110.171 125.084H95.8887V88.4971H110.171V125.084ZM158.306 125.084H113.08V85.5808H92.9794V125.084H80.8132V70.2038H152.62C153.599 70.2038 154.075 70.9992 154.26 71.2908C154.286 71.3173 154.286 71.3438 154.313 71.3703L154.366 71.4499C155.318 73.1201 156.455 74.7109 157.963 76.4872L158.333 76.9379V125.084H158.306ZM173.117 125.084H161.216V79.9602L163.649 81.4979C166.082 83.0356 168.753 83.8575 171.61 83.9901L173.144 84.0431V125.084H173.117ZM173.117 33.087V65.5377L159.126 42.7109L156.667 44.222L173.117 71.1317V81.1533L171.425 81.0472C165.606 80.7026 160.184 76.3016 156.164 68.6926C152.303 61.3488 150.16 51.884 150.16 41.9685C150.16 31.8674 152.355 22.2171 156.376 14.8202C160.554 7.10522 166.109 2.8633 172.086 2.8633C178.037 2.8633 183.617 7.10522 187.822 14.8202C191.869 22.2436 194.091 31.8674 194.091 41.9685C194.091 59.1218 187.611 74.5518 178.354 79.483L176.027 80.7291V60.0232L185.283 44.222L182.797 42.7374L176.027 54.2701V33.0605H173.117V33.087Z" fill="white"/>
<path d="M188.257 140L186.583 141.677L193.04 147.86H8.95958L15.4172 141.677L13.7164 140L5 148.332L13.743 158L15.5235 156.428L9.91626 150.218H192.084L186.477 156.428L188.257 158L197 148.332L188.257 140Z" fill="white"/>
<path d="M8.47674 124.826L1.72674 118.126L0 119.713L8.34593 128L18 119.688L16.4302 118L8.47674 124.826Z" fill="white"/>
<path d="M1.70058 40.4446L7.875 33.97V126H10.2296V34.9559L16.4302 40.5779L18 38.7927L8.34593 30L0 38.766L1.70058 40.4446Z" fill="white"/>
<path d="M44 86V107H63V86H44ZM59.7846 104.282H47.2154V88.7176H59.7846V104.282Z" fill="white"/>
<path d="M44 41V61H111V41H44ZM108.04 57.9014H46.9598V44.0986H108.04V57.9014Z" fill="white"/>
</svg>
