<svg width="94" height="89" viewBox="0 0 94 89" fill="none" xmlns="http://www.w3.org/2000/svg">
<g clip-path="url(#clip0)">
<path d="M90.3779 63.7072V57.5324C89.0342 58.0074 87.8073 58.0074 86.7557 57.1762V63.0541C86.1131 63.1134 85.4705 63.2916 84.8278 63.5291L73.0851 68.5758C73.1436 68.3383 73.1436 68.1008 73.1436 67.9227C73.1436 64.3603 70.3393 61.5104 66.8341 61.5104H52.8129C51.4108 61.5104 50.0087 61.1541 48.7234 60.5604C43.6408 58.0074 38.1492 56.4637 32.4823 56.1074V53.7325C31.4307 54.0888 30.087 53.8513 28.8602 53.0201V55.9887H25.238C25.238 54.9794 24.4201 54.1481 23.427 54.1481H9.05531C8.06215 54.1481 7.24425 54.9794 7.24425 55.9887H0V59.6698H7.24425V78.016H0V81.6972H7.24425C7.24425 82.7065 8.06215 83.5377 9.05531 83.5377H23.4854C24.4786 83.5377 25.2965 82.7065 25.2965 81.6972V80.9847L38.7918 86.6845C46.1529 89.7125 54.3903 89.8313 61.8098 86.922L89.7352 76.1161C91.371 75.463 92.7147 74.2162 93.4158 72.5537C94.1753 70.8913 94.1753 68.9914 93.5326 67.2695C92.89 65.7259 91.78 64.479 90.3779 63.7072ZM21.6743 79.7972H10.8664V57.7699H21.7328V79.7972H21.6743ZM90.0858 71.01C89.7937 71.7819 89.151 72.3162 88.3915 72.6131L60.4661 83.419C53.9229 85.972 46.6203 85.9126 40.1355 83.1815L25.2965 76.888V59.5511H29.8533C35.8707 59.5511 41.7713 60.976 47.146 63.7072C48.8987 64.5978 50.885 65.0727 52.8713 65.0727H66.8925C68.4114 65.0727 69.5799 66.3196 69.5799 67.8633C69.5799 69.1101 68.7035 70.2382 67.4767 70.5351C67.243 70.5351 67.0093 70.5944 66.7756 70.5944H45.1597V74.2756H66.8341C66.8925 74.2756 66.8925 74.2756 66.9509 74.2756C68.4114 74.2756 69.8135 73.9193 71.0988 73.385L86.23 66.8539C86.931 66.5571 87.7489 66.5571 88.5084 66.8539C89.2679 67.1508 89.8521 67.8039 90.1442 68.5758C90.4363 69.3476 90.4363 70.2382 90.0858 71.01Z" fill="#EA5F32"/>
<path d="M18.0522 72.4349H14.4301V76.1161H18.0522V72.4349Z" fill="#EA5F32"/>
<path d="M57.8372 25.8272V27.9053C55.1498 28.7365 53.6308 31.7052 54.4487 34.4363C54.8577 35.8019 55.7924 36.93 57.0777 37.5831L60.583 39.3643C61.3424 39.7799 61.6345 40.6705 61.284 41.4423C61.0503 41.9767 60.4661 42.3329 59.8819 42.3329H59.3561C58.4798 42.3329 57.8372 41.6204 57.8372 40.7892V40.4924H54.215V40.7892C54.215 43.0454 55.6756 45.0641 57.8372 45.7765V47.8546H61.4593V45.7765C64.1467 44.9453 65.6656 41.9767 64.8477 39.2455C64.4388 37.8799 63.504 36.7519 62.2188 36.0988L58.7135 34.3176C57.954 33.902 57.6619 33.0114 58.0124 32.2395C58.2461 31.7052 58.8303 31.3489 59.4145 31.3489H59.9403C60.8166 31.3489 61.4593 32.0614 61.4593 32.8926V33.1895H65.0814V32.8926C65.0814 30.6364 63.6209 28.6178 61.4593 27.9053V25.8272H57.8372Z" fill="#EA5F32"/>
<path d="M41.5376 36.8706C41.5376 47.0233 49.6582 55.2168 59.6482 55.2168C69.6383 55.2168 77.7004 47.0233 77.7004 36.8706C77.7004 26.7178 69.6383 18.5244 59.6482 18.5244C49.6582 18.5244 41.596 26.7178 41.5376 36.8706ZM74.0783 36.8706C74.0783 45.0047 67.5935 51.5357 59.6482 51.5357C51.7029 51.5357 45.1597 44.9453 45.1597 36.8706C45.1597 28.7959 51.6445 22.2055 59.5898 22.2055C67.5935 22.1461 74.0783 28.7365 74.0783 36.8706Z" fill="#EA5F32"/>
<path d="M70.5146 35.03H66.8925V38.7112H70.5146V35.03Z" fill="#EA5F32"/>
<path d="M52.404 35.03H48.7819V38.7112H52.404V35.03Z" fill="#EA5F32"/>
<path d="M78.4015 19.2368C78.6936 19.4743 79.0441 19.5931 79.3947 19.5931C79.9205 19.5931 80.4463 19.2962 80.7968 18.7619C81.3226 17.8713 81.1473 16.6838 80.3878 16.0307L77.5836 13.7745C76.8241 13.1808 75.7141 13.3589 75.1883 14.2495C74.6625 15.1401 74.8378 16.3276 75.5973 16.9807L78.4015 19.2368Z" fill="#EA5F32"/>
<path d="M86.8142 25.946C87.1063 26.1835 87.4568 26.3022 87.8073 26.3022C88.3331 26.3022 88.8589 26.0054 89.2094 25.471C89.7352 24.5804 89.56 23.3929 88.8005 22.7398L85.9963 20.4837C85.2368 19.8899 84.1852 20.0681 83.601 20.9587C83.0752 21.8492 83.2505 23.0367 84.0099 23.6898L86.8142 25.946Z" fill="#EA5F32"/>
<path d="M86.931 31.6458V35.5644C86.931 36.6331 87.6905 37.5237 88.6252 37.5237C89.56 37.5237 90.3195 36.6331 90.3195 35.5644V31.6458C90.3195 30.5771 89.56 29.6865 88.6252 29.6865C87.6905 29.6865 86.931 30.5771 86.931 31.6458Z" fill="#EA5F32"/>
<path d="M70.0472 12.4683C70.3393 12.7058 70.6898 12.8245 71.0404 12.8245C71.5662 12.8245 72.092 12.5277 72.4425 11.9933C72.9683 11.1027 72.793 9.91527 72.0335 9.26217L69.2293 7.006C68.4698 6.41227 67.3598 6.59038 66.834 7.48098C66.3082 8.37157 66.4835 9.55903 67.243 10.2121L70.0472 12.4683Z" fill="#EA5F32"/>
<path d="M88.6252 49.1014C89.56 49.1014 90.3195 48.2108 90.3195 47.1421V43.2235C90.3195 42.1548 89.56 41.2642 88.6252 41.2642C87.6905 41.2642 86.931 42.1548 86.931 43.2235V47.1421C86.931 48.2702 87.6905 49.1014 88.6252 49.1014Z" fill="#EA5F32"/>
<path d="M88.6252 62.2228C89.56 62.2228 90.3195 61.2135 90.3195 60.026V55.573C90.3195 54.3262 89.56 53.3763 88.6252 53.3763C87.6905 53.3763 86.931 54.3856 86.931 55.573V60.026C86.931 61.2135 87.6905 62.2228 88.6252 62.2228Z" fill="#EA5F32"/>
<path d="M61.6346 5.75932C61.9267 5.99681 62.2772 6.11556 62.6277 6.11556C63.1535 6.11556 63.6793 5.81869 64.0298 5.28434C64.5556 4.39374 64.3804 3.20628 63.6209 2.55318L60.8167 0.297011C60.0572 -0.296718 58.9472 -0.1186 58.4214 0.771994C57.8956 1.66259 58.0708 2.85005 58.8303 3.50315L61.6346 5.75932Z" fill="#EA5F32"/>
<path d="M30.496 56.1668C31.4307 56.1668 32.1902 55.2762 32.1902 54.2075V50.2889C32.1902 49.2201 31.4307 48.3296 30.496 48.3296C29.5612 48.3296 28.8017 49.2201 28.8017 50.2889V54.2075C28.7433 55.2762 29.5028 56.1668 30.496 56.1668Z" fill="#EA5F32"/>
<path d="M43.0566 16.9213C43.4071 16.9213 43.7576 16.8026 44.0497 16.5651L46.854 14.3089C47.6134 13.7152 47.7887 12.4683 47.2629 11.5777C46.7371 10.6871 45.6271 10.509 44.8676 11.1028L42.0634 13.3589C41.3039 13.9527 41.1287 15.1995 41.6545 16.0901C42.005 16.6244 42.5308 16.9213 43.0566 16.9213Z" fill="#EA5F32"/>
<path d="M34.6439 23.6304C34.9944 23.6304 35.3449 23.5117 35.637 23.2742L38.4412 21.018C39.2007 20.4243 39.376 19.1775 38.8502 18.2869C38.3244 17.3963 37.2144 17.2182 36.4549 17.8119L33.6507 20.0681C32.8912 20.6618 32.716 21.9086 33.2417 22.7992C33.5923 23.3336 34.1181 23.6304 34.6439 23.6304Z" fill="#EA5F32"/>
<path d="M30.496 44.4703C31.4307 44.4703 32.1902 43.5797 32.1902 42.511V38.5924C32.1902 37.5237 31.4307 36.6331 30.496 36.6331C29.5612 36.6331 28.8017 37.5237 28.8017 38.5924V42.511C28.7433 43.6391 29.5028 44.4703 30.496 44.4703Z" fill="#EA5F32"/>
<path d="M30.496 32.8332C31.4307 32.8332 32.1902 31.9426 32.1902 30.8739V26.9553C32.1902 25.8866 31.4307 24.996 30.496 24.996C29.5612 24.996 28.8017 25.8866 28.8017 26.9553V30.8739C28.7433 31.9426 29.5028 32.8332 30.496 32.8332Z" fill="#EA5F32"/>
<path d="M51.4692 10.1528C51.8198 10.1528 52.1703 10.034 52.4624 9.79652L55.2666 7.54035C56.0261 6.94662 56.2014 5.69979 55.6756 4.8092C55.1498 3.9186 54.0398 3.74048 53.2803 4.33421L50.4761 6.59038C49.7166 7.18411 49.5413 8.43094 50.0671 9.32154C50.3592 9.85589 50.885 10.1528 51.4692 10.1528Z" fill="#EA5F32"/>
</g>
<defs>
<clipPath id="clip0">
<rect width="94" height="89" fill="white"/>
</clipPath>
</defs>
</svg>
