<svg width="79" height="79" viewBox="0 0 79 79" fill="none" xmlns="http://www.w3.org/2000/svg">
<g clip-path="url(#clip0)">
<path d="M37.8542 42.7917C37.3605 42.7917 37.0313 42.6271 36.7021 42.2979C36.373 41.9687 36.2084 41.475 36.2084 41.1458L36.5375 27.65C36.5375 26.8271 36.7021 26.0042 36.8667 25.3458C37.6896 22.5479 39.3355 19.75 41.475 17.6104L48.3875 10.6979C48.7167 10.3687 49.0459 10.2042 49.5396 10.2042C50.0334 10.2042 50.3625 10.3687 50.6917 10.6979L68.1375 28.1437C68.7959 28.8021 68.7959 29.7896 68.1375 30.4479L61.225 37.3604C59.0855 39.5 56.4521 41.1458 53.4896 41.9687C52.8313 42.1333 52.0084 42.2979 51.1855 42.2979L37.8542 42.7917ZM49.5396 14.3187L43.7792 20.0792C41.9688 21.8896 40.6521 24.0292 39.9938 26.3333C39.8292 26.6625 39.8292 27.1562 39.8292 27.8146L39.5 39.5L51.1855 39.1708C51.6792 39.1708 52.173 39.1708 52.5021 39.0062C54.8063 38.3479 57.1105 37.0312 58.7563 35.2208L64.5167 29.4604L49.5396 14.3187Z" fill="#EA5F32"/>
<path d="M64.5167 19.0917C63.6937 19.0917 62.8708 18.7625 62.2125 18.1042L60.8958 16.7875C59.5792 15.4708 59.5792 13.4958 60.7312 12.1792L70.7708 1.15208C71.5937 0.49375 72.4167 0 73.4042 0C74.3917 0 75.2146 0.329167 75.8729 0.9875L78.0125 3.12708C78.6708 3.78542 79 4.77292 79 5.59583C79 6.58333 78.5062 7.40625 77.8479 8.06458L66.8208 18.1042C66.1625 18.7625 65.3396 19.0917 64.5167 19.0917ZM73.5687 3.29167L63.3646 14.3188L64.6812 15.6354L75.7083 5.59583L73.5687 3.29167Z" fill="#EA5F32"/>
<path d="M53.325 27.3208C52.8313 27.3208 52.5021 27.1563 52.1729 26.8271C51.5146 26.1688 51.5146 25.1813 52.1729 24.5229L61.5542 15.1417C62.2125 14.4833 63.2 14.4833 63.8584 15.1417C64.5167 15.8 64.5167 16.7875 63.8584 17.4458L54.4771 26.8271C54.1479 27.1563 53.6542 27.3208 53.325 27.3208Z" fill="#EA5F32"/>
<path d="M77.3542 79H1.64583C0.658333 79 0 78.3417 0 77.3542V47.7292C0 46.7417 0.658333 46.0833 1.64583 46.0833H77.3542C78.3417 46.0833 79 46.7417 79 47.7292V77.3542C79 78.3417 78.3417 79 77.3542 79ZM3.29167 75.7083H75.7083V49.375H3.29167V75.7083Z" fill="#EA5F32"/>
<path d="M77.3542 69.125H1.64583C0.658333 69.125 0 68.4667 0 67.4791C0 66.4916 0.658333 65.8333 1.64583 65.8333H77.3542C78.3417 65.8333 79 66.4916 79 67.4791C79 68.4667 78.3417 69.125 77.3542 69.125Z" fill="#EA5F32"/>
<path d="M77.3542 59.25H1.64583C0.658333 59.25 0 58.5917 0 57.6042C0 56.6167 0.658333 55.9583 1.64583 55.9583H77.3542C78.3417 55.9583 79 56.6167 79 57.6042C79 58.5917 78.3417 59.25 77.3542 59.25Z" fill="#EA5F32"/>
<path d="M39.5 79C38.5125 79 37.8541 78.3417 37.8541 77.3542V67.4791C37.8541 66.4916 38.5125 65.8333 39.5 65.8333C40.4875 65.8333 41.1458 66.4916 41.1458 67.4791V77.3542C41.1458 78.3417 40.4875 79 39.5 79Z" fill="#EA5F32"/>
<path d="M19.75 69.125C18.7625 69.125 18.1041 68.4667 18.1041 67.4792V57.6042C18.1041 56.6167 18.7625 55.9583 19.75 55.9583C20.7375 55.9583 21.3958 56.6167 21.3958 57.6042V67.4792C21.3958 68.4667 20.7375 69.125 19.75 69.125Z" fill="#EA5F32"/>
<path d="M59.25 69.125C58.2625 69.125 57.6041 68.4667 57.6041 67.4792V57.6042C57.6041 56.6167 58.2625 55.9583 59.25 55.9583C60.2375 55.9583 60.8958 56.6167 60.8958 57.6042V67.4792C60.8958 68.4667 60.2375 69.125 59.25 69.125Z" fill="#EA5F32"/>
<path d="M39.5 59.25C38.5125 59.25 37.8541 58.5917 37.8541 57.6042V47.7292C37.8541 46.7417 38.5125 46.0833 39.5 46.0833C40.4875 46.0833 41.1458 46.7417 41.1458 47.7292V57.6042C41.1458 58.5917 40.4875 59.25 39.5 59.25Z" fill="#EA5F32"/>
</g>
<defs>
<clipPath id="clip0">
<rect width="79" height="79" fill="white"/>
</clipPath>
</defs>
</svg>
