<svg width="160" height="42" viewBox="0 0 160 42" fill="none" xmlns="http://www.w3.org/2000/svg">
<g clip-path="url(#clip0)">
<g opacity="0.9">
<path opacity="0.9" d="M8.02847 37.3207C8.02847 38.0054 7.91459 38.5761 7.68683 39.1467C7.45907 39.7174 7.17438 40.1739 6.7758 40.5734C6.37722 40.9728 5.86477 41.2582 5.35231 41.4864C4.78292 41.7147 4.15658 41.8288 3.47331 41.8288H0V32.8125H3.47331C4.15658 32.8125 4.78292 32.9266 5.35231 33.1549C5.92171 33.3832 6.37722 33.6685 6.7758 34.0679C7.17438 34.4674 7.51601 34.9239 7.68683 35.4946C7.85765 36.0652 8.02847 36.6929 8.02847 37.3207ZM6.32028 37.3207C6.32028 36.8071 6.26334 36.3505 6.09253 36.0082C5.97865 35.6087 5.75089 35.2663 5.52313 34.981C5.29537 34.6957 4.95374 34.5245 4.6121 34.3533C4.27046 34.1821 3.87189 34.125 3.41637 34.125H1.70819V40.5163H3.47331C3.92883 40.5163 4.3274 40.4592 4.66904 40.288C5.01068 40.1168 5.29537 39.9457 5.58007 39.6603C5.86477 39.375 6.03559 39.0326 6.14947 38.6332C6.26335 38.2908 6.32028 37.8342 6.32028 37.3207Z" fill="#212121"/>
<path opacity="0.9" d="M12.7544 35.3232C13.153 35.3232 13.5516 35.3803 13.8932 35.4944C14.2348 35.6086 14.5195 35.8368 14.7473 36.0651C14.9751 36.2934 15.2028 36.6357 15.3167 36.9781C15.4306 37.3205 15.5445 37.777 15.5445 38.2336C15.5445 38.3477 15.5445 38.4618 15.5445 38.5189C15.5445 38.576 15.4875 38.633 15.4875 38.6901C15.4875 38.7472 15.4306 38.7472 15.3736 38.8042C15.3167 38.8042 15.2598 38.8042 15.2028 38.8042H11.2171C11.274 39.489 11.4448 39.9455 11.7295 40.2879C12.0142 40.5732 12.4697 40.7444 12.9822 40.7444C13.2099 40.7444 13.4377 40.6874 13.6085 40.6303C13.7793 40.5732 13.9502 40.5162 14.064 40.4591C14.1779 40.402 14.2918 40.345 14.4057 40.2879C14.5195 40.2308 14.6334 40.1738 14.6904 40.1738C14.7473 40.1738 14.8042 40.1738 14.8612 40.2308C14.9181 40.2879 14.9751 40.2879 14.9751 40.345L15.4306 40.9156C15.2598 41.1439 15.0889 41.258 14.8612 41.4292C14.6334 41.6004 14.4626 41.6575 14.2348 41.7716C14.0071 41.8287 13.7793 41.8857 13.5516 41.9428C13.3238 41.9999 13.0961 41.9999 12.8683 41.9999C12.4128 41.9999 12.0142 41.9428 11.6156 41.7716C11.2171 41.6004 10.8754 41.4292 10.5907 41.0868C10.306 40.8015 10.0783 40.4591 9.90745 40.0026C9.73663 39.5461 9.67969 39.0895 9.67969 38.5189C9.67969 38.0624 9.73663 37.6629 9.90745 37.2635C10.0213 36.864 10.2491 36.5216 10.5338 36.2363C10.8185 35.951 11.1032 35.7227 11.5018 35.5515C11.8434 35.4374 12.242 35.3232 12.7544 35.3232ZM12.7544 36.4645C12.2989 36.4645 11.9573 36.5787 11.6726 36.864C11.3879 37.1493 11.274 37.4917 11.1601 37.9482H14.064C14.064 37.72 14.064 37.5488 14.0071 37.3776C13.9502 37.2064 13.8932 37.0352 13.7793 36.9211C13.6655 36.8069 13.5516 36.6928 13.3808 36.5787C13.2099 36.4645 12.9822 36.4645 12.7544 36.4645Z" fill="#212121"/>
<path opacity="0.9" d="M21.4093 36.6928C21.3524 36.7498 21.2954 36.8069 21.2954 36.8069C21.2385 36.8069 21.1815 36.8639 21.1246 36.8639C21.0677 36.8639 20.9538 36.8639 20.8968 36.8069C20.8399 36.7498 20.726 36.6928 20.6121 36.6928C20.4983 36.6357 20.3844 36.5786 20.2136 36.5786C20.0427 36.5216 19.8719 36.5216 19.7011 36.5216C19.4164 36.5216 19.1317 36.5786 18.9609 36.6928C18.7901 36.8069 18.6762 36.9781 18.6762 37.2063C18.6762 37.3205 18.7331 37.4346 18.7901 37.5487C18.847 37.6629 19.0178 37.7199 19.1317 37.777C19.2456 37.8341 19.4734 37.8911 19.6442 37.9482C19.815 38.0053 20.0427 38.0623 20.2136 38.1194C20.3844 38.1765 20.6121 38.2906 20.783 38.3476C20.9538 38.4047 21.1246 38.5188 21.2954 38.69C21.4662 38.8042 21.5801 38.9754 21.6371 39.1466C21.7509 39.3178 21.7509 39.546 21.7509 39.8313C21.7509 40.1167 21.694 40.402 21.5801 40.6873C21.4662 40.9726 21.2954 41.2009 21.0677 41.3721C20.8399 41.5433 20.5552 41.7145 20.2705 41.8286C19.9858 41.9428 19.5872 41.9998 19.1887 41.9998C18.9609 41.9998 18.7331 41.9998 18.5623 41.9428C18.3346 41.8857 18.1637 41.8286 17.936 41.7716C17.7652 41.7145 17.5374 41.6004 17.4235 41.5433C17.2527 41.4292 17.1388 41.315 16.968 41.258L17.3097 40.6873C17.3666 40.6303 17.4235 40.5732 17.4805 40.5161C17.5374 40.4591 17.5944 40.4591 17.7082 40.4591C17.8221 40.4591 17.879 40.4591 17.9929 40.5161C18.1068 40.5732 18.1637 40.6303 18.2776 40.6873C18.3915 40.7444 18.5054 40.8014 18.6762 40.8585C18.847 40.9156 19.0178 40.9156 19.2456 40.9156C19.4164 40.9156 19.5872 40.9156 19.7011 40.8585C19.815 40.8014 19.9289 40.7444 20.0428 40.6873C20.0997 40.6303 20.2136 40.5161 20.2136 40.4591C20.2705 40.3449 20.2705 40.2879 20.2705 40.1737C20.2705 40.0025 20.2136 39.8884 20.1566 39.8313C20.0428 39.7172 19.9289 39.6601 19.815 39.6031C19.6442 39.546 19.4734 39.4889 19.3025 39.4319C19.1317 39.3748 18.904 39.3178 18.7331 39.2607C18.5623 39.2036 18.3346 39.0895 18.1637 39.0324C17.9929 38.9183 17.8221 38.8042 17.6513 38.69C17.4805 38.5759 17.3666 38.4047 17.3097 38.1764C17.1958 37.9482 17.1958 37.7199 17.1958 37.4346C17.1958 37.1493 17.2527 36.921 17.3666 36.6928C17.4805 36.4645 17.6513 36.2362 17.8221 36.065C18.0499 35.8938 18.2776 35.7226 18.5623 35.6656C18.847 35.5514 19.1887 35.4944 19.5872 35.4944C20.0428 35.4944 20.4413 35.5514 20.783 35.7226C21.1246 35.8938 21.4662 36.065 21.694 36.2933L21.4093 36.6928Z" fill="#212121"/>
<path opacity="0.9" d="M28.9253 41.8857H28.242C28.0712 41.8857 27.9573 41.8857 27.9003 41.8286C27.8434 41.7716 27.7295 41.7145 27.7295 41.5433L27.5587 41.0868C27.3879 41.258 27.2171 41.3721 27.1032 41.4862C26.9324 41.6004 26.7616 41.7145 26.5907 41.7715C26.4199 41.8286 26.2491 41.8857 26.0783 41.9427C25.9075 41.9998 25.6797 41.9998 25.4519 41.9998C25.1672 41.9998 24.9395 41.9427 24.7117 41.8857C24.484 41.8286 24.2562 41.7145 24.1423 41.5433C23.9715 41.3721 23.8576 41.2009 23.7438 40.9726C23.6299 40.7444 23.6299 40.5161 23.6299 40.2308C23.6299 40.0025 23.6868 39.7743 23.8007 39.4889C23.9146 39.2607 24.1423 39.0324 24.427 38.8612C24.7117 38.69 25.1103 38.5188 25.6228 38.4047C26.1352 38.2906 26.7046 38.2335 27.4448 38.2335V37.8341C27.4448 37.3775 27.331 37.0922 27.1601 36.8639C26.9893 36.6357 26.7046 36.5786 26.363 36.5786C26.1352 36.5786 25.9075 36.6357 25.7366 36.6927C25.5658 36.7498 25.4519 36.8069 25.2811 36.8639C25.1672 36.921 25.0534 36.9781 24.9395 37.0351C24.8256 37.0922 24.7117 37.0922 24.5979 37.0922C24.484 37.0922 24.427 37.0922 24.3132 37.0351C24.2562 36.9781 24.1993 36.921 24.1423 36.8069L23.8576 36.2933C24.5979 35.6085 25.5089 35.2661 26.5338 35.2661C26.9324 35.2661 27.2171 35.3232 27.5587 35.4373C27.8434 35.5514 28.1281 35.7226 28.2989 35.9509C28.4697 36.1792 28.6406 36.4074 28.7544 36.7498C28.8683 37.0351 28.9253 37.3775 28.9253 37.777V41.8857ZM25.9075 40.9156C26.0783 40.9156 26.1922 40.9156 26.363 40.8585C26.4769 40.8014 26.6477 40.8014 26.7616 40.7444C26.8754 40.6873 26.9893 40.6302 27.1032 40.5161C27.2171 40.459 27.331 40.3449 27.4448 40.2308V39.1465C26.9893 39.1465 26.5907 39.1465 26.306 39.2036C26.0213 39.2607 25.7366 39.3177 25.5658 39.4319C25.395 39.546 25.2242 39.6031 25.1672 39.7172C25.1103 39.8313 25.0534 39.9455 25.0534 40.1167C25.0534 40.402 25.1103 40.5732 25.2811 40.6873C25.4519 40.8585 25.6797 40.9156 25.9075 40.9156Z" fill="#212121"/>
<path opacity="0.9" d="M31.2598 41.8858V35.4374H32.1708C32.3416 35.4374 32.4555 35.4945 32.5124 35.5516C32.5694 35.6086 32.6263 35.7228 32.6263 35.8369L32.7402 36.6358C32.9679 36.2363 33.2526 35.951 33.5373 35.7228C33.822 35.4945 34.2206 35.3804 34.5623 35.3804C34.9039 35.3804 35.1316 35.4374 35.3594 35.6086L35.1317 36.7499C35.1317 36.807 35.0747 36.8641 35.0747 36.9211C35.0178 36.9782 34.9608 36.9782 34.9039 36.9782C34.847 36.9782 34.7331 36.9782 34.6192 36.9211C34.5053 36.8641 34.3914 36.8641 34.1637 36.8641C33.822 36.8641 33.5943 36.9782 33.3096 37.1494C33.0249 37.3206 32.911 37.6059 32.7402 37.9483V41.9429H31.2598V41.8858Z" fill="#212121"/>
<path opacity="0.9" d="M37.1814 41.8858V35.4374H38.0924C38.2632 35.4374 38.3771 35.4945 38.4341 35.5516C38.491 35.6086 38.5479 35.7228 38.5479 35.8369L38.6618 36.6358C38.8896 36.2363 39.1743 35.951 39.459 35.7228C39.7437 35.4945 40.1422 35.3804 40.4839 35.3804C40.8255 35.3804 41.0533 35.4374 41.281 35.6086L41.0533 36.7499C41.0533 36.807 40.9963 36.8641 40.9963 36.9211C40.9394 36.9782 40.8825 36.9782 40.8255 36.9782C40.7686 36.9782 40.6547 36.9782 40.5408 36.9211C40.4269 36.8641 40.3131 36.8641 40.0853 36.8641C39.7437 36.8641 39.5159 36.9782 39.2312 37.1494C38.9465 37.3206 38.8326 37.6059 38.6618 37.9483V41.9429H37.1814V41.8858Z" fill="#212121"/>
<path opacity="0.9" d="M45.8932 35.3232C46.3487 35.3232 46.8042 35.3803 47.2028 35.5515C47.6014 35.7227 47.943 35.951 48.2277 36.2363C48.5124 36.5216 48.7402 36.864 48.8541 37.2635C48.9679 37.6629 49.0818 38.1194 49.0818 38.633C49.0818 39.1466 49.0249 39.6031 48.8541 40.0026C48.6832 40.402 48.5124 40.7444 48.2277 41.0298C47.943 41.3151 47.6014 41.5433 47.2028 41.7145C46.8042 41.8857 46.3487 41.9428 45.8932 41.9428C45.4377 41.9428 44.9822 41.8857 44.5836 41.7145C44.185 41.5433 43.8434 41.3151 43.5587 41.0298C43.274 40.7444 43.0462 40.402 42.9323 40.0026C42.7615 39.6031 42.7046 39.1466 42.7046 38.633C42.7046 38.1194 42.7615 37.6629 42.9323 37.2635C43.1032 36.864 43.274 36.5216 43.5587 36.2363C43.8434 35.951 44.185 35.7227 44.5836 35.5515C44.9252 35.4374 45.3807 35.3232 45.8932 35.3232ZM45.8932 40.8015C46.4057 40.8015 46.8042 40.6303 47.0889 40.2879C47.3736 39.9455 47.4875 39.3749 47.4875 38.6901C47.4875 38.0053 47.3736 37.4917 47.0889 37.0923C46.8042 36.7499 46.4626 36.5216 45.8932 36.5216C45.3238 36.5216 44.9252 36.6928 44.6975 37.0923C44.4128 37.4347 44.2989 38.0053 44.2989 38.6901C44.2989 39.3749 44.4128 39.8885 44.6975 40.2879C44.9252 40.5732 45.3238 40.8015 45.8932 40.8015Z" fill="#212121"/>
<path opacity="0.9" d="M52.7261 32.5271V41.8287H51.1887V32.5271H52.7261Z" fill="#212121"/>
<path opacity="0.9" d="M56.9395 32.5271V41.8287H55.4021V32.5271H56.9395Z" fill="#212121"/>
<path opacity="0.9" d="M62.2348 35.3232C62.6903 35.3232 63.1458 35.3803 63.5444 35.5515C63.9429 35.7227 64.2846 35.951 64.5693 36.2363C64.854 36.5216 65.0817 36.864 65.1956 37.2635C65.3095 37.6629 65.4234 38.1194 65.4234 38.633C65.4234 39.1466 65.3664 39.6031 65.1956 40.0026C65.0248 40.402 64.854 40.7444 64.5693 41.0298C64.2846 41.3151 63.9429 41.5433 63.5444 41.7145C63.1458 41.8857 62.6903 41.9428 62.2348 41.9428C61.7792 41.9428 61.3237 41.8857 60.9251 41.7145C60.5266 41.5433 60.1849 41.3151 59.9002 41.0298C59.6155 40.7444 59.3878 40.402 59.2739 40.0026C59.1031 39.6031 59.0461 39.1466 59.0461 38.633C59.0461 38.1194 59.1031 37.6629 59.2739 37.2635C59.4447 36.864 59.6155 36.5216 59.9002 36.2363C60.1849 35.951 60.5266 35.7227 60.9251 35.5515C61.3237 35.4374 61.7223 35.3232 62.2348 35.3232ZM62.2348 40.8015C62.7472 40.8015 63.1458 40.6303 63.4305 40.2879C63.7152 39.9455 63.8291 39.3749 63.8291 38.6901C63.8291 38.0053 63.7152 37.4917 63.4305 37.0923C63.1458 36.7499 62.8042 36.5216 62.2348 36.5216C61.6654 36.5216 61.2668 36.6928 61.039 37.0923C60.7543 37.4347 60.6405 38.0053 60.6405 38.6901C60.6405 39.3749 60.7543 39.8885 61.039 40.2879C61.2668 40.5732 61.6654 40.8015 62.2348 40.8015Z" fill="#212121"/>
<path opacity="0.9" d="M71.2313 36.6928C71.1744 36.7498 71.1174 36.8069 71.1174 36.8069C71.0605 36.8069 71.0036 36.8639 70.9466 36.8639C70.8897 36.8639 70.7758 36.8639 70.7189 36.8069C70.6619 36.7498 70.548 36.6928 70.4342 36.6928C70.3203 36.6357 70.2064 36.5786 70.0356 36.5786C69.8648 36.5216 69.694 36.5216 69.5231 36.5216C69.2384 36.5216 68.9537 36.5786 68.7829 36.6928C68.6121 36.8069 68.4982 36.9781 68.4982 37.2063C68.4982 37.3205 68.5552 37.4346 68.6121 37.5487C68.669 37.6629 68.8399 37.7199 68.9537 37.777C69.0676 37.8341 69.2954 37.8911 69.4662 37.9482C69.637 38.0053 69.8648 38.0623 70.0356 38.1194C70.2064 38.1765 70.4342 38.2906 70.605 38.3476C70.7758 38.4047 70.9466 38.5188 71.1174 38.69C71.2883 38.8042 71.4021 38.9754 71.4591 39.1466C71.573 39.3178 71.573 39.546 71.573 39.8313C71.573 40.1167 71.516 40.402 71.4021 40.6873C71.2883 40.9726 71.1174 41.2009 70.8897 41.3721C70.6619 41.5433 70.3772 41.7145 70.0925 41.8286C69.8078 41.9428 69.4093 41.9998 69.0107 41.9998C68.7829 41.9998 68.5552 41.9998 68.3843 41.9428C68.1566 41.8857 67.9858 41.8286 67.758 41.7716C67.5872 41.7145 67.3594 41.6004 67.2456 41.5433C67.0747 41.4292 66.9609 41.315 66.79 41.258L67.1317 40.6873C67.1886 40.6303 67.2456 40.5732 67.3025 40.5161C67.3594 40.4591 67.4164 40.4591 67.5302 40.4591C67.6441 40.4591 67.7011 40.4591 67.8149 40.5161C67.9288 40.5732 67.9858 40.6303 68.0996 40.6873C68.2135 40.7444 68.3274 40.8014 68.4982 40.8585C68.669 40.9156 68.8399 40.9156 69.0676 40.9156C69.2384 40.9156 69.4093 40.9156 69.5231 40.8585C69.637 40.8014 69.7509 40.7444 69.8648 40.6873C69.9217 40.6303 70.0356 40.5161 70.0356 40.4591C70.0925 40.3449 70.0925 40.2879 70.0925 40.1737C70.0925 40.0025 70.0356 39.8884 69.9786 39.8313C69.8648 39.7172 69.7509 39.6601 69.637 39.6031C69.4662 39.546 69.2954 39.4889 69.1246 39.4319C68.9537 39.3748 68.726 39.3178 68.5552 39.2607C68.3843 39.2036 68.1566 39.0895 67.9858 39.0324C67.8149 38.9183 67.6441 38.8042 67.4733 38.69C67.3025 38.5759 67.1886 38.4047 67.1317 38.1764C67.0178 37.9482 67.0178 37.7199 67.0178 37.4346C67.0178 37.1493 67.0747 36.921 67.1886 36.6928C67.3025 36.4645 67.4733 36.2362 67.6441 36.065C67.8719 35.8938 68.0996 35.7226 68.3843 35.6656C68.669 35.5514 69.0107 35.4944 69.4093 35.4944C69.8648 35.4944 70.2633 35.5514 70.605 35.7226C70.9466 35.8938 71.2883 36.065 71.516 36.2933L71.2313 36.6928Z" fill="#212121"/>
<path opacity="0.9" d="M78.9181 41.8859H77.21V32.8125H78.9181V41.8859Z" fill="#212121"/>
<path opacity="0.9" d="M81.7083 41.8858V35.4374H82.6762C82.904 35.4374 83.0179 35.5516 83.0748 35.7228L83.1887 36.2363C83.3026 36.1222 83.4734 36.0081 83.5873 35.894C83.7011 35.7798 83.872 35.6657 84.0428 35.6086C84.2136 35.5516 84.3844 35.4945 84.5552 35.4374C84.726 35.3804 84.9538 35.3804 85.1816 35.3804C85.5232 35.3804 85.8648 35.4374 86.0926 35.5516C86.3773 35.6657 86.605 35.8369 86.7759 36.0652C86.9467 36.2934 87.1175 36.5217 87.1744 36.8641C87.2883 37.1494 87.2883 37.4918 87.2883 37.8342V41.9429H85.751V37.8342C85.751 37.4347 85.6371 37.1494 85.4663 36.9211C85.2954 36.6929 85.0107 36.5787 84.6691 36.5787C84.3844 36.5787 84.1566 36.6358 83.9289 36.7499C83.7011 36.8641 83.4734 37.0353 83.2456 37.2635V41.9429H81.7083V41.8858Z" fill="#212121"/>
<path opacity="0.9" d="M89.6228 41.8857V35.4373H90.5908C90.8185 35.4373 90.9324 35.5514 90.9894 35.7226L91.1032 36.1792C91.2171 36.065 91.331 35.9509 91.4449 35.8368C91.5588 35.7226 91.6726 35.6656 91.8434 35.5514C91.9573 35.4944 92.1281 35.4373 92.299 35.3802C92.4698 35.3232 92.6406 35.3232 92.8114 35.3232C93.21 35.3232 93.5516 35.4373 93.8363 35.6656C94.121 35.8938 94.2918 36.1792 94.4057 36.5215C94.5196 36.2933 94.6335 36.1221 94.8043 35.9509C94.9751 35.7797 95.1459 35.6656 95.3168 35.5514C95.4876 35.4373 95.7153 35.3802 95.8861 35.3232C96.057 35.2661 96.2847 35.2661 96.5125 35.2661C96.8541 35.2661 97.1958 35.3232 97.4805 35.4373C97.7651 35.5514 97.9929 35.7226 98.1637 35.8938C98.3345 36.1221 98.5054 36.3504 98.6192 36.6357C98.7331 36.921 98.7901 37.2634 98.7901 37.6629V41.7715H97.2527V37.6629C97.2527 37.2634 97.1388 36.921 96.968 36.7498C96.7972 36.5786 96.5125 36.4645 96.1708 36.4645C96 36.4645 95.8862 36.4645 95.7153 36.5215C95.6015 36.5786 95.4876 36.6357 95.3737 36.7498C95.2598 36.8639 95.2029 36.9781 95.1459 37.1493C95.089 37.3205 95.0321 37.4917 95.0321 37.6629V41.7715H93.3808V37.6629C93.3808 37.2063 93.2669 36.921 93.0961 36.6927C92.9253 36.5215 92.6406 36.4074 92.3559 36.4074C92.1281 36.4074 91.9004 36.4645 91.7296 36.5786C91.5588 36.6927 91.331 36.8639 91.1602 37.0351V41.7715H89.6228V41.8857Z" fill="#212121"/>
<path opacity="0.9" d="M103.744 35.3232C104.199 35.3232 104.655 35.3803 105.053 35.5515C105.452 35.7227 105.794 35.951 106.078 36.2363C106.363 36.5216 106.591 36.864 106.705 37.2635C106.875 37.6629 106.932 38.1194 106.932 38.633C106.932 39.1466 106.875 39.6031 106.705 40.0026C106.534 40.402 106.363 40.7444 106.078 41.0298C105.794 41.3151 105.452 41.5433 105.053 41.7145C104.655 41.8857 104.199 41.9428 103.744 41.9428C103.288 41.9428 102.833 41.8857 102.434 41.7145C102.036 41.5433 101.694 41.3151 101.409 41.0298C101.125 40.7444 100.897 40.402 100.783 40.0026C100.669 39.6031 100.555 39.1466 100.555 38.633C100.555 38.1194 100.612 37.6629 100.783 37.2635C100.954 36.864 101.125 36.5216 101.409 36.2363C101.694 35.951 102.036 35.7227 102.434 35.5515C102.833 35.3803 103.231 35.3232 103.744 35.3232ZM103.744 40.8015C104.256 40.8015 104.655 40.6303 104.94 40.2879C105.224 39.9455 105.338 39.3749 105.338 38.6901C105.338 38.0053 105.224 37.4917 104.94 37.0923C104.655 36.7499 104.313 36.5216 103.744 36.5216C103.174 36.5216 102.776 36.6928 102.548 37.0923C102.263 37.4347 102.149 38.0053 102.149 38.6901C102.149 39.3749 102.263 39.8885 102.548 40.2879C102.776 40.5732 103.174 40.8015 103.744 40.8015Z" fill="#212121"/>
<path opacity="0.9" d="M108.925 41.8858V32.5271H110.463V36.1793C110.69 35.8939 111.032 35.6657 111.317 35.5516C111.658 35.3804 112 35.3233 112.456 35.3233C112.797 35.3233 113.139 35.3804 113.424 35.5516C113.708 35.7227 113.936 35.8939 114.164 36.1793C114.391 36.4646 114.562 36.807 114.676 37.2064C114.79 37.6059 114.847 38.0624 114.847 38.6331C114.847 39.0896 114.79 39.5461 114.676 39.9456C114.562 40.345 114.335 40.6874 114.107 41.0298C113.879 41.3151 113.594 41.5434 113.253 41.7146C112.911 41.8858 112.512 41.9429 112.114 41.9429C111.943 41.9429 111.715 41.9429 111.601 41.8858C111.488 41.8287 111.317 41.7717 111.146 41.7146C111.032 41.6575 110.861 41.5434 110.747 41.4293C110.633 41.3151 110.52 41.201 110.406 41.0869L110.349 41.5434C110.349 41.6575 110.292 41.7146 110.235 41.7717C110.178 41.8287 110.064 41.8287 110.007 41.8287H108.925V41.8858ZM111.943 36.5217C111.601 36.5217 111.374 36.5787 111.146 36.7499C110.918 36.8641 110.69 37.0923 110.52 37.3206V40.2309C110.69 40.4592 110.861 40.5733 111.089 40.6874C111.317 40.8016 111.545 40.8016 111.772 40.8016C112 40.8016 112.228 40.7445 112.399 40.6874C112.569 40.5733 112.74 40.4592 112.854 40.288C112.968 40.1168 113.082 39.8885 113.139 39.6032C113.196 39.3179 113.253 39.0325 113.253 38.6331C113.253 38.2336 113.196 37.9483 113.139 37.663C113.082 37.3776 112.968 37.2064 112.854 37.0353C112.74 36.8641 112.626 36.7499 112.456 36.6929C112.342 36.5787 112.114 36.5217 111.943 36.5217Z" fill="#212121"/>
<path opacity="0.9" d="M118.719 33.5543C118.719 33.6685 118.719 33.8397 118.662 33.9538C118.605 34.0679 118.548 34.1821 118.434 34.2391C118.32 34.3533 118.263 34.4103 118.093 34.4674C117.979 34.5244 117.865 34.5244 117.694 34.5244C117.58 34.5244 117.409 34.5244 117.295 34.4674C117.182 34.4103 117.068 34.3533 117.011 34.2391C116.897 34.125 116.84 34.0679 116.783 33.9538C116.726 33.8397 116.726 33.7255 116.726 33.5543C116.726 33.4402 116.726 33.269 116.783 33.1549C116.84 33.0408 116.897 32.9266 117.011 32.8696C117.125 32.7554 117.182 32.6984 117.295 32.6413C117.409 32.5842 117.523 32.5842 117.694 32.5842C117.808 32.5842 117.979 32.5842 118.093 32.6413C118.206 32.6984 118.32 32.7554 118.434 32.8696C118.548 32.9837 118.605 33.0408 118.662 33.1549C118.719 33.269 118.719 33.4402 118.719 33.5543ZM118.491 35.4375V41.8859H116.954V35.4375H118.491Z" fill="#212121"/>
<path opacity="0.9" d="M122.705 32.5271V41.8287H121.167V32.5271H122.705Z" fill="#212121"/>
<path opacity="0.9" d="M127.146 33.5543C127.146 33.6685 127.146 33.8397 127.089 33.9538C127.032 34.0679 126.975 34.1821 126.861 34.2391C126.747 34.3533 126.69 34.4103 126.52 34.4674C126.406 34.5244 126.292 34.5244 126.121 34.5244C126.007 34.5244 125.836 34.5244 125.722 34.4674C125.609 34.4103 125.495 34.3533 125.438 34.2391C125.381 34.125 125.267 34.0679 125.21 33.9538C125.153 33.8397 125.153 33.7255 125.153 33.5543C125.153 33.4402 125.153 33.269 125.21 33.1549C125.267 33.0408 125.324 32.9266 125.438 32.8696C125.552 32.7554 125.609 32.6984 125.722 32.6413C125.836 32.5842 125.95 32.5842 126.121 32.5842C126.235 32.5842 126.406 32.5842 126.52 32.6413C126.634 32.6984 126.747 32.7554 126.861 32.8696C126.975 32.9837 127.032 33.0408 127.089 33.1549C127.146 33.269 127.146 33.4402 127.146 33.5543ZM126.918 35.4375V41.8859H125.381V35.4375H126.918Z" fill="#212121"/>
<path opacity="0.9" d="M134.548 41.8857H133.808C133.637 41.8857 133.523 41.8857 133.466 41.8287C133.409 41.7716 133.295 41.7145 133.295 41.5434L133.182 41.0868C133.011 41.258 132.84 41.3722 132.726 41.4863C132.555 41.6004 132.384 41.7145 132.214 41.7716C132.043 41.8287 131.872 41.8857 131.701 41.9428C131.53 41.9999 131.303 41.9999 131.075 41.9999C130.79 41.9999 130.562 41.9428 130.335 41.8857C130.107 41.8287 129.879 41.7145 129.765 41.5434C129.594 41.3722 129.48 41.201 129.367 40.9727C129.253 40.7444 129.253 40.5162 129.253 40.2308C129.253 40.0026 129.31 39.7743 129.424 39.489C129.537 39.2607 129.765 39.0325 130.05 38.8613C130.335 38.6901 130.733 38.5189 131.246 38.4048C131.758 38.2906 132.327 38.2336 133.068 38.2336V37.8341C133.068 37.3776 132.954 37.0923 132.783 36.864C132.612 36.6357 132.327 36.5787 131.986 36.5787C131.758 36.5787 131.53 36.6357 131.359 36.6928C131.189 36.7499 131.075 36.8069 130.904 36.864C130.79 36.9211 130.676 36.9781 130.562 37.0352C130.448 37.0923 130.335 37.1493 130.221 37.1493C130.107 37.1493 130.05 37.1493 129.936 37.0923C129.879 37.0352 129.822 36.9781 129.765 36.864L129.48 36.3504C130.221 35.6656 131.132 35.3232 132.157 35.3232C132.555 35.3232 132.84 35.3803 133.182 35.4944C133.466 35.6086 133.751 35.7798 133.922 36.008C134.093 36.2363 134.263 36.4645 134.377 36.8069C134.491 37.0923 134.548 37.4347 134.548 37.8341V41.8857ZM131.53 40.9156C131.701 40.9156 131.815 40.9156 131.986 40.8586C132.1 40.8015 132.27 40.8015 132.384 40.7444C132.498 40.6874 132.612 40.6303 132.726 40.5162C132.84 40.4591 132.954 40.345 133.068 40.2308V39.1466C132.612 39.1466 132.214 39.1466 131.929 39.2037C131.644 39.2607 131.359 39.3178 131.189 39.4319C131.018 39.5461 130.847 39.6031 130.79 39.7173C130.733 39.8314 130.676 39.9455 130.676 40.1167C130.676 40.402 130.733 40.5732 130.904 40.6874C131.075 40.8586 131.246 40.9156 131.53 40.9156Z" fill="#212121"/>
<path opacity="0.9" d="M136.883 41.8858V35.4374H137.794C137.964 35.4374 138.078 35.4945 138.135 35.5516C138.192 35.6086 138.249 35.7228 138.249 35.8369L138.363 36.6358C138.591 36.2363 138.875 35.951 139.16 35.7228C139.445 35.4945 139.843 35.3804 140.185 35.3804C140.527 35.3804 140.754 35.4374 140.982 35.6086L140.754 36.7499C140.754 36.807 140.698 36.8641 140.698 36.9211C140.641 36.9782 140.584 36.9782 140.527 36.9782C140.47 36.9782 140.356 36.9782 140.242 36.9211C140.128 36.8641 140.014 36.8641 139.786 36.8641C139.445 36.8641 139.217 36.9782 138.932 37.1494C138.648 37.3206 138.534 37.6059 138.363 37.9483V41.9429H136.883V41.8858Z" fill="#212121"/>
<path opacity="0.9" d="M144.683 33.5543C144.683 33.6685 144.683 33.8397 144.626 33.9538C144.569 34.0679 144.513 34.1821 144.399 34.2391C144.285 34.3533 144.228 34.4103 144.057 34.4674C143.943 34.5244 143.829 34.5244 143.658 34.5244C143.545 34.5244 143.374 34.5244 143.26 34.4674C143.146 34.4103 143.032 34.3533 142.975 34.2391C142.918 34.125 142.804 34.0679 142.747 33.9538C142.69 33.8397 142.69 33.7255 142.69 33.5543C142.69 33.4402 142.69 33.269 142.747 33.1549C142.804 33.0408 142.861 32.9266 142.975 32.8696C143.089 32.7554 143.146 32.6984 143.26 32.6413C143.374 32.5842 143.488 32.5842 143.658 32.5842C143.772 32.5842 143.943 32.5842 144.057 32.6413C144.171 32.6984 144.285 32.7554 144.399 32.8696C144.513 32.9837 144.569 33.0408 144.626 33.1549C144.626 33.269 144.683 33.4402 144.683 33.5543ZM144.456 35.4375V41.8859H142.918V35.4375H144.456Z" fill="#212121"/>
<path opacity="0.9" d="M149.751 35.3232C150.206 35.3232 150.662 35.3803 151.06 35.5515C151.459 35.7227 151.801 35.951 152.085 36.2363C152.37 36.5216 152.598 36.864 152.712 37.2635C152.883 37.6629 152.939 38.1194 152.939 38.633C152.939 39.1466 152.883 39.6031 152.712 40.0026C152.541 40.402 152.37 40.7444 152.085 41.0298C151.801 41.3151 151.459 41.5433 151.06 41.7145C150.662 41.8857 150.206 41.9428 149.751 41.9428C149.295 41.9428 148.84 41.8857 148.441 41.7145C148.043 41.5433 147.701 41.3151 147.416 41.0298C147.132 40.7444 146.904 40.402 146.79 40.0026C146.619 39.6031 146.562 39.1466 146.562 38.633C146.562 38.1194 146.619 37.6629 146.79 37.2635C146.961 36.864 147.132 36.5216 147.416 36.2363C147.701 35.951 148.043 35.7227 148.441 35.5515C148.84 35.4374 149.295 35.3232 149.751 35.3232ZM149.751 40.8015C150.263 40.8015 150.662 40.6303 150.947 40.2879C151.231 39.9455 151.345 39.3749 151.345 38.6901C151.345 38.0053 151.231 37.4917 150.947 37.0923C150.662 36.7499 150.32 36.5216 149.751 36.5216C149.181 36.5216 148.783 36.6928 148.555 37.0923C148.27 37.4347 148.157 38.0053 148.157 38.6901C148.157 39.3749 148.27 39.8885 148.555 40.2879C148.783 40.5732 149.181 40.8015 149.751 40.8015Z" fill="#212121"/>
<path opacity="0.9" d="M158.747 36.6928C158.69 36.7498 158.634 36.8069 158.634 36.8069C158.577 36.8069 158.52 36.8639 158.463 36.8639C158.406 36.8639 158.292 36.8639 158.235 36.8069C158.178 36.7498 158.064 36.6928 157.95 36.6928C157.836 36.6357 157.723 36.5786 157.552 36.5786C157.381 36.5216 157.21 36.5216 157.039 36.5216C156.755 36.5216 156.47 36.5786 156.299 36.6928C156.128 36.8069 156.014 36.9781 156.014 37.2063C156.014 37.3205 156.071 37.4346 156.128 37.5487C156.242 37.6629 156.356 37.7199 156.47 37.777C156.641 37.8341 156.811 37.8911 156.982 37.9482C157.153 38.0053 157.381 38.0623 157.552 38.1194C157.723 38.1765 157.95 38.2906 158.121 38.3476C158.292 38.4047 158.463 38.5188 158.634 38.69C158.804 38.8042 158.918 38.9754 158.975 39.1466C159.089 39.3178 159.089 39.546 159.089 39.8313C159.089 40.1167 159.032 40.402 158.918 40.6873C158.804 40.9726 158.634 41.2009 158.406 41.3721C158.178 41.5433 157.893 41.7145 157.609 41.8286C157.267 41.9428 156.925 41.9998 156.527 41.9998C156.299 41.9998 156.071 41.9998 155.9 41.9428C155.73 41.8857 155.502 41.8286 155.274 41.7716C155.103 41.7145 154.876 41.6004 154.762 41.5433C154.591 41.4292 154.477 41.315 154.306 41.258L154.648 40.6873C154.705 40.6303 154.762 40.5732 154.819 40.5161C154.876 40.4591 154.932 40.4591 155.046 40.4591C155.16 40.4591 155.217 40.4591 155.331 40.5161C155.445 40.5732 155.502 40.6303 155.616 40.6873C155.73 40.7444 155.844 40.8014 156.014 40.8585C156.185 40.9156 156.356 40.9156 156.584 40.9156C156.755 40.9156 156.925 40.9156 157.039 40.8585C157.153 40.8014 157.267 40.7444 157.381 40.6873C157.495 40.6303 157.552 40.5161 157.552 40.4591C157.552 40.402 157.609 40.2879 157.609 40.1737C157.609 40.0025 157.552 39.8884 157.495 39.8313C157.381 39.7172 157.267 39.6601 157.153 39.6031C156.982 39.546 156.811 39.4889 156.641 39.4319C156.47 39.3748 156.242 39.3178 156.071 39.2607C155.9 39.2036 155.673 39.0895 155.502 39.0324C155.331 38.9183 155.16 38.8042 154.989 38.69C154.819 38.5759 154.705 38.4047 154.648 38.1764C154.534 37.9482 154.534 37.7199 154.534 37.4346C154.534 37.1493 154.591 36.921 154.705 36.6928C154.819 36.4645 154.989 36.2362 155.16 36.065C155.331 35.8938 155.616 35.7226 155.9 35.6656C156.185 35.5514 156.527 35.4944 156.925 35.4944C157.381 35.4944 157.779 35.5514 158.121 35.7226C158.463 35.8938 158.804 36.065 159.032 36.2933L158.747 36.6928Z" fill="#212121"/>
</g>
<path d="M18.0497 12.8968V12.7256C19.2454 12.3262 20.3273 11.5273 21.1244 10.5001C22.6049 8.38868 22.7188 5.53542 21.3522 3.30988C20.7259 2.33977 19.8148 1.54086 18.733 1.02727C17.5942 0.456619 16.2846 0.171293 15.0319 0.228358H0.11377V26.5354H15.0319C17.1387 26.5925 19.1316 25.9648 20.7828 24.6523C22.2632 23.3968 23.0604 21.5707 23.0604 19.174C23.1173 17.6903 22.6049 16.2066 21.6938 15.0653C20.7828 13.924 19.4732 13.1251 18.0497 12.8968ZM5.6369 4.96477H13.7223C14.5195 4.90771 15.2597 5.19303 15.886 5.70662C16.4554 6.33434 16.7401 7.13325 16.6832 7.93216C16.6832 8.67401 16.3985 9.41586 15.8291 9.92944C15.1458 10.5001 14.3486 10.7854 13.4946 10.7284H5.6369V4.96477ZM16.4554 21.0001C15.8291 21.5708 14.975 21.8561 14.1209 21.8561H5.6369V15.3506H13.7792C14.7472 15.2936 15.7152 15.5789 16.4554 16.2637C17.0817 16.8914 17.4234 17.6903 17.3664 18.5463C17.4234 19.4593 17.0817 20.3153 16.4554 21.0001Z" fill="#EA5F32"/>
<path d="M44.185 0.114014L26.9893 18.1466L26.9324 18.2037V26.7064L44.185 8.5026L60.9253 26.7064V18.2037L44.185 0.114014Z" fill="#EA5F32"/>
<path d="M81.6512 0V16.2636C81.6512 18.1467 81.1387 19.5734 80.1708 20.6005C79.2028 21.6277 77.7793 22.0842 75.9572 22.0842C74.1352 22.0842 72.7686 21.5707 71.8007 20.6005C70.8327 19.6304 70.3202 18.2038 70.3202 16.2636V0H64.7971V16.5489C64.7971 19.9158 65.7651 22.4266 67.701 24.1957C69.637 25.9647 72.3701 26.8207 75.9003 26.8207C79.4306 26.8207 82.2206 25.9647 84.1565 24.1957C86.0925 22.4837 87.1174 19.9158 87.1174 16.5489V0H81.6512Z" fill="#EA5F32"/>
<path d="M91.0464 5.02175H99.1318V26.5353H104.598V5.02175H112.683V0.228271H91.0464V5.02175Z" fill="#949CA3"/>
<path d="M122.021 15.4647H135.345V10.7283H122.021V4.96468H136.996V0.228271H116.555V26.5353H137.224V21.7989H122.021V15.4647Z" fill="#949CA3"/>
<path d="M147.303 12.8968L160 0.2854H151.801L139.16 12.8968L151.63 26.4783H160L147.303 12.8968Z" fill="#949CA3"/>
</g>
<defs>
<clipPath id="clip0">
<rect width="160" height="42" fill="white"/>
</clipPath>
</defs>
</svg>
