<svg width="76" height="67" viewBox="0 0 76 67" fill="none" xmlns="http://www.w3.org/2000/svg">
<g clip-path="url(#clip0)">
<path d="M8.24358 67H67.7926C72.3482 67 76.0362 63.3199 76.0362 58.7738V7.97361C76.0362 3.57189 72.4929 0.0360797 68.118 0H63.5985C62.5138 0 61.646 0.865913 61.646 1.9483V8.73129H14.4263V1.98438C14.4263 0.901992 13.5947 0.0360797 12.51 0H12.4738H7.95433C3.54329 0 0 3.57189 0 7.93753V58.7378C0 63.3199 3.68792 67 8.24358 67C8.20742 67 8.24358 67 8.24358 67ZM65.4786 3.89661H68.0457C70.2873 3.89661 72.0951 5.70059 72.0951 7.93753V51.7744C70.7935 50.9806 69.3111 50.5477 67.7564 50.5477H65.4424L65.4786 3.89661ZM3.90485 7.97361C3.90485 5.73667 5.6765 3.93269 7.91817 3.89661H7.95433H10.5214V50.5477H8.17127C6.65271 50.5477 5.13416 50.9806 3.83254 51.7744L3.90485 7.97361ZM3.90485 58.3048C3.94101 58.2326 3.94101 58.1244 3.97716 58.0522C4.30257 55.9596 6.11037 54.4443 8.24358 54.4443H12.51C13.5947 54.4443 14.4624 53.5784 14.4624 52.496V12.6279H61.6099V52.496C61.6099 53.5784 62.4776 54.4443 63.5623 54.4443H67.8287C69.9619 54.4443 71.7697 55.9596 72.0951 58.0522C72.0951 58.1244 72.1313 58.2326 72.1675 58.3048V58.7738C72.1675 61.1551 70.2512 63.1034 67.8649 63.1034H8.24358C5.85728 63.1034 3.90485 61.1551 3.90485 58.7738V58.3048Z" fill="#EA5F32"/>
<path d="M22.1637 48.419H30.9857C32.0704 48.419 32.9382 47.553 32.9382 46.4707V33.3016H38.5424C39.627 33.3016 40.4948 32.4356 40.4948 31.3533V22.5137C40.4948 21.4313 39.627 20.5654 38.5424 20.5654H22.1637C21.079 20.5654 20.2112 21.4313 20.2112 22.5137V46.4707C20.2112 47.553 21.079 48.419 22.1637 48.419ZM24.1161 24.462H36.6261V29.405H30.9857C29.9011 29.405 29.0333 30.2709 29.0333 31.3533V44.5584H24.1161V24.462Z" fill="#EA5F32"/>
<path d="M29.6118 52.7485C28.8525 53.5062 28.8525 54.7329 29.5756 55.4906C29.9372 55.8514 30.4434 56.0678 30.9496 56.0678C31.0942 56.0678 31.2026 56.0678 31.3473 56.0678C31.4919 56.0318 31.6365 55.9957 31.745 55.9235C31.8535 55.8875 31.9619 55.8153 32.0704 55.7431C32.1789 55.671 32.2873 55.5988 32.3596 55.4906C33.1189 54.7329 33.1189 53.5062 32.3596 52.7485C31.6004 52.0269 30.4072 52.0269 29.6118 52.7485Z" fill="#EA5F32"/>
<path d="M46.2436 56.1039C47.3219 56.1039 48.196 55.2316 48.196 54.1556C48.196 53.0796 47.3219 52.2073 46.2436 52.2073C45.1653 52.2073 44.2911 53.0796 44.2911 54.1556C44.2911 55.2316 45.1653 56.1039 46.2436 56.1039Z" fill="#EA5F32"/>
<path d="M38.6147 56.1039C39.6929 56.1039 40.5671 55.2316 40.5671 54.1556C40.5671 53.0796 39.6929 52.2073 38.6147 52.2073C37.5364 52.2073 36.6622 53.0796 36.6622 54.1556C36.6622 55.2316 37.5364 56.1039 38.6147 56.1039Z" fill="#EA5F32"/>
<path d="M53.8725 48.4911C54.9508 48.4911 55.825 47.6188 55.825 46.5428C55.825 45.4668 54.9508 44.5945 53.8725 44.5945C52.7942 44.5945 51.9201 45.4668 51.9201 46.5428C51.9201 47.6188 52.7942 48.4911 53.8725 48.4911Z" fill="#EA5F32"/>
<path d="M53.8725 40.8783C54.9572 40.8783 55.825 40.0124 55.825 38.93C55.825 37.8476 54.9572 36.9817 53.8725 36.9817C52.7878 36.9817 51.9201 37.8476 51.9201 38.93C51.9201 40.0124 52.7878 40.8783 53.8725 40.8783Z" fill="#EA5F32"/>
<path d="M46.2436 33.3016C47.3219 33.3016 48.196 32.4293 48.196 31.3533C48.196 30.2772 47.3219 29.405 46.2436 29.405C45.1653 29.405 44.2911 30.2772 44.2911 31.3533C44.2911 32.4293 45.1653 33.3016 46.2436 33.3016Z" fill="#EA5F32"/>
<path d="M53.8725 33.3016C54.9572 33.3016 55.825 32.4356 55.825 31.3533C55.825 30.2709 54.9572 29.405 53.8725 29.405C52.7878 29.405 51.9201 30.2709 51.9201 31.3533C51.9201 32.4356 52.7878 33.3016 53.8725 33.3016Z" fill="#EA5F32"/>
<path d="M53.8725 56.1039C54.9572 56.1039 55.825 55.238 55.825 54.1556C55.825 53.0732 54.9572 52.2073 53.8725 52.2073C52.7878 52.2073 51.9201 53.0732 51.9201 54.1556C51.9201 55.238 52.7878 56.1039 53.8725 56.1039Z" fill="#EA5F32"/>
</g>
<defs>
<clipPath id="clip0">
<rect width="76" height="67" fill="white"/>
</clipPath>
</defs>
</svg>
