<svg width="80" height="80" viewBox="0 0 80 80" fill="none" xmlns="http://www.w3.org/2000/svg">
<path d="M1.31455 42.6667H15.9624V40H13.2958V32H10.6291V40H2.66667V22.6479H10.6667V26.6667H13.3333V17.3145H10.6667V19.9812H2.66667V5.33333H10.6667V11.9812H13.3333V5.33333H19.9812V17.3145C19.9812 18.0657 20.5822 18.6291 21.2958 18.6291H29.2958V15.9624H22.6479V5.33333H35.9812V9.31455H38.6479V3.98122C38.6479 3.23004 38.047 2.66666 37.3333 2.66666H1.31455C0.56338 2.66666 0 3.2676 0 3.98122V41.3145C0 42.0657 0.600939 42.6667 1.31455 42.6667Z" fill="#EA5F32"/>
<path d="M38.6479 41.3146V35.9812H35.9812V39.9624H19.9812V42.6291H37.2958C38.0845 42.6667 38.6479 42.0657 38.6479 41.3146Z" fill="#EA5F32"/>
<path d="M31.0235 21.7465C30.9108 21.8592 30.8357 21.9718 30.7606 22.1221V22.1596L26.7793 31.4742C26.554 31.9624 26.6667 32.5634 27.0798 32.939C27.3427 33.2019 27.6807 33.3146 28.0188 33.3146C28.2066 33.3146 28.3568 33.277 28.5446 33.2019L37.8591 29.2207H37.8967C38.0469 29.1455 38.1596 29.0704 38.2723 28.9577C38.2723 28.9577 38.3098 28.9577 38.3098 28.9202L55.5868 11.6056L58.4789 8.71361C59.4554 7.73709 59.9812 6.46009 59.9812 5.10798C59.9812 2.29108 57.6901 0 54.8732 0C53.5211 0 52.2441 0.525822 51.2676 1.50235L48.3756 4.39437L31.061 21.7089C31.061 21.7465 31.0235 21.7465 31.0235 21.7465ZM30.5352 29.446L32.4507 24.9765L35.0047 27.5305L30.5352 29.446ZM53.1831 3.38028C53.6338 2.92958 54.2723 2.66667 54.9108 2.66667C56.2629 2.66667 57.3521 3.75587 57.3521 5.10798C57.3521 5.74648 57.0892 6.38498 56.6385 6.83568L54.6854 8.78873L51.23 5.33333L53.1831 3.38028ZM49.3145 7.21127L52.7699 10.6667L37.3333 26.1033L33.8779 22.6479L49.3145 7.21127Z" fill="#EA5F32"/>
<path d="M22.6479 32H19.9812V34.6667H22.6479V32Z" fill="#EA5F32"/>
<path d="M22.6479 26.6667H19.9812V29.3333H22.6479V26.6667Z" fill="#EA5F32"/>
<path d="M22.6479 21.3333H19.9812V24H22.6479V21.3333Z" fill="#EA5F32"/>
<path d="M74.6667 61.3333V60.0188C74.6667 54.8732 70.4976 50.7042 65.3521 50.7042H60.0188V47.0986C63.2488 44.6948 65.3521 40.6385 65.3521 36.0188C65.3521 35.5305 65.3145 35.0047 65.277 34.5164C65.277 34.4413 65.277 34.4038 65.2394 34.3286C65.1268 33.4648 64.9765 32.6009 64.7136 31.8122C64.6009 31.4742 64.5258 31.1362 64.3756 30.8357C64.3756 30.7981 64.338 30.7606 64.338 30.723C64.1878 30.385 64.0376 30.0094 63.8873 29.6714C63.8873 29.6338 63.8498 29.6338 63.8498 29.5962C63.662 29.2582 63.4742 28.8826 63.2864 28.5446L63.2488 28.507C63.0235 28.169 62.8357 27.831 62.5728 27.5305L62.5352 27.493C62.3099 27.1925 62.0469 26.892 61.8216 26.5916C61.8216 26.554 61.784 26.554 61.7465 26.5164C61.4836 26.2535 61.2582 25.9906 60.9577 25.7277C60.9202 25.6901 60.8826 25.6526 60.8451 25.6526C60.5822 25.4272 60.3192 25.2019 60.0563 24.9765C60.0188 24.939 59.9437 24.9014 59.9061 24.8638C59.6432 24.6761 59.3803 24.4883 59.1174 24.338C59.0422 24.3005 58.9671 24.2629 58.892 24.2254C58.6291 24.0751 58.3662 23.9249 58.1033 23.8122C58.0282 23.7746 57.9155 23.7371 57.8404 23.662C57.5775 23.5493 57.3145 23.4366 57.0516 23.3615C56.939 23.3239 56.8263 23.2864 56.7136 23.2488C56.4507 23.1737 56.1878 23.0986 55.9249 23.0235C55.8122 22.9859 55.6995 22.9484 55.5493 22.9108C55.2864 22.8357 55.0235 22.7981 54.723 22.7606C54.6103 22.7606 54.4976 22.723 54.385 22.723C54.0094 22.6854 53.5962 22.6479 53.2207 22.6479C52.8075 22.6479 52.4319 22.6854 52.0188 22.723C51.9061 22.723 51.7934 22.7606 51.6807 22.7606C51.4178 22.7981 51.1174 22.8357 50.8545 22.9108C50.7418 22.9484 50.6291 22.9859 50.5164 22.9859C50.2535 23.061 49.9906 23.1362 49.7277 23.2113C49.615 23.2488 49.5023 23.2864 49.3897 23.3239C49.1268 23.4366 48.8638 23.5117 48.6009 23.6244C48.5258 23.662 48.4131 23.6995 48.338 23.7371C48.0751 23.8873 47.8122 24 47.5493 24.1502C47.4742 24.1878 47.3991 24.2254 47.3615 24.2629C47.0986 24.4507 46.8357 24.6009 46.5728 24.7887C46.5352 24.8263 46.4601 24.8639 46.4225 24.9014C46.1596 25.1268 45.8967 25.3146 45.6338 25.5775C45.5962 25.615 45.5587 25.615 45.5587 25.6526C45.2958 25.9155 45.0329 26.1784 44.7699 26.4413C44.7699 26.4789 44.7324 26.4789 44.7324 26.5164C44.4695 26.8169 44.2441 27.1174 44.0188 27.4178L43.9812 27.4554C43.7559 27.7559 43.5305 28.0939 43.3052 28.4319C43.3052 28.4319 43.3052 28.4695 43.2676 28.4695C43.0798 28.8075 42.892 29.1455 42.7042 29.4836C42.7042 29.5211 42.6667 29.5211 42.6667 29.5587C42.5164 29.8967 42.3662 30.2347 42.216 30.6103C42.216 30.6479 42.1784 30.6854 42.1784 30.723C42.0657 31.0235 41.953 31.3615 41.8779 31.6995C41.6526 32.5258 41.4648 33.3521 41.3521 34.216C41.3521 34.2911 41.3521 34.3286 41.3146 34.4038C41.277 34.892 41.2394 35.3803 41.2394 35.9061C41.2394 40.5258 43.3427 44.5822 46.5728 46.9859V50.5915H41.3146C36.169 50.5915 32 54.7606 32 59.9061V61.2207H30.6854C29.9343 61.2207 29.3709 61.8216 29.3709 62.5352V70.5352C28.6197 70.5352 28.0563 71.1362 28.0563 71.8498V78.4977C28.0563 79.2488 28.6573 79.8122 29.3709 79.8122H32.6761C35.2676 79.8122 37.3333 77.7089 37.3333 75.1549C37.3333 72.6009 35.23 70.4977 32.6761 70.4977H32V63.8498H74.6667C76.1315 63.8498 77.3333 65.0516 77.3333 66.5164C77.3333 67.9812 76.1315 69.1831 74.6667 69.1831H69.3333C68.5822 69.1831 68.0188 69.784 68.0188 70.4977V80H70.6854V72H74.6667C75.6432 72 76.5446 71.6995 77.3333 71.2488V80H80V66.6667C80 63.7371 77.5962 61.3333 74.6667 61.3333ZM34.6667 75.3427C34.6667 76.4319 33.7653 77.3333 32.6761 77.3333H30.6854V73.3521H32.6761C33.7653 73.3146 34.6667 74.216 34.6667 75.3427ZM44.5822 32.2629C44.7324 31.8122 44.8826 31.3615 45.108 30.9484C45.108 30.9108 45.1455 30.8732 45.1831 30.8357C45.3709 30.4601 45.5587 30.0845 45.784 29.7465C45.8592 29.6338 45.9343 29.5211 46.0094 29.4085C46.2347 29.0704 46.4976 28.7324 46.7606 28.4319C46.8357 28.3568 46.9484 28.2441 47.0235 28.169C47.2488 27.9437 47.4742 27.7183 47.7371 27.493C47.8498 27.4178 47.9249 27.3052 48.0376 27.23C48.338 26.9671 48.6761 26.7418 49.0141 26.554C49.1268 26.4789 49.2019 26.4413 49.3146 26.4038C49.615 26.216 49.953 26.0657 50.2911 25.9531C50.3662 25.9155 50.4413 25.8779 50.4789 25.8779C50.892 25.7277 51.2676 25.615 51.6807 25.5399C51.7934 25.5023 51.8685 25.5023 51.9812 25.5023C52.3944 25.4272 52.8451 25.3897 53.2958 25.3897C53.7465 25.3897 54.1596 25.4272 54.5728 25.5023C54.6854 25.5023 54.7606 25.5399 54.8732 25.5399C55.2864 25.615 55.6995 25.7277 56.0751 25.8779C56.1127 25.8779 56.1878 25.9155 56.2253 25.9531C56.5634 26.1033 56.9014 26.2535 57.2394 26.4038C57.3521 26.4413 57.4648 26.5164 57.5399 26.5916C57.8779 26.7793 58.216 27.0047 58.5164 27.2676C58.5915 27.3427 58.7042 27.4178 58.7793 27.493C59.0422 27.6808 59.2676 27.9061 59.493 28.169C59.6056 28.2817 59.6807 28.3568 59.7934 28.4695C60.0563 28.77 60.3192 29.0704 60.5446 29.4085C60.6197 29.5211 60.6948 29.6338 60.7699 29.7465C60.9577 30.0469 61.1455 30.3474 61.2958 30.6479C61.3333 30.723 61.4084 30.8357 61.446 30.9108C61.6338 31.3239 61.8216 31.7371 61.9718 32.1878C61.9718 32.2254 62.0094 32.2629 62.0094 32.3005L59.23 30.9108C58.7042 30.6479 58.1033 30.7606 57.6901 31.1737L55.9624 32.9014L52.9202 29.8592C52.6573 29.5962 52.3192 29.4836 51.9812 29.4836C51.7934 29.4836 51.6432 29.5211 51.4554 29.5962L44.5446 32.5634C44.5822 32.3756 44.5822 32.3005 44.5822 32.2629ZM43.9812 35.9812C43.9812 35.831 43.9812 35.6808 44.0188 35.5305L51.6807 32.2254L55.0235 35.5681C55.2864 35.831 55.6244 35.9437 55.9624 35.9437C56.3005 35.9437 56.6385 35.831 56.9014 35.5681L58.892 33.5775L62.6103 35.4178C62.6103 35.6056 62.6479 35.7559 62.6479 35.9437C62.6479 39.9249 60.7324 43.3803 57.9155 45.2207C55.0986 47.061 51.5305 47.061 48.7136 45.2207C45.8967 43.4178 43.9812 39.9624 43.9812 35.9812ZM50.1033 48.8263C50.2535 48.8638 50.3662 48.9014 50.5164 48.939C50.7418 49.0141 50.9671 49.0516 51.1925 49.0892C51.3052 49.1268 51.4178 49.1268 51.5305 49.1643C51.7934 49.2019 52.0188 49.2394 52.2817 49.277C52.3192 49.277 52.3944 49.277 52.4319 49.277C52.7324 49.3146 53.0329 49.3146 53.3333 49.3146C53.6338 49.3146 53.9343 49.277 54.1972 49.277C54.2347 49.277 54.3099 49.277 54.3474 49.277C54.6103 49.2394 54.8357 49.2019 55.0986 49.1643C55.2113 49.1268 55.3239 49.1268 55.4366 49.0892C55.662 49.0516 55.8873 48.9765 56.1127 48.939C56.2629 48.9014 56.3756 48.8638 56.5258 48.8263C56.7512 48.7512 56.939 48.6761 57.1643 48.6009C57.2019 48.6009 57.277 48.5634 57.3146 48.5634V51.4554L53.3333 55.4366L49.3146 51.4554V48.5634C49.3521 48.5634 49.4272 48.6009 49.4648 48.6009C49.6901 48.6761 49.9155 48.7512 50.1033 48.8263ZM34.6667 59.9812C34.6667 56.3005 37.6714 53.3333 41.3146 53.3333H47.4366L52.3944 58.2911C52.6573 58.554 52.9953 58.6667 53.3333 58.6667C53.6714 58.6667 54.0094 58.554 54.2723 58.2911L59.23 53.3333H65.3521C69.0329 53.3333 72 56.338 72 59.9812V61.2958H34.6667V59.9812Z" fill="#EA5F32"/>
<path d="M5.33335 45.3333H2.66669V48H5.33335V45.3333Z" fill="#EA5F32"/>
<path d="M5.33335 50.6667H2.66669V53.3333H5.33335V50.6667Z" fill="#EA5F32"/>
<path d="M5.33335 56H2.66669V58.6667H5.33335V56Z" fill="#EA5F32"/>
<path d="M5.33335 61.3333H2.66669V64H5.33335V61.3333Z" fill="#EA5F32"/>
<path d="M5.33335 66.6667H2.66669V69.3333H5.33335V66.6667Z" fill="#EA5F32"/>
<path d="M10.6667 66.6667H8V69.3333H10.6667V66.6667Z" fill="#EA5F32"/>
<path d="M16 66.6667H13.3333V69.3333H16V66.6667Z" fill="#EA5F32"/>
<path d="M21.3333 66.6667H18.6667V69.3333H21.3333V66.6667Z" fill="#EA5F32"/>
<path d="M26.6667 66.6667H24V69.3333H26.6667V66.6667Z" fill="#EA5F32"/>
<path d="M58.6667 16H56V18.6667H58.6667V16Z" fill="#EA5F32"/>
<path d="M64 16H61.3333V18.6667H64V16Z" fill="#EA5F32"/>
<path d="M69.3333 16H66.6667V18.6667H69.3333V16Z" fill="#EA5F32"/>
<path d="M74.6667 16H72V18.6667H74.6667V16Z" fill="#EA5F32"/>
<path d="M74.6667 21.3333H72V24H74.6667V21.3333Z" fill="#EA5F32"/>
<path d="M74.6667 26.6667H72V29.3333H74.6667V26.6667Z" fill="#EA5F32"/>
<path d="M74.6667 32H72V34.6667H74.6667V32Z" fill="#EA5F32"/>
<path d="M74.6667 37.3333H72V40H74.6667V37.3333Z" fill="#EA5F32"/>
<path d="M74.6667 42.6667H72V45.3333H74.6667V42.6667Z" fill="#EA5F32"/>
<path d="M74.6667 48H72V50.6667H74.6667V48Z" fill="#EA5F32"/>
</svg>
