<svg width="80" height="81" viewBox="0 0 80 81" fill="none" xmlns="http://www.w3.org/2000/svg">
<g clip-path="url(#clip0)">
<path d="M78.6667 27.977H69.3333H68H45.3333C44.9333 27.977 44.6667 28.1102 44.4 28.3766L40.6667 32.1069L36.9333 28.3766C36.6667 28.1102 36.4 27.977 36 27.977H12H10.6667H1.33333C0.533333 27.977 0 28.5099 0 29.3092V54.6217C0 55.421 0.533333 55.9539 1.33333 55.9539H10.6667H12H15.3333C14.8 57.6858 15.2 59.6842 16.5333 61.1497C17.4667 62.0822 18.8 62.6151 20.1333 62.6151C20.2667 62.6151 20.2667 62.6151 20.4 62.6151C20.2667 63.9474 20.8 65.4128 21.8667 66.4786C22.8 67.4112 24.1333 67.9441 25.4667 67.9441C25.6 67.9441 25.6 67.9441 25.7333 67.9441C25.6 69.2763 26.1333 70.7418 27.2 71.8076C28.1333 72.7401 29.4667 73.273 30.8 73.273C30.9333 73.273 30.9333 73.273 31.0667 73.273C30.9333 74.6053 31.4667 76.0707 32.5333 77.1365C33.4667 78.0691 34.8 78.602 36.1333 78.602C37.3333 78.602 38.5333 78.2023 39.4667 77.4029L41.6 79.5345C42.5333 80.4671 43.8667 81 45.2 81C46.5333 81 47.8667 80.4671 48.8 79.5345C49.8667 78.4687 50.4 77.0033 50.2667 75.671C50.4 75.671 50.4 75.671 50.5333 75.671C51.8667 75.671 53.2 75.1381 54.1333 74.2056C55.2 73.1398 55.7333 71.6743 55.6 70.3421C55.7333 70.3421 55.7333 70.3421 55.8667 70.3421C57.2 70.3421 58.5333 69.8092 59.4667 68.8766C60.5333 67.8108 61.0667 66.3454 60.9333 65.0131C61.0667 65.0131 61.0667 65.0131 61.2 65.0131C62.5333 65.0131 63.8667 64.4803 64.8 63.5477C66.8 61.5493 66.8 58.352 64.8 56.3536L64.5333 55.9539H68H69.3333H78.6667C79.4667 55.9539 80 55.421 80 54.6217V29.3092C80 28.5099 79.4667 27.977 78.6667 27.977ZM2.66667 53.2895V30.6414H10.6667V53.2895H2.66667ZM18.5333 59.2845C17.6 58.352 17.6 56.7533 18.5333 55.8207L22.5333 51.824C23.0667 51.2911 23.6 51.1579 24.2667 51.1579C24.9333 51.1579 25.4667 51.4243 26 51.824C26.9333 52.7566 26.9333 54.3552 26 55.2878L22 59.2845C21.0667 60.2171 19.4667 60.2171 18.5333 59.2845ZM23.8667 64.6135C22.9333 63.6809 22.9333 62.0822 23.8667 61.1497L27.8667 57.1529C28.4 56.6201 28.9333 56.4868 29.6 56.4868C30.2667 56.4868 30.8 56.7533 31.3333 57.1529C32.2667 58.0855 32.2667 59.6842 31.3333 60.6168L27.3333 64.6135C26.4 65.546 24.8 65.546 23.8667 64.6135ZM29.2 69.9424C28.2667 69.0099 28.2667 67.4112 29.2 66.4786L33.2 62.4819C33.7333 61.949 34.2667 61.8158 34.9333 61.8158C35.6 61.8158 36.1333 62.0822 36.6667 62.4819C37.6 63.4145 37.6 65.0131 36.6667 65.9457L32.6667 69.9424C31.7333 70.875 30.1333 70.875 29.2 69.9424ZM34.5333 75.2714C33.6 74.3388 33.6 72.7401 34.5333 71.8076L38.5333 67.8108C39.0667 67.278 39.6 67.1447 40.2667 67.1447C40.9333 67.1447 41.4667 67.4112 42 67.8108C42.9333 68.7434 42.9333 70.3421 42 71.2747L38 75.2714C37.0667 76.2039 35.4667 76.2039 34.5333 75.2714ZM47.0667 77.6694C46.1333 78.602 44.5333 78.602 43.6 77.6694L41.4667 75.5378L43.8667 73.1398C44.2667 72.7401 44.5333 72.3404 44.8 71.9408L47.2 74.3388C48 75.1381 48 76.7368 47.0667 77.6694ZM63.0667 61.6826C62.1333 62.6151 60.5333 62.6151 59.6 61.6826L56.9333 59.0181L55.0667 60.8832L57.7333 63.5477C58.6667 64.4803 58.6667 66.0789 57.7333 67.0115C56.8 67.9441 55.2 67.9441 54.2667 67.0115L51.6 64.347L49.7333 66.2122L52.4 68.8766C53.3333 69.8092 53.3333 71.4079 52.4 72.3404C51.4667 73.273 49.8667 73.273 48.9333 72.3404L46.2667 69.676L45.2 70.7418C45.6 69.0099 45.2 67.1447 43.8667 65.8125C42.8 64.7467 41.3333 64.2138 40 64.347C40.1333 63.0148 39.6 61.5493 38.5333 60.4835C37.4667 59.4178 36 58.8849 34.6667 59.0181C34.8 57.6858 34.2667 56.2204 33.2 55.1546C32.1333 54.0888 30.6667 53.5559 29.3333 53.6891C29.4667 52.3569 28.9333 50.8914 27.8667 49.8256C25.8667 47.8273 22.6667 47.8273 20.6667 49.8256L17.2 53.2895H13.3333V30.6414H35.4667L38.8 33.972L28.4 44.3635C28.1333 44.6299 28 44.8964 28 45.296C28 45.6957 28.1333 45.9622 28.4 46.2286C30.5333 48.3602 33.2 49.426 36 49.426C38.8 49.426 41.4667 48.3602 43.6 46.2286L47.3333 42.4983L63.0667 58.2187C64 59.1513 64 60.75 63.0667 61.6826ZM49.2 40.6332L50.2667 39.5674L48.4 37.7023L41.7333 44.3635C38.9333 47.1612 34.4 47.4276 31.3333 45.1628L45.8667 30.6414H66.6667V53.2895H61.8667L49.2 40.6332ZM77.3333 53.2895H69.3333V30.6414H77.3333V53.2895Z" fill="#EA5F32"/>
<path d="M28 25.3125H37.3333H42.6666H52C52.8 25.3125 53.3333 24.7796 53.3333 23.9803V11.9901C53.3333 11.5905 53.2 11.1908 52.9333 11.0576L50.6666 9.05921V1.33223C50.6666 0.532891 50.1333 -4.00469e-06 49.3333 -4.00469e-06H44C43.2 -4.00469e-06 42.6666 0.532891 42.6666 1.33223V1.86513L40.9333 0.266443C40.4 -0.133228 39.7333 -0.133228 39.2 0.266443L27.2 10.9243C26.8 11.1908 26.6666 11.5905 26.6666 11.9901V23.9803C26.6666 24.7796 27.2 25.3125 28 25.3125ZM38.6666 22.648V15.9868H41.3333V22.648H38.6666ZM29.3333 12.523L40 3.06414L43.0666 5.86184C43.4666 6.26151 44 6.26151 44.5333 6.12829C45.0666 5.86184 45.3333 5.46217 45.3333 4.92927V2.66447H48V9.5921C48 9.99177 48.1333 10.3914 48.4 10.5247L50.6666 12.523V22.648H44V14.6546C44 13.8553 43.4666 13.3224 42.6666 13.3224H37.3333C36.5333 13.3224 36 13.8553 36 14.6546V22.648H29.3333V12.523Z" fill="#EA5F32"/>
<path d="M66.6667 11.9901H57.3334V14.6546H66.6667V11.9901Z" fill="#EA5F32"/>
<path d="M63.196 1.70488L57.5392 7.35703L59.4248 9.24107L65.0816 3.58893L63.196 1.70488Z" fill="#EA5F32"/>
<path d="M59.4261 17.6892L57.5405 19.5732L63.1973 25.2254L65.0829 23.3413L59.4261 17.6892Z" fill="#EA5F32"/>
<path d="M22.6667 11.9901H13.3334V14.6546H22.6667V11.9901Z" fill="#EA5F32"/>
<path d="M16.7601 1.70235L14.8745 3.5864L20.5313 9.23854L22.4169 7.35449L16.7601 1.70235Z" fill="#EA5F32"/>
<path d="M20.5298 17.6895L14.873 23.3416L16.7586 25.2257L22.4154 19.5735L20.5298 17.6895Z" fill="#EA5F32"/>
<path d="M74.6667 47.9605H72V50.625H74.6667V47.9605Z" fill="#EA5F32"/>
</g>
<defs>
<clipPath id="clip0">
<rect width="80" height="81" fill="white"/>
</clipPath>
</defs>
</svg>
