<svg width="54" height="46" viewBox="0 0 54 46" fill="none" xmlns="http://www.w3.org/2000/svg">
<path d="M31.1262 31H39.8738C39.9411 31 40 30.9523 40 30.8977V25.1023C40 25.0477 39.9411 25 39.8738 25H31.1262C31.0589 25 31 25.0477 31 25.1023V30.8977C31 30.9523 31.0589 31 31.1262 31ZM32.1776 30.0386V25.9477H38.8224V30.0386H32.1776Z" fill="#EA5F32" stroke="#EA5F32" stroke-width="0.8"/>
<path d="M9.11015 37H50.2977C50.3565 37 50.4079 36.948 50.4079 36.8886V36.0718C50.4079 36.0124 50.3565 35.9604 50.2977 35.9604H47.1769V24.5322L47.4045 24.4505C48.785 23.9678 50.0701 22.7723 51.032 21.0941C52.3024 18.8812 53 15.9332 53 12.7995C53 9.68812 52.2951 6.81436 51.0247 4.57921C49.6956 2.27723 47.9039 1 45.98 1C44.0487 1 42.2644 2.27723 40.9426 4.59406C39.6722 6.82921 38.9673 9.70297 38.9673 12.8218C38.9673 15.1238 39.3418 17.3144 40.0908 19.3267L40.2597 19.7797H33.012V9.41337C33.012 9.35396 32.9606 9.30198 32.9019 9.30198H9.11015C9.0514 9.30198 9 9.35396 9 9.41337V35.6262L9.00734 36.8886C9 36.948 9.0514 37 9.11015 37ZM28.6796 25.9282V35.953H24.9346V25.9282H28.6796ZM17.6649 19.8762V20.6931C17.6649 20.7525 17.7163 20.8045 17.775 20.8045H19.721V35.953H10.028V10.3342H31.984V19.7649H17.775C17.7163 19.7649 17.6649 19.8168 17.6649 19.8762ZM29.5975 24.8886H24.0167C23.9579 24.8886 23.9065 24.9406 23.9065 25V35.953H20.749V20.8045H40.5754C40.781 20.8045 40.8838 20.9678 40.9352 21.0495L40.9426 21.0569C40.9426 21.0569 40.9426 21.0644 40.9499 21.0644C40.9573 21.0718 40.9573 21.0792 40.9646 21.0866L40.972 21.0941C41.2363 21.5619 41.5594 22.0223 41.978 22.5198L42.0587 22.6163V35.953H29.7076V25C29.7076 24.9406 29.6562 24.8886 29.5975 24.8886ZM43.0721 23.6337L43.5788 23.953C44.2617 24.3911 45.0254 24.6287 45.8405 24.6658L46.1635 24.6807V35.953H43.0721V23.6337ZM47.1842 17.8787L49.7397 13.4827C49.769 13.4307 49.7543 13.3639 49.7029 13.3342L49.0127 12.9183C48.9907 12.9035 48.9613 12.896 48.9319 12.9035C48.9025 12.9109 48.8805 12.9332 48.8658 12.9554L47.1916 15.8366V10.3045C47.1916 10.245 47.1402 10.1931 47.0814 10.1931H46.2737C46.215 10.1931 46.1635 10.245 46.1635 10.3045V19.0074L42.4846 12.948C42.4553 12.896 42.3818 12.8812 42.3304 12.9109L41.6475 13.3342C41.5961 13.3639 41.5814 13.4381 41.6108 13.4901L46.1635 20.9975V23.6485L45.8111 23.6262C44.2397 23.5297 42.7637 22.3267 41.6622 20.2252C40.5975 18.1757 40.01 15.5396 40.01 12.7921C40.01 9.9703 40.6195 7.36386 41.721 5.31436C42.8591 3.19059 44.3718 2.02475 45.9873 2.02475C47.5955 2.02475 49.1155 3.19059 50.261 5.31436C51.3625 7.37871 51.9793 9.98515 51.9793 12.7921C51.9793 17.5594 50.2096 21.8366 47.6689 23.203L47.1842 23.4629V17.8787Z" fill="#EA5F32" stroke="#EA5F32" stroke-width="0.8"/>
<path d="M51.9647 41.7028L49.5198 39.0335C49.49 39 49.4603 39 49.4455 39H49.438C49.4083 39 49.3786 39.0167 49.3563 39.0418L48.8881 39.5857C48.8658 39.6109 48.8584 39.6443 48.8584 39.6778C48.8584 39.7113 48.8732 39.7447 48.8955 39.7698L50.5007 41.5187H8.49842L10.1036 39.7698C10.1259 39.7447 10.1408 39.7113 10.1408 39.6778C10.1408 39.6443 10.1333 39.6109 10.111 39.5857L9.64286 39.0418C9.62056 39.0167 9.59084 39 9.55368 39C9.53882 39 9.50909 39.0084 9.47937 39.0335L7.03443 41.7028C6.98985 41.753 6.98985 41.8283 7.027 41.8785L9.47193 44.9579C9.50909 45.0081 9.58341 45.0165 9.62799 44.9663L10.1259 44.4726C10.1482 44.4475 10.1631 44.4224 10.1631 44.3889C10.1631 44.3554 10.1556 44.3219 10.1333 44.2968L8.72879 42.5145H50.2555L48.8509 44.2968C48.8287 44.3219 48.8212 44.3554 48.8212 44.3889C48.8212 44.4224 48.8361 44.4558 48.8584 44.4726L49.3563 44.9663C49.3786 44.983 49.4009 44.9997 49.4306 44.9997C49.4603 44.9997 49.49 44.983 49.5123 44.9579L51.9573 41.8785C52.0167 41.8283 52.0093 41.753 51.9647 41.7028Z" fill="#EA5F32" stroke="#EA5F32" stroke-width="0.8"/>
<path d="M6.47581 33.8505C6.43548 33.8059 6.35484 33.7984 6.30645 33.8431L4.40323 35.4141V10.7321L6.10484 12.1393C6.15323 12.1765 6.23387 12.1765 6.27419 12.1318L6.75806 11.633C6.78226 11.6107 6.79032 11.5809 6.79032 11.5511C6.79032 11.5213 6.77419 11.4915 6.75 11.4766L3.77419 9.02705C3.72581 8.98983 3.65323 8.98983 3.60484 9.0345L1.03226 11.4766C1.00806 11.4915 1 11.5213 1 11.5511C1 11.5809 1.01613 11.6107 1.04032 11.633L1.57258 12.1021C1.62097 12.1467 1.69355 12.1393 1.74194 12.1021L3.43548 10.4938V35.3099L1.94355 33.8878C1.89516 33.8431 1.82258 33.8431 1.77419 33.8878L1.25 34.3568C1.20161 34.4015 1.20161 34.4685 1.25 34.5132L3.81452 36.9628C3.83871 36.9851 3.87097 37 3.90323 37C3.93548 37 3.95968 36.9926 3.98387 36.9702L6.95968 34.5206C6.98387 34.4983 7 34.476 7 34.4462C7 34.4164 6.99194 34.3866 6.96774 34.3643L6.47581 33.8505Z" fill="#EA5F32" stroke="#EA5F32" stroke-width="0.8"/>
<path d="M16.8897 25H12.1103C12.0515 25 12 25.0477 12 25.1023V30.8977C12 30.9523 12.0515 31 12.1103 31H16.8897C16.9485 31 17 30.9523 17 30.8977V25.1023C17 25.0477 16.9485 25 16.8897 25ZM15.9706 25.9477V30.0386H13.0294V25.9477H15.9706Z" fill="#EA5F32" stroke="#EA5F32" stroke-width="0.8"/>
<path d="M29 17.8784V12.1216C29 12.0568 28.9487 12 28.8901 12H12.1099C12.0513 12 12 12.0568 12 12.1216V17.8784C12 17.9432 12.0513 18 12.1099 18H28.8901C28.9487 18 29 17.9432 29 17.8784ZM27.9741 13.1351V16.8649H13.0259V13.1351H27.9741Z" fill="#EA5F32" stroke="#EA5F32" stroke-width="0.8"/>
</svg>
