<svg width="72" height="68" viewBox="0 0 72 68" fill="none" xmlns="http://www.w3.org/2000/svg">
<path d="M63.8449 22.3471H63.6245C59.2898 22.4946 55.8367 26.0347 55.8367 30.3861V40.7853H48.8571C45.7714 40.7853 43.3469 43.2928 43.3469 46.3167V66.2299C43.3469 67.2625 44.1551 68.0738 45.1837 68.0738H52.5306C53.5592 68.0738 54.3673 67.2625 54.3673 66.2299V51.7744H64.2857C68.5469 51.7744 72 48.308 72 44.0304V30.3124C72 25.8872 68.4735 22.3471 64.0653 22.2733C63.9918 22.3471 63.9184 22.3471 63.8449 22.3471ZM68.3265 44.0304C68.3265 46.3167 66.4898 48.0868 64.2857 48.0868H52.5306C51.502 48.0868 50.6939 48.8981 50.6939 49.9306V64.3124H47.0204V46.243C47.0204 45.2104 47.8286 44.3991 48.8571 44.3991H57.6735C58.702 44.3991 59.5102 43.5879 59.5102 42.5553V30.3124C59.5102 27.9523 61.3469 26.1085 63.698 26.0347H63.9184C66.2694 25.961 68.2531 27.8785 68.3265 30.2386C68.3265 30.3124 68.3265 30.3124 68.3265 30.3861V44.0304ZM64.0653 4.2039C59.6571 4.2039 56.1306 7.81779 56.1306 12.243C56.1306 16.6681 59.7306 20.2082 64.1388 20.2082C68.5469 20.2082 72.0735 16.5944 72.0735 12.1692C72 7.74404 68.4 4.2039 64.0653 4.2039ZM64.0653 16.5206C61.7143 16.5206 59.8041 14.603 59.8041 12.1692C59.8041 9.73536 61.7143 7.89154 64.1388 7.89154C66.4898 7.89154 68.4 9.80911 68.4 12.1692C68.3265 14.5293 66.4163 16.4469 64.0653 16.5206ZM7.71429 51.7744H17.6327V66.1562C17.6327 67.1887 18.4408 68 19.4694 68H26.8163C27.8449 68 28.6531 67.1887 28.6531 66.1562V46.243C28.6531 43.1453 26.1551 40.7115 23.1429 40.7115H16.1633V30.3124C16.1633 25.961 12.7102 22.4208 8.37551 22.3471H8.1551C3.74694 22.2733 0.0734694 25.7397 0 30.1649C0 30.2386 0 30.2386 0 30.3124V43.9566C0 48.308 3.45306 51.7744 7.71429 51.7744ZM3.67347 30.3124C3.67347 27.9523 5.58367 26.0347 7.93469 26.0347C8.00816 26.0347 8.00816 26.0347 8.08163 26.0347H8.30204C10.6531 26.1085 12.4898 28.026 12.4898 30.3124V42.5553C12.4898 43.5879 13.298 44.3991 14.3265 44.3991H23.1429C24.1714 44.3991 24.9796 45.2104 24.9796 46.243V64.3124H21.3061V49.9306C21.3061 48.8981 20.498 48.0868 19.4694 48.0868H7.71429C5.5102 48.0868 3.67347 46.243 3.67347 44.0304V30.3124ZM8.00816 20.1345C12.4163 20.1345 16.0163 16.5206 16.0163 12.0954C16.0163 7.67028 12.3429 4.13015 8.00816 4.13015C3.67347 4.13015 0 7.74404 0 12.1692C0 16.5944 3.6 20.1345 8.00816 20.1345ZM8.00816 7.89154C10.3592 7.89154 12.2694 9.80911 12.2694 12.243C12.2694 14.6768 10.3592 16.5206 7.93469 16.5206C5.58367 16.5206 3.67347 14.603 3.67347 12.1692C3.67347 9.80911 5.58367 7.89154 8.00816 7.89154ZM49.5918 36.2863H37.4694V66.1562C37.4694 67.1887 36.6612 68 35.6327 68C34.6041 68 33.7959 67.1887 33.7959 66.1562V36.2863H21.6735C20.6449 36.2863 19.8367 35.4751 19.8367 34.4425C19.8367 33.41 20.6449 32.5987 21.6735 32.5987H49.5918C50.6204 32.5987 51.4286 33.41 51.4286 34.4425C51.4286 35.4751 50.6204 36.2863 49.5918 36.2863ZM37.4694 19.692C37.4694 20.7245 36.6612 21.5358 35.6327 21.5358C34.6041 21.5358 33.7959 20.7245 33.7959 19.692V18.1432C33.7959 15.5618 35.2653 13.2017 37.5429 12.0954C39.3796 11.2104 40.3347 9.21909 39.8939 7.22777C39.5265 5.4577 38.2041 4.13015 36.5143 3.76139C34.1633 3.24512 31.8122 4.79393 31.298 7.22777C31.2245 7.52278 31.2245 7.81779 31.2245 8.1128C31.2245 9.14534 30.4163 9.95662 29.3878 9.95662C28.3592 9.95662 27.551 9.14534 27.551 8.1128C27.551 3.61388 31.151 0 35.6327 0C40.1143 0 43.7143 3.61388 43.7143 8.1128C43.7143 11.2104 41.951 14.013 39.2327 15.4143C38.1306 15.9306 37.4694 16.9631 37.4694 18.1432V19.692ZM37.4694 25.5922V26.3297C37.4694 27.3623 36.6612 28.1735 35.6327 28.1735C34.6041 28.1735 33.7959 27.3623 33.7959 26.3297V25.5922C33.7959 24.5597 34.6041 23.7484 35.6327 23.7484C36.6612 23.7484 37.4694 24.5597 37.4694 25.5922Z" fill="#EA5F32"/>
</svg>
