<svg width="44" height="48" viewBox="0 0 44 48" fill="none" xmlns="http://www.w3.org/2000/svg">
<path d="M27.6961 28.1205L27.6962 28.1204L29.9798 25.8791V20.8056C29.9798 19.5546 30.8978 18.5908 32.1228 18.5908C32.3633 18.5908 32.6089 18.6259 32.8411 18.7081L32.9046 18.7298V17.767C32.9046 16.516 33.8226 15.5522 35.0475 15.5522C35.3139 15.5522 35.5862 15.596 35.8373 15.6968L35.8834 15.7146L35.899 15.6534C35.8991 15.6533 35.8991 15.6532 35.8991 15.6531C36.1444 14.6837 36.9808 14.0329 37.9723 14.0329C38.2128 14.0329 38.4584 14.068 38.6906 14.1502L38.7541 14.1719V13.9647C38.7541 12.7137 39.6721 11.7499 40.8971 11.7499C42.122 11.7499 43.04 12.7137 43.04 13.9647V27.3681C43.04 29.6958 42.3232 35.6172 35.7465 40.7204L35.7242 40.7387V46.5219C35.7369 46.715 35.6973 46.9053 35.5678 47.049C35.435 47.1964 35.2483 47.2499 35.063 47.2499H26.281C26.0966 47.2499 25.9172 47.195 25.7841 47.0603C25.6513 46.926 25.5965 46.7444 25.5965 46.5545V33.2227C25.5965 31.2649 26.3432 29.4499 27.6961 28.1205ZM35.8526 18.0249H35.8449V17.7749C35.8449 17.5184 35.7586 17.3166 35.6264 17.1804C35.4948 17.0447 35.3033 16.959 35.063 16.959C34.8228 16.959 34.6313 17.0447 34.4997 17.1804C34.3675 17.3166 34.2812 17.5184 34.2812 17.7749V22.0024L34.3456 21.9826L34.3465 21.9823C34.8099 21.8415 35.3158 21.8325 35.7889 21.9646C35.7892 21.9647 35.7895 21.9648 35.7898 21.9649L35.8526 21.9819V18.0249ZM36.925 26.1475L36.9251 26.1475L36.9236 26.1494L36.3373 26.9352H38.7696V16.2636C38.7696 16.007 38.6834 15.8053 38.5512 15.669C38.4195 15.5333 38.228 15.4477 37.9878 15.4477C37.7476 15.4477 37.5561 15.5333 37.4244 15.669C37.2923 15.8053 37.206 16.007 37.206 16.2636V23.065L37.2127 23.0773C37.4421 23.4709 37.5706 23.9343 37.5706 24.3693C37.5706 25.0875 37.373 25.6765 36.9382 26.1296L36.925 26.1475ZM34.4345 27.1443L34.4405 27.1352L34.4472 27.1266L35.9522 25.2016L35.9702 25.1787L35.9929 25.1605C36.1633 25.024 36.2871 24.7664 36.2871 24.3693C36.2871 24.1607 36.2538 24.0069 36.1864 23.8624L36.1863 23.8625L36.1844 23.8581L36.1794 23.8468L36.1668 23.8397L36.1667 23.8399L36.1578 23.8345C36.0336 23.7581 35.94 23.6489 35.8893 23.4955L35.8831 23.4781L35.8692 23.467L35.8691 23.467L35.8662 23.4645C35.4187 23.0962 34.7962 23.1302 34.3718 23.5588L34.3718 23.5588L34.3694 23.5612L34.2138 23.7141L34.2094 23.7232C34.1489 23.8472 34.0542 23.9503 33.909 24.0089L33.9069 24.01L31.3172 26.5181L31.3132 26.5306L31.3132 26.5307L31.3115 26.5356C31.2459 26.7239 31.1016 26.8548 30.9308 26.918L30.918 26.9229L28.6738 29.0987L28.6731 29.0994C27.5927 30.1389 26.9732 31.6473 26.9732 33.2386V45.8749H34.3088V40.3579C34.3088 40.1302 34.4688 39.9375 34.6294 39.8213L34.6404 39.8133L34.6523 39.8066C34.7097 39.7738 34.8001 39.7175 34.9688 39.5899C35.0398 39.5299 35.126 39.4591 35.2247 39.378C35.2514 39.356 35.2791 39.3332 35.3076 39.3098C35.4446 39.197 35.6041 39.065 35.7845 38.9115C36.3822 38.3929 37.2863 37.5443 38.2054 36.4214C39.8091 34.4464 41.7022 31.2877 41.7022 27.392V13.9886C41.7022 13.732 41.6159 13.5303 41.4838 13.394C41.3521 13.2583 41.1606 13.1727 40.9204 13.1727C40.4514 13.1727 40.1385 13.5865 40.1385 13.9886V27.6227C40.1385 27.8094 40.0874 27.9916 39.955 28.1273C39.8217 28.264 39.6407 28.3181 39.4541 28.3181H34.9156C34.8298 28.3181 34.7246 28.3016 34.6322 28.2631C34.5861 28.2438 34.5289 28.2132 34.4799 28.164C34.428 28.1118 34.3786 28.0308 34.3786 27.9249V27.9111L34.3736 27.9008C34.2165 27.5888 34.334 27.2989 34.4345 27.1443ZM32.9201 20.8056C32.9201 20.549 32.8338 20.3473 32.7017 20.2111C32.57 20.0753 32.3785 19.9897 32.1383 19.9897C31.8981 19.9897 31.7066 20.0753 31.5749 20.2111C31.4427 20.3473 31.3565 20.549 31.3565 20.8056V24.5382L32.9201 23.0073V20.8056Z" fill="white" stroke="white" stroke-width="0.5"/>
<mask id="path-2-outside-1" maskUnits="userSpaceOnUse" x="24.79" y="10.9999" width="19" height="37" fill="black">
<rect fill="white" x="24.79" y="10.9999" width="19" height="37"/>
<path d="M26.3031 46.9999H35.0369C35.3304 46.9999 35.508 46.8173 35.508 46.5155V40.6305L35.6084 40.5511C42.0873 35.508 42.79 29.6627 42.79 27.3834V14.0013C42.79 12.8656 41.9638 11.9999 40.8672 11.9999C39.7706 11.9999 38.9444 12.8577 38.9444 14.0013V14.5016L38.6046 14.3825C38.3961 14.311 38.1799 14.2713 37.9559 14.2713C37.0601 14.2713 36.3188 14.859 36.0949 15.7326L36.0254 16.0185L35.7551 15.9153C35.5311 15.8279 35.2917 15.7803 35.0446 15.7803C33.9481 15.7803 33.1218 16.638 33.1218 17.7816V19.0365L32.782 18.9173C32.5735 18.8459 32.3573 18.8062 32.1334 18.8062C31.0368 18.8062 30.2105 19.6639 30.2105 20.8075V25.9618L27.8707 28.2729C26.5656 29.5595 25.8475 31.3147 25.8475 33.2128V46.5234C25.832 46.8252 26.0096 46.9999 26.3031 46.9999ZM40.8672 12.0794C41.9174 12.0794 42.7128 12.9053 42.7128 14.0013V27.3834C42.7128 29.6469 42.0178 35.4683 35.562 40.4876L35.4307 40.5908V46.5155C35.4307 46.7776 35.2917 46.9205 35.0369 46.9205H26.2953C26.0405 46.9205 25.9015 46.7776 25.9015 46.5155V33.2048C25.9015 31.3226 26.612 29.5913 27.9093 28.3126L27.917 28.3047L30.28 25.9936V20.8075C30.28 19.7115 31.0754 18.8856 32.1256 18.8856C32.3419 18.8856 32.5504 18.9173 32.7434 18.9888L33.1836 19.1397V17.7737C33.1836 16.6777 33.979 15.8518 35.0292 15.8518C35.2686 15.8518 35.5002 15.8915 35.7165 15.9788L36.064 16.1138L36.1566 15.7406C36.3651 14.9067 37.0833 14.3428 37.9405 14.3428C38.1567 14.3428 38.3652 14.3746 38.5583 14.446L38.9984 14.5969V13.9854C39.0139 12.9053 39.8093 12.0794 40.8672 12.0794ZM26.6969 46.1104H34.5736V40.3128C34.5736 40.2175 34.6508 40.0984 34.7744 40.0111C34.8361 39.9793 34.9442 39.9078 35.1219 39.7649C35.2995 39.6298 35.5852 39.4154 35.9404 39.0977C36.5427 38.5736 37.4617 37.7079 38.3806 36.5722C40.0023 34.5788 41.9251 31.3623 41.9251 27.3755V14.0013C41.9251 13.3501 41.485 12.8974 40.8595 12.8974C40.2031 12.8974 39.7938 13.4692 39.7938 14.0013V27.6137C39.7938 27.8758 39.6548 28.0188 39.4 28.0188H34.8825C34.7666 28.0188 34.6354 27.9711 34.6354 27.9155V27.8361L34.5967 27.7646C34.5041 27.582 34.5736 27.4072 34.6431 27.2961L36.1489 25.3741C36.4037 25.1676 36.5427 24.8182 36.5427 24.3655C36.5427 24.1193 36.5041 23.9207 36.4115 23.7381L36.3651 23.6428L36.2725 23.5872C36.203 23.5475 36.1566 23.4839 36.1257 23.4045L36.0949 23.3092L36.0176 23.2457C35.4539 22.7771 34.6662 22.8248 34.1489 23.3569L33.9558 23.5475L33.9326 23.5951C33.9017 23.6666 33.8477 23.7143 33.7782 23.746L33.7164 23.7778L31.06 26.3589L31.0291 26.4383C30.9905 26.5416 30.921 26.6051 30.8206 26.6448L30.7433 26.6686L30.7356 26.6766L28.4653 28.8844C27.3301 29.9804 26.6814 31.5609 26.6814 33.2207V46.1104H26.6969ZM34.4964 46.031H26.7664V33.2048C26.7664 31.5688 27.4073 30.0043 28.5271 28.9242L30.7897 26.7242L30.8437 26.7084C30.9673 26.6686 31.06 26.5813 31.1063 26.4542L31.1295 26.3986L33.7705 23.8334L33.8091 23.8175C33.894 23.7778 33.9635 23.7143 34.0021 23.6269L34.0253 23.5872L34.2106 23.4125C34.7049 22.9042 35.4462 22.8565 35.979 23.3013L36.0408 23.3489L36.064 23.4204C36.0949 23.5237 36.1566 23.5951 36.2416 23.6428L36.3111 23.6825L36.3497 23.7619C36.4346 23.9366 36.4732 24.1272 36.4732 24.3576C36.4732 24.7944 36.3497 25.12 36.1026 25.3106L36.0949 25.3185L34.5967 27.2405C34.5118 27.3755 34.4423 27.574 34.5427 27.7964L34.5736 27.852V27.9155C34.5736 28.0505 34.7666 28.0982 34.8979 28.0982H39.4077C39.7011 28.0982 39.8788 27.9155 39.8788 27.6137V14.0013C39.8788 13.5089 40.2571 12.9768 40.8672 12.9768C41.4464 12.9768 41.8556 13.3977 41.8556 14.0013V27.3834C41.8556 31.3385 39.9328 34.5391 38.3266 36.5246C37.4076 37.6603 36.4964 38.518 35.8941 39.0421C35.5389 39.3519 35.2531 39.5743 35.0755 39.7013C34.8979 39.8363 34.7975 39.9078 34.728 39.9396C34.5813 40.0508 34.4964 40.1858 34.4964 40.3128V46.031ZM35.7319 27.2087H39.0139V16.2727C39.0139 15.6214 38.5737 15.1688 37.9482 15.1688C37.3227 15.1688 36.8825 15.6214 36.8825 16.2727V23.1345L36.9289 23.2139C37.1296 23.5713 37.2455 23.9763 37.2455 24.3655C37.2455 25.0326 37.0601 25.5409 36.6895 25.93L36.6663 25.9618L35.7319 27.2087ZM38.9366 27.1293H35.8864L36.7435 25.9856C37.1296 25.5806 37.3227 25.0485 37.3227 24.3655C37.3227 23.9684 37.2069 23.5395 36.9984 23.1742L36.9597 23.1107V16.2727C36.9597 15.6691 37.369 15.2482 37.9482 15.2482C38.5274 15.2482 38.9366 15.6691 38.9366 16.2727V27.1293ZM31.06 25.2232L33.1913 23.1266V20.8075C33.1913 20.1563 32.7511 19.7036 32.1256 19.7036C31.5001 19.7036 31.06 20.1563 31.06 20.8075V25.2232ZM33.1141 23.0948L31.1372 25.0406V20.8075C31.1372 20.2039 31.5465 19.783 32.1256 19.783C32.7048 19.783 33.1141 20.2039 33.1141 20.8075V23.0948ZM33.9712 22.3959L34.4037 22.2609C34.813 22.1338 35.2609 22.1259 35.6779 22.245L36.1026 22.3641V17.7896C36.1026 17.1384 35.6624 16.6857 35.0369 16.6857C34.4114 16.6857 33.9712 17.1384 33.9712 17.7896V22.3959ZM35.0755 22.0782C34.8439 22.0782 34.6045 22.11 34.3882 22.1815L34.0562 22.2847V17.7816C34.0562 17.1781 34.4655 16.7571 35.0446 16.7571C35.6238 16.7571 36.0331 17.1781 36.0331 17.7816V22.2529L35.7087 22.1656C35.5002 22.11 35.284 22.0782 35.0755 22.0782Z"/>
</mask>
<path d="M26.3031 46.9999H35.0369C35.3304 46.9999 35.508 46.8173 35.508 46.5155V40.6305L35.6084 40.5511C42.0873 35.508 42.79 29.6627 42.79 27.3834V14.0013C42.79 12.8656 41.9638 11.9999 40.8672 11.9999C39.7706 11.9999 38.9444 12.8577 38.9444 14.0013V14.5016L38.6046 14.3825C38.3961 14.311 38.1799 14.2713 37.9559 14.2713C37.0601 14.2713 36.3188 14.859 36.0949 15.7326L36.0254 16.0185L35.7551 15.9153C35.5311 15.8279 35.2917 15.7803 35.0446 15.7803C33.9481 15.7803 33.1218 16.638 33.1218 17.7816V19.0365L32.782 18.9173C32.5735 18.8459 32.3573 18.8062 32.1334 18.8062C31.0368 18.8062 30.2105 19.6639 30.2105 20.8075V25.9618L27.8707 28.2729C26.5656 29.5595 25.8475 31.3147 25.8475 33.2128V46.5234C25.832 46.8252 26.0096 46.9999 26.3031 46.9999ZM40.8672 12.0794C41.9174 12.0794 42.7128 12.9053 42.7128 14.0013V27.3834C42.7128 29.6469 42.0178 35.4683 35.562 40.4876L35.4307 40.5908V46.5155C35.4307 46.7776 35.2917 46.9205 35.0369 46.9205H26.2953C26.0405 46.9205 25.9015 46.7776 25.9015 46.5155V33.2048C25.9015 31.3226 26.612 29.5913 27.9093 28.3126L27.917 28.3047L30.28 25.9936V20.8075C30.28 19.7115 31.0754 18.8856 32.1256 18.8856C32.3419 18.8856 32.5504 18.9173 32.7434 18.9888L33.1836 19.1397V17.7737C33.1836 16.6777 33.979 15.8518 35.0292 15.8518C35.2686 15.8518 35.5002 15.8915 35.7165 15.9788L36.064 16.1138L36.1566 15.7406C36.3651 14.9067 37.0833 14.3428 37.9405 14.3428C38.1567 14.3428 38.3652 14.3746 38.5583 14.446L38.9984 14.5969V13.9854C39.0139 12.9053 39.8093 12.0794 40.8672 12.0794ZM26.6969 46.1104H34.5736V40.3128C34.5736 40.2175 34.6508 40.0984 34.7744 40.0111C34.8361 39.9793 34.9442 39.9078 35.1219 39.7649C35.2995 39.6298 35.5852 39.4154 35.9404 39.0977C36.5427 38.5736 37.4617 37.7079 38.3806 36.5722C40.0023 34.5788 41.9251 31.3623 41.9251 27.3755V14.0013C41.9251 13.3501 41.485 12.8974 40.8595 12.8974C40.2031 12.8974 39.7938 13.4692 39.7938 14.0013V27.6137C39.7938 27.8758 39.6548 28.0188 39.4 28.0188H34.8825C34.7666 28.0188 34.6354 27.9711 34.6354 27.9155V27.8361L34.5967 27.7646C34.5041 27.582 34.5736 27.4072 34.6431 27.2961L36.1489 25.3741C36.4037 25.1676 36.5427 24.8182 36.5427 24.3655C36.5427 24.1193 36.5041 23.9207 36.4115 23.7381L36.3651 23.6428L36.2725 23.5872C36.203 23.5475 36.1566 23.4839 36.1257 23.4045L36.0949 23.3092L36.0176 23.2457C35.4539 22.7771 34.6662 22.8248 34.1489 23.3569L33.9558 23.5475L33.9326 23.5951C33.9017 23.6666 33.8477 23.7143 33.7782 23.746L33.7164 23.7778L31.06 26.3589L31.0291 26.4383C30.9905 26.5416 30.921 26.6051 30.8206 26.6448L30.7433 26.6686L30.7356 26.6766L28.4653 28.8844C27.3301 29.9804 26.6814 31.5609 26.6814 33.2207V46.1104H26.6969ZM34.4964 46.031H26.7664V33.2048C26.7664 31.5688 27.4073 30.0043 28.5271 28.9242L30.7897 26.7242L30.8437 26.7084C30.9673 26.6686 31.06 26.5813 31.1063 26.4542L31.1295 26.3986L33.7705 23.8334L33.8091 23.8175C33.894 23.7778 33.9635 23.7143 34.0021 23.6269L34.0253 23.5872L34.2106 23.4125C34.7049 22.9042 35.4462 22.8565 35.979 23.3013L36.0408 23.3489L36.064 23.4204C36.0949 23.5237 36.1566 23.5951 36.2416 23.6428L36.3111 23.6825L36.3497 23.7619C36.4346 23.9366 36.4732 24.1272 36.4732 24.3576C36.4732 24.7944 36.3497 25.12 36.1026 25.3106L36.0949 25.3185L34.5967 27.2405C34.5118 27.3755 34.4423 27.574 34.5427 27.7964L34.5736 27.852V27.9155C34.5736 28.0505 34.7666 28.0982 34.8979 28.0982H39.4077C39.7011 28.0982 39.8788 27.9155 39.8788 27.6137V14.0013C39.8788 13.5089 40.2571 12.9768 40.8672 12.9768C41.4464 12.9768 41.8556 13.3977 41.8556 14.0013V27.3834C41.8556 31.3385 39.9328 34.5391 38.3266 36.5246C37.4076 37.6603 36.4964 38.518 35.8941 39.0421C35.5389 39.3519 35.2531 39.5743 35.0755 39.7013C34.8979 39.8363 34.7975 39.9078 34.728 39.9396C34.5813 40.0508 34.4964 40.1858 34.4964 40.3128V46.031ZM35.7319 27.2087H39.0139V16.2727C39.0139 15.6214 38.5737 15.1688 37.9482 15.1688C37.3227 15.1688 36.8825 15.6214 36.8825 16.2727V23.1345L36.9289 23.2139C37.1296 23.5713 37.2455 23.9763 37.2455 24.3655C37.2455 25.0326 37.0601 25.5409 36.6895 25.93L36.6663 25.9618L35.7319 27.2087ZM38.9366 27.1293H35.8864L36.7435 25.9856C37.1296 25.5806 37.3227 25.0485 37.3227 24.3655C37.3227 23.9684 37.2069 23.5395 36.9984 23.1742L36.9597 23.1107V16.2727C36.9597 15.6691 37.369 15.2482 37.9482 15.2482C38.5274 15.2482 38.9366 15.6691 38.9366 16.2727V27.1293ZM31.06 25.2232L33.1913 23.1266V20.8075C33.1913 20.1563 32.7511 19.7036 32.1256 19.7036C31.5001 19.7036 31.06 20.1563 31.06 20.8075V25.2232ZM33.1141 23.0948L31.1372 25.0406V20.8075C31.1372 20.2039 31.5465 19.783 32.1256 19.783C32.7048 19.783 33.1141 20.2039 33.1141 20.8075V23.0948ZM33.9712 22.3959L34.4037 22.2609C34.813 22.1338 35.2609 22.1259 35.6779 22.245L36.1026 22.3641V17.7896C36.1026 17.1384 35.6624 16.6857 35.0369 16.6857C34.4114 16.6857 33.9712 17.1384 33.9712 17.7896V22.3959ZM35.0755 22.0782C34.8439 22.0782 34.6045 22.11 34.3882 22.1815L34.0562 22.2847V17.7816C34.0562 17.1781 34.4655 16.7571 35.0446 16.7571C35.6238 16.7571 36.0331 17.1781 36.0331 17.7816V22.2529L35.7087 22.1656C35.5002 22.11 35.284 22.0782 35.0755 22.0782Z" fill="white"/>
<path d="M26.3031 46.9999H35.0369C35.3304 46.9999 35.508 46.8173 35.508 46.5155V40.6305L35.6084 40.5511C42.0873 35.508 42.79 29.6627 42.79 27.3834V14.0013C42.79 12.8656 41.9638 11.9999 40.8672 11.9999C39.7706 11.9999 38.9444 12.8577 38.9444 14.0013V14.5016L38.6046 14.3825C38.3961 14.311 38.1799 14.2713 37.9559 14.2713C37.0601 14.2713 36.3188 14.859 36.0949 15.7326L36.0254 16.0185L35.7551 15.9153C35.5311 15.8279 35.2917 15.7803 35.0446 15.7803C33.9481 15.7803 33.1218 16.638 33.1218 17.7816V19.0365L32.782 18.9173C32.5735 18.8459 32.3573 18.8062 32.1334 18.8062C31.0368 18.8062 30.2105 19.6639 30.2105 20.8075V25.9618L27.8707 28.2729C26.5656 29.5595 25.8475 31.3147 25.8475 33.2128V46.5234C25.832 46.8252 26.0096 46.9999 26.3031 46.9999ZM40.8672 12.0794C41.9174 12.0794 42.7128 12.9053 42.7128 14.0013V27.3834C42.7128 29.6469 42.0178 35.4683 35.562 40.4876L35.4307 40.5908V46.5155C35.4307 46.7776 35.2917 46.9205 35.0369 46.9205H26.2953C26.0405 46.9205 25.9015 46.7776 25.9015 46.5155V33.2048C25.9015 31.3226 26.612 29.5913 27.9093 28.3126L27.917 28.3047L30.28 25.9936V20.8075C30.28 19.7115 31.0754 18.8856 32.1256 18.8856C32.3419 18.8856 32.5504 18.9173 32.7434 18.9888L33.1836 19.1397V17.7737C33.1836 16.6777 33.979 15.8518 35.0292 15.8518C35.2686 15.8518 35.5002 15.8915 35.7165 15.9788L36.064 16.1138L36.1566 15.7406C36.3651 14.9067 37.0833 14.3428 37.9405 14.3428C38.1567 14.3428 38.3652 14.3746 38.5583 14.446L38.9984 14.5969V13.9854C39.0139 12.9053 39.8093 12.0794 40.8672 12.0794ZM26.6969 46.1104H34.5736V40.3128C34.5736 40.2175 34.6508 40.0984 34.7744 40.0111C34.8361 39.9793 34.9442 39.9078 35.1219 39.7649C35.2995 39.6298 35.5852 39.4154 35.9404 39.0977C36.5427 38.5736 37.4617 37.7079 38.3806 36.5722C40.0023 34.5788 41.9251 31.3623 41.9251 27.3755V14.0013C41.9251 13.3501 41.485 12.8974 40.8595 12.8974C40.2031 12.8974 39.7938 13.4692 39.7938 14.0013V27.6137C39.7938 27.8758 39.6548 28.0188 39.4 28.0188H34.8825C34.7666 28.0188 34.6354 27.9711 34.6354 27.9155V27.8361L34.5967 27.7646C34.5041 27.582 34.5736 27.4072 34.6431 27.2961L36.1489 25.3741C36.4037 25.1676 36.5427 24.8182 36.5427 24.3655C36.5427 24.1193 36.5041 23.9207 36.4115 23.7381L36.3651 23.6428L36.2725 23.5872C36.203 23.5475 36.1566 23.4839 36.1257 23.4045L36.0949 23.3092L36.0176 23.2457C35.4539 22.7771 34.6662 22.8248 34.1489 23.3569L33.9558 23.5475L33.9326 23.5951C33.9017 23.6666 33.8477 23.7143 33.7782 23.746L33.7164 23.7778L31.06 26.3589L31.0291 26.4383C30.9905 26.5416 30.921 26.6051 30.8206 26.6448L30.7433 26.6686L30.7356 26.6766L28.4653 28.8844C27.3301 29.9804 26.6814 31.5609 26.6814 33.2207V46.1104H26.6969ZM34.4964 46.031H26.7664V33.2048C26.7664 31.5688 27.4073 30.0043 28.5271 28.9242L30.7897 26.7242L30.8437 26.7084C30.9673 26.6686 31.06 26.5813 31.1063 26.4542L31.1295 26.3986L33.7705 23.8334L33.8091 23.8175C33.894 23.7778 33.9635 23.7143 34.0021 23.6269L34.0253 23.5872L34.2106 23.4125C34.7049 22.9042 35.4462 22.8565 35.979 23.3013L36.0408 23.3489L36.064 23.4204C36.0949 23.5237 36.1566 23.5951 36.2416 23.6428L36.3111 23.6825L36.3497 23.7619C36.4346 23.9366 36.4732 24.1272 36.4732 24.3576C36.4732 24.7944 36.3497 25.12 36.1026 25.3106L36.0949 25.3185L34.5967 27.2405C34.5118 27.3755 34.4423 27.574 34.5427 27.7964L34.5736 27.852V27.9155C34.5736 28.0505 34.7666 28.0982 34.8979 28.0982H39.4077C39.7011 28.0982 39.8788 27.9155 39.8788 27.6137V14.0013C39.8788 13.5089 40.2571 12.9768 40.8672 12.9768C41.4464 12.9768 41.8556 13.3977 41.8556 14.0013V27.3834C41.8556 31.3385 39.9328 34.5391 38.3266 36.5246C37.4076 37.6603 36.4964 38.518 35.8941 39.0421C35.5389 39.3519 35.2531 39.5743 35.0755 39.7013C34.8979 39.8363 34.7975 39.9078 34.728 39.9396C34.5813 40.0508 34.4964 40.1858 34.4964 40.3128V46.031ZM35.7319 27.2087H39.0139V16.2727C39.0139 15.6214 38.5737 15.1688 37.9482 15.1688C37.3227 15.1688 36.8825 15.6214 36.8825 16.2727V23.1345L36.9289 23.2139C37.1296 23.5713 37.2455 23.9763 37.2455 24.3655C37.2455 25.0326 37.0601 25.5409 36.6895 25.93L36.6663 25.9618L35.7319 27.2087ZM38.9366 27.1293H35.8864L36.7435 25.9856C37.1296 25.5806 37.3227 25.0485 37.3227 24.3655C37.3227 23.9684 37.2069 23.5395 36.9984 23.1742L36.9597 23.1107V16.2727C36.9597 15.6691 37.369 15.2482 37.9482 15.2482C38.5274 15.2482 38.9366 15.6691 38.9366 16.2727V27.1293ZM31.06 25.2232L33.1913 23.1266V20.8075C33.1913 20.1563 32.7511 19.7036 32.1256 19.7036C31.5001 19.7036 31.06 20.1563 31.06 20.8075V25.2232ZM33.1141 23.0948L31.1372 25.0406V20.8075C31.1372 20.2039 31.5465 19.783 32.1256 19.783C32.7048 19.783 33.1141 20.2039 33.1141 20.8075V23.0948ZM33.9712 22.3959L34.4037 22.2609C34.813 22.1338 35.2609 22.1259 35.6779 22.245L36.1026 22.3641V17.7896C36.1026 17.1384 35.6624 16.6857 35.0369 16.6857C34.4114 16.6857 33.9712 17.1384 33.9712 17.7896V22.3959ZM35.0755 22.0782C34.8439 22.0782 34.6045 22.11 34.3882 22.1815L34.0562 22.2847V17.7816C34.0562 17.1781 34.4655 16.7571 35.0446 16.7571C35.6238 16.7571 36.0331 17.1781 36.0331 17.7816V22.2529L35.7087 22.1656C35.5002 22.11 35.284 22.0782 35.0755 22.0782Z" stroke="white" mask="url(#path-2-outside-1)"/>
<path d="M8.66074 47.2499H8.6532L8.64567 47.2495C8.46675 47.2387 8.29492 47.1766 8.16894 47.0404C8.04344 46.9046 7.99199 46.7262 7.99199 46.5385V40.7451L7.96965 40.7268C1.39602 35.6225 0.679525 29.6998 0.679525 27.3716V13.9652C0.679525 12.7141 1.59702 11.7499 2.82162 11.7499C4.04622 11.7499 4.96371 12.7141 4.96371 13.9652V14.168L5.03327 14.1433C5.26585 14.0607 5.51187 14.0255 5.75281 14.0255C6.74402 14.0255 7.57997 14.6765 7.82513 15.6459C7.82517 15.6461 7.82521 15.6462 7.82524 15.6464L7.84084 15.7075L7.88679 15.6898C8.13774 15.589 8.40992 15.5451 8.67624 15.5451C9.90085 15.5451 10.8183 16.5092 10.8183 17.7603V18.7234L10.8816 18.7018C11.1137 18.6195 11.3592 18.5844 11.5997 18.5844C12.8243 18.5844 13.7418 19.5486 13.7418 20.7997V25.8744L16.0239 28.1158C16.0239 28.1158 16.0239 28.1158 16.024 28.1158C17.3849 29.4462 18.123 31.262 18.123 33.2195V46.5544C18.123 46.7411 18.072 46.9233 17.9396 47.0591C17.8064 47.1958 17.6254 47.2499 17.4388 47.2499H8.66074ZM9.40117 21.961L9.46534 21.9808V17.7524C9.46534 17.4957 9.37911 17.2939 9.24699 17.1576C9.11538 17.0219 8.92401 16.9362 8.684 16.9362C8.44398 16.9362 8.25262 17.0219 8.121 17.1576C7.98889 17.2939 7.90265 17.4957 7.90265 17.7524V21.9582L7.95777 21.9432C8.42393 21.8107 8.93768 21.8201 9.40033 21.9608L9.40117 21.961ZM4.97146 16.2327V26.9068H7.40252L6.81637 26.1207L6.81636 26.1207L6.81495 26.1188L6.80182 26.1009C6.36726 25.6477 6.16969 25.0586 6.16969 24.3402C6.16969 23.8968 6.29837 23.4413 6.52745 23.0481L6.53415 23.0357V16.2327C6.53415 15.976 6.44792 15.7742 6.3158 15.638C6.18419 15.5022 5.99282 15.4166 5.75281 15.4166C5.51279 15.4166 5.32143 15.5022 5.18981 15.638C5.0577 15.7742 4.97146 15.976 4.97146 16.2327ZM9.07727 39.768L9.0943 39.7767L9.1098 39.7879C9.27036 39.9042 9.43028 40.0969 9.43028 40.3246V45.8429H16.7701V33.2036C16.7701 31.6134 16.144 30.1115 15.0699 29.0625C15.0698 29.0624 15.0697 29.0623 15.0696 29.0622L12.827 26.8864L12.8166 26.8824C12.6356 26.8192 12.4968 26.6936 12.432 26.4941L12.428 26.4815L9.8395 23.9728L9.83411 23.9701C9.69876 23.911 9.60084 23.8041 9.54203 23.6955L9.54182 23.6956L9.53713 23.6859L9.53269 23.6768L9.37722 23.524L9.37715 23.524L9.37214 23.5188C8.9576 23.0869 8.3379 23.05 7.88171 23.427L7.88174 23.427L7.87838 23.4297L7.86443 23.4409L7.85727 23.461C7.80931 23.5964 7.72116 23.7164 7.58985 23.7973L7.58997 23.7975L7.58088 23.8026L7.56831 23.8096L7.56329 23.8209L7.56334 23.8209L7.56131 23.8253C7.49394 23.9698 7.46065 24.1236 7.46065 24.3323C7.46065 24.7337 7.57889 24.9871 7.7518 25.1215L7.77628 25.1405L7.79537 25.165L9.29974 27.0904L9.30869 27.1018L9.31625 27.1143C9.4105 27.269 9.53112 27.551 9.37323 27.8646L9.36825 27.8748V27.8888C9.36825 28.1044 9.18874 28.2003 9.11125 28.2313C9.01676 28.2691 8.91169 28.282 8.83133 28.282H4.29497C4.11062 28.282 3.93119 28.227 3.79817 28.0923C3.66549 27.9579 3.61071 27.7764 3.61071 27.5864V13.9652C3.61071 13.556 3.29894 13.149 2.82937 13.149C2.58936 13.149 2.39799 13.2346 2.26638 13.3704C2.13426 13.5067 2.04803 13.7084 2.04803 13.9652V27.3716C2.04803 31.2686 3.94061 34.4283 5.54369 36.4037L5.54374 36.4037C6.45535 37.5277 7.35898 38.3839 7.96126 38.8923L7.96128 38.8923L7.96407 38.8947C8.31693 39.2017 8.59175 39.4209 8.76527 39.5525C8.94303 39.6873 9.03646 39.747 9.07727 39.768ZM10.8183 20.7838V22.986L12.381 24.5171V20.7838C12.381 20.527 12.2948 20.3253 12.1627 20.189C12.0311 20.0532 11.8397 19.9676 11.5997 19.9676C11.3597 19.9676 11.1683 20.0532 11.0367 20.189C10.9046 20.3253 10.8183 20.527 10.8183 20.7838Z" fill="white" stroke="white" stroke-width="0.5"/>
<mask id="path-4-outside-2" maskUnits="userSpaceOnUse" x="-0.126953" y="10.9999" width="19" height="37" fill="black">
<rect fill="white" x="-0.126953" y="10.9999" width="19" height="37"/>
<path d="M8.67183 46.9999H17.4022C17.6955 46.9999 17.873 46.8173 17.873 46.5156V33.208C17.873 31.3103 17.1552 29.5555 15.8506 28.2692L15.8429 28.2613L13.504 25.9586V20.8055C13.504 19.6701 12.6781 18.8046 11.5819 18.8046C11.3581 18.8046 11.142 18.8443 10.9335 18.9158L10.5939 19.0349V17.7803C10.5939 16.6449 9.76795 15.7794 8.67183 15.7794C8.42481 15.7794 8.18552 15.8271 7.96167 15.9144L7.6915 16.0176L7.62202 15.7318C7.40589 14.8584 6.65713 14.2708 5.76171 14.2708C5.53786 14.2708 5.32172 14.3105 5.1133 14.382L4.77366 14.5011V14.0008C4.77366 12.8654 3.94771 11.9999 2.85159 11.9999C1.75547 11.9999 0.929525 12.8575 0.929525 14.0008V27.3799C0.929525 29.6587 1.63197 35.5027 8.10061 40.5446L8.20096 40.624V46.5077C8.20096 46.8253 8.3785 46.9999 8.67183 46.9999ZM15.7812 28.3169C17.078 29.5952 17.7881 31.3341 17.7881 33.208V46.5156C17.7881 46.7776 17.6492 46.9205 17.3945 46.9205H8.65639C8.40166 46.9205 8.26271 46.7776 8.26271 46.5156V40.5923L8.13149 40.489C1.686 35.463 0.983559 29.6508 0.983559 27.3879V14.0088C0.983559 12.9131 1.77863 12.0873 2.82844 12.0873C3.87824 12.0873 4.67331 12.9131 4.67331 14.0088V14.6202L5.1133 14.4693C5.314 14.3979 5.52242 14.3661 5.73083 14.3661C6.58766 14.3661 7.30554 14.9298 7.51396 15.7636L7.60659 16.1367L7.95395 16.0018C8.17008 15.9144 8.40166 15.8747 8.64095 15.8747C9.69075 15.8747 10.4858 16.7005 10.4858 17.7962V19.1619L10.9258 19.0111C11.1265 18.9396 11.3349 18.9078 11.5433 18.9078C12.5932 18.9078 13.3882 19.7336 13.3882 20.8293V26.0142L15.7812 28.3169ZM9.13498 46.1106H17.0162V33.208C17.0162 31.5485 16.3678 29.9684 15.2331 28.8727L12.956 26.6653L12.8788 26.6415C12.7784 26.6097 12.7089 26.5383 12.6703 26.4351L12.6395 26.3557L12.6317 26.3477L9.97636 23.7672L9.92233 23.7434C9.85286 23.7116 9.79882 23.664 9.76795 23.5925L9.73707 23.529L9.55181 23.3464C9.03463 22.8144 8.24728 22.7667 7.68378 23.2352L7.60659 23.2987L7.57571 23.394C7.54483 23.4734 7.49852 23.5369 7.42904 23.5766L7.33642 23.6322L7.2901 23.7275C7.20519 23.9101 7.15887 24.1165 7.15887 24.3547C7.15887 24.8153 7.29782 25.1646 7.55255 25.3631L9.04235 27.2767C9.11182 27.3879 9.17357 27.5626 9.08866 27.7452L9.05006 27.8166V27.896C9.05006 27.9596 8.91884 27.9993 8.80305 27.9993H4.28735C4.03262 27.9993 3.89368 27.8563 3.89368 27.5943V14.0088C3.89368 13.4768 3.48456 12.9051 2.82844 12.9051C2.20319 12.9051 1.7632 13.3577 1.7632 14.0088V27.3879C1.7632 31.3659 3.69298 34.5816 5.30628 36.5825C6.22486 37.718 7.14344 38.5834 7.74553 39.1075C8.10833 39.4171 8.38622 39.6395 8.56376 39.7744C8.74902 39.9094 8.84937 39.9809 8.91884 40.0206C9.03463 40.1079 9.11182 40.227 9.11182 40.3223V46.1106H9.13498ZM16.939 46.0312H9.21217V40.3144C9.21217 40.1953 9.12726 40.0523 8.98059 39.9491C8.91112 39.9094 8.81077 39.838 8.63323 39.7109L8.61007 39.7427L8.63323 39.7109C8.45569 39.5839 8.1778 39.3616 7.815 39.0519C7.21291 38.5278 6.30205 37.6703 5.38347 36.5349C3.77789 34.5498 1.85582 31.35 1.85582 27.3958V14.0088C1.85582 13.4053 2.26494 12.9845 2.84388 12.9845C3.45369 12.9845 3.83193 13.5165 3.83193 14.0088V27.6181C3.83193 27.9199 4.00946 28.1025 4.30279 28.1025H8.81849C8.94972 28.1025 9.1427 28.0548 9.1427 27.9199V27.8563L9.17357 27.8008C9.28164 27.5784 9.20445 27.3799 9.12726 27.2529L7.62202 25.3234C7.38273 25.1329 7.2515 24.8073 7.2515 24.3706C7.2515 24.1404 7.2901 23.9498 7.37501 23.7751L7.41361 23.6957L7.48308 23.656C7.56799 23.6084 7.62974 23.529 7.66062 23.4337L7.68378 23.3622L7.74553 23.3146C8.27815 22.8699 9.02691 22.9176 9.51321 23.4258L9.69847 23.6084L9.72163 23.6481C9.76023 23.7354 9.8297 23.7989 9.91461 23.8386L9.95321 23.8545L12.5932 26.4192L12.6163 26.4748C12.6626 26.6018 12.7475 26.6812 12.8788 26.7288L12.9328 26.7447L15.1945 28.9441C16.2983 30.016 16.939 31.5723 16.939 33.208V46.0312ZM4.69647 27.2132H7.9771L7.01993 25.9348C6.64169 25.5458 6.46415 25.0297 6.46415 24.3627C6.46415 23.9736 6.57994 23.5687 6.78064 23.2114L6.82695 23.132V16.2717C6.82695 15.6206 6.38696 15.168 5.76171 15.168C5.13646 15.168 4.69647 15.6206 4.69647 16.2717V27.2132ZM7.815 27.1338H4.76594V16.2797C4.76594 15.6762 5.17506 15.2554 5.75399 15.2554C6.33293 15.2554 6.74204 15.6762 6.74204 16.2797V23.1161L6.70345 23.1796C6.49503 23.5449 6.37924 23.9657 6.37924 24.3706C6.37924 25.0614 6.57222 25.5934 6.95818 25.9904L6.98133 26.0142L7.815 27.1338ZM12.6472 25.2282V20.8135C12.6472 20.1624 12.2072 19.7098 11.5819 19.7098C10.9567 19.7098 10.5167 20.1624 10.5167 20.8135V23.132L12.6472 25.2282ZM11.5819 19.7892C12.1609 19.7892 12.57 20.21 12.57 20.8135V25.0455L10.5939 23.1002V20.8135C10.5939 20.21 11.003 19.7892 11.5819 19.7892ZM9.73707 22.4015V17.7883C9.73707 17.1372 9.29708 16.6846 8.67183 16.6846C8.04658 16.6846 7.60659 17.1372 7.60659 17.7883V22.3618L8.03114 22.2427C8.44025 22.1315 8.89568 22.1315 9.3048 22.2586L9.73707 22.4015ZM8.67183 16.764C9.25076 16.764 9.65988 17.1848 9.65988 17.7883V22.2903L9.32795 22.1871C8.9034 22.0601 8.44025 22.0521 8.0157 22.1712L7.6915 22.2586V17.7883C7.68378 17.1848 8.08517 16.764 8.67183 16.764Z"/>
</mask>
<path d="M8.67183 46.9999H17.4022C17.6955 46.9999 17.873 46.8173 17.873 46.5156V33.208C17.873 31.3103 17.1552 29.5555 15.8506 28.2692L15.8429 28.2613L13.504 25.9586V20.8055C13.504 19.6701 12.6781 18.8046 11.5819 18.8046C11.3581 18.8046 11.142 18.8443 10.9335 18.9158L10.5939 19.0349V17.7803C10.5939 16.6449 9.76795 15.7794 8.67183 15.7794C8.42481 15.7794 8.18552 15.8271 7.96167 15.9144L7.6915 16.0176L7.62202 15.7318C7.40589 14.8584 6.65713 14.2708 5.76171 14.2708C5.53786 14.2708 5.32172 14.3105 5.1133 14.382L4.77366 14.5011V14.0008C4.77366 12.8654 3.94771 11.9999 2.85159 11.9999C1.75547 11.9999 0.929525 12.8575 0.929525 14.0008V27.3799C0.929525 29.6587 1.63197 35.5027 8.10061 40.5446L8.20096 40.624V46.5077C8.20096 46.8253 8.3785 46.9999 8.67183 46.9999ZM15.7812 28.3169C17.078 29.5952 17.7881 31.3341 17.7881 33.208V46.5156C17.7881 46.7776 17.6492 46.9205 17.3945 46.9205H8.65639C8.40166 46.9205 8.26271 46.7776 8.26271 46.5156V40.5923L8.13149 40.489C1.686 35.463 0.983559 29.6508 0.983559 27.3879V14.0088C0.983559 12.9131 1.77863 12.0873 2.82844 12.0873C3.87824 12.0873 4.67331 12.9131 4.67331 14.0088V14.6202L5.1133 14.4693C5.314 14.3979 5.52242 14.3661 5.73083 14.3661C6.58766 14.3661 7.30554 14.9298 7.51396 15.7636L7.60659 16.1367L7.95395 16.0018C8.17008 15.9144 8.40166 15.8747 8.64095 15.8747C9.69075 15.8747 10.4858 16.7005 10.4858 17.7962V19.1619L10.9258 19.0111C11.1265 18.9396 11.3349 18.9078 11.5433 18.9078C12.5932 18.9078 13.3882 19.7336 13.3882 20.8293V26.0142L15.7812 28.3169ZM9.13498 46.1106H17.0162V33.208C17.0162 31.5485 16.3678 29.9684 15.2331 28.8727L12.956 26.6653L12.8788 26.6415C12.7784 26.6097 12.7089 26.5383 12.6703 26.4351L12.6395 26.3557L12.6317 26.3477L9.97636 23.7672L9.92233 23.7434C9.85286 23.7116 9.79882 23.664 9.76795 23.5925L9.73707 23.529L9.55181 23.3464C9.03463 22.8144 8.24728 22.7667 7.68378 23.2352L7.60659 23.2987L7.57571 23.394C7.54483 23.4734 7.49852 23.5369 7.42904 23.5766L7.33642 23.6322L7.2901 23.7275C7.20519 23.9101 7.15887 24.1165 7.15887 24.3547C7.15887 24.8153 7.29782 25.1646 7.55255 25.3631L9.04235 27.2767C9.11182 27.3879 9.17357 27.5626 9.08866 27.7452L9.05006 27.8166V27.896C9.05006 27.9596 8.91884 27.9993 8.80305 27.9993H4.28735C4.03262 27.9993 3.89368 27.8563 3.89368 27.5943V14.0088C3.89368 13.4768 3.48456 12.9051 2.82844 12.9051C2.20319 12.9051 1.7632 13.3577 1.7632 14.0088V27.3879C1.7632 31.3659 3.69298 34.5816 5.30628 36.5825C6.22486 37.718 7.14344 38.5834 7.74553 39.1075C8.10833 39.4171 8.38622 39.6395 8.56376 39.7744C8.74902 39.9094 8.84937 39.9809 8.91884 40.0206C9.03463 40.1079 9.11182 40.227 9.11182 40.3223V46.1106H9.13498ZM16.939 46.0312H9.21217V40.3144C9.21217 40.1953 9.12726 40.0523 8.98059 39.9491C8.91112 39.9094 8.81077 39.838 8.63323 39.7109L8.61007 39.7427L8.63323 39.7109C8.45569 39.5839 8.1778 39.3616 7.815 39.0519C7.21291 38.5278 6.30205 37.6703 5.38347 36.5349C3.77789 34.5498 1.85582 31.35 1.85582 27.3958V14.0088C1.85582 13.4053 2.26494 12.9845 2.84388 12.9845C3.45369 12.9845 3.83193 13.5165 3.83193 14.0088V27.6181C3.83193 27.9199 4.00946 28.1025 4.30279 28.1025H8.81849C8.94972 28.1025 9.1427 28.0548 9.1427 27.9199V27.8563L9.17357 27.8008C9.28164 27.5784 9.20445 27.3799 9.12726 27.2529L7.62202 25.3234C7.38273 25.1329 7.2515 24.8073 7.2515 24.3706C7.2515 24.1404 7.2901 23.9498 7.37501 23.7751L7.41361 23.6957L7.48308 23.656C7.56799 23.6084 7.62974 23.529 7.66062 23.4337L7.68378 23.3622L7.74553 23.3146C8.27815 22.8699 9.02691 22.9176 9.51321 23.4258L9.69847 23.6084L9.72163 23.6481C9.76023 23.7354 9.8297 23.7989 9.91461 23.8386L9.95321 23.8545L12.5932 26.4192L12.6163 26.4748C12.6626 26.6018 12.7475 26.6812 12.8788 26.7288L12.9328 26.7447L15.1945 28.9441C16.2983 30.016 16.939 31.5723 16.939 33.208V46.0312ZM4.69647 27.2132H7.9771L7.01993 25.9348C6.64169 25.5458 6.46415 25.0297 6.46415 24.3627C6.46415 23.9736 6.57994 23.5687 6.78064 23.2114L6.82695 23.132V16.2717C6.82695 15.6206 6.38696 15.168 5.76171 15.168C5.13646 15.168 4.69647 15.6206 4.69647 16.2717V27.2132ZM7.815 27.1338H4.76594V16.2797C4.76594 15.6762 5.17506 15.2554 5.75399 15.2554C6.33293 15.2554 6.74204 15.6762 6.74204 16.2797V23.1161L6.70345 23.1796C6.49503 23.5449 6.37924 23.9657 6.37924 24.3706C6.37924 25.0614 6.57222 25.5934 6.95818 25.9904L6.98133 26.0142L7.815 27.1338ZM12.6472 25.2282V20.8135C12.6472 20.1624 12.2072 19.7098 11.5819 19.7098C10.9567 19.7098 10.5167 20.1624 10.5167 20.8135V23.132L12.6472 25.2282ZM11.5819 19.7892C12.1609 19.7892 12.57 20.21 12.57 20.8135V25.0455L10.5939 23.1002V20.8135C10.5939 20.21 11.003 19.7892 11.5819 19.7892ZM9.73707 22.4015V17.7883C9.73707 17.1372 9.29708 16.6846 8.67183 16.6846C8.04658 16.6846 7.60659 17.1372 7.60659 17.7883V22.3618L8.03114 22.2427C8.44025 22.1315 8.89568 22.1315 9.3048 22.2586L9.73707 22.4015ZM8.67183 16.764C9.25076 16.764 9.65988 17.1848 9.65988 17.7883V22.2903L9.32795 22.1871C8.9034 22.0601 8.44025 22.0521 8.0157 22.1712L7.6915 22.2586V17.7883C7.68378 17.1848 8.08517 16.764 8.67183 16.764Z" fill="white"/>
<path d="M8.67183 46.9999H17.4022C17.6955 46.9999 17.873 46.8173 17.873 46.5156V33.208C17.873 31.3103 17.1552 29.5555 15.8506 28.2692L15.8429 28.2613L13.504 25.9586V20.8055C13.504 19.6701 12.6781 18.8046 11.5819 18.8046C11.3581 18.8046 11.142 18.8443 10.9335 18.9158L10.5939 19.0349V17.7803C10.5939 16.6449 9.76795 15.7794 8.67183 15.7794C8.42481 15.7794 8.18552 15.8271 7.96167 15.9144L7.6915 16.0176L7.62202 15.7318C7.40589 14.8584 6.65713 14.2708 5.76171 14.2708C5.53786 14.2708 5.32172 14.3105 5.1133 14.382L4.77366 14.5011V14.0008C4.77366 12.8654 3.94771 11.9999 2.85159 11.9999C1.75547 11.9999 0.929525 12.8575 0.929525 14.0008V27.3799C0.929525 29.6587 1.63197 35.5027 8.10061 40.5446L8.20096 40.624V46.5077C8.20096 46.8253 8.3785 46.9999 8.67183 46.9999ZM15.7812 28.3169C17.078 29.5952 17.7881 31.3341 17.7881 33.208V46.5156C17.7881 46.7776 17.6492 46.9205 17.3945 46.9205H8.65639C8.40166 46.9205 8.26271 46.7776 8.26271 46.5156V40.5923L8.13149 40.489C1.686 35.463 0.983559 29.6508 0.983559 27.3879V14.0088C0.983559 12.9131 1.77863 12.0873 2.82844 12.0873C3.87824 12.0873 4.67331 12.9131 4.67331 14.0088V14.6202L5.1133 14.4693C5.314 14.3979 5.52242 14.3661 5.73083 14.3661C6.58766 14.3661 7.30554 14.9298 7.51396 15.7636L7.60659 16.1367L7.95395 16.0018C8.17008 15.9144 8.40166 15.8747 8.64095 15.8747C9.69075 15.8747 10.4858 16.7005 10.4858 17.7962V19.1619L10.9258 19.0111C11.1265 18.9396 11.3349 18.9078 11.5433 18.9078C12.5932 18.9078 13.3882 19.7336 13.3882 20.8293V26.0142L15.7812 28.3169ZM9.13498 46.1106H17.0162V33.208C17.0162 31.5485 16.3678 29.9684 15.2331 28.8727L12.956 26.6653L12.8788 26.6415C12.7784 26.6097 12.7089 26.5383 12.6703 26.4351L12.6395 26.3557L12.6317 26.3477L9.97636 23.7672L9.92233 23.7434C9.85286 23.7116 9.79882 23.664 9.76795 23.5925L9.73707 23.529L9.55181 23.3464C9.03463 22.8144 8.24728 22.7667 7.68378 23.2352L7.60659 23.2987L7.57571 23.394C7.54483 23.4734 7.49852 23.5369 7.42904 23.5766L7.33642 23.6322L7.2901 23.7275C7.20519 23.9101 7.15887 24.1165 7.15887 24.3547C7.15887 24.8153 7.29782 25.1646 7.55255 25.3631L9.04235 27.2767C9.11182 27.3879 9.17357 27.5626 9.08866 27.7452L9.05006 27.8166V27.896C9.05006 27.9596 8.91884 27.9993 8.80305 27.9993H4.28735C4.03262 27.9993 3.89368 27.8563 3.89368 27.5943V14.0088C3.89368 13.4768 3.48456 12.9051 2.82844 12.9051C2.20319 12.9051 1.7632 13.3577 1.7632 14.0088V27.3879C1.7632 31.3659 3.69298 34.5816 5.30628 36.5825C6.22486 37.718 7.14344 38.5834 7.74553 39.1075C8.10833 39.4171 8.38622 39.6395 8.56376 39.7744C8.74902 39.9094 8.84937 39.9809 8.91884 40.0206C9.03463 40.1079 9.11182 40.227 9.11182 40.3223V46.1106H9.13498ZM16.939 46.0312H9.21217V40.3144C9.21217 40.1953 9.12726 40.0523 8.98059 39.9491C8.91112 39.9094 8.81077 39.838 8.63323 39.7109L8.61007 39.7427L8.63323 39.7109C8.45569 39.5839 8.1778 39.3616 7.815 39.0519C7.21291 38.5278 6.30205 37.6703 5.38347 36.5349C3.77789 34.5498 1.85582 31.35 1.85582 27.3958V14.0088C1.85582 13.4053 2.26494 12.9845 2.84388 12.9845C3.45369 12.9845 3.83193 13.5165 3.83193 14.0088V27.6181C3.83193 27.9199 4.00946 28.1025 4.30279 28.1025H8.81849C8.94972 28.1025 9.1427 28.0548 9.1427 27.9199V27.8563L9.17357 27.8008C9.28164 27.5784 9.20445 27.3799 9.12726 27.2529L7.62202 25.3234C7.38273 25.1329 7.2515 24.8073 7.2515 24.3706C7.2515 24.1404 7.2901 23.9498 7.37501 23.7751L7.41361 23.6957L7.48308 23.656C7.56799 23.6084 7.62974 23.529 7.66062 23.4337L7.68378 23.3622L7.74553 23.3146C8.27815 22.8699 9.02691 22.9176 9.51321 23.4258L9.69847 23.6084L9.72163 23.6481C9.76023 23.7354 9.8297 23.7989 9.91461 23.8386L9.95321 23.8545L12.5932 26.4192L12.6163 26.4748C12.6626 26.6018 12.7475 26.6812 12.8788 26.7288L12.9328 26.7447L15.1945 28.9441C16.2983 30.016 16.939 31.5723 16.939 33.208V46.0312ZM4.69647 27.2132H7.9771L7.01993 25.9348C6.64169 25.5458 6.46415 25.0297 6.46415 24.3627C6.46415 23.9736 6.57994 23.5687 6.78064 23.2114L6.82695 23.132V16.2717C6.82695 15.6206 6.38696 15.168 5.76171 15.168C5.13646 15.168 4.69647 15.6206 4.69647 16.2717V27.2132ZM7.815 27.1338H4.76594V16.2797C4.76594 15.6762 5.17506 15.2554 5.75399 15.2554C6.33293 15.2554 6.74204 15.6762 6.74204 16.2797V23.1161L6.70345 23.1796C6.49503 23.5449 6.37924 23.9657 6.37924 24.3706C6.37924 25.0614 6.57222 25.5934 6.95818 25.9904L6.98133 26.0142L7.815 27.1338ZM12.6472 25.2282V20.8135C12.6472 20.1624 12.2072 19.7098 11.5819 19.7098C10.9567 19.7098 10.5167 20.1624 10.5167 20.8135V23.132L12.6472 25.2282ZM11.5819 19.7892C12.1609 19.7892 12.57 20.21 12.57 20.8135V25.0455L10.5939 23.1002V20.8135C10.5939 20.21 11.003 19.7892 11.5819 19.7892ZM9.73707 22.4015V17.7883C9.73707 17.1372 9.29708 16.6846 8.67183 16.6846C8.04658 16.6846 7.60659 17.1372 7.60659 17.7883V22.3618L8.03114 22.2427C8.44025 22.1315 8.89568 22.1315 9.3048 22.2586L9.73707 22.4015ZM8.67183 16.764C9.25076 16.764 9.65988 17.1848 9.65988 17.7883V22.2903L9.32795 22.1871C8.9034 22.0601 8.44025 22.0521 8.0157 22.1712L7.6915 22.2586V17.7883C7.68378 17.1848 8.08517 16.764 8.67183 16.764Z" stroke="white" mask="url(#path-4-outside-2)"/>
<path d="M12.6985 8.67651C12.7286 8.60237 12.782 8.50369 12.8721 8.4347L12.8787 8.42891L21.4297 0.925829C21.541 0.801878 21.6897 0.749939 21.8344 0.749939C22.0305 0.749939 22.2134 0.848551 22.3377 0.977773L24.8342 3.18858V2.18268C24.8342 1.7697 25.1423 1.47536 25.4868 1.47536H28.0121C28.4454 1.47536 28.6646 1.86745 28.6646 2.18268V6.65047L30.8326 8.54898C30.9342 8.61635 30.9911 8.72215 31.0214 8.79675C31.0584 8.88772 31.0801 8.99251 31.0801 9.08992C31.0801 9.18343 31.0583 9.28304 31.0338 9.36099C31.021 9.40167 31.0057 9.44234 30.9883 9.47921C30.9736 9.51049 30.9493 9.5567 30.9132 9.59647L29.4259 11.2667V17.5426C29.4259 17.9556 29.1178 18.2499 28.7733 18.2499H23.8838C23.4505 18.2499 23.2313 17.8578 23.2313 17.5426V13.1247H20.4155V17.5397C20.4245 17.9672 20.1104 18.2499 19.7702 18.2499H14.9394C14.506 18.2499 14.2868 17.8578 14.2868 17.5426V11.2011L12.8055 9.47688C12.6394 9.2951 12.6397 9.09963 12.6399 8.97589C12.6399 8.97176 12.6399 8.96772 12.6399 8.96376C12.6399 8.86842 12.6623 8.76557 12.6985 8.67651ZM22.2201 4.30616L28.652 10.0253L29.3661 9.17415L27.5928 7.52239L27.5832 7.51346L27.5746 7.50358C27.5067 7.42553 27.4499 7.34177 27.4119 7.24312C27.3736 7.14391 27.3595 7.04311 27.3595 6.93732V2.89001H26.1394V4.71376C26.1394 4.97259 25.9889 5.24385 25.7287 5.34193L25.7287 5.34196L25.725 5.3433C25.6102 5.38452 25.4903 5.40519 25.3672 5.39082C25.2426 5.37626 25.1308 5.3276 25.0311 5.25406L25.0222 5.2475L25.0139 5.24019L21.8077 2.4082L14.2412 9.11506L14.9583 9.96372L21.3837 4.30536L21.3908 4.29909L21.3984 4.29337C21.636 4.11421 21.9611 4.11853 22.1998 4.28992L22.2103 4.29751L22.2201 4.30616ZM23.6412 11.7337V11.7258H23.8912C24.3245 11.7258 24.5437 12.1179 24.5437 12.4331V16.8511H28.0695V11.3597L21.8578 5.81503L15.6432 11.3001V16.8589H19.1177V12.441C19.1177 12.028 19.4258 11.7337 19.7702 11.7337H23.6412Z" fill="white" stroke="white" stroke-width="0.5"/>
<path d="M37.3493 9.24994H34.2773C33.8672 9.24994 33.5699 8.89157 33.5699 8.49994C33.5699 8.10831 33.8672 7.74994 34.2773 7.74994H37.3493C37.7594 7.74994 38.0566 8.10831 38.0566 8.49994C38.0566 8.89157 37.7594 9.24994 37.3493 9.24994Z" fill="white" stroke="white" stroke-width="0.5"/>
<path d="M36.7183 12.0194C37.0372 12.1871 37.1514 12.5891 36.9814 12.9025C36.8617 13.1304 36.6333 13.25 36.4069 13.25C36.2953 13.25 36.1855 13.2179 36.0945 13.1626L33.9118 11.9763C33.593 11.8087 33.4788 11.4071 33.6484 11.0938C33.8148 10.7739 34.2162 10.6566 34.5304 10.8304L36.7183 12.0194Z" fill="white" stroke="white" stroke-width="0.5"/>
<path d="M36.7223 4.97664L36.7223 4.97665L36.72 4.97793L34.5242 6.17168C34.4229 6.22814 34.3203 6.25 34.2165 6.25C33.9943 6.25 33.7621 6.13337 33.6474 5.90622C33.4768 5.58817 33.5984 5.1983 33.9077 5.02582L33.9077 5.02581L33.9098 5.02469L36.0993 3.83071C36.4192 3.65319 36.8099 3.77974 36.9803 4.09186C37.1544 4.4107 37.0331 4.80336 36.7223 4.97664Z" fill="white" stroke="white" stroke-width="0.5"/>
<path d="M9.44254 9.24994H6.37056C5.96043 9.24994 5.66319 8.89157 5.66319 8.49994C5.66319 8.10831 5.96043 7.74994 6.37056 7.74994H9.44254C9.85266 7.74994 10.1499 8.10831 10.1499 8.49994C10.1499 8.89157 9.85266 9.24994 9.44254 9.24994Z" fill="white" stroke="white" stroke-width="0.5"/>
<path d="M7.313 13.25C7.08665 13.25 6.85819 13.1304 6.73849 12.9025C6.56849 12.5891 6.6827 12.1871 7.00165 12.0194L9.1895 10.8304C9.50372 10.6566 9.90517 10.7739 10.0716 11.0938C10.2411 11.4071 10.1269 11.8087 9.80813 11.9763L7.62055 13.1652C7.53249 13.2142 7.42452 13.25 7.313 13.25Z" fill="white" stroke="white" stroke-width="0.5"/>
<path d="M7.00031 4.97789L7.00031 4.9779L6.99827 4.97676C6.68706 4.80364 6.56519 4.41084 6.73985 4.09165C6.91064 3.77953 7.30163 3.65346 7.62156 3.83052L9.80922 5.0177L9.80922 5.01768L9.81151 5.01895C10.1206 5.1909 10.2429 5.57955 10.0734 5.89755C9.95924 6.1323 9.72607 6.25 9.50257 6.25C9.3986 6.25 9.29588 6.22816 9.19447 6.17171L7.00031 4.97789Z" fill="white" stroke="white" stroke-width="0.5"/>
</svg>
