<svg width="32" height="22" viewBox="0 0 32 22" fill="none" xmlns="http://www.w3.org/2000/svg">
<path d="M1.42222 0C0.64 0 0 0.64 0 1.42222V19.9111C0 20.6933 0.64 21.3333 1.42222 21.3333H30.5778C31.36 21.3333 32 20.6933 32 19.9111V1.42222C32 0.64 31.36 0 30.5778 0H1.42222ZM3.52 2.13333H28.4444L16 12.8L3.52 2.13333ZM2.13333 3.69776L9.63556 10.1333L2.13333 17.6355V3.69776ZM29.8667 3.69776V17.6355L22.3644 10.1333L29.8667 3.69776ZM11.2711 11.5556L15.3244 15.04C15.7156 15.36 16.32 15.36 16.7111 15.04L20.7644 11.5556L28.4089 19.2H3.62667L11.2711 11.5556Z" fill="#EA5F32"/>
</svg>
