<svg width="25" height="37" viewBox="0 0 25 37" fill="none" xmlns="http://www.w3.org/2000/svg">
<path d="M12.5261 0C5.63674 0 0 5.4242 0 12.0538C0 14.4645 0.730689 16.6744 1.9833 18.5327L7.82881 27.2717C7.51566 27.4223 7.20251 27.5228 6.88935 27.6735C5.37578 28.4268 4.17537 29.6824 4.17537 31.2896C4.17537 32.8968 5.37578 34.1524 6.88935 34.9057C8.40292 35.7093 10.3862 36.1111 12.5261 36.1111C14.666 36.1111 16.5971 35.7093 18.1106 34.9057C19.6242 34.1524 20.8246 32.8968 20.8246 31.2896C20.8246 29.6824 19.6242 28.4771 18.1106 27.6735C17.7975 27.5228 17.5365 27.3721 17.1712 27.2717L23.0167 18.5327C24.2693 16.6744 25 14.4143 25 12.0538C25 5.4242 19.4154 0 12.5261 0ZM12.5261 2.41076C18.0585 2.41076 22.547 6.73003 22.547 12.0538C22.547 13.9623 21.9729 15.7704 20.9812 17.2771L12.5261 29.8833L4.07098 17.2269C3.07933 15.7201 2.45303 13.9623 2.45303 12.0036C2.50522 6.6798 6.99374 2.41076 12.5261 2.41076ZM12.5261 6.83047C9.55115 6.83047 7.09812 9.19101 7.09812 12.0538C7.09812 14.9166 9.55115 17.2771 12.5261 17.2771C15.501 17.2771 17.9541 14.9166 17.9541 12.0538C17.9541 9.19101 15.501 6.83047 12.5261 6.83047ZM12.5261 9.24123C14.1441 9.24123 15.4489 10.4968 15.4489 12.0538C15.4489 13.6107 14.1441 14.8663 12.5261 14.8663C10.9081 14.8663 9.60334 13.6107 9.60334 12.0538C9.60334 10.4968 10.9081 9.24123 12.5261 9.24123ZM9.238 29.3811L11.4823 32.7461C11.691 33.0977 12.1086 33.2986 12.5261 33.2986C12.9436 33.2986 13.3612 33.0977 13.5699 32.7461L15.8142 29.3811C16.2317 29.5318 16.5971 29.6322 16.9624 29.8331C18.0063 30.3353 18.3716 30.938 18.3716 31.2896C18.3716 31.6914 18.0063 32.2439 16.9624 32.7963C15.9186 33.3488 14.3006 33.7004 12.5261 33.7004C10.7516 33.7004 9.13361 33.2986 8.08977 32.7963C7.04593 32.2941 6.68058 31.6914 6.68058 31.2896C6.68058 30.938 7.04593 30.3353 8.08977 29.8331C8.40292 29.6322 8.76827 29.5318 9.238 29.3811Z" fill="#EA5F32"/>
</svg>
