<svg width="28" height="28" viewBox="0 0 28 28" fill="none" xmlns="http://www.w3.org/2000/svg">
<path d="M14 28C6.3 28 0 21.7 0 14C0 6.3 6.3 0 14 0C21.7 0 28 6.3 28 14C28 21.7 21.7 28 14 28ZM14 2.33333C7.58333 2.33333 2.33333 7.58333 2.33333 14C2.33333 20.4167 7.58333 25.6667 14 25.6667C20.4167 25.6667 25.6667 20.4167 25.6667 14C25.6667 7.58333 20.4167 2.33333 14 2.33333ZM16.5667 18.3167L13.1833 14.9333C12.95 14.7 12.8333 14.35 12.8333 14V8.16667C12.8333 7.46667 13.3 7 14 7C14.7 7 15.1667 7.46667 15.1667 8.16667V13.4167L18.3167 16.5667C18.7833 17.0333 18.7833 17.85 18.3167 18.3167C17.85 18.7833 17.0333 18.7833 16.5667 18.3167Z" fill="#EA5F32"/>
</svg>
