<svg width="175" height="148" viewBox="0 0 175 148" fill="none" xmlns="http://www.w3.org/2000/svg">
<path d="M103.135 101.95H129.663C129.867 101.95 130.046 101.771 130.046 101.566V79.8557C130.046 79.6513 129.867 79.4725 129.663 79.4725H103.135C102.931 79.4725 102.752 79.6513 102.752 79.8557V101.566C102.752 101.771 102.931 101.95 103.135 101.95ZM106.323 98.3482V83.0229H126.475V98.3482H106.323Z" fill="#EA5F32"/>
<path d="M27.6632 119.61H165.928C166.126 119.61 166.298 119.437 166.298 119.24V116.526C166.298 116.329 166.126 116.156 165.928 116.156H155.452V78.1857L156.216 77.9143C160.85 76.3106 165.164 72.3385 168.394 66.7626C172.658 59.4103 175 49.6155 175 39.2039C175 28.8663 172.633 19.3182 168.369 11.8919C163.907 4.24359 157.892 0 151.434 0C144.951 0 138.961 4.24359 134.524 11.9413C130.259 19.3676 127.893 28.9156 127.893 39.2779C127.893 46.9262 129.15 54.2045 131.664 60.8906L132.231 62.3956H107.901V27.9534C107.901 27.7561 107.728 27.5834 107.531 27.5834H27.6632C27.466 27.5834 27.2935 27.7561 27.2935 27.9534V115.046L27.3181 119.24C27.2935 119.437 27.466 119.61 27.6632 119.61ZM93.3571 82.8241V116.131H80.7853V82.8241H93.3571ZM56.3812 62.7163V65.4303C56.3812 65.6277 56.5537 65.8004 56.7509 65.8004H63.2833V116.131H30.7445V31.0128H104.45V62.3463H56.7509C56.5537 62.3463 56.3812 62.519 56.3812 62.7163ZM96.4384 79.37H77.7039C77.5067 79.37 77.3342 79.5427 77.3342 79.7401V116.131H66.7344V65.8004H133.291C133.981 65.8004 134.326 66.3431 134.499 66.6145L134.524 66.6392C134.524 66.6392 134.524 66.6639 134.548 66.6639C134.573 66.6886 134.573 66.7132 134.598 66.7379L134.622 66.7626C135.51 68.3169 136.594 69.8466 137.999 71.4996L138.27 71.8203V116.131H96.8082V79.7401C96.8082 79.5427 96.6356 79.37 96.4384 79.37ZM141.672 75.2004L143.373 76.2613C145.666 77.717 148.229 78.5065 150.966 78.6298L152.05 78.6792V116.131H141.672V75.2004V75.2004ZM155.477 56.0796L164.055 41.4737C164.154 41.301 164.104 41.079 163.932 40.9803L161.615 39.5986C161.541 39.5493 161.442 39.5246 161.343 39.5493C161.245 39.574 161.171 39.648 161.122 39.722L155.501 49.2948V30.9141C155.501 30.7167 155.329 30.544 155.131 30.544H152.42C152.223 30.544 152.05 30.7167 152.05 30.9141V59.8297L139.7 39.6973C139.602 39.5246 139.355 39.4753 139.183 39.574L136.89 40.9803C136.717 41.079 136.668 41.3257 136.767 41.4984L152.05 66.4418V75.2498L150.867 75.1757C145.592 74.855 140.637 70.8581 136.939 63.8759C133.365 57.0664 131.393 48.3079 131.393 39.1792C131.393 29.8038 133.439 21.1439 137.137 14.3345C140.957 7.27825 146.035 3.40474 151.459 3.40474C156.857 3.40474 161.96 7.27825 165.805 14.3345C169.503 21.1933 171.573 29.8532 171.573 39.1792C171.573 55.0187 165.633 69.2298 157.104 73.7694L155.477 74.6329V56.0796V56.0796Z" fill="#EA5F32"/>
<path d="M166.053 138.001L157.985 130.144C157.886 130.046 157.788 130.046 157.739 130.046H157.715C157.617 130.046 157.519 130.095 157.445 130.169L155.9 131.77C155.826 131.844 155.802 131.942 155.802 132.041C155.802 132.139 155.851 132.238 155.924 132.312L161.222 137.46H22.6057L27.9032 132.312C27.9767 132.238 28.0258 132.139 28.0258 132.041C28.0258 131.942 28.0013 131.844 27.9277 131.77L26.3826 130.169C26.309 130.095 26.2109 130.046 26.0883 130.046C26.0393 130.046 25.9412 130.071 25.8431 130.144L17.7743 138.001C17.6271 138.149 17.6271 138.371 17.7498 138.519L25.8185 147.583C25.9412 147.73 26.1864 147.755 26.3336 147.607L27.9767 146.154C28.0503 146.08 28.0994 146.006 28.0994 145.908C28.0994 145.809 28.0748 145.711 28.0013 145.637L23.366 140.391H160.413L155.777 145.637C155.704 145.711 155.679 145.809 155.679 145.908C155.679 146.006 155.728 146.105 155.802 146.154L157.445 147.607C157.519 147.656 157.592 147.706 157.69 147.706C157.788 147.706 157.886 147.656 157.96 147.583L166.029 138.519C166.225 138.371 166.2 138.149 166.053 138.001Z" fill="#EA5F32"/>
<path d="M16.1176 110.029C15.9989 109.882 15.7616 109.857 15.6191 110.004L10.0171 115.184V33.807L15.0257 38.4466C15.1681 38.5694 15.4055 38.5694 15.5242 38.4221L16.9484 36.7774C17.0196 36.7037 17.0434 36.6055 17.0434 36.5073C17.0434 36.4091 16.9959 36.3109 16.9247 36.2618L8.16563 28.1855C8.02321 28.0628 7.80957 28.0628 7.66715 28.2101L0.0949492 36.2618C0.0237373 36.3109 0 36.4091 0 36.5073C0 36.6055 0.0474746 36.7037 0.118686 36.7774L1.68535 38.3239C1.82777 38.4712 2.04141 38.4466 2.18383 38.3239L7.16866 33.0215V114.84L2.77726 110.152C2.63484 110.004 2.4212 110.004 2.27878 110.152L0.735856 111.698C0.593432 111.846 0.593432 112.066 0.735856 112.214L8.28432 120.29C8.35553 120.364 8.45048 120.413 8.54543 120.413C8.64038 120.413 8.71159 120.388 8.7828 120.315L17.5419 112.238C17.6131 112.165 17.6606 112.091 17.6606 111.993C17.6606 111.895 17.6368 111.796 17.5656 111.723L16.1176 110.029Z" fill="#EA5F32"/>
<path d="M52.6451 79.4725H38.0657C37.8863 79.4725 37.7292 79.6513 37.7292 79.8557V101.566C37.7292 101.771 37.8863 101.95 38.0657 101.95H52.6451C52.8245 101.95 52.9815 101.771 52.9815 101.566V79.8557C52.9815 79.6513 52.8245 79.4725 52.6451 79.4725ZM49.8414 83.0229V98.3482H40.8694V83.0229H49.8414Z" fill="#EA5F32"/>
<path d="M93.9219 56.6049V38.1199C93.9219 37.9116 93.7524 37.7294 93.5586 37.7294H38.0926C37.8988 37.7294 37.7292 37.9116 37.7292 38.1199V56.6049C37.7292 56.8132 37.8988 56.9954 38.0926 56.9954H93.5586C93.7524 56.9954 93.9219 56.8132 93.9219 56.6049ZM90.531 41.3743V53.3505H41.1202V41.3743H90.531Z" fill="#EA5F32"/>
</svg>
