<svg width="133" height="147" viewBox="0 0 133 147" fill="none" xmlns="http://www.w3.org/2000/svg">
<path d="M108.418 147H80.8245C79.9713 147 79.4594 146.505 79.4594 145.614V104.149C79.4594 98.2606 81.7264 92.8176 85.8216 88.8344L93.232 81.6348V65.5286C93.232 62.0401 95.7915 59.4176 99.1799 59.4176C99.8624 59.4176 100.545 59.5165 101.179 59.7392L102.422 60.1598V56.0776C102.422 52.5891 104.981 49.9666 108.37 49.9666C109.125 49.9666 109.881 50.0903 110.564 50.3625L111.539 50.7336L111.807 49.6944C112.489 47.0224 114.805 45.2411 117.56 45.2411C118.242 45.2411 118.925 45.3401 119.558 45.5627L120.802 45.9833V44.2515C120.802 40.763 123.361 38.1405 126.749 38.1405C130.138 38.1405 132.697 40.763 132.697 44.2515V85.9397C132.697 93.0156 130.503 111.175 110.076 126.861L109.71 127.158V145.54C109.784 146.505 109.296 147 108.418 147ZM102.471 65.5286C102.471 63.574 101.13 62.2133 99.2286 62.2133C97.3273 62.2133 95.9866 63.574 95.9866 65.5286V78.9875L102.471 72.7034V65.5286ZM111.661 56.1023C111.661 54.1478 110.32 52.787 108.418 52.787C106.517 52.787 105.176 54.1478 105.176 56.1023V70.3035L106.395 69.9324C107.712 69.5366 109.15 69.5118 110.49 69.8829L111.685 70.2046V56.1023H111.661ZM120.85 51.4016C120.85 49.447 119.51 48.0863 117.608 48.0863C115.707 48.0863 114.366 49.447 114.366 51.4016V72.7529L114.488 72.9755C115.146 74.0889 115.512 75.4001 115.512 76.6124C115.512 78.7154 114.927 80.3483 113.708 81.5853L113.635 81.6843L110.856 85.3707H120.85V51.4016ZM111.197 122.432C113.099 120.799 115.975 118.127 118.9 114.59C123.995 108.38 130.065 98.3843 130.065 86.0139V44.3257C130.065 42.3712 128.724 41.0104 126.823 41.0104C124.824 41.0104 123.581 42.7423 123.581 44.3257V86.7314C123.581 87.6221 123.093 88.1169 122.215 88.1169H107.955C107.59 88.1169 107.053 87.9684 107.053 87.6716V87.4489L106.956 87.251C106.639 86.6324 106.858 86.0387 107.102 85.6676L111.831 79.6803C112.611 79.0618 113.05 77.9979 113.05 76.6124C113.05 75.8702 112.928 75.2764 112.66 74.7074L112.538 74.4352L112.27 74.2868C112.026 74.1383 111.856 73.9404 111.758 73.6435L111.661 73.3714L111.441 73.1982C109.71 71.788 107.297 71.9364 105.688 73.5446L105.103 74.1136L105.03 74.262C104.908 74.5095 104.738 74.6826 104.47 74.7816L104.323 74.8558L95.9622 82.8718L95.8891 83.0945C95.7672 83.4409 95.499 83.6883 95.1578 83.812L94.9628 83.8862L87.7961 90.7642C84.2372 94.1536 82.214 99.0523 82.214 104.198V144.278H106.834V126.341C106.834 125.995 107.102 125.599 107.517 125.302C107.736 125.179 108.053 124.981 108.613 124.56C109.174 124.09 110.052 123.397 111.197 122.432Z" fill="#EA5F32"/>
<path d="M80.8939 147H108.336C109.258 147 109.816 146.432 109.816 145.493V127.189L110.132 126.942C130.489 111.257 132.697 93.0766 132.697 85.9873V44.3653C132.697 40.833 130.101 38.1405 126.656 38.1405C123.21 38.1405 120.614 40.8083 120.614 44.3653V45.9215L119.546 45.5509C118.891 45.3286 118.212 45.2051 117.508 45.2051C114.693 45.2051 112.364 47.033 111.66 49.7502L111.442 50.6395L110.593 50.3183C109.889 50.0466 109.137 49.8984 108.361 49.8984C104.915 49.8984 102.319 52.5662 102.319 56.1232V60.026L101.251 59.6555C100.596 59.4332 99.9168 59.3097 99.2131 59.3097C95.7677 59.3097 93.1714 61.9774 93.1714 65.5345V81.5657L85.8195 88.7539C81.7189 92.7555 79.4624 98.2145 79.4624 104.118V145.518C79.4138 146.457 79.9719 147 80.8939 147ZM126.656 38.3875C129.955 38.3875 132.455 40.9565 132.455 44.3653V85.9873C132.455 93.0272 130.271 111.133 109.986 126.745L109.574 127.066V145.493C109.574 146.308 109.137 146.753 108.336 146.753H80.8697C80.0689 146.753 79.6322 146.308 79.6322 145.493V104.093C79.6322 98.2392 81.8645 92.8543 85.9408 88.8774L85.9651 88.8527L93.3898 81.6645V65.5345C93.3898 62.1256 95.889 59.5567 99.1889 59.5567C99.8683 59.5567 100.523 59.6555 101.13 59.8778L102.513 60.3471V56.0985C102.513 52.6897 105.012 50.1207 108.312 50.1207C109.064 50.1207 109.792 50.2442 110.472 50.5159L111.563 50.9359L111.855 49.7749C112.51 47.1812 114.766 45.4274 117.46 45.4274C118.139 45.4274 118.794 45.5262 119.401 45.7486L120.784 46.2179V44.3159C120.832 40.9565 123.331 38.3875 126.656 38.3875ZM82.1314 144.233H106.881V126.201C106.881 125.905 107.123 125.534 107.511 125.263C107.705 125.164 108.045 124.942 108.603 124.497C109.161 124.077 110.059 123.41 111.175 122.422C113.068 120.792 115.955 118.099 118.843 114.567C123.938 108.367 129.98 98.3627 129.98 85.9626V44.3653C129.98 42.3398 128.597 40.9318 126.631 40.9318C124.569 40.9318 123.283 42.7103 123.283 44.3653V86.7036C123.283 87.5188 122.846 87.9634 122.045 87.9634H107.851C107.487 87.9634 107.075 87.8152 107.075 87.6423V87.3953L106.953 87.173C106.662 86.6048 106.881 86.0614 107.099 85.7156L111.83 79.7378C112.631 79.0956 113.068 78.0087 113.068 76.6007C113.068 75.835 112.946 75.2174 112.655 74.6493L112.51 74.3529L112.219 74.18C112 74.0565 111.855 73.8589 111.758 73.6118L111.66 73.3154L111.418 73.1178C109.647 71.6604 107.172 71.8086 105.546 73.4636L104.939 74.0565L104.867 74.2047C104.77 74.427 104.6 74.5752 104.381 74.674L104.187 74.7728L95.8405 82.8008L95.7434 83.0478C95.6221 83.3689 95.4037 83.5665 95.0883 83.69L94.8456 83.7641L94.8214 83.7889L87.6878 90.6559C84.121 94.0647 82.0828 98.9803 82.0828 104.143V144.233H82.1314ZM106.638 143.986H82.3498V104.093C82.3498 99.005 84.3637 94.1388 87.8819 90.7794L94.9912 83.9371L95.1611 83.8877C95.5493 83.7641 95.8405 83.4924 95.986 83.0972L96.0588 82.9243L104.357 74.9457L104.478 74.8963C104.745 74.7728 104.964 74.5752 105.085 74.3035L105.158 74.18L105.74 73.6365C107.293 72.0556 109.622 71.9074 111.297 73.2907L111.491 73.4389L111.563 73.6612C111.66 73.9824 111.855 74.2047 112.122 74.3529L112.34 74.4764L112.461 74.7234C112.728 75.2668 112.849 75.8597 112.849 76.576C112.849 77.9346 112.461 78.9474 111.685 79.5402L111.66 79.5649L106.953 85.5427C106.686 85.9626 106.468 86.5801 106.783 87.2718L106.881 87.4447V87.6423C106.881 88.0622 107.487 88.2104 107.9 88.2104H122.07C122.992 88.2104 123.55 87.6423 123.55 86.7036V44.3653C123.55 42.8338 124.739 41.1788 126.656 41.1788C128.475 41.1788 129.761 42.488 129.761 44.3653V85.9873C129.761 98.2886 123.72 108.243 118.673 114.419C115.785 117.951 112.922 120.619 111.03 122.249C109.913 123.212 109.016 123.904 108.458 124.299C107.9 124.719 107.584 124.942 107.366 125.04C106.905 125.386 106.638 125.806 106.638 126.201V143.986ZM110.52 85.4439H120.832V51.4299C120.832 49.4044 119.449 47.9964 117.484 47.9964C115.518 47.9964 114.135 49.4044 114.135 51.4299V72.772L114.281 73.019C114.912 74.1306 115.276 75.3903 115.276 76.6007C115.276 78.6756 114.693 80.2565 113.529 81.4669L113.456 81.5657L110.52 85.4439ZM120.59 85.1968H111.005L113.699 81.6398C114.912 80.3801 115.518 78.725 115.518 76.6007C115.518 75.3656 115.154 74.0318 114.499 72.8955L114.378 72.6979V51.4299C114.378 49.5526 115.664 48.2434 117.484 48.2434C119.304 48.2434 120.59 49.5526 120.59 51.4299V85.1968ZM95.8405 79.2685L102.537 72.7473V65.5345C102.537 63.5089 101.154 62.1009 99.1889 62.1009C97.2235 62.1009 95.8405 63.5089 95.8405 65.5345V79.2685ZM102.295 72.6485L96.0831 78.7003V65.5345C96.0831 63.6571 97.3691 62.348 99.1889 62.348C101.009 62.348 102.295 63.6571 102.295 65.5345V72.6485ZM104.988 70.4748L106.347 70.0548C107.633 69.6596 109.04 69.6349 110.35 70.0054L111.685 70.3759V56.1479C111.685 54.1224 110.302 52.7144 108.336 52.7144C106.371 52.7144 104.988 54.1224 104.988 56.1479V70.4748ZM108.458 69.4867C107.73 69.4867 106.978 69.5855 106.298 69.8078L105.255 70.1289V56.1232C105.255 54.2459 106.541 52.9367 108.361 52.9367C110.18 52.9367 111.466 54.2459 111.466 56.1232V70.0301L110.447 69.7584C109.792 69.5855 109.113 69.4867 108.458 69.4867Z" fill="#EA5F32"/>
<path d="M23.3191 145.565V127.178L22.9481 126.881C2.22538 111.192 -0.000205994 93.028 -0.000205994 85.9506V44.2529C-0.000205994 40.7636 2.59632 38.1405 6.03363 38.1405C9.47093 38.1405 12.0674 40.7636 12.0674 44.2529V45.9851L13.3533 45.5397C13.9963 45.317 14.6887 45.218 15.3811 45.218C18.1755 45.218 20.5247 46.9997 21.2171 49.6723L21.4891 50.7117L22.4783 50.3405C23.1707 50.0683 23.9373 49.9445 24.7039 49.9445C28.1412 49.9445 30.7377 52.5677 30.7377 56.0569V60.1401L31.9989 59.7194C32.6418 59.4967 33.3342 59.3977 34.0266 59.3977C37.4639 59.3977 40.0605 62.0208 40.0605 65.51V81.6199L47.578 88.8211C51.7572 92.8053 54.0322 98.2495 54.0322 104.139V145.614C54.0322 146.505 53.5376 147 52.6474 147H24.6544C23.8136 146.95 23.3191 146.456 23.3191 145.565ZM30.7377 72.637L37.3156 78.9226V65.4605C37.3156 63.5056 35.9555 62.1445 34.0266 62.1445C32.0978 62.1445 30.7377 63.5056 30.7377 65.4605V72.637ZM21.4149 70.1376L22.6266 69.8159C23.962 69.4447 25.4457 69.4695 26.7811 69.8654L28.0175 70.2366V56.0322C28.0175 54.0772 26.6574 52.7161 24.7286 52.7161C22.7997 52.7161 21.4397 54.0772 21.4397 56.0322V70.1376H21.4149ZM12.0922 85.2824H22.231L19.4119 81.5952L19.3377 81.4962C18.1013 80.2589 17.5078 78.6256 17.5078 76.5222C17.5078 75.2849 17.8787 73.9981 18.5464 72.8845L18.67 72.6617V51.3056C18.67 49.3506 17.31 47.9896 15.3811 47.9896C13.4523 47.9896 12.0922 49.3506 12.0922 51.3056V85.2824ZM24.506 124.456C25.0748 124.877 25.421 125.099 25.6188 125.198C26.0392 125.495 26.3112 125.891 26.3112 126.238V144.179H51.3121V104.09C51.3121 98.9424 49.2348 94.0674 45.6492 90.6524L38.3789 83.7729L38.1811 83.6986C37.8101 83.5749 37.5628 83.3522 37.4392 82.981L37.365 82.7583L28.883 74.7404L28.7347 74.6662C28.4874 74.5672 28.2895 74.3692 28.1659 74.1465L28.0917 73.9981L27.4982 73.4289C25.8909 71.7956 23.4427 71.6471 21.6622 73.0824L21.4397 73.2557L21.3407 73.5279C21.2418 73.8001 21.0687 74.0228 20.8214 74.1713L20.5494 74.3198L20.4258 74.592C20.1538 75.1611 20.0301 75.755 20.0301 76.4974C20.0301 77.8832 20.4505 78.9473 21.2666 79.566L26.0639 85.5546C26.3112 85.9506 26.5338 86.5197 26.2123 87.1384L26.1134 87.3364V87.5591C26.1134 87.8808 25.5694 88.0045 25.1984 88.0045H10.7321C9.86658 88.0045 9.34728 87.5096 9.34728 86.6187V44.2529C9.34728 42.6443 8.08611 40.9368 6.05835 40.9368C4.12951 40.9368 2.76942 42.2979 2.76942 44.2529V85.9506C2.76942 98.3238 8.92689 108.321 14.0952 114.533C17.0379 118.071 19.9559 120.769 21.9095 122.377C23.047 123.342 23.9373 124.035 24.506 124.456Z" fill="#EA5F32"/>
<path d="M24.6898 147H52.5306C53.4661 147 54.0322 146.432 54.0322 145.494V104.103C54.0322 98.2009 51.7429 92.7431 47.5828 88.7424L47.5582 88.7177L40.0995 81.5559V65.5282C40.0995 61.9967 37.4656 59.3049 33.9701 59.3049C33.2562 59.3049 32.567 59.4284 31.9023 59.6506L30.8192 60.0211V56.1191C30.8192 52.5876 28.1853 49.8957 24.6898 49.8957C23.9021 49.8957 23.139 50.0439 22.4251 50.3156L21.5635 50.6366L21.342 49.7476C20.6527 47.031 18.265 45.2035 15.4095 45.2035C14.6956 45.2035 14.0064 45.327 13.3417 45.5493L12.2586 45.9197V44.3639C12.2586 40.8324 9.62471 38.1405 6.12922 38.1405C2.63373 38.1405 -0.000205994 40.8077 -0.000205994 44.3639V85.9764C-0.000205994 93.0642 2.23987 111.24 22.8682 126.922L23.1882 127.169V145.469C23.1882 146.457 23.7544 147 24.6898 147ZM47.3613 88.8905C51.4968 92.8666 53.7614 98.275 53.7614 104.103V145.494C53.7614 146.308 53.3184 146.753 52.506 146.753H24.6406C23.8282 146.753 23.3851 146.308 23.3851 145.494V127.07L22.9667 126.749C2.41218 111.117 0.172112 93.0395 0.172112 86.0011V44.3886C0.172112 40.9805 2.70758 38.4122 6.05537 38.4122C9.40317 38.4122 11.9386 40.9805 11.9386 44.3886V46.2901L13.3417 45.8209C13.9818 45.5987 14.6464 45.4999 15.311 45.4999C18.0434 45.4999 20.3327 47.2533 20.9974 49.8464L21.2928 51.0071L22.4005 50.5872C23.0897 50.3156 23.8282 50.1921 24.5913 50.1921C27.9391 50.1921 30.4746 52.7605 30.4746 56.1685V60.4162L31.8777 59.947C32.5177 59.7247 33.1824 59.6259 33.847 59.6259C37.1948 59.6259 39.7302 62.1943 39.7302 65.6023V81.7287L47.3613 88.8905ZM26.1668 144.234H51.2998V104.103C51.2998 98.9418 49.2321 94.0273 45.6135 90.6193L38.3517 83.7538L38.1056 83.6797C37.7856 83.5809 37.564 83.3587 37.441 83.0376L37.3425 82.7907L37.3179 82.766L28.8499 74.7398L28.6776 74.6657C28.4561 74.5669 28.2837 74.4188 28.1853 74.1965L28.0868 73.9989L27.496 73.4309C25.8467 71.7763 23.3359 71.6281 21.5389 73.0852L21.2928 73.2827L21.1943 73.5791C21.0958 73.8261 20.9481 74.0236 20.7266 74.1471L20.4312 74.32L20.2835 74.6163C20.0127 75.1843 19.865 75.8264 19.865 76.5673C19.865 77.9997 20.3081 79.0863 21.1204 79.7037L25.8714 85.6554C26.0929 86.0011 26.2898 86.5444 26.0191 87.1124L25.896 87.3347V87.5817C25.896 87.7792 25.4775 87.9027 25.1083 87.9027H10.7078C9.89549 87.9027 9.4524 87.4582 9.4524 86.6432V44.3886C9.4524 42.7339 8.14775 40.9558 6.05537 40.9558C4.06147 40.9558 2.65835 42.3635 2.65835 44.3886V86.0011C2.65835 98.3738 8.81237 108.376 13.9571 114.599C16.8865 118.13 19.8158 120.822 21.7359 122.452C22.8928 123.415 23.779 124.107 24.3452 124.527C24.9359 124.947 25.256 125.169 25.4775 125.292C25.8467 125.564 26.0929 125.934 26.0929 126.231V144.234H26.1668ZM51.0537 143.987H26.4129V126.206C26.4129 125.836 26.1421 125.391 25.6744 125.07C25.4529 124.947 25.1329 124.724 24.5667 124.329L24.4929 124.428L24.5667 124.329C24.0005 123.934 23.1144 123.243 21.9574 122.279C20.0373 120.649 17.1326 117.982 14.2033 114.451C9.08315 108.277 2.95373 98.3244 2.95373 86.0258V44.3886C2.95373 42.5117 4.2584 41.2028 6.10461 41.2028C8.04929 41.2028 9.25547 42.8574 9.25547 44.3886V86.7173C9.25547 87.6558 9.82164 88.2238 10.757 88.2238H25.1575C25.576 88.2238 26.1914 88.0756 26.1914 87.6558V87.4582L26.2898 87.2853C26.6345 86.5938 26.3883 85.9764 26.1421 85.5813L21.342 79.5802C20.5789 78.9875 20.1604 77.975 20.1604 76.6167C20.1604 75.9005 20.2835 75.3078 20.5543 74.7645L20.6774 74.5175L20.8989 74.3941C21.1697 74.2459 21.3666 73.9989 21.4651 73.7026L21.5389 73.4803L21.7359 73.3321C23.4344 71.9492 25.8221 72.0973 27.3729 73.6779L27.9637 74.2459L28.0376 74.3694C28.1607 74.641 28.3822 74.8386 28.653 74.9621L28.7761 75.0115L37.1948 82.9882L37.2686 83.1611C37.4163 83.5562 37.6871 83.8032 38.1056 83.9514L38.2779 84.0008L45.4904 90.8415C49.0105 94.1755 51.0537 99.0159 51.0537 104.103V143.987ZM12.0125 85.4578H22.4743L19.4219 81.4818C18.2157 80.2717 17.6496 78.6665 17.6496 76.592C17.6496 75.3819 18.0188 74.1224 18.6588 73.0111L18.8065 72.7641V51.4269C18.8065 49.4018 17.4034 47.9942 15.4095 47.9942C13.4156 47.9942 12.0125 49.4018 12.0125 51.4269V85.4578ZM21.9574 85.2109H12.234V51.4516C12.234 49.5747 13.5387 48.2658 15.3849 48.2658C17.2311 48.2658 18.5358 49.5747 18.5358 51.4516V72.7147L18.4127 72.9123C17.748 74.0483 17.3788 75.3572 17.3788 76.6167C17.3788 78.7652 17.9942 80.4199 19.225 81.6547L19.2989 81.7287L21.9574 85.2109ZM37.3671 79.2838V65.5529C37.3671 63.5279 35.964 62.1202 33.9701 62.1202C31.9762 62.1202 30.573 63.5279 30.573 65.5529V72.7641L37.3671 79.2838ZM33.9701 62.3672C35.8163 62.3672 37.1209 63.676 37.1209 65.5529V78.7158L30.8192 72.6653V65.5529C30.8192 63.676 32.1239 62.3672 33.9701 62.3672ZM28.0868 70.4921V56.1438C28.0868 54.1187 26.6837 52.7111 24.6898 52.7111C22.6959 52.7111 21.2928 54.1187 21.2928 56.1438V70.3686L22.6467 69.9982C23.9513 69.6525 25.4037 69.6525 26.7083 70.0476L28.0868 70.4921ZM24.6898 52.958C26.536 52.958 27.8407 54.2669 27.8407 56.1438V70.1464L26.7822 69.8253C25.4283 69.4302 23.9513 69.4055 22.5974 69.7759L21.5635 70.0476V56.1438C21.5389 54.2669 22.819 52.958 24.6898 52.958Z" fill="#EA5F32"/>
<path d="M60.0163 53.2378H43.5409C42.6922 53.2378 42.1679 52.5217 42.1679 51.8057V31.6563L36.9008 26.0263C36.5513 25.6806 36.5513 25.3349 36.5513 24.9398C36.5513 24.5694 36.751 24.0509 37.0506 23.878L37.0755 23.8533L66.282 0.321007C66.4817 0.0987715 66.7563 0 67.0558 0C67.4553 0 67.8796 0.197543 68.1792 0.493858L78.1393 8.59312V3.70393C78.1393 2.81499 78.8383 2.27174 79.5123 2.27174H88.1244C88.9732 2.27174 89.4974 2.98784 89.4974 3.70393V18.0505L97.2359 24.2731C97.5354 24.4213 97.7351 24.9398 97.7351 25.3349C97.7351 25.7053 97.5354 26.2485 97.3856 26.3967L92.0935 31.8538V51.8057C92.0935 52.6946 91.3946 53.2378 90.7206 53.2378H74.0454C73.1967 53.2378 72.6725 52.5217 72.6725 51.8057V37.1875H61.3643V51.8057C61.3893 52.7193 60.6903 53.2378 60.0163 53.2378ZM93.9158 25.5324L87.2757 19.8531C86.9013 19.458 86.7515 19.1123 86.7515 18.5937V5.13612H80.8852V11.6303C80.8852 12.1736 80.5358 12.6921 80.0365 12.865C79.4374 13.0625 78.9381 13.0131 78.4638 12.6921L66.956 3.35823L66.8811 3.43231L39.9712 25.3349L43.5159 29.187L66.0823 10.9389C66.5816 10.5932 67.2805 10.5932 67.8047 10.9389L90.3961 29.3845L93.9158 25.5324ZM74.0704 34.3725C74.9191 34.3725 75.4433 35.0886 75.4433 35.8047V50.4229H89.1729V32.076L89.1229 32.0514L67.1307 14.0256L67.0558 14.0996L45.0886 31.9032V50.4475H58.6434V35.8294C58.6434 34.9404 59.3423 34.3972 60.0163 34.3972H74.0704V34.3725Z" fill="#EA5F32"/>
<path d="M105.55 26.2216H115.347C116.149 26.2216 116.805 25.5065 116.805 24.6324C116.805 23.7583 116.149 23.0432 115.347 23.0432H105.55C104.748 23.0432 104.092 23.7583 104.092 24.6324C104.092 25.5065 104.748 26.2216 105.55 26.2216Z" fill="#EA5F32"/>
<path d="M113.029 39.7298C113.513 39.7298 113.998 39.4358 114.252 38.8747C114.621 38.0998 114.367 37.1111 113.698 36.7103L106.131 31.9806C105.462 31.5531 104.608 31.847 104.262 32.6219C103.893 33.3968 104.146 34.3855 104.816 34.7863L112.383 39.516C112.568 39.6496 112.798 39.7298 113.029 39.7298Z" fill="#EA5F32"/>
<path d="M105.462 16.6865C105.692 16.6865 105.9 16.6382 106.108 16.5176L113.698 12.2465C114.367 11.8605 114.621 10.9918 114.252 10.292C113.883 9.59221 113.052 9.32678 112.383 9.71286L104.816 13.9839C104.146 14.37 103.893 15.2387 104.262 15.9385C104.493 16.4211 104.977 16.6865 105.462 16.6865Z" fill="#EA5F32"/>
<path d="M30.234 26.2216H19.8253C18.9729 26.2216 18.2756 25.5065 18.2756 24.6324C18.2756 23.7583 18.9729 23.0432 19.8253 23.0432H30.234C31.0863 23.0432 31.7837 23.7583 31.7837 24.6324C31.7837 25.5065 31.0863 26.2216 30.234 26.2216Z" fill="#EA5F32"/>
<path d="M21.4717 39.7298C20.9127 39.7298 20.3537 39.4358 20.0608 38.8747C19.6349 38.0998 19.9277 37.1111 20.6997 36.7103L29.4314 31.9806C30.2034 31.5531 31.1883 31.847 31.5876 32.6219C32.0136 33.3968 31.7207 34.3855 30.9487 34.7863L22.2171 39.516C21.9775 39.6496 21.7113 39.7298 21.4717 39.7298Z" fill="#EA5F32"/>
<path d="M30.1998 16.6865C29.933 16.6865 29.6929 16.6382 29.4528 16.5176L20.7016 12.2465C19.9279 11.8605 19.6344 10.9918 20.0613 10.292C20.4881 9.59221 21.4486 9.32678 22.2224 9.71286L30.9469 13.9598C31.7206 14.3459 32.0141 15.2146 31.5872 15.9143C31.3204 16.4211 30.7601 16.6865 30.1998 16.6865Z" fill="#EA5F32"/>
</svg>
