<svg width="175" height="162" viewBox="0 0 175 162" fill="none" xmlns="http://www.w3.org/2000/svg">
<path d="M92.5481 54.6875H107.692V42.9087H92.5481V54.6875ZM95.5555 45.6846H104.685V51.8866H95.5555V45.6846Z" fill="#EA5F32"/>
<path d="M53.0049 54.6875H63.9424V42.9087H53.0049V54.6875ZM56.2803 45.6846H60.6962V51.8866H56.2803V45.6846Z" fill="#EA5F32"/>
<path d="M88.3414 21.0337H53.0049V31.9712H88.3414V21.0337ZM85.2202 28.9586H56.1261V24.0734H85.2481V28.9586H85.2202Z" fill="#EA5F32"/>
<path d="M48.7981 65.625H70.1548H77.4855H80.3171H88.7328H112.127H119.458V62.5676H119.379V43.1858C121.813 42.3123 124.222 40.1557 126.048 36.9345C128.324 32.8671 129.567 27.5166 129.567 21.8386C129.567 16.1606 128.297 10.7828 126.021 6.74267C123.613 2.37495 120.305 0 116.706 0C113.106 0 109.798 2.37495 107.39 6.71537C105.114 10.7828 103.844 16.1606 103.844 21.8386C103.844 26.0971 104.558 30.0827 105.855 33.6587H105.061H94.5814V14.9594H48.7981V62.5676V65.625ZM116.706 3.03011C122.078 3.03011 126.63 11.6291 126.63 21.784C126.63 30.2192 123.507 37.5897 119.379 39.8554V31.0381L124.169 22.6575L121.628 21.1015L119.379 25.0325V16.5427H116.415V30.7651L110.645 21.0742L108.131 22.6575L116.415 36.607V40.5379C111.148 40.2103 106.808 31.7479 106.808 21.784C106.834 11.6291 111.333 3.03011 116.706 3.03011ZM51.7621 62.5676V18.0168H91.6174V33.6587H70.1548H63.9622V36.7161H70.1284V62.5676H51.7621ZM80.423 62.5676V45.8611H85.8217V62.5676H80.423ZM88.7857 62.5676V42.8037H77.459V62.5676H73.0924V36.7161H105.061H107.231C107.284 36.7161 107.337 36.8526 107.39 36.9345C107.946 37.9173 108.581 38.7908 109.216 39.5825V62.5676H88.7857ZM112.18 42.2304C113.477 43.0766 114.88 43.5407 116.415 43.5953V62.5676H112.18V42.2304Z" fill="#EA5F32"/>
<path d="M175 117.99V75.4614C175 74.5754 174.242 74.0385 173.565 74.0385H97.6133C97.1801 74.0385 96.9364 74.1458 96.6115 74.468L89.7068 81.3145L82.8021 74.468C82.4772 74.1458 82.2064 74.0385 81.8003 74.0385H1.43509C0.541544 74.0385 0 74.5754 0 75.4614V117.99C0 118.876 0.541544 119.413 1.43509 119.413H47.8996L47.5747 120.46C46.7353 123.198 47.4393 126.232 49.4159 128.407C50.8239 129.803 52.8818 130.609 54.9126 130.609H56.2664L56.1852 131.495C55.9686 133.508 56.8351 135.764 58.4326 137.348C59.8406 138.744 61.8985 139.576 63.9564 139.576H65.3102L65.229 140.462C65.0124 142.476 65.8789 144.731 67.4764 146.315C68.8844 147.711 70.9423 148.544 73.0002 148.544H74.354L74.2728 149.43C74.0562 151.443 74.9226 153.699 76.5202 155.283C77.9282 156.679 79.9861 157.511 82.0439 157.511C83.9664 157.511 85.7806 156.867 87.1615 155.685L87.7302 155.202L91.873 159.31C93.281 160.706 95.3389 161.538 97.3967 161.538C99.4546 161.538 101.512 160.706 102.92 159.31C104.518 157.726 105.384 155.497 105.168 153.457L105.087 152.571H106.441C108.498 152.571 110.556 151.739 111.964 150.343C113.562 148.758 114.428 146.53 114.212 144.49L114.13 143.604H115.484C117.542 143.604 119.6 142.771 121.008 141.375C122.606 139.791 123.472 137.563 123.255 135.522L123.174 134.636H124.528C126.586 134.636 128.644 133.804 130.052 132.408C133.084 129.401 133.084 124.487 130.052 121.453L129.998 121.4L128.671 119.413H173.619C174.458 119.413 175 118.876 175 117.99ZM39.7223 116.567H2.89726V76.8844H39.7223V116.567ZM54.9397 127.816C53.6129 127.816 52.3402 127.306 51.4196 126.393C49.5242 124.514 49.5242 121.319 51.4196 119.44L58.1889 112.727C59.3803 111.546 60.6259 111.385 61.709 111.385C63.2253 111.385 64.3354 112.056 65.1207 112.674L65.2019 112.754C66.0955 113.64 66.637 114.929 66.637 116.245C66.637 117.56 66.1226 118.822 65.2019 119.735L58.4326 126.447C57.5391 127.279 56.2664 127.816 54.9397 127.816ZM63.9834 136.757C62.7108 136.757 61.4382 136.274 60.4634 135.334C58.568 133.455 58.568 130.26 60.4634 128.38L67.2327 121.668C68.4241 120.487 69.6697 120.326 70.7527 120.326C72.2691 120.326 73.3792 120.997 74.1645 121.614L74.2457 121.695C76.1411 123.574 76.1411 126.769 74.2457 128.649L67.4764 135.361C66.5287 136.301 65.2561 136.757 63.9834 136.757ZM73.0002 145.725C71.7275 145.725 70.4549 145.241 69.4801 144.302C67.5847 142.422 67.5847 139.227 69.4801 137.348L76.2494 130.636C77.4408 129.454 78.6864 129.293 79.7695 129.293C81.2858 129.293 82.396 129.964 83.1812 130.582L83.2624 130.662C85.1578 132.542 85.1578 135.737 83.2624 137.616L76.4931 144.328C75.5725 145.241 74.2728 145.725 73.0002 145.725ZM85.5369 153.269C84.6434 154.155 83.3437 154.692 82.0169 154.692C80.6901 154.692 79.4175 154.182 78.4968 153.269C77.6033 152.383 77.0617 151.094 77.0617 149.779C77.0617 148.463 77.5762 147.201 78.4968 146.288L85.2661 139.576C86.4575 138.395 87.7031 138.234 88.7862 138.234C90.3025 138.234 91.4127 138.905 92.1979 139.522L92.2791 139.603C94.1745 141.482 94.1745 144.677 92.2791 146.557L85.5369 153.269ZM129.646 126.957C129.646 128.273 129.131 129.535 128.211 130.448C126.315 132.327 123.093 132.327 121.198 130.448L117.244 126.528L115.241 128.515L119.194 132.434C121.089 134.314 121.089 137.509 119.194 139.388C118.3 140.274 117.001 140.811 115.674 140.811C114.347 140.811 113.074 140.301 112.154 139.388L108.201 135.468L106.197 137.455L110.15 141.375C112.045 143.254 112.045 146.449 110.15 148.329C108.255 150.208 105.032 150.208 103.137 148.329L99.1567 144.382L97.0176 146.262L101.323 150.53C102.135 151.336 102.596 152.544 102.541 153.833C102.514 155.122 101.973 156.384 101.079 157.27C100.132 158.209 98.8589 158.692 97.5592 158.692C96.2866 158.692 95.0139 158.209 94.0391 157.27L89.8422 153.108L94.4724 148.517C95.041 147.953 95.4472 147.389 95.8533 146.799L96.2866 144.892C96.9364 142.1 96.1783 139.281 94.2558 137.348C92.6582 135.764 90.4108 134.905 88.3529 135.119L87.3782 135.227L87.4865 134.26C87.7031 132.246 86.8366 129.991 85.2391 128.407C83.6415 126.823 81.3941 125.964 79.3362 126.179L78.3614 126.286L78.4697 125.32C78.6864 123.306 77.8199 121.051 76.2223 119.467C74.6248 117.882 72.3774 117.023 70.3195 117.238L69.3447 117.345L69.453 116.379C69.6697 114.365 68.8032 112.11 67.2056 110.526C65.7164 109.049 63.7668 108.244 61.6819 108.244C59.5969 108.244 57.6474 109.049 56.1581 110.526L50.2824 116.594H42.5654V76.8844H81.2046L87.6489 83.2744L69.453 101.317C69.1281 101.639 69.0198 101.907 69.0198 102.31C69.0198 102.74 69.1281 102.981 69.453 103.304C72.8377 106.66 77.0888 108.432 81.7461 108.432C86.4034 108.432 90.6545 106.66 94.0391 103.304L100.944 96.4571L128.211 123.467C129.131 124.353 129.646 125.642 129.646 126.957ZM134.547 116.567H125.259L103.029 94.4703L104.843 92.6715L102.839 90.6847L92.1167 101.317C89.7068 103.706 86.4575 105.156 82.9646 105.425C79.5258 105.666 76.1411 104.727 73.4605 102.74L72.7023 102.176L98.209 76.8844H134.574V116.567H134.547ZM172.103 116.567H137.444V76.8844H172.103V116.567Z" fill="#EA5F32"/>
<path d="M97.3814 161.539C95.2997 161.539 93.191 160.665 91.7851 159.246L87.7298 155.153L87.2432 155.562C85.8373 156.79 83.9989 157.445 82.0524 157.445C79.9706 157.445 77.8619 156.572 76.456 155.153C74.8339 153.515 73.9688 151.196 74.158 149.094L74.2392 148.358H73.0496C70.9679 148.358 68.8591 147.484 67.4533 146.065C65.8311 144.428 64.966 142.108 65.1553 140.007L65.2364 139.27H64.0468C61.9651 139.27 59.8563 138.397 58.4505 136.978C56.8284 135.34 55.9632 133.021 56.1525 130.919L56.2336 130.183H55.044C52.9623 130.183 50.8806 129.337 49.4477 127.89C47.4201 125.653 46.7171 122.487 47.5823 119.676L47.8526 118.803H1.56805C0.594778 118.803 0 118.202 0 117.22V73.9386C0 72.9562 0.594778 72.3558 1.56805 72.3558H81.8091C82.2687 72.3558 82.5661 72.4923 82.9175 72.8471L89.7034 79.6968L96.4893 72.8471C96.8407 72.4923 97.1381 72.3558 97.5977 72.3558H173.432C174.189 72.3558 175 72.9562 175 73.9386V117.165C175 118.148 174.405 118.748 173.432 118.748H128.797L130.04 120.604C133.122 123.715 133.122 128.818 130.04 131.929C128.607 133.376 126.526 134.222 124.444 134.222H123.254L123.335 134.958C123.552 137.06 122.66 139.379 121.037 141.017C119.605 142.463 117.523 143.309 115.441 143.309H114.252L114.333 144.046C114.549 146.147 113.657 148.467 112.035 150.104C110.602 151.55 108.52 152.396 106.438 152.396H105.249L105.33 153.133C105.546 155.235 104.654 157.554 103.032 159.192C101.545 160.665 99.4632 161.539 97.3814 161.539ZM87.7298 154.825C87.7568 154.825 87.8109 154.825 87.8379 154.853L91.9744 159.028C93.3532 160.42 95.3808 161.238 97.3814 161.238C99.3821 161.238 101.41 160.42 102.789 159.028C104.357 157.445 105.195 155.207 105.005 153.188L104.924 152.287C104.924 152.26 104.924 152.205 104.951 152.178C104.978 152.151 105.005 152.124 105.059 152.124H106.411C108.412 152.124 110.44 151.305 111.818 149.913C113.386 148.33 114.224 146.093 114.035 144.073L113.954 143.173C113.954 143.145 113.954 143.091 113.981 143.063C114.008 143.036 114.035 143.009 114.089 143.009H115.441C117.442 143.009 119.469 142.19 120.848 140.798C122.416 139.216 123.254 136.978 123.065 134.958L122.984 134.058C122.984 134.031 122.984 133.976 123.011 133.949C123.038 133.921 123.065 133.894 123.119 133.894H124.471C126.472 133.894 128.499 133.075 129.878 131.684C132.852 128.682 132.852 123.77 129.878 120.74L129.824 120.686L128.472 118.639C128.445 118.585 128.445 118.53 128.472 118.503C128.499 118.448 128.553 118.421 128.58 118.421H173.459C174.297 118.421 174.757 117.93 174.757 117.111V73.9386C174.757 73.12 174.081 72.6287 173.459 72.6287H97.5977C97.2192 72.6287 97.0029 72.7379 96.6785 73.0381L89.7845 79.9969C89.7304 80.0515 89.6493 80.0515 89.5952 79.9969L82.7283 73.0108C82.4309 72.7106 82.2146 72.6014 81.8091 72.6014H1.56805C0.729955 72.6014 0.270354 73.0927 0.270354 73.9114V117.138C0.270354 117.984 0.756991 118.448 1.56805 118.448H47.9608C48.0148 118.448 48.0419 118.475 48.0689 118.503C48.0959 118.53 48.0959 118.585 48.0959 118.612L47.7715 119.676C46.9334 122.405 47.6363 125.434 49.5829 127.617C50.9617 129.009 52.9893 129.828 54.99 129.828H56.3417C56.3688 129.828 56.4228 129.855 56.4499 129.882C56.4769 129.91 56.4769 129.937 56.4769 129.992L56.3958 130.892C56.2066 132.912 57.0447 135.149 58.6127 136.732C59.9915 138.124 62.0192 138.943 64.0198 138.943H65.3716C65.3986 138.943 65.4527 138.97 65.4797 138.997C65.5067 139.025 65.5067 139.052 65.5067 139.106L65.4256 140.007C65.2364 142.026 66.0745 144.264 67.6425 145.847C69.0213 147.239 71.049 148.057 73.0496 148.057H74.4014C74.4284 148.057 74.4825 148.085 74.5095 148.112C74.5365 148.139 74.5365 148.167 74.5365 148.221L74.4554 149.122C74.2662 151.141 75.1043 153.379 76.6723 154.962C78.0511 156.353 80.0788 157.172 82.0794 157.172C83.9719 157.172 85.7562 156.517 87.108 155.344L87.6757 154.853C87.6487 154.825 87.7028 154.825 87.7298 154.825ZM97.5977 158.673C96.2189 158.673 94.9483 158.155 94.002 157.199L89.8115 152.97C89.7575 152.915 89.7575 152.833 89.8115 152.779L94.4346 148.112C94.9753 147.566 95.3808 146.993 95.7593 146.393L96.1919 144.482C96.8407 141.672 96.0837 138.861 94.1913 136.951C92.6232 135.368 90.4063 134.522 88.4057 134.713L87.4324 134.822C87.3783 134.822 87.3513 134.822 87.3243 134.795C87.2972 134.767 87.2702 134.713 87.2972 134.685L87.4054 133.703C87.5946 131.684 86.7565 129.446 85.1885 127.863C83.6204 126.28 81.4035 125.434 79.4029 125.625L78.4296 125.734C78.3756 125.734 78.3485 125.734 78.3215 125.707C78.2945 125.68 78.2674 125.625 78.2945 125.598L78.4026 124.616C78.5919 122.596 77.7537 120.358 76.1857 118.776C74.6176 117.193 72.4007 116.347 70.4001 116.538L69.4268 116.647C69.3728 116.647 69.3457 116.647 69.3187 116.62C69.2917 116.592 69.2646 116.538 69.2917 116.511L69.3998 115.528C69.5891 113.509 68.751 111.271 67.1829 109.688C65.723 108.214 63.8035 107.396 61.7758 107.396C59.7482 107.396 57.8016 108.214 56.3688 109.688L50.5021 115.856C50.4751 115.883 50.448 115.91 50.3939 115.91H42.6889C42.6078 115.91 42.5537 115.856 42.5537 115.774V75.385C42.5537 75.3031 42.6078 75.2485 42.6889 75.2485H81.2683C81.2954 75.2485 81.3495 75.2758 81.3765 75.2758L87.8109 81.7708C87.865 81.8254 87.865 81.9072 87.8109 81.9618L69.6431 100.3C69.3457 100.601 69.2376 100.819 69.2376 101.228C69.2376 101.638 69.3457 101.829 69.6431 102.156C72.9955 105.54 77.213 107.341 81.8361 107.341C86.4591 107.341 90.6496 105.54 94.029 102.156L100.923 95.1973C100.977 95.1427 101.058 95.1427 101.112 95.1973L128.283 122.623C129.202 123.551 129.743 124.888 129.743 126.253C129.743 127.617 129.202 128.955 128.283 129.882C126.336 131.847 123.038 131.847 121.091 129.882L117.252 126.007L115.441 127.836L119.226 131.738C120.172 132.693 120.686 133.976 120.686 135.368C120.686 136.759 120.172 138.042 119.226 138.997C118.307 139.925 116.982 140.471 115.63 140.471C114.279 140.471 112.954 139.925 112.035 138.997L108.196 135.122L106.384 136.951L110.223 140.826C111.169 141.781 111.683 143.063 111.683 144.455C111.683 145.847 111.169 147.13 110.223 148.085C109.277 149.04 108.006 149.558 106.628 149.558C105.249 149.558 103.978 149.04 103.032 148.085L99.1658 144.182L97.2463 145.902L101.464 150.159C102.302 151.005 102.761 152.26 102.734 153.625C102.707 154.989 102.167 156.299 101.247 157.199C100.247 158.155 98.9765 158.673 97.5977 158.673ZM90.1089 152.888L94.1913 157.008C95.0834 157.909 96.3 158.4 97.5977 158.4C98.8954 158.4 100.112 157.909 101.004 157.008C101.869 156.135 102.383 154.907 102.41 153.625C102.437 152.342 102.004 151.168 101.22 150.377L96.9218 146.038C96.8948 146.011 96.8678 145.983 96.8948 145.929C96.9218 145.874 96.9218 145.847 96.9489 145.82L99.0847 143.909C99.1387 143.855 99.2198 143.855 99.2739 143.909L103.248 147.921C104.14 148.822 105.357 149.313 106.655 149.313C107.952 149.313 109.169 148.822 110.061 147.921C110.953 147.02 111.44 145.792 111.44 144.482C111.44 143.173 110.953 141.945 110.061 141.044L106.114 137.06C106.06 137.005 106.06 136.923 106.114 136.869L108.114 134.849C108.169 134.795 108.25 134.795 108.304 134.849L112.251 138.834C113.116 139.707 114.36 140.225 115.657 140.225C116.955 140.225 118.199 139.707 119.064 138.834C119.956 137.933 120.443 136.705 120.443 135.395C120.443 134.085 119.956 132.857 119.064 131.957L115.117 127.972C115.063 127.918 115.063 127.836 115.117 127.781L117.117 125.762C117.171 125.707 117.252 125.707 117.307 125.762L121.254 129.746C123.092 131.602 126.228 131.602 128.067 129.746C128.932 128.873 129.445 127.617 129.445 126.308C129.445 124.998 128.932 123.742 128.067 122.869L100.977 95.4975L94.1913 102.347C90.7848 105.786 86.5132 107.614 81.8091 107.614C77.1319 107.614 72.8333 105.786 69.4268 102.347C69.0754 101.992 68.9402 101.692 68.9402 101.228C68.9402 100.764 69.0754 100.464 69.4268 100.109L87.4865 81.8799L81.1872 75.5214H42.797V115.583H50.2858L56.0984 109.47C57.6124 107.942 59.613 107.096 61.7218 107.096C63.8305 107.096 65.8311 107.942 67.3181 109.443C68.9402 111.08 69.8054 113.4 69.6161 115.501L69.535 116.32L70.3461 116.238C72.4278 116.019 74.7258 116.92 76.3479 118.557C77.97 120.195 78.8352 122.514 78.6459 124.616L78.5648 125.434L79.3759 125.352C81.4576 125.134 83.7556 126.035 85.3777 127.672C86.9998 129.309 87.865 131.629 87.6757 133.73L87.5946 134.549L88.4057 134.467C90.4874 134.249 92.7854 135.149 94.4075 136.787C96.3811 138.779 97.1381 141.672 96.4893 144.564L96.0567 146.502C96.0567 146.529 96.0567 146.529 96.0297 146.556C95.6241 147.157 95.2186 147.757 94.6509 148.33L90.1089 152.888ZM82.0524 154.58C80.7006 154.58 79.3759 154.034 78.4567 153.106C77.5375 152.178 76.9968 150.841 76.9968 149.476C76.9968 148.112 77.5375 146.775 78.4567 145.847L85.2155 139.025C86.4591 137.769 87.7298 137.605 88.8112 137.605C90.3522 137.605 91.4877 138.315 92.2988 138.943L92.3799 139.025C94.3264 140.989 94.3264 144.319 92.3799 146.311L85.621 153.133C84.7289 154.061 83.4041 154.58 82.0524 154.58ZM88.8112 137.878C87.7839 137.878 86.5673 138.042 85.4048 139.216L78.6459 146.038C77.7808 146.911 77.2671 148.167 77.2671 149.476C77.2671 150.786 77.7808 152.042 78.6459 152.915C79.511 153.788 80.7547 154.307 82.0524 154.307C83.3501 154.307 84.5937 153.788 85.4588 152.915L92.2177 146.093C94.0561 144.237 94.0561 141.071 92.2177 139.216L92.1366 139.134C91.3525 138.561 90.2711 137.878 88.8112 137.878ZM73.0226 145.492C71.6438 145.492 70.3731 144.974 69.4268 144.019C68.4806 143.063 67.9669 141.781 67.9669 140.389C67.9669 138.997 68.4806 137.715 69.4268 136.759L76.1857 129.937C77.4293 128.682 78.7 128.518 79.7814 128.518C81.3224 128.518 82.4579 129.228 83.269 129.855L83.3501 129.937C85.2966 131.902 85.2966 135.231 83.3501 137.223L76.5912 144.046C75.672 144.974 74.4014 145.492 73.0226 145.492ZM79.7814 128.764C78.7541 128.764 77.5375 128.927 76.3749 130.101L69.6161 136.923C68.7239 137.824 68.2373 139.052 68.2373 140.362C68.2373 141.672 68.7239 142.9 69.6161 143.8C70.5083 144.701 71.7249 145.192 73.0226 145.192C74.3203 145.192 75.5368 144.701 76.429 143.8L83.1879 136.978C85.0263 135.122 85.0263 131.957 83.1879 130.101L83.1068 130.019C82.3498 129.446 81.2683 128.764 79.7814 128.764ZM64.0198 136.377C62.641 136.377 61.3703 135.859 60.4241 134.904C58.4775 132.939 58.4775 129.61 60.4241 127.645L67.1829 120.822C68.4265 119.567 69.6972 119.403 70.7786 119.403C72.3196 119.403 73.4551 120.113 74.2662 120.74L74.3473 120.822C75.2935 121.777 75.8072 123.06 75.8072 124.452C75.8072 125.844 75.2935 127.126 74.3473 128.081L67.5884 134.904C66.6692 135.859 65.3986 136.377 64.0198 136.377ZM70.7786 119.676C69.7513 119.676 68.5347 119.84 67.3722 121.013L60.6133 127.836C58.7749 129.691 58.7749 132.857 60.6133 134.713C61.5055 135.613 62.7221 136.105 64.0198 136.105C65.3175 136.105 66.5341 135.613 67.4262 134.713L74.1851 127.89C75.0772 126.99 75.5639 125.762 75.5639 124.452C75.5639 123.142 75.0772 121.914 74.1851 121.013L74.104 120.931C73.32 120.358 72.2385 119.676 70.7786 119.676ZM54.99 127.29C53.6382 127.29 52.3135 126.744 51.3943 125.816C49.4477 123.851 49.4477 120.522 51.3943 118.557L58.1531 111.735C59.3967 110.48 60.6674 110.316 61.7488 110.316C63.2898 110.316 64.4253 111.025 65.2364 111.653L65.3175 111.735C66.2637 112.69 66.7774 114 66.7774 115.364C66.7774 116.729 66.2367 118.066 65.3175 118.994L58.5586 125.816C57.6665 126.744 56.3417 127.29 54.99 127.29ZM61.7488 110.561C60.7215 110.561 59.5049 110.725 58.3424 111.899L51.5835 118.721C49.7451 120.577 49.7451 123.742 51.5835 125.598C52.4486 126.471 53.6923 126.99 54.99 126.99C56.2877 126.99 57.5313 126.471 58.3964 125.598L65.1553 118.776C66.0204 117.902 66.5341 116.647 66.5341 115.337C66.5341 114.027 66.0204 112.772 65.1553 111.899L65.0742 111.817C64.3172 111.244 63.2087 110.561 61.7488 110.561ZM171.972 115.856H137.367C137.286 115.856 137.232 115.801 137.232 115.719V75.385C137.232 75.3031 137.286 75.2485 137.367 75.2485H171.972C172.053 75.2485 172.107 75.3031 172.107 75.385V115.719C172.107 115.774 172.053 115.856 171.972 115.856ZM137.502 115.583H171.837V75.5214H137.502V115.583ZM134.474 115.856H125.201C125.174 115.856 125.12 115.828 125.093 115.828L102.87 93.3962C102.816 93.3416 102.816 93.2597 102.87 93.2052L104.573 91.4859L102.761 89.6575L92.1906 100.328C89.7575 102.784 86.4862 104.285 82.9716 104.53C79.484 104.776 76.0776 103.794 73.374 101.774L72.617 101.201C72.59 101.174 72.563 101.146 72.563 101.092C72.563 101.065 72.563 101.01 72.59 100.983L98.0573 75.2758C98.0844 75.2485 98.1114 75.2485 98.1655 75.2485H134.474C134.555 75.2485 134.609 75.3031 134.609 75.385V115.719C134.609 115.774 134.555 115.856 134.474 115.856ZM125.282 115.583H134.366V75.5214H98.2195L72.8874 101.092L73.5092 101.556C76.1587 103.548 79.5111 104.503 82.9175 104.257C86.378 104.012 89.5953 102.538 91.9744 100.137L102.68 89.33C102.734 89.2754 102.816 89.2754 102.87 89.33L104.87 91.3495C104.924 91.404 104.924 91.4859 104.87 91.5405L103.167 93.2597L125.282 115.583ZM39.7961 115.856H3.02796C2.94686 115.856 2.89279 115.801 2.89279 115.719V75.385C2.89279 75.3031 2.94686 75.2485 3.02796 75.2485H39.7961C39.8772 75.2485 39.9313 75.3031 39.9313 75.385V115.719C39.9313 115.774 39.8772 115.856 39.7961 115.856ZM3.16314 115.583H39.6609V75.5214H3.16314V115.583Z" fill="#EA5F32"/>
<path d="M35.3366 81.6106H31.9712V85.8173H35.3366V81.6106Z" fill="#EA5F32"/>
<path d="M27.7643 74.0385H23.5576V117.788H27.7643V74.0385Z" fill="#EA5F32"/>
<path d="M27.5731 117.789H23.7488C23.6341 117.789 23.5576 117.733 23.5576 117.65V72.4943C23.5576 72.4112 23.6341 72.3558 23.7488 72.3558H27.5731C27.6879 72.3558 27.7643 72.4112 27.7643 72.4943V117.622C27.7643 117.705 27.6879 117.789 27.5731 117.789ZM23.94 117.511H27.3819V72.6329H23.94V117.511Z" fill="#EA5F32"/>
</svg>
