<svg width="52" height="60" viewBox="0 0 52 60" fill="none" xmlns="http://www.w3.org/2000/svg">
<path d="M0.0568928 0V42.8166H0L0.0568928 42.8733V42.9301H0.113786L26 60L51.8862 42.9301H52V0H0.0568928Z" fill="#80171D"/>
<path d="M40.5998 33V20C41.5998 19.1 41.2998 18 39.6998 17.2L28.3998 11.9C27.3998 11.4 25.9998 11.2 24.6998 11.2C23.3998 11.2 21.9998 11.5 20.9998 11.9L9.7998 17.2C7.7998 18.1 7.7998 19.7 9.7998 20.6L13.4998 22.3V30.2V30.5C13.5998 31 14.9998 34.7999 24.6998 34.7999C34.3998 34.7999 35.7998 30.9 35.8998 30.5L35.9998 22.2L38.2998 21.2V33C37.6998 33.7 41.0998 33.7 40.5998 33ZM33.5998 30C33.2998 30.5 31.5998 32.5 24.7998 32.5C17.8998 32.5 16.1998 30.4 15.9998 30V23.4L21.1998 25.8C22.1998 26.3 23.5998 26.5 24.8998 26.5C26.1998 26.5 27.5998 26.3 28.5998 25.8L33.7998 23.4V30H33.5998ZM27.3998 23.7C26.6998 24 25.6998 24.2 24.6998 24.2C23.6998 24.2 22.6998 24 21.9998 23.7L11.6998 18.9L21.9998 14.1C22.6998 13.8 23.6998 13.6 24.6998 13.6C25.6998 13.6 26.6998 13.8 27.3998 14.1L37.6998 18.9L27.3998 23.7Z" fill="white"/>
<path d="M24.7 35.2C15.2 35.2 13.5 31.4 13.3 30.7V30.3V22.5L9.7 20.8C8.6 20.4 8 19.7 8 18.9C8 18.1 8.6 17.4 9.7 16.9L21 11.7C22 11.3 23.3 11 24.7 11C26.2 11 27.5 11.3 28.5 11.7L39.7 17C40.9 17.6 41.3 18.2 41.3 18.7C41.4 19.2 41.2 19.7 40.7 20.1V32.9C40.8 33.1 40.8 33.3 40.6 33.4C40.2 33.8 38.3 33.8 37.9 33.4C37.7 33.3 37.7 33.1 37.8 32.9V21.7L36 22.5L35.9 30.6C36.1 30.8 34.9 35.2 24.7 35.2ZM24.7 11.5C23.4 11.5 22.1 11.7 21.1 12.2L9.9 17.4C9 17.8 8.5 18.4 8.5 18.9C8.5 19.4 9 20 9.9 20.4L13.8 22.2V30.3V30.6C14 31.2 15.5 34.7 24.7 34.7C34.6 34.7 35.6 30.6 35.6 30.6L35.7 22.2L38.5 20.9V33.1C38.6 33.2 38.9 33.2 39.5 33.2C40 33.2 40.4 33.1 40.5 33V32.9V19.9L40.6 19.8C40.9 19.6 41.2 19.2 41.1 18.7C41 18.2 40.5 17.7 39.7 17.4L28.3 12.2C27.4 11.7 26.1 11.5 24.7 11.5ZM24.7 32.8C17.8 32.8 16 30.8 15.6 30.1V30V22.9L21.1 25.5C22 25.9 23.3 26.2 24.7 26.2C26 26.2 27.3 26 28.3 25.5L33.8 22.9V30V30.1C33.4 30.8 31.6 32.8 24.7 32.8ZM16.1 30C16.4 30.5 18.2 32.4 24.7 32.4C31.3 32.4 33 30.5 33.3 30V23.9L28.5 26.1C27.5 26.6 26.1 26.8 24.7 26.8C23.2 26.8 21.9 26.5 20.9 26.1L16.1 23.9V30ZM24.7 24.5C23.6 24.5 22.6 24.3 21.9 24L11.1 19L21.9 14C22.6 13.7 23.6 13.5 24.7 13.5C25.8 13.5 26.8 13.7 27.5 14L38.3 19L27.5 24C26.8 24.3 25.8 24.5 24.7 24.5ZM12.3 18.9L22.1 23.5C22.7 23.8 23.7 24 24.7 24C25.7 24 26.7 23.8 27.3 23.5L37.1 18.9L27.3 14.3C26.7 14 25.7 13.8 24.7 13.8C23.7 13.8 22.7 14 22.1 14.3L12.3 18.9Z" fill="white"/>
<path d="M39.4998 37.7001C37.6998 37.7001 36.2998 36.3 36.2998 34.5C36.2998 32.7 37.6998 31.3 39.4998 31.3C41.2998 31.3 42.6998 32.7 42.6998 34.5C42.6998 36.3 41.2998 37.7001 39.4998 37.7001ZM39.4998 33.6C38.9998 33.6 38.5998 34 38.5998 34.5C38.5998 35 38.9998 35.4 39.4998 35.4C39.9998 35.4 40.3998 35 40.3998 34.5C40.3998 34 39.9998 33.6 39.4998 33.6Z" fill="white"/>
<path d="M39.5 38C37.6 38 36 36.4 36 34.5C36 32.6 37.6 31 39.5 31C41.4 31 43 32.6 43 34.5C43 36.4 41.4 38 39.5 38ZM39.5 31.5C37.9 31.5 36.5 32.8 36.5 34.5C36.5 36.1 37.8 37.5 39.5 37.5C41.1 37.5 42.5 36.2 42.5 34.5C42.5 32.9 41.1 31.5 39.5 31.5ZM39.5 35.7C38.8 35.7 38.3 35.2 38.3 34.5C38.3 33.8 38.8 33.3 39.5 33.3C40.2 33.3 40.7 33.8 40.7 34.5C40.7 35.2 40.2 35.7 39.5 35.7ZM39.5 33.8C39.1 33.8 38.8 34.1 38.8 34.5C38.8 34.9 39.1 35.2 39.5 35.2C39.9 35.2 40.2 34.9 40.2 34.5C40.2 34.1 39.9 33.8 39.5 33.8Z" fill="white"/>
</svg>
