<svg width="52" height="60" viewBox="0 0 52 60" fill="none" xmlns="http://www.w3.org/2000/svg">
<path d="M0.0568928 0V42.8166H0L0.0568928 42.8733V42.9301H0.113786L26 60L51.8862 42.9301H52V0H0.0568928Z" fill="#1F687F"/>
<g clip-path="url(#clip0)">
<path d="M34.9002 8.40002L33.2002 9.90002L36.3002 13.5C34.5002 13.8 33.1002 15.4 33.1002 17.2C33.1002 19.3 34.8002 21 36.9002 21C37.5002 21 38.1002 20.8 38.6002 20.6V35C38.6002 35.8 37.9002 36.5 37.1002 36.5C36.3002 36.5 35.6002 35.8 35.6002 35V27.8C35.6002 25.9 34.1002 24.4 32.2002 24.4H30.4002V12.6C30.4002 10.5 28.7002 8.80002 26.6002 8.80002H16.0002C14.0002 8.80002 12.2002 10.5 12.2002 12.6V39.1C12.2002 39.7 12.7002 40.2 13.3002 40.2H29.2002C29.8002 40.2 30.3002 39.7 30.3002 39.1V26.6H32.1002C32.7002 26.6 33.2002 27.1 33.2002 27.7V35C33.2002 37.1 34.9002 38.8 37.0002 38.8C39.1002 38.8 40.8002 37.1 40.8002 35V16.9C40.8002 15.8 40.4002 14.7 39.6002 13.8L34.9002 8.40002ZM28.2002 38H14.5002V12.6C14.5002 11.8 15.2002 11.1 16.0002 11.1H26.6002C27.4002 11.1 28.1002 11.8 28.1002 12.6V38H28.2002ZM36.9002 18.7C36.1002 18.7 35.4002 18 35.4002 17.2C35.4002 16.4 36.1002 15.7 36.9002 15.7C37.7002 15.7 38.4002 16.4 38.4002 17.2C38.4002 18 37.8002 18.7 36.9002 18.7Z" fill="white"/>
<path d="M29.3 40.5H13.4C12.6 40.5 12 39.9 12 39.1V12.6C12 10.4 13.8 8.6 16 8.6H26.6C28.8 8.6 30.6 10.4 30.6 12.6V24.2H32.1C34.1 24.2 35.8 25.8 35.8 27.9V35C35.8 35.7 36.4 36.3 37.1 36.3C37.8 36.3 38.4 35.7 38.4 35V21C38 21.2 37.4 21.3 36.9 21.3C34.7 21.3 32.9 19.5 32.9 17.3C32.9 15.5 34.1 13.9 35.9 13.4L32.9 9.9L34.9 8L39.9 13.7C40.7 14.6 41.1 15.7 41.1 16.9V35C41.1 37.2 39.3 39 37.1 39C34.9 39 33.1 37.2 33.1 35V27.8C33.1 27.3 32.7 26.9 32.2 26.9H30.7V39.1C30.7 39.9 30.1 40.5 29.3 40.5ZM16 9.1C14.1 9.1 12.5 10.7 12.5 12.6V39.1C12.5 39.6 12.9 40 13.4 40H29.3C29.8 40 30.2 39.6 30.2 39.1V26.4H32.2C33 26.4 33.6 27 33.6 27.8V35C33.6 36.9 35.2 38.5 37.1 38.5C39 38.5 40.6 36.9 40.6 35V16.9C40.6 15.8 40.2 14.8 39.5 14L34.8 8.7L33.5 9.9L36.8 13.6L36.4 13.7C34.7 14 33.4 15.5 33.4 17.2C33.4 19.1 35 20.7 36.9 20.7C37.5 20.7 38 20.6 38.5 20.3L38.9 20.1V35C38.9 36 38.1 36.8 37.1 36.8C36.1 36.8 35.4 36 35.4 35V27.8C35.4 26.1 34 24.6 32.2 24.6H30.2V12.6C30.2 10.7 28.6 9.1 26.7 9.1H16ZM28.4 38.2H14.3V12.6C14.3 11.6 15.1 10.8 16.1 10.8H26.7C27.7 10.8 28.5 11.6 28.5 12.6V38.2H28.4ZM14.8 37.7H27.9V12.6C27.9 11.9 27.3 11.3 26.6 11.3H16C15.3 11.3 14.7 11.9 14.7 12.6V37.7H14.8ZM36.9 18.9C35.9 18.9 35.1 18.1 35.1 17.1C35.1 16.1 35.9 15.3 36.9 15.3C37.9 15.3 38.7 16.1 38.7 17.1C38.7 18.1 37.9 18.9 36.9 18.9ZM36.9 15.9C36.2 15.9 35.6 16.5 35.6 17.2C35.6 17.9 36.2 18.5 36.9 18.5C37.6 18.5 38.2 17.9 38.2 17.2C38.2 16.5 37.6 15.9 36.9 15.9Z" fill="white"/>
<path d="M25.6001 15H17.3001C16.6001 15 16.1001 15.5 16.1001 16.1V23.3C16.1001 23.9 16.6001 24.4 17.2001 24.4H25.5001C26.1001 24.4 26.6001 23.9 26.6001 23.3V16.1C26.7001 15.5 26.2001 15 25.6001 15ZM24.5001 22.1H18.5001V17.2H24.5001V22.1Z" fill="white"/>
<path d="M25.5999 24.7H17.2999C16.4999 24.7 15.8999 24.1 15.8999 23.3V16.1C15.8999 15.3 16.4999 14.7 17.2999 14.7H25.5999C26.3999 14.7 26.9999 15.3 26.9999 16.1V23.3C26.9999 24.1 26.3999 24.7 25.5999 24.7ZM17.2999 15.2C16.7999 15.2 16.3999 15.6 16.3999 16.1V23.3C16.3999 23.8 16.7999 24.2 17.2999 24.2H25.5999C26.0999 24.2 26.4999 23.8 26.4999 23.3V16.1C26.4999 15.6 26.0999 15.2 25.5999 15.2H17.2999ZM24.6999 22.4H18.1999V17H24.6999V22.4ZM18.6999 21.9H24.1999V17.5H18.6999V21.9Z" fill="white"/>
<path d="M22.1998 26.8C21.7998 26.4 20.9998 26.4 20.5998 26.8L18.4998 28.9C17.6998 29.7 17.2998 30.7 17.2998 31.8C17.2998 32.9 17.6998 34 18.4998 34.7C19.1998 35.6 20.2998 36 21.3998 36C22.4998 36 23.4998 35.6 24.2998 34.8C25.0998 34 25.4998 33 25.4998 31.9C25.4998 30.8 25.0998 29.7 24.2998 29L22.1998 26.8ZM22.6998 33.2C21.9998 33.9 20.7998 33.9 20.0998 33.2C19.7998 32.9 19.4998 32.4 19.4998 31.9C19.4998 31.4 19.6998 30.9 20.0998 30.6L21.3998 29.3L22.6998 30.6C22.9998 30.9 23.2998 31.4 23.2998 31.9C23.2998 32.4 22.9998 32.8 22.6998 33.2Z" fill="white"/>
<path d="M21.4 36.3C20.2 36.3 19.1 35.8 18.3 35C17.4 34.1 17 33.1 17 31.9C17 30.7 17.4 29.6 18.3 28.8L20.4 26.7001C20.6 26.5001 21 26.3 21.4 26.3C21.8 26.3 22.1 26.4001 22.4 26.7001L24.6 28.8C25.4 29.6 25.9 30.7 25.9 31.9C25.9 33.1 25.5 34.2 24.6 35C23.7 35.8 22.5 36.3 21.4 36.3ZM21.4 26.7001C21.2 26.7001 20.9 26.8 20.8 26.9L18.7 29C18 29.7 17.6 30.7 17.6 31.8C17.6 32.9 18 33.8 18.7 34.6C19.4 35.3 20.4 35.7001 21.5 35.7001C22.5 35.7001 23.5 35.3 24.3 34.6C25 33.9001 25.4 32.9 25.4 31.8C25.4 30.7 25 29.8 24.3 29L22 27C21.8 26.8 21.6 26.7001 21.4 26.7001ZM21.4 34C20.9 34 20.3 33.8 19.9 33.4C19.5 33 19.3 32.4 19.3 31.9C19.3 31.3 19.5 30.8 19.9 30.4L21.4 28.9L22.9 30.4C23.3 30.8 23.5 31.4 23.5 31.9C23.5 32.4 23.3 32.9 22.9 33.4C22.5 33.8 21.9 34 21.4 34ZM21.4 29.6L20.3 30.7001C20 31.0001 19.8 31.4 19.8 31.8C19.8 32.2 20 32.6 20.3 32.9C20.9 33.5 22 33.5 22.6 32.9C22.8 32.6 23.1 32.2001 23.1 31.7001C23.1 31.3001 22.9 30.9001 22.6 30.6L21.4 29.6Z" fill="white"/>
</g>
<defs>
<clipPath id="clip0">
<rect width="29.1" height="32.5" fill="white" transform="translate(12 8)"/>
</clipPath>
</defs>
</svg>
