<svg width="52" height="60" viewBox="0 0 52 60" fill="none" xmlns="http://www.w3.org/2000/svg">
<path d="M0.0568928 0V42.8166H0L0.0568928 42.8733V42.9301H0.113786L26 60L51.8862 42.9301H52V0H0.0568928Z" fill="#8961BC"/>
<g clip-path="url(#clip0)">
<path d="M36.2998 9.49997C35.7998 9.09997 34.9998 9.09997 34.5998 9.69997L31.3998 13.6H12.4998C11.7998 13.6 11.2998 14.2 11.2998 14.8C11.2998 15.1 11.3998 15.4 11.5998 15.6L24.1998 32.5V39.4H19.5998C18.8998 39.4 18.3998 40 18.3998 40.6C18.3998 41.2 18.9998 41.8 19.5998 41.8H31.0998C31.7998 41.8 32.2998 41.2 32.2998 40.6C32.2998 40 31.6998 39.4 31.0998 39.4H26.5998V32.5L39.1998 15.6C39.5998 15.1 39.5998 14.3 38.9998 13.9C38.7998 13.7 38.4998 13.6 38.1998 13.6H34.5998L36.4998 11.3C36.8998 10.7 36.7998 9.99997 36.2998 9.49997ZM29.2998 16.1L26.1998 19.9H17.9998L14.9998 16.1H29.2998ZM31.5998 22.3L25.3998 30.1L19.9998 22.3H31.5998ZM35.5998 16.1L32.5998 19.9H29.4998L32.5998 16.1H35.5998Z" fill="white"/>
<path d="M31.1 42.1H19.6C18.8 42.1 18.1 41.4 18.1 40.6C18.1 39.8 18.8 39.1 19.6 39.1H23.8V32.5L11.3 15.7C11.1 15.5 11 15.2 11 14.8C11 14.4 11.1 14 11.4 13.7C11.7 13.4 12.1 13.3 12.4 13.3H31.2L34.4 9.5C34.9 8.9 35.9 8.8 36.5 9.3C37.1 9.8 37.2 10.8 36.7 11.4L35.2 13.3H38.3C38.6 13.3 39 13.4 39.2 13.6C39.8 14.1 39.9 15.1 39.4 15.7L26.8 32.6V39.1H31C31.8 39.1 32.5 39.8 32.5 40.6C32.5 41.4 31.9 42.1 31.1 42.1ZM19.6 39.6C19.1 39.6 18.6 40 18.6 40.6C18.6 41.2 19 41.6 19.6 41.6H31.1C31.6 41.6 32.1 41.2 32.1 40.6C32.1 40 31.7 39.6 31.1 39.6H26.4V32.4V32.3L39 15.4C39.4 15 39.3 14.3 38.9 14C38.7 13.9 38.5 13.8 38.3 13.8H34.2L36.4 11.1C36.7 10.7 36.7 10.1 36.3 9.7C35.9 9.4 35.3 9.4 34.9 9.8L31.6 13.8H12.6C12.2 13.8 12 13.9 11.8 14.1C11.6 14.3 11.5 14.6 11.5 14.8C11.5 15 11.6 15.2 11.7 15.4L24.3 32.3V39.5H19.6V39.6ZM25.3 30.5L19.6 22H32.1L25.3 30.5ZM20.5 22.5L25.4 29.6L31.1 22.5H20.5ZM32.7 20.1H29L32.5 15.8H36.2L32.7 20.1ZM30 19.6H32.4L35 16.3H32.6L30 19.6ZM26.4 20.1H17.9L14.5 15.8H29.9L26.4 20.1ZM18.2 19.6H26.2L28.8 16.3H15.6L18.2 19.6Z" fill="white"/>
</g>
<defs>
<clipPath id="clip0">
<rect width="28.7" height="33.1" fill="white" transform="translate(11 9)"/>
</clipPath>
</defs>
</svg>
