<svg width="52" height="60" viewBox="0 0 52 60" fill="none" xmlns="http://www.w3.org/2000/svg">
<path d="M0.0568928 0V42.8166H0L0.0568928 42.8733V42.9301H0.113786L26 60L51.8862 42.9301H52V0H0.0568928Z" fill="#E34750"/>
<g clip-path="url(#clip0)">
<path d="M37.5002 40.9001H33.3002C32.7002 40.9001 32.2002 40.4001 32.2002 39.8001V32.8001C31.5002 31.1001 27.5002 20.5001 30.7002 13.2001C32.0002 10.4001 34.1002 8.40006 37.2002 7.30006C37.5002 7.20006 37.9002 7.20006 38.2002 7.40006C38.5002 7.60006 38.7002 8.00006 38.7002 8.30006V39.7001C38.6002 40.4001 38.1002 40.9001 37.5002 40.9001ZM34.4002 38.6001H36.3002V10.1001C34.7002 11.0001 33.5002 12.3001 32.7002 14.1001C29.7002 21.0001 34.2002 32.0001 34.3002 32.1001C34.4002 32.2001 34.4002 32.4001 34.4002 32.5001V38.6001Z" fill="white"/>
<path d="M37.5001 41.2H33.3001C32.5001 41.2 31.9001 40.6 31.9001 39.8V32.9C31.0001 30.8 27.2001 20.4 30.4001 13.1C31.7001 10.2 33.9001 8.20002 37.0001 7.10002C37.4001 6.90002 37.9001 7.00002 38.3001 7.30002C38.7001 7.60002 38.9001 8.00002 38.9001 8.40002V39.8C38.9001 40.6 38.3001 41.2 37.5001 41.2ZM37.5001 7.50002C37.4001 7.50002 37.3001 7.50002 37.2001 7.60002C34.2001 8.70002 32.1001 10.6 30.9001 13.4C27.7001 20.5 31.6001 30.8 32.4001 32.8V32.9V39.9C32.4001 40.4 32.8001 40.8 33.3001 40.8H37.5001C38.0001 40.8 38.4001 40.4 38.4001 39.9V8.40002C38.4001 8.10002 38.3001 7.80002 38.0001 7.70002C37.8001 7.60002 37.7001 7.50002 37.5001 7.50002ZM36.6001 38.9H34.2001V32.6C34.2001 32.5 34.2001 32.4 34.1001 32.3C34.1001 32.2 29.4001 21.1 32.5001 14.1C33.3001 12.3 34.5001 10.9 36.2001 10L36.6001 9.80002V38.9ZM34.7001 38.4H36.1001V10.6C34.7001 11.5 33.7001 12.7 33.0001 14.3C30.0001 21.1 34.5001 32 34.6001 32.1C34.7001 32.3 34.7001 32.5 34.7001 32.6V38.4Z" fill="white"/>
<path d="M19.1998 40.9C17.5998 40.9 16.9998 40 16.8998 39.8C16.7998 39.6 16.7998 39.5 16.7998 39.3L16.9998 25.1C12.7998 23 12.2998 19.4 12.2998 19.2V19.1V8.50002C12.2998 7.90002 12.7998 7.40002 13.3998 7.40002C13.9998 7.40002 14.4998 7.90002 14.4998 8.50002V18.9C14.5998 19.3 15.1998 21.8 18.4998 23.3C18.8998 23.5 19.1998 23.9 19.1998 24.4L19.0998 38.6C19.1998 38.6 19.2998 38.6 19.4998 38.6C20.0998 38.5 20.6998 39 20.7998 39.6C20.8998 40.2 20.3998 40.8 19.7998 40.9C19.5998 40.9 19.3998 40.9 19.1998 40.9Z" fill="white"/>
<path d="M19.2 41.1C17.4 41.1 16.8 40.1 16.7 39.8C16.6 39.6 16.6 39.4 16.6 39.2L16.7 25.2C12.6 23 12 19.4 12 19.2C12 19.1 12 19.1 12 19V8.49998C12 7.69998 12.6 7.09998 13.4 7.09998C14.2 7.09998 14.8 7.69998 14.8 8.49998V18.9C14.9 19.3 15.5 21.7 18.7 23C19.2 23.2 19.5 23.7 19.5 24.3L19.4 38.3H19.5C19.9 38.3 20.2 38.4 20.5 38.6C20.8 38.9 21 39.2 21 39.6C21 40 20.9 40.3 20.7 40.6C20.5 40.9 20.1 41.1 19.8 41.1C19.6 41.1 19.4 41.1 19.2 41.1ZM13.4 7.59998C12.9 7.59998 12.5 7.99998 12.5 8.49998V19V19.1C12.5 19.2 13 22.7 17.1 24.8L17.2 24.9V25.1L17.1 39.3C17.1 39.4 17.1 39.6 17.2 39.7C17.3 39.9 17.9 40.8 19.8 40.6C20 40.6 20.2 40.5 20.4 40.3C20.5 40.1 20.6 39.9 20.6 39.6C20.6 39.4 20.5 39.1 20.3 39C20.1 38.9 19.9 38.8 19.6 38.8C19.4 38.8 19.3 38.8 19.2 38.8H19V24.4C19 24 18.8 23.7 18.5 23.6C15 22.1 14.4 19.5 14.3 19V8.49998C14.3 7.99998 13.9 7.59998 13.4 7.59998Z" fill="white"/>
<path d="M20.6998 40.9C20.4998 40.9 20.2998 40.9 20.1998 40.9C19.5998 40.8 19.0998 40.3 19.1998 39.6C19.2998 39 19.7998 38.5 20.4998 38.6C20.6998 38.6 20.7998 38.6 20.8998 38.6L20.5998 24.4C20.5998 23.9 20.8998 23.5 21.2998 23.3C24.5998 21.9 25.1998 19.3 25.2998 18.9V8.50002C25.2998 7.90002 25.7998 7.40002 26.3998 7.40002C26.9998 7.40002 27.4998 7.90002 27.4998 8.50002V19V19.1C27.4998 19.3 26.9998 22.9 22.7998 25L22.8998 39.2C22.8998 39.4 22.8998 39.6 22.7998 39.7C22.7998 40 22.2998 40.9 20.6998 40.9Z" fill="white"/>
<path d="M20.6999 41.1C20.4999 41.1 20.2999 41.1 20.0999 41.1C19.2999 41 18.7999 40.3 18.8999 39.6C18.8999 39.2 19.0999 38.9 19.3999 38.7C19.6999 38.5 19.9999 38.4 20.3999 38.4H20.4999L20.3999 24.4C20.3999 23.8 20.6999 23.3 21.1999 23.1C24.4999 21.7 24.9999 19.2 25.0999 18.9V8.49998C25.0999 7.69998 25.6999 7.09998 26.4999 7.09998C27.2999 7.09998 27.8999 7.69998 27.8999 8.49998V19C27.8999 19.1 27.8999 19.1 27.8999 19.2C27.8999 19.4 27.2999 23 23.1999 25.2L23.2999 39.2C23.2999 39.4 23.2999 39.6 23.1999 39.8C23.0999 40.1 22.3999 41.1 20.6999 41.1ZM20.1999 38.8C19.9999 38.8 19.7999 38.9 19.5999 39C19.3999 39.1 19.2999 39.4 19.2999 39.6C19.1999 40.1 19.5999 40.5 20.0999 40.6C21.9999 40.8 22.5999 39.8 22.6999 39.7C22.7999 39.6 22.7999 39.4 22.7999 39.3L22.6999 25L22.7999 24.9C26.7999 22.8 27.2999 19.3 27.3999 19.2V19.1V8.49998C27.3999 7.99998 26.9999 7.59998 26.4999 7.59998C25.9999 7.59998 25.5999 7.99998 25.5999 8.49998V18.9C25.4999 19.4 24.8999 22 21.3999 23.5C21.0999 23.6 20.8999 24 20.8999 24.3L20.9999 38.8H20.7999C20.6999 38.8 20.4999 38.8 20.3999 38.8C20.2999 38.8 20.2999 38.8 20.1999 38.8Z" fill="white"/>
<path d="M17.6996 18.6C17.0996 18.6 16.5996 18.1 16.5996 17.5V8.40005C16.5996 7.80005 17.0996 7.30005 17.6996 7.30005C18.2996 7.30005 18.7996 7.80005 18.7996 8.40005V17.5C18.8996 18.1 18.3996 18.6 17.6996 18.6Z" fill="white"/>
<path d="M17.6998 18.9C16.8998 18.9 16.2998 18.3 16.2998 17.5V8.4C16.2998 7.7 16.9998 7 17.6998 7C18.3998 7 19.0998 7.6 19.0998 8.4V17.5C19.0998 18.3 18.4998 18.9 17.6998 18.9ZM17.6998 7.5C17.1998 7.5 16.7998 7.9 16.7998 8.4V17.5C16.7998 18 17.1998 18.4 17.6998 18.4C18.1998 18.4 18.5998 18 18.5998 17.5V8.4C18.5998 7.9 18.1998 7.5 17.6998 7.5Z" fill="white"/>
<path d="M22.1996 18.6C21.5996 18.6 21.0996 18.1 21.0996 17.5V8.40005C21.0996 7.80005 21.5996 7.30005 22.1996 7.30005C22.7996 7.30005 23.2996 7.80005 23.2996 8.40005V17.5C23.3996 18.1 22.8996 18.6 22.1996 18.6Z" fill="white"/>
<path d="M22.1998 18.9C21.3998 18.9 20.7998 18.3 20.7998 17.5V8.4C20.7998 7.7 21.4998 7 22.1998 7C22.8998 7 23.5998 7.6 23.5998 8.4V17.5C23.5998 18.3 22.9998 18.9 22.1998 18.9ZM22.1998 7.5C21.6998 7.5 21.2998 7.9 21.2998 8.4V17.5C21.2998 18 21.6998 18.4 22.1998 18.4C22.6998 18.4 23.0998 18 23.0998 17.5V8.4C23.0998 7.9 22.6998 7.5 22.1998 7.5Z" fill="white"/>
</g>
<defs>
<clipPath id="clip0">
<rect width="26.9" height="34.2" fill="white" transform="translate(12 7)"/>
</clipPath>
</defs>
</svg>
