<svg width="52" height="60" viewBox="0 0 52 60" fill="none" xmlns="http://www.w3.org/2000/svg">
<path d="M0.0568928 0V42.8166H0L0.0568928 42.8733V42.9301H0.113786L26 60L51.8862 42.9301H52V0H0.0568928Z" fill="#4CC8D9"/>
<g clip-path="url(#clip0)">
<path d="M25.7002 11.5C33.5002 11.5 39.9002 17.9001 39.9002 25.7001C39.9002 33.5 33.5002 39.9 25.7002 39.9C17.9002 39.9 11.5002 33.5 11.5002 25.7001C11.5002 17.9001 17.9002 11.5 25.7002 11.5ZM25.7002 9.30005C16.6002 9.30005 9.2002 16.6 9.2002 25.7001C9.2002 34.8001 16.6002 42.2001 25.7002 42.2001C34.8002 42.2001 42.2002 34.8001 42.2002 25.7001C42.2002 16.6 34.8002 9.30005 25.7002 9.30005Z" fill="white"/>
<path d="M25.7 42.5C16.5 42.5 9 35 9 25.7C9 16.5 16.5 9 25.7 9C34.9 9 42.4 16.5 42.4 25.7C42.5 35 35 42.5 25.7 42.5ZM25.7 9.5C16.7 9.5 9.5 16.8 9.5 25.7C9.5 34.7 16.8 41.9 25.7 41.9C34.6 41.9 42 34.7 42 25.7C42 16.8 34.7 9.5 25.7 9.5ZM25.7 40.2C17.7 40.2 11.2 33.7 11.2 25.7C11.2 17.7 17.8 11.3 25.7 11.3C33.6 11.3 40.2 17.8 40.2 25.8C40.2 33.8 33.7 40.2 25.7 40.2ZM25.7 11.8C18 11.8 11.7 18.1 11.7 25.8C11.7 33.5 18 39.8 25.7 39.8C33.4 39.8 39.7 33.5 39.7 25.8C39.7 18.1 33.4 11.8 25.7 11.8Z" fill="white"/>
<path d="M27.3003 19.4V23.9H31.8003V27.1H27.3003V31.6H24.1003V27.1H19.6003V23.9H24.1003V19.4H27.3003ZM27.3003 17.1H24.1003C22.8003 17.1 21.8003 18.1 21.8003 19.4V21.6H19.6003C18.3003 21.6 17.3003 22.6 17.3003 23.9V27.1C17.3003 28.4 18.3003 29.4 19.6003 29.4H21.8003V31.6C21.8003 32.9 22.8003 33.9 24.1003 33.9H27.3003C28.6003 33.9 29.6003 32.9 29.6003 31.6V29.4H31.8003C33.1003 29.4 34.1003 28.4 34.1003 27.1V23.9C34.1003 22.6 33.1003 21.6 31.8003 21.6H29.6003V19.4C29.6003 18.1 28.6003 17.1 27.3003 17.1Z" fill="white"/>
<path d="M27.3001 34.1H24.1001C22.7001 34.1 21.6001 33 21.6001 31.6V29.6H19.6001C18.2001 29.6 17.1001 28.5 17.1001 27.1V23.9C17.1001 22.5 18.2001 21.4 19.6001 21.4H21.6001V19.4C21.6001 18 22.7001 16.9 24.1001 16.9H27.3001C28.7001 16.9 29.8001 18 29.8001 19.4V21.4H31.8001C33.2001 21.4 34.3001 22.5 34.3001 23.9V27.1C34.3001 28.5 33.2001 29.6 31.8001 29.6H29.8001V31.6C29.9001 33 28.7001 34.1 27.3001 34.1ZM19.6001 21.8C18.5001 21.8 17.6001 22.7 17.6001 23.8V27C17.6001 28.1 18.5001 29 19.6001 29H22.1001V31.5C22.1001 32.6 23.0001 33.5 24.1001 33.5H27.3001C28.4001 33.5 29.3001 32.6 29.3001 31.5V29H31.8001C32.9001 29 33.8001 28.1 33.8001 27V23.8C33.8001 22.7 32.9001 21.8 31.8001 21.8H29.3001V19.3C29.3001 18.2 28.4001 17.3 27.3001 17.3H24.1001C23.0001 17.3 22.1001 18.2 22.1001 19.3V21.8H19.6001ZM27.6001 31.8H23.9001V27.3H19.4001V23.6H23.9001V19.1H27.6001V23.6H32.1001V27.3H27.6001V31.8ZM24.4001 31.3H27.1001V26.8H31.6001V24.1H27.1001V19.6H24.4001V24.1H19.9001V26.8H24.4001V31.3Z" fill="white"/>
</g>
<defs>
<clipPath id="clip0">
<rect width="33.5" height="33.5" fill="white" transform="translate(9 9)"/>
</clipPath>
</defs>
</svg>
