<svg width="52" height="60" viewBox="0 0 52 60" fill="none" xmlns="http://www.w3.org/2000/svg">
<path d="M0.0568928 0V42.8166H0L0.0568928 42.8733V42.9301H0.113786L26 60L51.8862 42.9301H52V0H0.0568928Z" fill="#CB67A3"/>
<g clip-path="url(#clip0)">
<path d="M35.9998 15.6001C35.9998 14.9001 35.3998 14.4001 34.6998 14.4001H31.9998C31.5998 11.2001 28.6998 8.90009 25.4998 9.30009C22.8998 9.60009 20.7998 11.7001 20.4998 14.4001H17.7998C17.0998 14.4001 16.4998 14.9001 16.4998 15.6001L15.2998 38.9001C15.2998 39.6001 15.7998 40.2001 16.4998 40.3001C16.4998 40.3001 16.4998 40.3001 16.5998 40.3001H35.9998C36.6998 40.3001 37.2998 39.7001 37.2998 39.0001C37.2998 39.0001 37.2998 39.0001 37.2998 38.9001L35.9998 15.6001ZM26.2998 11.8001C27.7998 11.8001 29.1998 12.9001 29.4998 14.4001H23.0998C23.3998 12.9001 24.6998 11.8001 26.2998 11.8001ZM20.3998 17.0001V18.9001C20.3998 19.6001 20.9998 20.2001 21.6998 20.2001C22.3998 20.2001 22.9998 19.6001 22.9998 18.9001V17.0001H29.4998V18.9001C29.4998 19.6001 30.0998 20.2001 30.7998 20.2001C31.4998 20.2001 32.0998 19.6001 32.0998 18.9001V17.0001H33.4998L34.2998 32.5001H18.1998L18.9998 17.0001H20.3998ZM17.8998 37.7001L17.9998 35.1001H34.3998L34.4998 37.7001H17.8998Z" fill="white"/>
<path d="M16.4998 40.5C15.5998 40.5 14.8998 39.7 14.9998 38.9L16.1998 15.6C16.1998 14.8 16.8998 14.1 17.6998 14.1H20.1998C20.6998 11.4 22.7998 9.40004 25.5998 9.00004C28.8998 8.60004 31.7998 10.9 32.2998 14.1H34.7998C35.5998 14.1 36.2998 14.7 36.2998 15.6L37.4998 38.9C37.4998 38.9 37.4998 38.9 37.4998 39C37.4998 39.9 36.7998 40.5 35.9998 40.5H16.4998ZM17.7998 14.7C17.1998 14.7 16.7998 15.1 16.7998 15.7L15.4998 38.9C15.4998 39.5 15.8998 40 16.4998 40H35.9998C36.2998 40 36.4998 39.9 36.6998 39.7C36.8998 39.5 36.9998 39.3 36.9998 39L35.7998 15.6C35.7998 15 35.2998 14.6 34.7998 14.6H31.8998V14.4C31.4998 11.3 28.7998 9.10004 25.6998 9.50004C22.9998 9.80004 20.9998 11.8 20.6998 14.4V14.6H17.7998C17.7998 14.7 17.7998 14.7 17.7998 14.7ZM34.8998 38H17.5998L17.7998 34.9H34.6998L34.8998 38ZM18.1998 37.5H34.3998L34.2998 35.4H18.2998L18.1998 37.5ZM34.5998 32.8H17.8998L18.6998 16.8H20.6998V19C20.6998 19.6 21.1998 20 21.6998 20C22.2998 20 22.6998 19.5 22.6998 19V16.7H29.6998V18.9C29.6998 19.5 30.1998 19.9 30.6998 19.9C31.2998 19.9 31.6998 19.4 31.6998 18.9V16.7H33.5998L34.5998 32.8ZM18.3998 32.3H34.0998L33.2998 17.3H32.2998V19C32.2998 19.9 31.5998 20.5 30.7998 20.5C29.8998 20.5 29.2998 19.8 29.2998 19V17.2H23.2998V18.9C23.2998 19.8 22.5998 20.4 21.7998 20.4C20.9998 20.4 20.2998 19.7 20.2998 18.9V17.2H19.2998L18.3998 32.3ZM29.6998 14.7H22.6998L22.7998 14.4C23.0998 12.8 24.5998 11.6 26.1998 11.6C27.7998 11.6 29.2998 12.8 29.5998 14.4L29.6998 14.7ZM23.3998 14.2H29.0998C28.6998 13 27.5998 12.1 26.2998 12.1C24.9998 12.1 23.7998 12.9 23.3998 14.2Z" fill="white"/>
</g>
<defs>
<clipPath id="clip0">
<rect width="22.5" height="31.5" fill="white" transform="translate(15 9)"/>
</clipPath>
</defs>
</svg>
