<svg width="52" height="60" viewBox="0 0 52 60" fill="none" xmlns="http://www.w3.org/2000/svg">
<path d="M0.0568928 0V42.8166H0L0.0568928 42.8733V42.9301H0.113786L26 60L51.8862 42.9301H52V0H0.0568928Z" fill="#5B7F1F"/>
<g clip-path="url(#clip0)">
<path d="M39.8997 11.3H12.1997C11.6997 11.3 11.1997 11.7 11.1997 12.3V21.2C11.1997 21.7 11.5997 22.2 12.1997 22.2H16.3997V39.5C16.3997 40 16.7997 40.5 17.3997 40.5H34.2997C34.7997 40.5 35.2997 40.1 35.2997 39.5V22.1H39.7997C40.2997 22.1 40.7997 21.7 40.7997 21.1V12.2C40.8997 11.7 40.3997 11.3 39.8997 11.3ZM33.3997 38.4H18.3997V17.7H33.3997V38.4ZM38.8997 20.1H35.3997V17.7H36.6997C37.1997 17.7 37.6997 17.3 37.6997 16.7C37.6997 16.1 37.2997 15.7 36.6997 15.7H34.3997H17.4997H15.4997C14.9997 15.7 14.4997 16.1 14.4997 16.7C14.4997 17.2 14.8997 17.7 15.4997 17.7H16.4997V20.2H13.1997V13.2H38.8997V20.1ZM23.6997 31.5C23.6997 31 23.2997 30.5 22.6997 30.5C22.0997 30.5 21.6997 30.9 21.6997 31.5C21.6997 33.3 23.0997 34.8001 24.8997 35.2001C24.8997 35.7001 25.2997 36.1 25.8997 36.1C26.3997 36.1 26.7997 35.7001 26.8997 35.2001C28.6997 34.8001 29.7997 33.4 29.9997 32C30.1997 30.6 29.5997 28.8001 27.3997 28.1C27.1997 28.1 27.0997 28 26.8997 28V24.5C27.5997 24.8 28.0997 25.4 28.0997 26.1C28.0997 26.6 28.4997 27.1 29.0997 27.1C29.6997 27.1 30.0997 26.7 30.0997 26.1C30.0997 24.3 28.6997 22.8 26.8997 22.4C26.8997 21.9 26.4997 21.5 25.8997 21.5C25.3997 21.5 24.9997 21.9 24.8997 22.4C23.0997 22.8 21.6997 24.3 21.6997 26.1C21.6997 27.6 22.6997 29 24.1997 29.5C24.3997 29.6 24.6997 29.6 24.8997 29.7001V33.2001C24.1997 32.8001 23.6997 32.2001 23.6997 31.5ZM26.8997 30C27.6997 30.3 28.1997 30.9001 27.9997 31.7001C27.8997 32.2001 27.4997 32.8001 26.8997 33.1V30ZM24.8997 27.5C24.1997 27.3 23.6997 26.6 23.6997 26C23.6997 25.3 24.1997 24.7 24.8997 24.4V27.5Z" fill="white"/>
<path d="M34.3999 40.6H17.4999C16.7999 40.6 16.2999 40 16.2999 39.4V22.4H12.2999C11.5999 22.4 11.0999 21.8 11.0999 21.2V12.2C10.9999 11.6 11.5999 11 12.1999 11H39.7999C40.4999 11 40.9999 11.6 40.9999 12.2V21.1C40.9999 21.8 40.3999 22.3 39.7999 22.3H35.5999V39.3C35.5999 40.1 35.0999 40.6 34.3999 40.6ZM12.1999 11.5C11.7999 11.5 11.4999 11.8 11.4999 12.2V21.1C11.4999 21.5 11.7999 21.8 12.1999 21.8H16.6999V39.3C16.6999 39.7 16.9999 40 17.3999 40H34.2999C34.6999 40 34.9999 39.7 34.9999 39.3V21.9H39.6999C40.0999 21.9 40.3999 21.6 40.3999 21.2V12.2C40.3999 11.8 40.0999 11.5 39.6999 11.5H12.1999ZM33.6999 38.6H18.1999V17.4H33.6999V38.6ZM18.6999 38.1H33.1999V17.9H18.6999V38.1ZM25.9999 36.3C25.3999 36.3 24.8999 35.9 24.7999 35.3C22.8999 34.8 21.5999 33.3 21.5999 31.4C21.5999 30.7 22.1999 30.2 22.7999 30.2C23.4999 30.2 23.9999 30.8 23.9999 31.4C23.9999 31.9 24.2999 32.3 24.6999 32.6V29.7C24.4999 29.7 24.2999 29.6 24.0999 29.5C22.4999 28.9 21.4999 27.5 21.4999 25.9C21.4999 24.1 22.7999 22.5 24.6999 22C24.7999 21.4 25.2999 21 25.8999 21C26.4999 21 26.9999 21.4 27.0999 22C28.9999 22.5 30.2999 24 30.2999 25.9C30.2999 26.6 29.6999 27.1 29.0999 27.1C28.3999 27.1 27.8999 26.5 27.8999 25.9C27.8999 25.4 27.5999 25 27.1999 24.7V27.6H27.2999C27.3999 27.6 27.4999 27.6 27.5999 27.7C29.8999 28.4 30.5999 30.3 30.3999 31.9C30.1999 33.1 29.1999 34.7 27.2999 35.2C26.9999 35.9 26.5999 36.3 25.9999 36.3ZM22.6999 30.7C22.2999 30.7 21.9999 31 21.9999 31.4C21.9999 33 23.1999 34.4 24.9999 34.8H25.1999V35C25.1999 35.3 25.4999 35.7 25.8999 35.7C26.2999 35.7 26.5999 35.4 26.5999 35V34.8H26.7999C28.5999 34.4 29.4999 33 29.6999 31.8C29.8999 30.5 29.2999 28.8 27.2999 28.2C27.1999 28.2 27.0999 28.2 26.9999 28.1C26.8999 28.1 26.7999 28.1 26.6999 28H26.4999V23.9L26.7999 24C27.6999 24.3 28.1999 25 28.1999 25.8C28.1999 26.2 28.4999 26.5 28.8999 26.5C29.2999 26.5 29.5999 26.2 29.5999 25.8C29.5999 24.2 28.3999 22.8 26.5999 22.4H26.3999V22.2C26.3999 21.9 26.0999 21.5 25.6999 21.5C25.2999 21.5 24.9999 21.8 24.9999 22.2V22.4H24.7999C22.9999 22.8 21.7999 24.2 21.7999 25.8C21.7999 27.2 22.6999 28.5 24.0999 29C24.2999 29.1 24.5999 29.1 24.7999 29.2H24.9999V29.4V33.3L24.5999 33.1C23.6999 32.7 23.1999 32 23.1999 31.2C23.4999 31.1 23.1999 30.7 22.6999 30.7ZM26.6999 33.4V29.6L26.9999 29.7C27.9999 30 28.4999 30.8 28.2999 31.7C28.1999 32.4 27.6999 33 26.9999 33.3L26.6999 33.4ZM27.1999 30.3V32.6C27.5999 32.3 27.7999 31.9 27.7999 31.6C27.8999 31.1 27.6999 30.6 27.1999 30.3ZM25.1999 27.9L24.8999 27.8C24.0999 27.5 23.5999 26.8 23.5999 26C23.5999 25.2 24.0999 24.5 24.9999 24.2L25.2999 24.1L25.1999 27.9ZM24.6999 24.8C24.2999 25.1 23.9999 25.5 23.9999 26C23.9999 26.4 24.2999 26.9 24.6999 27.1V24.8ZM39.0999 20.4H35.0999V17.4H36.5999C36.9999 17.4 37.2999 17.1 37.2999 16.7C37.2999 16.3 36.9999 16 36.5999 16H15.3999C14.9999 15.9 14.6999 16.3 14.6999 16.7C14.6999 17.1 14.9999 17.4 15.3999 17.4H16.6999V20.4H12.9999V13H39.1999V20.4H39.0999ZM35.5999 19.9H38.5999V13.5H13.4999V19.9H16.2999V17.9H15.3999C14.6999 17.9 14.1999 17.3 14.1999 16.7C14.1999 16 14.7999 15.5 15.3999 15.5H36.5999C37.2999 15.5 37.7999 16.1 37.7999 16.7C37.7999 17.4 37.1999 17.9 36.5999 17.9H35.5999V19.9Z" fill="white"/>
</g>
<defs>
<clipPath id="clip0">
<rect width="30.1" height="29.6" fill="white" transform="translate(11 11)"/>
</clipPath>
</defs>
</svg>
