<svg width="52" height="60" viewBox="0 0 52 60" fill="none" xmlns="http://www.w3.org/2000/svg">
<path d="M0.0568928 0V42.8166H0L0.0568928 42.8733V42.9301H0.113786L26 60L51.8862 42.9301H52V0H0.0568928Z" fill="#E9B041"/>
<g clip-path="url(#clip0)">
<path d="M9.3002 10.2378C8.7002 10.2378 8.2002 10.7378 8.2002 11.3378C8.2002 11.9378 8.7002 12.4378 9.3002 12.4378H12.8002L16.6002 30.2378C16.7002 30.9378 17.2002 31.4378 17.7002 31.4378H36.0002C36.6002 31.4378 37.1002 30.9378 37.1002 30.3378C37.1002 29.7378 36.6002 29.2378 36.0002 29.2378H18.6002L18.1002 27.0378H37.4002C37.9002 27.0378 38.4002 26.6378 38.5002 26.1378L41.1002 15.1378C41.2002 14.5378 40.7002 13.8378 40.0002 13.8378H15.4002L14.8002 11.0378C14.7002 10.5378 14.2002 10.1378 13.7002 10.1378H9.3002V10.2378ZM15.9002 16.1378H38.7002L36.7002 24.9378H17.7002L15.9002 16.1378ZM21.4002 32.1378C19.4002 32.1378 17.7002 33.7378 17.7002 35.8378C17.7002 37.9378 19.3002 39.5378 21.4002 39.5378C23.5002 39.5378 25.1002 37.9378 25.1002 35.8378C25.1002 33.8378 23.4002 32.1378 21.4002 32.1378ZM32.4002 32.1378C30.4002 32.1378 28.7002 33.7378 28.7002 35.8378C28.7002 37.9378 30.3002 39.5378 32.4002 39.5378C34.5002 39.5378 36.1002 37.9378 36.1002 35.8378C36.0002 33.8378 34.4002 32.1378 32.4002 32.1378ZM21.4002 34.3378C22.2002 34.3378 22.9002 34.9378 22.9002 35.8378C22.9002 36.7378 22.3002 37.3378 21.4002 37.3378C20.6002 37.3378 19.9002 36.7378 19.9002 35.8378C19.9002 34.9378 20.6002 34.3378 21.4002 34.3378ZM32.4002 34.3378C33.2002 34.3378 33.9002 34.9378 33.9002 35.8378C33.9002 36.7378 33.3002 37.3378 32.4002 37.3378C31.6002 37.3378 30.9002 36.7378 30.9002 35.8378C30.9002 34.9378 31.6002 34.3378 32.4002 34.3378Z" fill="white"/>
<path d="M32.4 39.7378C30.2 39.7378 28.5 37.9378 28.5 35.8378C28.5 33.6378 30.3 31.9378 32.4 31.9378C34.6 31.9378 36.3 33.7378 36.3 35.8378C36.3 38.0378 34.5 39.7378 32.4 39.7378ZM32.4 32.4378C30.5 32.4378 29 33.9378 29 35.8378C29 37.7378 30.5 39.2378 32.4 39.2378C34.3 39.2378 35.8 37.7378 35.8 35.8378C35.8 33.9378 34.3 32.4378 32.4 32.4378ZM21.4 39.7378C19.2 39.7378 17.5 37.9378 17.5 35.8378C17.5 33.6378 19.3 31.9378 21.4 31.9378C23.6 31.9378 25.3 33.7378 25.3 35.8378C25.3 38.0378 23.6 39.7378 21.4 39.7378ZM21.4 32.4378C19.5 32.4378 18 33.9378 18 35.8378C18 37.7378 19.5 39.2378 21.4 39.2378C23.3 39.2378 24.8 37.7378 24.8 35.8378C24.8 33.9378 23.3 32.4378 21.4 32.4378ZM32.4 37.5378C31.4 37.5378 30.7 36.7378 30.7 35.8378C30.7 34.8378 31.5 34.1378 32.4 34.1378C33.4 34.1378 34.1 34.9378 34.1 35.8378C34.1 36.8378 33.3 37.5378 32.4 37.5378ZM32.4 34.6378C31.7 34.6378 31.2 35.1378 31.2 35.8378C31.2 36.5378 31.7 37.0378 32.4 37.0378C33.1 37.0378 33.6 36.5378 33.6 35.8378C33.6 35.1378 33.1 34.6378 32.4 34.6378ZM21.4 37.5378C20.4 37.5378 19.7 36.7378 19.7 35.8378C19.7 34.8378 20.5 34.1378 21.4 34.1378C22.3 34.1378 23.1 34.9378 23.1 35.8378C23.1 36.8378 22.4 37.5378 21.4 37.5378ZM21.4 34.6378C20.7 34.6378 20.2 35.1378 20.2 35.8378C20.2 36.5378 20.7 37.0378 21.4 37.0378C22.1 37.0378 22.6 36.5378 22.6 35.8378C22.6 35.1378 22.1 34.6378 21.4 34.6378ZM36 31.7378H17.8C17.2 31.7378 16.6 31.1378 16.4 30.3378L12.7 12.7378H9.3C8.6 12.7378 8 12.1378 8 11.4378C8 10.7378 8.6 10.1378 9.3 10.1378H13.7C14.3 10.1378 14.9 10.6378 15 11.2378L15.6 13.8378H40.1C40.5 13.8378 40.9 14.0378 41.1 14.3378C41.4 14.6378 41.5 15.0378 41.4 15.4378L38.8 26.4378C38.7 27.0378 38.1 27.4378 37.5 27.5378H18.5L18.9 29.2378H36C36.4 29.2378 36.7 29.3378 36.9 29.6378C37.1 29.9378 37.3 30.2378 37.3 30.5378C37.3 30.8378 37.1 31.2378 36.9 31.4378C36.7 31.5378 36.4 31.7378 36 31.7378ZM36 31.2378C36.2 31.2378 36.4 31.1378 36.6 30.9378C36.8 30.7378 36.9 30.5378 36.9 30.3378C36.9 30.1378 36.8 29.9378 36.6 29.7378C36.4 29.5378 36.2 29.4378 36 29.4378H18.4L17.8 26.7378H37.4C37.8 26.7378 38.1 26.4378 38.2 26.0378L40.8 15.0378C40.8 14.8378 40.8 14.5378 40.6 14.3378C40.4 14.1378 40.2 14.0378 40 14.0378H15.2L14.6 11.0378C14.5 10.6378 14.2 10.3378 13.8 10.3378H9.3C8.8 10.3378 8.5 10.7378 8.5 11.1378C8.5 11.5378 8.9 11.9378 9.3 11.9378H13L16.8 29.9378C16.9 30.5378 17.3 30.9378 17.7 30.9378H36V31.2378ZM36.8 25.1378H17.5L15.5 15.8378H39L36.8 25.1378ZM17.9 24.6378H36.4L38.3 16.3378H16.2L17.9 24.6378Z" fill="white"/>
</g>
<defs>
<clipPath id="clip0">
<rect width="33.4" height="29.7" fill="white" transform="translate(8 10)"/>
</clipPath>
</defs>
</svg>
