<svg width="52" height="60" viewBox="0 0 52 60" fill="none" xmlns="http://www.w3.org/2000/svg">
<path d="M0.0568928 0V42.8166H0L0.0568928 42.8733V42.9301H0.113786L26 60L51.8862 42.9301H52V0H0.0568928Z" fill="#8B673D"/>
<g clip-path="url(#clip0)">
<path d="M37.7002 24.1999H36.4002V21.6999C36.4002 20.9999 35.8002 20.3999 35.1002 20.3999H13.5002C12.8002 20.3999 12.2002 20.9999 12.2002 21.6999V28.6999C12.2002 35.3999 17.6002 40.7999 24.3002 40.7999C28.8002 40.7999 32.8002 38.2999 34.9002 34.3999C35.0002 34.3999 35.0002 34.3999 35.1002 34.3999H37.6002C40.4002 34.3999 42.7002 32.0999 42.7002 29.2999C42.7002 26.4999 40.5002 24.1999 37.7002 24.1999ZM24.3002 38.1999C19.0002 38.1999 14.8002 33.8999 14.8002 28.6999V22.9999H33.9002V28.6999C33.9002 33.9999 29.6002 38.1999 24.3002 38.1999ZM37.7002 31.8999H36.0002C36.3002 30.8999 36.4002 29.7999 36.4002 28.6999V26.7999H37.7002C39.1002 26.7999 40.2002 27.8999 40.2002 29.2999C40.3002 30.6999 39.1002 31.8999 37.7002 31.8999Z" fill="white"/>
<path d="M24.3 41C21 41 18 39.7 15.6 37.4C13.3 35.1 12 32 12 28.7V21.7C12 20.9 12.7 20.2 13.5 20.2H35.1C35.9 20.2 36.6 20.9 36.6 21.7V24H37.6C40.5 24 42.9 26.4 42.9 29.3C42.9 32.2 40.5 34.6 37.6 34.6H35.1C33 38.6 28.8 41 24.3 41ZM13.5 20.7C12.9 20.7 12.5 21.2 12.5 21.7V28.7C12.5 31.9 13.7 34.8 16 37.1C18.2 39.3 21.2 40.6 24.4 40.6C28.8 40.6 32.8 38.2 34.8 34.3L34.9 34.1H35.1H35.2H37.7C40.4 34.1 42.5 31.9 42.5 29.3C42.5 26.6 40.3 24.5 37.7 24.5H36.2V21.7C36.2 21.1 35.7 20.7 35.2 20.7H13.5ZM24.3 38.5C18.9 38.5 14.5 34.1 14.5 28.7V22.7H34.1V28.7C34.1 34.1 29.7 38.5 24.3 38.5ZM15 23.2V28.7C15 33.8 19.2 38 24.3 38C29.4 38 33.6 33.8 33.6 28.7V23.2H15ZM37.7 32.1H35.7L35.8 31.8C36.1 30.8 36.2 29.7 36.2 28.7V26.5H37.7C39.2 26.5 40.5 27.8 40.5 29.3C40.5 30.8 39.2 32.1 37.7 32.1ZM36.3 31.6H37.7C39 31.6 40 30.6 40 29.3C40 28 39 27 37.7 27H36.7V28.7C36.7 29.7 36.6 30.7 36.3 31.6Z" fill="white"/>
<path d="M19.4999 12.4C19.9999 11.9 19.9999 11.1 19.4999 10.6C18.9999 10.1 18.1999 10.1 17.6999 10.6L17.2999 11C15.5999 12.7 15.5999 15.4 17.2999 17.1L17.6999 17.5C18.1999 18 18.9999 18 19.4999 17.5C19.9999 17 19.9999 16.2 19.4999 15.7L19.0999 15.3C18.3999 14.6 18.3999 13.5 19.0999 12.8L19.4999 12.4Z" fill="white"/>
<path d="M18.6001 18.1C18.2001 18.1 17.8001 18 17.5001 17.7L17.2001 17.3C15.4001 15.5 15.4001 12.6 17.2001 10.8L17.6001 10.4C18.2001 9.79995 19.2001 9.79995 19.8001 10.4C20.3001 11 20.3001 12 19.7001 12.6L19.3001 13C18.7001 13.6 18.7001 14.6 19.3001 15.2L19.7001 15.6C20.3001 16.2 20.3001 17.2 19.7001 17.8C19.4001 18 19.0001 18.1 18.6001 18.1ZM18.6001 10.5C18.3001 10.5 18.1001 10.6 17.9001 10.8L17.5001 11.2C15.9001 12.8 15.9001 15.4 17.5001 17L17.9001 17.4C18.3001 17.8 18.9001 17.8 19.3001 17.4C19.7001 17 19.7001 16.4 19.3001 16L19.0001 15.5C18.6001 15.1 18.4001 14.6 18.4001 14.1C18.4001 13.6 18.6001 13 19.0001 12.6L19.4001 12.2C19.8001 11.8 19.8001 11.2 19.4001 10.8C19.1001 10.6 18.9001 10.5 18.6001 10.5Z" fill="white"/>
<path d="M25.8998 12.4C26.3998 11.9 26.3998 11.1 25.8998 10.6C25.3998 10.1 24.5998 10.1 24.0998 10.6L23.6998 11C21.9998 12.7 21.9998 15.4 23.6998 17.1L24.0998 17.5C24.5998 18 25.3998 18 25.8998 17.5C26.3998 17 26.3998 16.2 25.8998 15.7L25.4998 15.3C24.7998 14.6 24.7998 13.5 25.4998 12.8L25.8998 12.4Z" fill="white"/>
<path d="M24.9999 18.1C24.5999 18.1 24.1999 18 23.8999 17.7L23.4999 17.3C21.6999 15.5 21.6999 12.6 23.4999 10.8L23.8999 10.4C24.4999 9.79995 25.4999 9.79995 26.0999 10.4C26.6999 11 26.6999 12 26.0999 12.6L25.6999 13C25.3999 13.3 25.1999 13.7 25.1999 14.1C25.1999 14.5 25.3999 14.9 25.6999 15.2L26.0999 15.6C26.6999 16.2 26.6999 17.2 26.0999 17.8C25.7999 18 25.3999 18.1 24.9999 18.1ZM24.9999 10.5C24.6999 10.5 24.4999 10.6 24.2999 10.8L23.8999 11.2C22.2999 12.8 22.2999 15.4 23.8999 17L24.2999 17.4C24.6999 17.8 25.2999 17.8 25.6999 17.4C26.0999 17 26.0999 16.4 25.6999 16L25.2999 15.6C24.8999 15.2 24.6999 14.7 24.6999 14.2C24.6999 13.7 24.8999 13.1 25.2999 12.8L25.6999 12.4C26.0999 12 26.0999 11.4 25.6999 11C25.4999 10.6 25.2999 10.5 24.9999 10.5Z" fill="white"/>
<path d="M32.2002 12.4C32.7002 11.9 32.7002 11.1 32.2002 10.6C31.7002 10.1 30.9002 10.1 30.4002 10.6L30.1002 11C28.4002 12.7 28.4002 15.4 30.1002 17.1L30.5002 17.5C31.0002 18 31.8002 18 32.3002 17.5C32.8002 17 32.8002 16.2 32.3002 15.7L31.9002 15.3C31.2002 14.6 31.2002 13.5 31.9002 12.8L32.2002 12.4Z" fill="white"/>
<path d="M31.3002 18.1C30.9002 18.1 30.5002 18 30.2002 17.7L29.8002 17.3C28.0002 15.5 28.0002 12.6 29.8002 10.8L30.2002 10.4C30.8002 9.79995 31.8002 9.79995 32.4002 10.4C33.0002 11 33.0002 12 32.4002 12.6L32.0002 13C31.4002 13.6 31.4002 14.6 32.0002 15.2L32.4002 15.6C33.0002 16.2 33.0002 17.2 32.4002 17.8C32.1002 18 31.7002 18.1 31.3002 18.1ZM31.3002 10.5C31.0002 10.5 30.8002 10.6 30.6002 10.8L30.2002 11.2C28.6002 12.8 28.6002 15.4 30.2002 17L30.6002 17.4C31.0002 17.8 31.6002 17.8 32.0002 17.4C32.4002 17 32.4002 16.4 32.0002 16L31.6002 15.6C30.8002 14.8 30.8002 13.5 31.6002 12.7L32.0002 12.3C32.4002 11.9 32.4002 11.3 32.0002 10.9C31.9002 10.6 31.6002 10.5 31.3002 10.5Z" fill="white"/>
</g>
<defs>
<clipPath id="clip0">
<rect width="31" height="31" fill="white" transform="translate(12 10)"/>
</clipPath>
</defs>
</svg>
