<svg width="57" height="44" viewBox="0 0 57 44" fill="none" xmlns="http://www.w3.org/2000/svg">
<path d="M53.2211 35.9457V14.4349C54.9168 12.8782 54.3515 11.0385 51.6667 9.76478L33.1551 1.13214C31.4594 0.283031 29.1984 0 27.0788 0C24.9591 0 22.6982 0.42455 21.0024 1.13214L2.49087 9.76478C-0.759258 11.3215 -0.900568 13.8688 2.49087 15.4255L8.56719 18.2559V31.4171V31.9832C8.84981 32.6908 10.9695 39.2007 26.9375 39.2007C42.9055 39.2007 45.1664 32.8323 45.3077 31.9832L45.449 18.3974L49.1231 16.6992V36.0873C48.4165 37.0779 54.0689 36.9364 53.2211 35.9457ZM41.6337 30.9926C41.0684 31.8417 38.3835 35.2381 27.0788 35.2381C15.6327 35.2381 12.9478 31.8417 12.5239 30.9926V20.0957L21.0024 24.0582C22.6982 24.9073 24.9591 25.1903 27.0788 25.1903C29.1984 25.1903 31.4594 24.7658 33.1551 24.0582L41.6337 20.0957V30.9926ZM31.4594 20.5202C30.3289 21.0863 28.7745 21.3693 27.0788 21.3693C25.383 21.3693 23.8286 21.0863 22.6982 20.5202L5.59969 12.5952L22.6982 4.67011C23.8286 4.10404 25.383 3.821 27.0788 3.821C28.7745 3.821 30.3289 4.10404 31.4594 4.67011L48.4165 12.5952L31.4594 20.5202Z" fill="#C4C4C4"/>
<path d="M51.3839 43.7293C48.4164 43.7293 46.0142 41.3235 46.0142 38.3516C46.0142 35.3797 48.4164 32.9739 51.3839 32.9739C54.3514 32.9739 56.7537 35.3797 56.7537 38.3516C56.7537 41.3235 54.3514 43.7293 51.3839 43.7293ZM51.3839 36.7949C50.5361 36.7949 49.8295 37.5025 49.8295 38.3516C49.8295 39.2007 50.5361 39.9083 51.3839 39.9083C52.2318 39.9083 52.9383 39.2007 52.9383 38.3516C52.9383 37.5025 52.2318 36.7949 51.3839 36.7949Z" fill="#C4C4C4"/>
</svg>
