<svg width="48" height="53" viewBox="0 0 48 53" fill="none" xmlns="http://www.w3.org/2000/svg">
<path d="M37.3058 0L34.4796 2.54732L39.708 8.49113C36.7405 9.0572 34.4796 11.6045 34.4796 14.7179C34.4796 18.1144 37.3058 20.9448 40.6972 20.9448C41.6864 20.9448 42.6755 20.6617 43.5234 20.2372V44.0123C43.5234 45.4275 42.3929 46.5597 40.9798 46.5597C39.5667 46.5597 38.4362 45.4275 38.4362 44.0123V32.1248C38.4362 29.0113 35.8927 26.464 32.7838 26.464H29.8163V6.93441C29.8163 3.53796 26.9902 0.707594 23.5987 0.707594H6.21763C2.82619 0.707594 0 3.53796 0 6.93441V50.6637C0 51.6543 0.847858 52.5034 1.83703 52.5034H28.1206C29.1098 52.5034 29.9577 51.6543 29.9577 50.6637V30.285H32.9252C33.9143 30.285 34.7622 31.1341 34.7622 32.1248V44.0123C34.7622 47.4088 37.5884 50.2392 40.9798 50.2392C44.3712 50.2392 47.1974 47.4088 47.1974 44.0123V14.1519C47.1974 12.3121 46.4909 10.4724 45.2191 9.05719L37.3058 0ZM26.1423 48.9655H3.67405V7.07594C3.67405 5.66075 4.80453 4.5286 6.21763 4.5286H23.74C25.1531 4.5286 26.2836 5.66075 26.2836 7.07594V48.9655H26.1423ZM40.6972 17.1238C39.2841 17.1238 38.1536 15.9916 38.1536 14.5764C38.1536 13.1612 39.2841 12.0291 40.6972 12.0291C42.1103 12.0291 43.2408 13.1612 43.2408 14.5764C43.2408 15.9916 41.969 17.1238 40.6972 17.1238Z" fill="#C4C4C4"/>
<path d="M21.903 10.897H8.19591C7.20675 10.897 6.35889 11.7461 6.35889 12.7367V24.6243C6.35889 25.6149 7.20675 26.4641 8.19591 26.4641H21.903C22.8921 26.4641 23.74 25.6149 23.74 24.6243V12.7367C23.8813 11.7461 23.0334 10.897 21.903 10.897ZM20.0659 22.7846H10.1742V14.718H20.2072V22.7846H20.0659Z" fill="#C4C4C4"/>
<path d="M16.2507 30.4266C15.5441 29.719 14.2723 29.719 13.5658 30.4266L10.033 33.9645C8.76124 35.2382 8.05469 36.9364 8.05469 38.7762C8.05469 40.6159 8.76124 42.3141 10.033 43.5878C11.3048 44.8615 13.1418 45.5691 14.8376 45.5691C16.5333 45.5691 18.3703 44.8615 19.6421 43.5878C20.9139 42.3141 21.6204 40.6159 21.6204 38.7762C21.6204 36.9364 20.9139 35.2382 19.6421 33.9645L16.2507 30.4266ZM17.0985 41.0405C15.968 42.1726 13.9897 42.1726 12.7179 41.0405C12.1527 40.4744 11.7287 39.6253 11.7287 38.9177C11.7287 38.2101 12.0114 37.361 12.7179 36.7949L14.8376 34.6721L16.9572 36.7949C17.5224 37.361 17.9464 38.2101 17.9464 38.9177C17.9464 39.6253 17.6637 40.4744 17.0985 41.0405Z" fill="#C4C4C4"/>
</svg>
