<svg width="44" height="56" viewBox="0 0 44 56" fill="none" xmlns="http://www.w3.org/2000/svg">
<path d="M41.545 55.6296H34.6208C33.6316 55.6296 32.7838 54.7805 32.7838 53.7899V42.3269C31.6533 39.4965 25.0117 21.9482 30.3815 9.91907C32.5011 5.24895 36.0339 1.99402 40.9797 0.154279C41.545 -0.128758 42.1102 0.0127607 42.6754 0.295798C43.2407 0.578836 43.5233 1.28643 43.5233 1.8525V53.7899C43.5233 54.7805 42.6754 55.6296 41.545 55.6296ZM36.4578 51.8086H39.7079V4.8244C37.0231 6.23959 35.0447 8.50389 33.7729 11.3343C28.8271 22.6558 36.3165 40.9117 36.3165 41.0532C36.4578 41.3362 36.4578 41.4778 36.4578 41.7608V51.8086Z" fill="#C4C4C4"/>
<path d="M11.4461 55.4881C8.7612 55.4881 7.91334 53.9314 7.63072 53.6483C7.48941 53.3653 7.48941 53.0823 7.48941 52.7992L7.77203 29.4486C0.847858 25.9107 0 19.9669 0 19.6838C0 19.5423 0 19.5423 0 19.4008V2.13552C0 1.14489 0.847858 0.295776 1.83703 0.295776C2.82619 0.295776 3.67405 1.14489 3.67405 2.13552V19.2593C3.81536 19.9669 4.80453 24.0709 10.3156 26.4767C11.0222 26.7598 11.4461 27.4674 11.4461 28.175L11.1635 51.6671C11.3048 51.6671 11.5874 51.6671 11.87 51.6671C12.8592 51.5256 13.8484 52.2332 13.9897 53.3653C14.131 54.3559 13.4244 55.3466 12.2939 55.4881C12.0113 55.4881 11.7287 55.4881 11.4461 55.4881Z" fill="#C4C4C4"/>
<path d="M13.8483 55.4881C13.5657 55.4881 13.2831 55.4881 13.0005 55.4881C12.0113 55.3466 11.1635 54.4975 11.3048 53.3653C11.4461 52.3747 12.2939 51.5256 13.4244 51.6671C13.707 51.6671 13.8483 51.6671 14.131 51.6671L13.8483 28.3165C13.8483 27.6089 14.2723 26.9013 14.9788 26.6183C20.4899 24.2124 21.4791 20.1084 21.6204 19.4008V2.13552C21.6204 1.14489 22.4682 0.295776 23.4574 0.295776C24.4466 0.295776 25.2944 1.14489 25.2944 2.13552V19.5423C25.2944 19.6838 25.2944 19.6838 25.2944 19.8254C25.2944 20.1084 24.4466 26.0522 17.5224 29.5902L17.805 52.9408C17.805 53.2238 17.805 53.5068 17.6637 53.7899C17.3811 54.0729 16.5332 55.4881 13.8483 55.4881Z" fill="#C4C4C4"/>
<path d="M9.04381 18.8347C8.05465 18.8347 7.20679 17.9856 7.20679 16.995V1.99401C7.20679 1.00338 8.05465 0.154266 9.04381 0.154266C10.033 0.154266 10.8808 1.00338 10.8808 1.99401V16.995C10.8808 17.9856 10.033 18.8347 9.04381 18.8347Z" fill="#C4C4C4"/>
<path d="M16.392 18.8347C15.4028 18.8347 14.5549 17.9856 14.5549 16.995V1.99401C14.5549 1.00338 15.4028 0.154266 16.392 0.154266C17.3811 0.154266 18.229 1.00338 18.229 1.99401V16.995C18.3703 17.9856 17.5224 18.8347 16.392 18.8347Z" fill="#C4C4C4"/>
</svg>
