<svg width="52" height="60" viewBox="0 0 52 60" fill="none" xmlns="http://www.w3.org/2000/svg">
<path d="M0.0568928 0V42.8166H0L0.0568928 42.8733V42.9301H0.113786L26 60L51.8862 42.9301H52V0H0.0568928Z" fill="#EA5F32"/>
<path d="M32.8483 23.596V23.4529C33.8382 23.119 34.7338 22.4512 35.3938 21.5925C36.6193 19.8275 36.7136 17.4424 35.5823 15.5819C35.0638 14.771 34.3096 14.1032 33.414 13.6738C32.4712 13.1968 31.3871 12.9583 30.35 13.006H18V34.997H30.35C32.0941 35.0447 33.744 34.52 35.1109 33.4228C36.3365 32.3734 36.9964 30.8469 36.9964 28.8433C37.0436 27.6031 36.6193 26.3628 35.8651 25.4087C35.0638 24.4547 34.0268 23.7868 32.8483 23.596ZM22.5723 16.9653H29.2659C29.9258 16.9176 30.5386 17.1561 31.0571 17.5855C31.5285 18.1102 31.7642 18.778 31.717 19.4459C31.717 20.066 31.4813 20.6862 31.01 21.1155C30.4443 21.5925 29.7844 21.831 29.0773 21.7833H22.6195L22.5723 16.9653ZM31.5285 30.3698C31.01 30.8469 30.3029 31.0854 29.5958 31.0854H22.5723V25.695H29.313C30.1144 25.6473 30.9157 25.8858 31.5285 26.4582C32.047 26.9829 32.3298 27.6508 32.2827 28.3663C32.3298 29.0819 32.047 29.8451 31.5285 30.3698Z" fill="white"/>
</svg>
