<svg width="49" height="49" viewBox="0 0 49 49" fill="none" xmlns="http://www.w3.org/2000/svg">
<path d="M47.1974 0H1.69572C0.847865 0 0 0.707589 0 1.69822V16.4162C0 17.2653 0.706555 18.1144 1.69572 18.1144H8.61989V46.4181C8.61989 47.2672 9.32645 48.1163 10.3156 48.1163H38.1536C39.0015 48.1163 39.8493 47.4088 39.8493 46.4181V17.9729H47.1974C48.0453 17.9729 48.8932 17.2653 48.8932 16.2746V1.55671C48.8932 0.849121 48.0453 0 47.1974 0ZM36.5992 44.8614H11.87V10.6139H36.5992V44.8614ZM45.643 14.718H39.8493V10.6139H41.969C42.8168 10.6139 43.6647 9.90631 43.6647 8.91568C43.6647 8.06657 42.9582 7.21746 41.969 7.21746H38.2949H10.3156H6.92418C6.07632 7.21746 5.22847 7.92505 5.22847 8.91568C5.22847 9.76479 5.93501 10.6139 6.92418 10.6139H8.61989V14.718H3.25013V3.25493H45.5017V14.718H45.643ZM20.6312 33.3984C20.6312 32.5493 19.9247 31.7002 18.9355 31.7002C18.0876 31.7002 17.2398 32.4078 17.2398 33.3984C17.2398 36.3703 19.5007 38.7761 22.4682 39.4837C22.6096 40.3328 23.1748 41.0404 24.164 41.0404C25.1531 41.0404 25.7184 40.3328 25.8597 39.4837C28.8272 38.7761 30.5229 36.5118 30.9468 34.2475C31.3708 31.8417 30.2403 29.0113 26.7075 27.8792C26.4249 27.7377 26.1423 27.7377 25.8597 27.5961V21.7939C27.1315 22.2184 27.838 23.2091 27.838 24.3412C27.838 25.1903 28.5446 26.0394 29.5337 26.0394C30.3816 26.0394 31.2294 25.3318 31.2294 24.3412C31.2294 21.3693 28.9685 18.9635 26.001 18.2559C25.8597 17.4068 25.2944 16.6992 24.3053 16.6992C23.3161 16.6992 22.7509 17.4068 22.6096 18.2559C19.642 18.9635 17.3811 21.3693 17.3811 24.3412C17.3811 26.747 19.0768 29.0113 21.4791 30.002C21.903 30.1435 22.3269 30.285 22.7509 30.285V36.0873C21.4791 35.5212 20.6312 34.5306 20.6312 33.3984ZM25.8597 30.9926C27.2728 31.4172 27.9793 32.5493 27.6967 33.823C27.5554 34.6721 26.8489 35.6627 25.8597 36.0873V30.9926ZM22.6096 26.8885C21.4791 26.464 20.6312 25.4734 20.6312 24.3412C20.6312 23.2091 21.4791 22.2184 22.6096 21.7939V26.8885Z" fill="#C4C4C4"/>
</svg>
