<svg width="55" height="55" viewBox="0 0 55 55" fill="none" xmlns="http://www.w3.org/2000/svg">
<path d="M27.1315 3.821C40.132 3.821 50.5889 14.2934 50.5889 27.3131C50.5889 40.3328 40.132 50.8052 27.1315 50.8052C14.2723 50.8052 3.67406 40.3328 3.67406 27.3131C3.67406 14.2934 14.131 3.821 27.1315 3.821ZM27.1315 0C12.1526 0 0 12.1706 0 27.1716C0 42.1726 12.1526 54.3432 27.1315 54.3432C42.1103 54.3432 54.263 42.1726 54.263 27.1716C54.263 12.1706 42.1103 0 27.1315 0Z" fill="#C4C4C4"/>
<path d="M29.8162 16.6992V24.0582H37.3056V29.2943H29.8162V36.7948H24.4464V29.2943H16.957V24.0582H24.4464V16.5577H29.8162V16.6992ZM29.8162 12.8782H24.4464C22.3267 12.8782 20.631 14.5764 20.631 16.6992V20.3787H16.957C14.8373 20.3787 13.1416 22.0769 13.1416 24.1997V29.4359C13.1416 31.5587 14.8373 33.2569 16.957 33.2569H20.631V36.9364C20.631 39.0591 22.3267 40.7574 24.4464 40.7574H29.6748C31.7945 40.7574 33.4902 39.0591 33.4902 36.9364V33.2569H37.1643C39.2839 33.2569 40.9796 31.5587 40.9796 29.4359V24.0582C40.9796 21.9354 39.2839 20.2372 37.1643 20.2372H33.4902V16.5577C33.4902 14.5764 31.7945 12.8782 29.8162 12.8782Z" fill="#C4C4C4"/>
</svg>
