<svg width="37" height="52" viewBox="0 0 37 52" fill="none" xmlns="http://www.w3.org/2000/svg">
<path d="M34.1969 10.528C34.1969 9.39586 33.2078 8.54673 32.0773 8.54673H27.5554C26.9901 3.31054 22.1856 -0.510468 16.9572 0.0556069C12.5766 0.621682 9.04382 4.01813 8.47858 8.54673H4.09797C2.96749 8.54673 1.97833 9.39586 1.97833 10.528L0 49.0211C0 50.1533 0.847849 51.1439 1.97833 51.2854H2.11965H34.0556C35.1861 51.2854 36.1753 50.2948 36.1753 49.1626V49.0211L34.1969 10.528ZM18.0876 4.15966C20.6312 4.15966 22.7509 5.99941 23.3161 8.40523H12.8592C13.4244 5.99941 15.544 4.15966 18.0876 4.15966ZM8.47858 12.6508V15.9057C8.47858 17.0379 9.46775 18.0285 10.5982 18.0285C11.7287 18.0285 12.7179 17.0379 12.7179 15.9057V12.6508H23.3161V15.9057C23.3161 17.0379 24.3053 18.0285 25.4357 18.0285C26.5662 18.0285 27.5554 17.0379 27.5554 15.9057V12.6508H29.9576L31.2294 38.2657H4.5219L5.79368 12.6508H8.47858ZM4.38059 46.8983L4.6632 42.6528H31.7947L32.0773 46.8983H4.38059Z" fill="#C4C4C4"/>
</svg>
