<svg width="55" height="49" viewBox="0 0 55 49" fill="none" xmlns="http://www.w3.org/2000/svg">
<path d="M1.83703 0.282968C0.847858 0.282968 0 1.13215 0 2.12278C0 3.11341 0.847858 3.96242 1.83703 3.96242H7.63072L13.8483 33.2569C14.131 34.3891 14.8375 35.238 15.6854 35.238H45.7843C46.7735 35.238 47.6214 34.389 47.6214 33.3984C47.6214 32.4078 46.7735 31.5586 45.7843 31.5586H17.0985L16.3919 27.8791H48.1866C49.0345 27.8791 49.741 27.313 49.8823 26.4639L54.1216 8.34947C54.4042 7.35884 53.4151 6.0852 52.4259 6.0852H11.7287L10.7395 1.41519C10.5982 0.566075 9.75037 0 8.90251 0H1.83703V0.282968ZM12.5766 10.0478H50.1649L46.7735 24.4826H15.5441L12.5766 10.0478ZM21.7617 36.5117C18.5116 36.5117 15.6854 39.2007 15.6854 42.5971C15.6854 45.9936 18.3703 48.6823 21.7617 48.6823C25.1531 48.6823 27.838 45.9936 27.838 42.5971C27.6967 39.2007 25.0118 36.5117 21.7617 36.5117ZM39.708 36.5117C36.4579 36.5117 33.6317 39.2007 33.6317 42.5971C33.6317 45.9936 36.3166 48.6823 39.708 48.6823C43.0995 48.6823 45.7843 45.9936 45.7843 42.5971C45.7843 39.2007 43.0995 36.5117 39.708 36.5117ZM21.7617 40.1912C23.1748 40.1912 24.164 41.1819 24.164 42.5971C24.164 44.0123 23.1748 45.0029 21.7617 45.0029C20.3486 45.0029 19.3594 44.0123 19.3594 42.5971C19.3594 41.1819 20.3486 40.1912 21.7617 40.1912ZM39.708 40.1912C41.1211 40.1912 42.1103 41.1819 42.1103 42.5971C42.1103 44.0123 41.1211 45.0029 39.708 45.0029C38.2949 45.0029 37.3058 44.0123 37.3058 42.5971C37.3058 41.1819 38.4362 40.1912 39.708 40.1912Z" fill="#C4C4C4"/>
</svg>
