<svg width="51" height="51" viewBox="0 0 51 51" fill="none" xmlns="http://www.w3.org/2000/svg">
<path d="M41.969 23.1383H39.8493V18.8927C39.8493 17.7606 38.8602 16.77 37.7297 16.77H2.11965C0.989168 16.77 0 17.7606 0 18.8927V30.4973C0 41.5357 8.90251 50.4514 19.9247 50.4514C27.2728 50.4514 34.0556 46.3474 37.4471 39.979C37.5884 39.979 37.5884 39.979 37.7297 39.979H41.969C46.6322 39.979 50.3063 36.158 50.3063 31.6294C50.3063 27.1008 46.4909 23.1383 41.969 23.1383ZM19.9247 46.2059C11.3048 46.2059 4.23929 39.1299 4.23929 30.4973V21.0155H35.7514V30.4973C35.6101 39.1299 28.5446 46.2059 19.9247 46.2059ZM41.969 35.7335H39.1428C39.5667 34.0352 39.8493 32.1955 39.8493 30.4973V27.3839H41.969C44.2299 27.3839 46.2083 29.2236 46.2083 31.6294C46.067 33.7522 44.2299 35.7335 41.969 35.7335Z" fill="#C4C4C4"/>
<path d="M11.8699 3.60873C12.7178 2.75962 12.7178 1.48595 11.8699 0.636834C11.0221 -0.212278 9.75027 -0.212278 8.90241 0.636834L8.33717 1.20291C5.51098 4.03328 5.51098 8.56188 8.33717 11.3923L8.90241 11.9583C9.75027 12.8074 11.0221 12.8074 11.8699 11.9583C12.7178 11.1092 12.7178 9.83555 11.8699 8.98644L11.3047 8.42037C10.1742 7.28822 10.1742 5.44847 11.3047 4.1748L11.8699 3.60873Z" fill="#C4C4C4"/>
<path d="M22.4682 3.60873C23.316 2.75962 23.316 1.48595 22.4682 0.636834C21.6203 -0.212278 20.3485 -0.212278 19.5007 0.636834L18.9354 1.20291C16.1092 4.03328 16.1092 8.56188 18.9354 11.3923L19.5007 11.9583C20.3485 12.8074 21.6203 12.8074 22.4682 11.9583C23.316 11.1092 23.316 9.83555 22.4682 8.98644L21.7616 8.42037C20.6312 7.28822 20.6312 5.44847 21.7616 4.1748L22.4682 3.60873Z" fill="#C4C4C4"/>
<path d="M32.9252 3.60873C33.7731 2.75962 33.7731 1.48595 32.9252 0.636834C32.0773 -0.212278 30.8056 -0.212278 29.9577 0.636834L29.3925 1.20291C26.5663 4.03328 26.5663 8.56188 29.3925 11.3923L29.9577 11.9583C30.8056 12.8074 32.0773 12.8074 32.9252 11.9583C33.7731 11.1092 33.7731 9.83555 32.9252 8.98644L32.36 8.42037C31.2295 7.28822 31.2295 5.44847 32.36 4.1748L32.9252 3.60873Z" fill="#C4C4C4"/>
</svg>
