<svg width="47" height="54" viewBox="0 0 47 54" fill="none" xmlns="http://www.w3.org/2000/svg">
<path d="M41.2624 0.453057C40.4146 -0.254537 39.1428 -0.113018 38.4362 0.736094L33.0665 7.10444H1.97833C0.847849 7.10444 0 8.09507 0 9.22722C0 9.65177 0.141314 10.0763 0.423933 10.5009L21.1965 38.3801V49.8431H13.8484C12.7179 49.8431 11.87 50.6922 11.87 51.8244C11.87 52.9565 12.7179 53.8056 13.8484 53.8056H32.7838C33.9143 53.8056 34.7622 52.9565 34.7622 51.8244C34.7622 50.6922 33.9143 49.8431 32.7838 49.8431H25.4357V38.5216L45.9256 10.3594C46.6322 9.51026 46.4909 8.23659 45.643 7.52899C45.2191 7.24596 44.7952 7.10444 44.3712 7.10444H38.4362L41.545 3.28343C42.2516 2.43432 42.1103 1.16065 41.2624 0.453057ZM29.675 11.2085L24.5879 17.4353H11.0222L6.07632 11.2085H29.675ZM33.3491 21.3978L23.0335 34.276L14.2723 21.3978H33.3491ZM39.9906 11.2085L35.0448 17.4353H29.9576L35.0448 11.2085H39.9906Z" fill="#C4C4C4"/>
</svg>
