<svg width="115" height="139" viewBox="0 0 115 139" fill="none" xmlns="http://www.w3.org/2000/svg">
<path d="M113.083 61H99.6667H97.75H65.1667C64.5917 61 64.2083 61.196 63.825 61.5879L58.4583 67.0754L53.0917 61.5879C52.7083 61.196 52.325 61 51.75 61H17.25H15.3333H1.91667C0.766667 61 0 61.7839 0 62.9598V100.196C0 101.372 0.766667 102.156 1.91667 102.156H15.3333H17.25H22.0417C21.275 104.704 21.85 107.643 23.7667 109.799C25.1083 111.171 27.025 111.955 28.9417 111.955C29.1333 111.955 29.1333 111.955 29.325 111.955C29.1333 113.915 29.9 116.07 31.4333 117.638C32.775 119.01 34.6917 119.794 36.6083 119.794C36.8 119.794 36.8 119.794 36.9917 119.794C36.8 121.754 37.5667 123.91 39.1 125.477C40.4417 126.849 42.3583 127.633 44.275 127.633C44.4667 127.633 44.4667 127.633 44.6583 127.633C44.4667 129.593 45.2333 131.749 46.7667 133.317C48.1083 134.688 50.025 135.472 51.9417 135.472C53.6667 135.472 55.3917 134.884 56.7333 133.709L59.8 136.844C61.1417 138.216 63.0583 139 64.975 139C66.8917 139 68.8083 138.216 70.15 136.844C71.6833 135.276 72.45 133.121 72.2583 131.161C72.45 131.161 72.45 131.161 72.6417 131.161C74.5583 131.161 76.475 130.377 77.8167 129.005C79.35 127.437 80.1167 125.281 79.925 123.322C80.1167 123.322 80.1167 123.322 80.3083 123.322C82.225 123.322 84.1417 122.538 85.4833 121.166C87.0167 119.598 87.7833 117.442 87.5917 115.482C87.7833 115.482 87.7833 115.482 87.975 115.482C89.8917 115.482 91.8083 114.698 93.15 113.327C96.025 110.387 96.025 105.683 93.15 102.744L92.575 102.156H97.75H99.6667H113.083C114.233 102.156 115 101.372 115 100.196V62.9598C115 61.9799 114.233 61 113.083 61ZM3.83333 98.2362V64.9196H15.3333V98.2362H3.83333ZM26.6417 107.055C25.3 105.683 25.3 103.332 26.6417 101.96L32.3917 96.0804C33.1583 95.2965 33.925 95.1005 34.8833 95.1005C35.8417 95.1005 36.6083 95.4925 37.375 96.0804C38.7167 97.4523 38.7167 99.804 37.375 101.176L31.625 107.055C30.2833 108.427 27.9833 108.427 26.6417 107.055ZM34.3083 114.894C32.9667 113.523 32.9667 111.171 34.3083 109.799L40.0583 103.92C40.825 103.136 41.5917 102.94 42.55 102.94C43.5083 102.94 44.275 103.332 45.0417 103.92C46.3833 105.291 46.3833 107.643 45.0417 109.015L39.2917 114.894C37.95 116.266 35.65 116.266 34.3083 114.894ZM41.975 122.734C40.6333 121.362 40.6333 119.01 41.975 117.638L47.725 111.759C48.4917 110.975 49.2583 110.779 50.2167 110.779C51.175 110.779 51.9417 111.171 52.7083 111.759C54.05 113.131 54.05 115.482 52.7083 116.854L46.9583 122.734C45.6167 124.106 43.3167 124.106 41.975 122.734ZM49.6417 130.573C48.3 129.201 48.3 126.849 49.6417 125.477L55.3917 119.598C56.1583 118.814 56.925 118.618 57.8833 118.618C58.8417 118.618 59.6083 119.01 60.375 119.598C61.7167 120.97 61.7167 123.322 60.375 124.693L54.625 130.573C53.2833 131.945 50.9833 131.945 49.6417 130.573ZM67.6583 134.101C66.3167 135.472 64.0167 135.472 62.675 134.101L59.6083 130.965L63.0583 127.437C63.6333 126.849 64.0167 126.261 64.4 125.673L67.85 129.201C69 130.377 69 132.729 67.6583 134.101ZM90.6583 110.583C89.3167 111.955 87.0167 111.955 85.675 110.583L81.8417 106.663L79.1583 109.407L82.9917 113.327C84.3333 114.698 84.3333 117.05 82.9917 118.422C81.65 119.794 79.35 119.794 78.0083 118.422L74.175 114.503L71.4917 117.246L75.325 121.166C76.6667 122.538 76.6667 124.889 75.325 126.261C73.9833 127.633 71.6833 127.633 70.3417 126.261L66.5083 122.342L64.975 123.91C65.55 121.362 64.975 118.618 63.0583 116.658C61.525 115.09 59.4167 114.307 57.5 114.503C57.6917 112.543 56.925 110.387 55.3917 108.819C53.8583 107.251 51.75 106.467 49.8333 106.663C50.025 104.704 49.2583 102.548 47.725 100.98C46.1917 99.4121 44.0833 98.6281 42.1667 98.8241C42.3583 96.8643 41.5917 94.7085 40.0583 93.1407C37.1833 90.201 32.5833 90.201 29.7083 93.1407L24.9167 98.0402H19.1667V64.7236H50.9833L55.775 69.6231L40.825 84.9095C40.4417 85.3015 40.25 85.6935 40.25 86.2814C40.25 86.8693 40.4417 87.2613 40.825 87.6533C43.8917 90.7889 47.725 92.3568 51.75 92.3568C55.775 92.3568 59.6083 90.7889 62.675 87.6533L68.0417 82.1658L90.6583 105.291C92 106.859 92 109.211 90.6583 110.583ZM70.725 79.6181L72.2583 78.0503L69.575 75.3065L59.9917 85.1055C55.9667 89.2211 49.45 89.6131 45.0417 86.2814L65.9333 64.9196H95.8333V98.2362H88.9333L70.725 79.6181ZM111.167 98.2362H99.6667V64.9196H111.167V98.2362Z" fill="#F3F3F3"/>
<path d="M32.5872 32.3463V52.4394C32.5872 53.4148 33.3578 54 34.1284 54H51.2752C52.2385 54 52.8165 53.2197 52.8165 52.4394V37.8085H64.1835V52.4394C64.1835 53.4148 64.9541 54 65.7248 54H82.6789C83.6422 54 84.2202 53.2197 84.2202 52.4394V32.1512L89.6147 26.4939C90 26.1038 90 25.7136 90 25.3234C90 24.9333 89.8074 24.348 89.422 24.153L59.5596 0.353363C58.9817 -0.231873 58.0184 -0.0367941 57.4404 0.548442L47.422 8.54667V3.6697C47.422 2.69431 46.6514 2.10907 45.8807 2.10907H37.0183C36.055 2.10907 35.4771 2.88939 35.4771 3.6697V18.1055L27.578 24.348C27.1927 24.5431 27 25.1284 27 25.5185C27 25.9087 27.1927 26.4939 27.3853 26.689L32.5872 32.3463ZM81.1376 50.8787H67.4587V36.2478C67.4587 35.2724 66.6881 34.6872 65.9174 34.6872H51.4679C50.5046 34.6872 49.9266 35.4675 49.9266 36.2478V50.8787H36.055V32.5413L58.789 14.399L81.3303 32.3463L81.1376 50.8787ZM37.789 20.2514C38.1743 19.8612 38.367 19.4711 38.367 18.8858V5.42541H44.1468V11.863C44.1468 12.4482 44.5321 13.0335 45.1101 13.2286C45.6881 13.4236 46.2661 13.4236 46.844 13.0335L58.5963 3.6697L86.1468 25.7136L82.6789 29.4201L59.5596 11.0827C58.9817 10.6925 58.211 10.6925 57.633 11.0827L34.5138 29.6152L31.0459 25.9087L37.789 20.2514Z" fill="#F3F3F3"/>
<path d="M108 21H94V25H108V21Z" fill="#F3F3F3"/>
<path d="M102.763 6.11393L94.6309 14.4182L97.3414 17.1863L105.473 8.88202L102.763 6.11393Z" fill="#F3F3F3"/>
<path d="M97.3429 29.5984L94.6323 32.3665L102.764 40.6707L105.475 37.9026L97.3429 29.5984Z" fill="#F3F3F3"/>
<path d="M21 21H7V25H21V21Z" fill="#F3F3F3"/>
<path d="M12.2076 5.65476L9.49707 8.42285L17.6287 16.7271L20.3393 13.959L12.2076 5.65476Z" fill="#F3F3F3"/>
<path d="M17.6273 29.1435L9.49561 37.4478L12.2062 40.2158L20.3378 31.9116L17.6273 29.1435Z" fill="#F3F3F3"/>
<path d="M107 91H103V95H107V91Z" fill="#F3F3F3"/>
</svg>
