<svg width="119" height="121" viewBox="0 0 119 121" fill="none" xmlns="http://www.w3.org/2000/svg">
<path d="M24 116.957H44V83.4043C44 79.3617 42.4 75.3192 39.4 72.4894L23.8 57.734C22.6 56.5213 20.8 56.5213 19.6 57.734C19 58.3404 18.8 58.9468 18.8 59.7553C18.8 60.5638 19 61.3723 19.6 61.7766L23.8 67.0319C24.2 67.6383 24.4 68.4468 24 69.2553C23.6 69.8617 23 70.4681 22.2 70.4681H10C8.8 70.4681 8 69.6596 8 68.4468V32.0638C8 31.0532 7.2 30.0426 6 30.0426C4.8 30.0426 4 30.8511 4 32.0638V67.8404C4 87.8511 23 100.787 23 100.787C23.6 101.191 24 101.798 24 102.404V116.957ZM46 121H22C20.8 121 20 120.191 20 118.979V103.617C16 100.585 0 87.6489 0 67.8404V32.0638C0 28.6277 2.6 26 6 26C9.4 26 12 28.6277 12 32.0638V66.4255H18.2L16.8 64.6064C15.6 63.3936 15 61.7766 15 59.7553C15 57.9362 15.8 56.117 17 54.9043C19.6 52.2766 24.2 52.2766 26.8 54.9043L42.2 69.6596C46 73.2979 48 78.1489 48 83.4043V118.979C48 120.191 47.2 121 46 121Z" fill="#F3F3F3"/>
<path d="M34 67C32.8 67 32 66.1786 32 64.9464V50.1607C32 48.9286 31.2 48.1071 30 48.1071C28.8 48.1071 28 48.9286 28 50.1607V57.1429C28 58.375 27.2 59.1964 26 59.1964C24.8 59.1964 24 58.375 24 57.1429V50.1607C24 46.6696 26.6 44 30 44C33.4 44 36 46.6696 36 50.1607V64.9464C36 65.9732 35.2 67 34 67Z" fill="#F3F3F3"/>
<path d="M26 59C24.8 59 24 58.193 24 56.9825V42.0526C24 40.8421 23.2 40.0351 22 40.0351C20.8 40.0351 20 40.8421 20 42.0526V56.579C20 57.7895 19.2 58.5965 18 58.5965C16.8 58.5965 16 57.7895 16 56.579V42.0526C16 38.6228 18.6 36 22 36C25.4 36 28 38.6228 28 42.0526V56.9825C28 58.193 27.2 59 26 59Z" fill="#F3F3F3"/>
<path d="M10 71C8.8 71 8 70.1789 8 68.9474V38.1579C8 34.6684 10.6 32 14 32C17.4 32 20 34.6684 20 38.1579V57.0421C20 58.2737 19.2 59.0947 18 59.0947C16.8 59.0947 16 58.2737 16 57.0421V38.1579C16 36.9263 15.2 36.1053 14 36.1053C12.8 36.1053 12 36.9263 12 38.1579V68.9474C12 70.1789 11.2 71 10 71Z" fill="#F3F3F3"/>
<path d="M75 116.957H95V102.606C95 102 95.4 101.394 96 100.989C96 100.787 115 87.8511 115 67.8404V32.0638C115 30.8511 114.2 30.0426 113 30.0426C111.8 30.0426 111 30.8511 111 32.0638V68.4468C111 69.6596 110.2 70.4681 109 70.4681H96.6C95.8 70.4681 95.2 70.0638 94.8 69.2553C94.4 68.6489 94.6 67.6383 95 67.0319L99.2 61.9787C99.8 61.3723 100.2 60.5638 100.2 59.7553C100.2 58.9468 100 58.1383 99.4 57.734C98.4 56.7234 96.4 56.7234 95.4 57.734L79.8 72.4894C76.8 75.3192 75.2 79.1596 75.2 83.4043V116.957H75ZM97 121H73C71.8 121 71 120.191 71 118.979V83.4043C71 78.1489 73.2 73.0957 76.8 69.6596L92.4 54.9043C93.6 53.6915 95.4 52.883 97.2 52.883C99 52.883 100.8 53.6915 102 54.9043C103.2 56.117 104 57.9362 104 59.7553C104 61.5745 103.2 63.3936 102 64.6064L100.8 66.4255H107V32.0638C107 28.6277 109.6 26 113 26C116.4 26 119 28.6277 119 32.0638V67.8404C119 87.6489 103 100.585 99 103.415V118.979C99 120.191 98.2 121 97 121Z" fill="#F3F3F3"/>
<path d="M85 67C83.8 67 83 66.1786 83 64.9464V50.1607C83 46.6696 85.6 44 89 44C92.4 44 95 46.6696 95 50.1607V57.1429C95 58.375 94.2 59.1964 93 59.1964C91.8 59.1964 91 58.375 91 57.1429V50.1607C91 48.9286 90.2 48.1071 89 48.1071C87.8 48.1071 87 48.9286 87 50.1607V64.9464C87 65.9732 86.2 67 85 67Z" fill="#F3F3F3"/>
<path d="M93 59C91.8 59 91 58.193 91 56.9825V42.0526C91 38.6228 93.6 36 97 36C100.4 36 103 38.6228 103 42.0526V56.579C103 57.7895 102.2 58.5965 101 58.5965C99.8 58.5965 99 57.7895 99 56.579V42.0526C99 40.8421 98.2 40.0351 97 40.0351C95.8 40.0351 95 40.8421 95 42.0526V56.9825C95 58.193 94.2 59 93 59Z" fill="#F3F3F3"/>
<path d="M109 71C107.8 71 107 70.1789 107 68.9474V38.1579C107 36.9263 106.2 36.1053 105 36.1053C103.8 36.1053 103 36.9263 103 38.1579V57.0421C103 58.2737 102.2 59.0947 101 59.0947C99.8 59.0947 99 58.2737 99 57.0421V38.1579C99 34.6684 101.6 32 105 32C108.4 32 111 34.6684 111 38.1579V68.9474C111 70.1789 110.2 71 109 71Z" fill="#F3F3F3"/>
<path d="M43.9 52.875H75.1V28.125H43.9V52.875ZM77.05 57H41.95C40.78 57 40 56.175 40 54.9375V26.0625C40 24.825 40.78 24 41.95 24H77.05C78.22 24 79 24.825 79 26.0625V54.9375C79 56.175 78.22 57 77.05 57Z" fill="#F3F3F3"/>
<path d="M40.6751 24H78.3249L59.5 4.8L40.6751 24ZM83.0311 28H35.9689C35.1845 28 34.4001 27.6 34.204 26.8C33.8119 26 34.0079 25.2 34.5962 24.6L58.1273 0.6C58.9117 -0.2 60.0883 -0.2 60.8727 0.6L84.4038 24.6C84.9921 25.2 85.1881 26 84.796 26.8C84.5999 27.6 83.8155 28 83.0311 28Z" fill="#F3F3F3"/>
<path d="M57.6667 52.75H61.3333V44.25H57.6667V52.75ZM63.1667 57H55.8333C54.7333 57 54 56.15 54 54.875V42.125C54 40.85 54.7333 40 55.8333 40H63.1667C64.2667 40 65 40.85 65 42.125V54.875C65 56.15 64.2667 57 63.1667 57Z" fill="#F3F3F3"/>
<path d="M44 8V15.2L48 11.2V8H44ZM42 22C41.8 22 41.4 22 41.2 21.8C40.4 21.6 40 20.8 40 20V6C40 4.8 40.8 4 42 4H50C51.2 4 52 4.8 52 6V12C52 12.6 51.8 13 51.4 13.4L43.4 21.4C43 21.8 42.6 22 42 22Z" fill="#F3F3F3"/>
</svg>
