<svg width="20" height="16" viewBox="0 0 20 16" fill="none" xmlns="http://www.w3.org/2000/svg">
<path fill-rule="evenodd" clip-rule="evenodd" d="M6.21118 12.5311C4.09938 12.4077 2.73292 10.9277 2.36025 9.69431C2.98137 9.81765 3.47826 9.81765 4.09938 9.69431C2.98137 9.44764 2.1118 8.83095 1.49068 7.84425C1.11801 7.22756 0.869566 6.48754 0.869566 5.74752C1.49068 5.99419 1.98758 6.24087 2.73292 6.24087C1.86336 5.62418 1.24224 4.76082 0.993788 3.77412C0.745341 2.78742 0.869566 1.80072 1.49068 0.814027C3.72671 3.40411 6.45963 4.76082 9.93789 5.00749C9.93789 4.88416 9.93789 4.76082 9.81367 4.51414C9.68944 3.52745 9.93789 2.66409 10.4348 1.92406C11.0559 0.937363 12.0497 0.320677 13.1677 0.0740024C14.5342 -0.172672 15.7764 0.197339 16.7702 1.18404C16.8944 1.30737 16.8944 1.30738 17.0186 1.30738C17.8882 1.18404 18.6335 0.814026 19.3789 0.444014C19.1304 1.30738 18.5093 1.92406 17.764 2.54075C18.5093 2.41741 19.2547 2.29407 20 1.92406C19.8758 2.17074 19.7516 2.29407 19.5031 2.54075C19.1304 3.0341 18.6335 3.52745 18.0124 3.89746L17.8882 4.02079C17.8882 4.63748 17.8882 5.25417 17.764 5.87085C17.6398 7.10423 17.2671 8.3376 16.7702 9.44764C16.2733 10.681 15.528 11.6677 14.5342 12.6544C12.9193 14.2578 11.0559 15.2445 8.9441 15.7378C8.19876 15.8612 7.45342 15.9845 6.70808 15.9845C4.34783 16.1078 2.23602 15.4912 0.124222 14.2578C0.124222 14.2578 0.124224 14.2578 0 14.1345C1.36646 14.2578 2.73292 14.1345 4.09938 13.5178C4.96894 13.3944 5.59006 13.0244 6.21118 12.5311Z" fill="white"/>
</svg>
