<svg width="17" height="16" viewBox="0 0 17 16" fill="none" xmlns="http://www.w3.org/2000/svg">
<path d="M13.3503 9.43722L15.7008 7.15307C17.4327 5.47001 17.4327 2.8252 15.7008 1.26236C13.9688 -0.420704 11.2472 -0.420704 9.63894 1.26236L6.29873 4.50826C4.56677 6.19132 4.56677 8.83613 6.29873 10.399C6.54615 10.6394 6.79358 10.8798 7.16471 11.0001L8.89666 9.317C8.52553 9.19678 8.27811 9.07656 8.03069 8.83613C7.28842 8.11482 7.28842 6.91263 8.03069 6.19132L11.3709 2.94542C12.1132 2.2241 13.3503 2.2241 14.0925 2.94542C14.8348 3.66673 14.8348 4.86891 14.0925 5.59022L13.1029 6.55197C13.474 7.51372 13.5977 8.47547 13.3503 9.43722Z" fill="white"/>
<path d="M3.64949 6.56285L1.29897 8.847C-0.43299 10.5301 -0.43299 13.1749 1.29897 14.7377C3.03093 16.4208 5.75258 16.4208 7.36083 14.7377L10.701 11.4918C12.433 9.80875 12.433 7.16394 10.701 5.6011C10.4536 5.36066 10.2062 5.12023 9.83506 5.00001L8.10309 6.68307C8.47423 6.80329 8.72166 6.92351 8.96908 7.16394C9.71135 7.88525 9.71135 9.08744 8.96908 9.80875L5.62887 13.0547C4.8866 13.776 3.64948 13.776 2.90721 13.0547C2.16494 12.3333 2.16494 11.1312 2.90721 10.4098L3.89691 9.4481C3.64948 8.60657 3.52578 7.5246 3.64949 6.56285Z" fill="white"/>
</svg>
