<svg width="18" height="13" viewBox="0 0 18 13" fill="none" xmlns="http://www.w3.org/2000/svg">
<path d="M16.2 0H1.8C0.84 0 0 0.866667 0 1.85714V11.1429C0 12.1333 0.84 13 1.8 13H16.2C17.16 13 18 12.1333 18 11.1429V1.85714C18 0.742857 17.16 0 16.2 0ZM15.72 9.78095C15.96 10.0286 15.96 10.5238 15.72 10.7714C15.48 11.019 15 11.019 14.76 10.7714L11.4 7.55238L10.44 8.54286C9.6 9.40952 8.28 9.40952 7.44 8.54286L6.47999 7.55238L3.11999 10.7714C2.87999 11.019 2.4 11.019 2.16 10.7714C1.92 10.5238 1.92 10.0286 2.16 9.78095L5.51999 6.68571L2.16 3.21905C1.92 2.97143 1.92 2.47619 2.16 2.22857C2.28 2.10476 2.39999 1.98095 2.51999 1.98095C2.75999 1.98095 2.88 1.98095 3 2.22857L8.27999 7.67619C8.51999 7.92381 9.12 7.92381 9.36 7.67619L14.64 2.22857C14.88 1.98095 15.36 1.98095 15.6 2.22857C15.84 2.47619 15.84 2.97143 15.6 3.21905L12.24 6.68571L15.72 9.78095Z" fill="white"/>
</svg>
