<svg width="18" height="18" viewBox="0 0 18 18" fill="none" xmlns="http://www.w3.org/2000/svg">
<path fill-rule="evenodd" clip-rule="evenodd" d="M0.000488281 18.0001C0.122823 17.6352 0.245163 17.2703 0.245163 16.9054C0.489832 15.8107 0.856833 14.716 1.1015 13.6214C1.1015 13.4997 1.1015 13.2565 1.1015 13.1348C-1.71219 7.90472 1.22384 1.57992 6.97357 0.241988C12.234 -0.974319 17.005 2.55297 17.8613 7.29657C18.7177 12.1618 15.537 16.9054 10.6436 17.7568C8.68625 18.1217 6.85123 17.7568 5.01621 16.9054C4.89387 16.7838 4.6492 16.7838 4.40453 16.9054C1.95784 17.5135 0.489827 17.8784 0.000488281 18.0001ZM2.08018 15.9323C2.93653 15.6891 3.79287 15.4458 4.64921 15.3242C4.89388 15.2026 5.01621 15.3242 5.26088 15.4458C6.85123 16.2972 8.44158 16.6621 10.2766 16.4189C14.3136 15.8107 17.1273 12.0402 16.5157 7.90472C15.904 3.76928 11.9893 0.971771 7.82991 1.70156C2.81419 2.6746 0.122821 8.14798 2.56951 12.6483C2.81418 13.1348 2.93653 13.4997 2.69186 14.1079C2.32485 14.5944 2.20252 15.3242 2.08018 15.9323Z" fill="white"/>
<path fill-rule="evenodd" clip-rule="evenodd" d="M10.9082 13.0001C9.20729 12.8841 6.41297 11.6088 4.4691 8.47832C3.74015 7.3189 3.86164 6.04354 4.83358 5.23194C5.19806 4.88412 5.56252 5.00006 5.927 5.116C6.04849 5.116 6.16999 5.23195 6.16999 5.34789C6.41297 5.9276 6.65596 6.39137 6.89894 6.97108C7.02043 7.3189 6.77745 7.55079 6.29148 8.01455C6.16999 8.1305 6.16999 8.36238 6.29148 8.47832C7.02043 9.63774 7.99237 10.5653 9.32878 11.029C9.57177 11.145 9.69326 11.029 9.81475 10.9131C10.5437 10.1015 10.5437 9.86963 11.0297 9.98557C12.8521 10.7972 12.9735 10.7972 12.9735 11.029C13.2165 12.5363 11.7586 13.0001 10.9082 13.0001Z" fill="white"/>
</svg>
