<svg width="10" height="20" viewBox="0 0 10 20" fill="none" xmlns="http://www.w3.org/2000/svg">
<path fill-rule="evenodd" clip-rule="evenodd" d="M7.92683 3.3121C8.53658 3.3121 9.14634 3.3121 9.7561 3.3121C9.87805 3.3121 9.87805 3.3121 10 3.3121V0.127389C9.63415 0.127389 9.39024 0 9.02439 0C8.41463 0 7.80488 0 7.19512 0C6.21951 0 5.36585 0.254777 4.63415 0.89172C3.78049 1.52866 3.29268 2.42038 3.04878 3.56688C2.92683 4.07643 2.92683 4.4586 2.92683 4.96815C2.92683 5.73248 2.92683 6.36943 2.92683 7.13376V7.38854H0V10.9554H2.92683V20H6.46341V10.9554H9.39024C9.5122 9.80892 9.63415 8.53503 9.87805 7.38854C9.63415 7.38854 9.39024 7.38854 9.26829 7.38854C8.41463 7.38854 6.58537 7.38854 6.58537 7.38854C6.58537 7.38854 6.58537 5.6051 6.58537 4.84076C6.46341 3.69427 7.07317 3.3121 7.92683 3.3121Z" fill="white"/>
</svg>
