<svg width="41" height="50" viewBox="0 0 41 50" fill="none" xmlns="http://www.w3.org/2000/svg">
<path d="M20.5 36C29.0587 36 36 29.0587 36 20.5C36 11.9413 29.0587 5 20.5 5C11.9413 5 5 11.9413 5 20.5C5 29.0587 11.9413 36 20.5 36ZM20.5 7.08913C27.913 7.08913 33.9109 13.087 33.9109 20.5C33.9109 27.913 27.913 33.9109 20.5 33.9109C13.087 33.9109 7.08913 27.913 7.08913 20.5C7.08913 13.087 13.087 7.08913 20.5 7.08913Z" fill="#EA5F32"/>
<path d="M41 20.4027C41 9.12752 31.7586 0 20.4934 0C17.1206 0 13.7479 0.805369 10.7798 2.41611C10.2402 2.68456 10.1052 3.28859 10.3751 3.8255C10.6449 4.36242 11.252 4.49664 11.7916 4.22819C20.7633 -0.604027 31.8935 2.75168 36.7503 11.6779C41.6071 20.604 38.2343 31.6779 29.2627 36.5101C20.2911 41.3423 9.16087 37.9866 4.30405 29.0604C0.593981 22.2148 1.60582 13.8926 6.79991 8.12081C7.20465 7.71812 7.13719 7.04698 6.73246 6.6443C6.32772 6.24161 5.65317 6.30873 5.24843 6.71141C-2.30662 15.1007 -1.63206 27.9866 6.79991 35.5705C8.21649 36.8456 9.83542 37.9195 11.5218 38.7248V48.9933C11.5218 49.5973 11.994 50 12.6011 50C12.6686 50 12.8035 50 12.8709 49.9329L20.4934 47.3826L28.0485 49.9329C28.5881 50.0671 29.1952 49.7987 29.3301 49.2617C29.3301 49.1946 29.3976 49.0604 29.3976 48.9933V38.7248C36.4805 35.302 40.9325 28.1879 41 20.4027ZM27.3739 47.5168L20.8307 45.302C20.6284 45.2349 20.3585 45.2349 20.1562 45.302L13.6129 47.5168V39.5973C18.065 41.2081 22.9218 41.2081 27.3739 39.5973V47.5168Z" fill="#EA5F32"/>
<path d="M10.37 18.2025L14.4221 22.3105L13.6666 27.8531C13.5979 28.3747 14.01 28.8964 14.5594 28.9616C14.7655 28.9616 14.9715 28.9616 15.1776 28.8964L20.5345 26.4837L25.8915 28.8964C26.4409 29.1572 27.059 28.8964 27.3338 28.4399C27.4024 28.2443 27.4711 28.0487 27.4024 27.8531L26.647 22.3105L30.699 18.2025C31.1111 17.8112 31.1111 17.1592 30.6304 16.7679C30.493 16.6375 30.287 16.5723 30.1496 16.5071L24.3119 15.4638L21.4274 10.5081C21.1526 10.0516 20.4658 9.856 19.9851 10.1168C19.7791 10.182 19.6417 10.3124 19.573 10.5081L16.6885 15.3986L10.8508 16.5071C10.3013 16.6375 9.88926 17.1592 10.0266 17.6808C10.0953 17.9416 10.164 18.0721 10.37 18.2025ZM17.65 17.3548C17.9247 17.2896 18.1994 17.094 18.4055 16.8331L20.5345 13.1163L22.7323 16.8331C22.8696 17.094 23.1443 17.2896 23.4877 17.3548L27.8832 18.1373L24.7926 21.2672C24.5866 21.4628 24.4492 21.7888 24.5179 22.0497L25.0673 26.2881L20.9466 24.5275C20.6719 24.3971 20.3285 24.3971 20.0538 24.5275L16.0017 26.3533L16.5511 22.1149C16.6198 21.7888 16.4825 21.528 16.2764 21.3324L13.1859 18.2025L17.65 17.3548Z" fill="#EA5F32"/>
</svg>
