<svg width="32" height="38" viewBox="0 0 32 38" fill="none" xmlns="http://www.w3.org/2000/svg">
<path d="M15.9579 0.0158407C15.7895 0.0158407 15.6211 0.0580754 15.4526 0.142555L0.715789 7.28107C0.294737 7.49227 0 7.91468 0 8.42155V14.1239C0 24.7684 6.35789 33.8922 15.4947 37.905C15.8316 38.0317 16.2105 38.0317 16.5053 37.905C25.6421 33.8499 32 24.7261 32 14.1239V8.42155C32 7.95692 31.7053 7.49227 31.2842 7.28107L16.5474 0.142555C16.4211 0.0158356 16.1684 -0.0263991 15.9579 0.0158407ZM16.0421 2.67695L29.5158 9.18187V14.0817C29.5158 23.5012 24 31.5268 16.0421 35.2861C8.08421 31.5268 2.56842 23.5012 2.56842 14.0817V9.18187L16.0421 2.67695ZM23.4947 12.6455C23.2 12.6878 22.9474 12.8145 22.7368 12.9835L13.9368 21.4314L10.1895 17.6721C9.72632 17.1652 8.92632 17.0807 8.42105 17.5454C7.91579 18.01 7.83158 18.8125 8.29474 19.3194C8.33684 19.3617 8.37895 19.4039 8.42105 19.4462L13.0526 24.0926C13.5158 24.5994 14.3158 24.5994 14.8211 24.1348L24.5053 14.842C25.0105 14.3774 25.0526 13.5748 24.5895 13.0679C24.2947 12.7723 23.9158 12.6033 23.4947 12.6455Z" fill="#EA5F32"/>
</svg>
