<svg width="52" height="40" viewBox="0 0 52 40" fill="none" xmlns="http://www.w3.org/2000/svg">
<mask id="path-1-outside-1" maskUnits="userSpaceOnUse" x="0" y="0" width="52" height="40" fill="black">
<rect fill="white" width="52" height="40"/>
<path d="M50.688 14.6108L37.4275 1.23602C37.1154 0.921325 36.6474 0.921325 36.3354 1.23602L31.4992 6.11387L30.6412 6.90062C29.5491 7.9234 28.4571 8.00207 27.209 8.15942C26.507 8.2381 25.805 8.31677 24.947 8.5528C24.3229 8.71015 23.7769 8.94617 23.3089 9.10352L15.5866 1.3147C15.2746 1 14.8066 1 14.4945 1.3147L1.23401 14.6894C0.921997 15.0041 0.921997 15.4762 1.23401 15.7909L6.0702 20.6687C6.22621 20.8261 6.38222 20.9048 6.61622 20.9048C6.85023 20.9048 7.00624 20.8261 7.16225 20.6687L7.70827 20.118L9.50234 21.9275C9.34633 22.0062 9.19033 22.1636 9.03432 22.3209L8.95632 22.3996C8.4103 22.9503 8.09828 23.7371 8.09828 24.5238C8.09828 25.3106 8.4103 26.0973 8.95632 26.648C9.50234 27.1988 10.2824 27.5135 11.0624 27.5135C11.1404 27.5135 11.1404 27.5135 11.2184 27.5135C11.2184 27.5921 11.2184 27.6708 11.2184 27.6708C11.2184 28.4576 11.5304 29.2443 12.0764 29.795C12.6225 30.3458 13.4025 30.6605 14.1825 30.6605C14.2605 30.6605 14.2605 30.6605 14.3385 30.6605C14.3385 30.7391 14.3385 30.7391 14.3385 30.8178C14.3385 31.6046 14.6505 32.3913 15.1966 32.942C15.7426 33.4928 16.5226 33.8075 17.3027 33.8075C17.3807 33.8075 17.3807 33.8075 17.4587 33.8075C17.4587 33.8861 17.4587 33.8861 17.4587 33.9648C17.4587 34.7516 17.7707 35.5383 18.3167 36.089C18.8627 36.6398 19.6427 36.9545 20.4228 36.9545C21.2028 36.9545 21.9828 36.6398 22.5289 36.089L22.7629 35.853C22.8409 35.7743 22.9969 35.617 23.0749 35.4596L25.727 38.1346C26.273 38.6853 27.053 39 27.8331 39C28.6131 39 29.3151 38.6853 29.9392 38.1346C30.5632 37.5052 30.7972 36.7184 30.7972 35.9317C30.8752 35.9317 30.8752 35.9317 30.9532 35.9317C31.7332 35.9317 32.4353 35.617 33.0593 35.0663C33.6053 34.5155 33.9173 33.7288 33.9173 32.942C33.9173 32.8634 33.9173 32.8634 33.9173 32.7847C33.9953 32.7847 33.9953 32.7847 34.0733 32.7847C34.8534 32.7847 35.5554 32.47 36.1794 31.9193C36.8034 31.2899 37.0374 30.5031 37.0374 29.7164C37.1154 29.7164 37.1154 29.7164 37.1934 29.7164C37.9735 29.7164 38.6755 29.4017 39.2995 28.8509C40.4696 27.6708 40.4696 25.8613 39.2995 24.6812L44.2917 19.646L45.0718 20.4327C45.2278 20.5901 45.3838 20.6687 45.6178 20.6687C45.8518 20.6687 46.0078 20.5901 46.1638 20.4327L51 15.5549C51 15.3975 51 14.9255 50.688 14.6108ZM2.87207 15.1615L15.0406 2.8882L18.7847 6.6646L6.61622 18.9379L2.87207 15.1615ZM10.0484 25.4679C9.81435 25.2319 9.65835 24.8385 9.65835 24.4451C9.65835 24.0518 9.81435 23.6584 10.0484 23.4224L10.1264 23.3437C10.3604 23.1077 10.7504 22.9503 11.1404 22.9503C11.5304 22.9503 11.9204 23.1077 12.1544 23.3437C12.3885 23.5797 12.5445 23.9731 12.5445 24.3665C12.5445 24.7598 12.3885 25.1532 12.1544 25.3892L12.0764 25.4679C11.5304 26.0186 10.5944 26.0186 10.0484 25.4679ZM13.1685 28.6936C12.9345 28.4576 12.7785 28.0642 12.7785 27.6708C12.7785 27.2774 12.9345 26.8841 13.1685 26.648L13.2465 26.5694L14.7285 25.0745C15.0406 24.7598 15.3526 24.6812 15.7426 24.6812C16.1326 24.6812 16.4446 24.8385 16.7566 25.0745C16.9906 25.3106 17.1466 25.7039 17.1466 26.0973C17.1466 26.4907 16.9906 26.8841 16.7566 27.1201L15.1186 28.7723C14.5725 29.2443 13.7145 29.2443 13.1685 28.6936ZM16.2886 31.8406C16.0546 31.6046 15.8986 31.2112 15.8986 30.8178C15.8986 30.4244 16.0546 30.0311 16.2886 29.795L17.3027 28.7723C17.5367 28.5362 17.9267 28.3789 18.3167 28.3789C18.7067 28.3789 19.0967 28.5362 19.3307 28.7723C19.8768 29.323 19.8768 30.2671 19.3307 30.8178L18.5507 31.6046L18.3167 31.8406C17.7707 32.3913 16.8346 32.3913 16.2886 31.8406ZM21.5928 34.7516L21.3588 34.9876C20.8128 35.5383 19.8768 35.5383 19.3307 34.9876C19.0967 34.7516 18.9407 34.3582 18.9407 33.9648C18.9407 33.5714 19.0967 33.1781 19.3307 32.942L19.5647 32.706C19.8768 32.3913 20.1888 32.3126 20.5788 32.3126C20.9688 32.3126 21.2808 32.47 21.5928 32.706C21.8268 32.942 21.9828 33.3354 21.9828 33.7288C22.0608 34.1222 21.9048 34.5155 21.5928 34.7516ZM37.8955 27.8282C37.3495 28.3789 36.4914 28.3789 35.9454 27.8282L33.1373 24.9959C32.8253 24.6812 32.3573 24.6812 32.0452 24.9959C31.7332 25.3106 31.7332 25.7826 32.0452 26.0973L34.8534 28.9296C35.3994 29.4803 35.3994 30.3458 34.8534 30.8965C34.3073 31.4472 33.4493 31.4472 32.9033 30.8965L30.0952 28.0642C29.7832 27.7495 29.3151 27.7495 29.0031 28.0642C28.6911 28.3789 28.6911 28.8509 29.0031 29.1656L31.8112 31.9979C32.0452 32.234 32.2012 32.6273 32.2012 32.942C32.2012 33.3354 32.0452 33.6501 31.8112 33.8861C31.2652 34.4369 30.4072 34.4369 29.8612 33.8861L27.053 31.0538C26.897 30.8965 26.663 30.8178 26.507 30.8178C26.273 30.8178 26.117 30.8965 25.961 31.0538C25.649 31.3685 25.649 31.8406 25.961 32.1553L28.7691 34.9876C29.3151 35.5383 29.3151 36.4037 28.7691 36.9545C28.2231 37.5052 27.3651 37.5052 26.819 36.9545L23.6209 33.8075V33.7288C23.6209 32.942 23.3089 32.1553 22.7629 31.6046C22.2949 31.1325 21.7488 30.8965 21.1248 30.7391C21.4368 29.7164 21.2808 28.4576 20.4228 27.6708C19.9548 27.1988 19.3307 26.9627 18.7067 26.8841C18.7847 26.5694 18.8627 26.3333 18.8627 26.0186C18.8627 25.2319 18.5507 24.4451 18.0047 23.8944C16.9126 22.793 15.2746 22.7143 14.1045 23.5797C13.9485 23.1077 13.7145 22.6356 13.3245 22.2422C12.7785 21.6915 11.9984 21.3768 11.2964 21.3768L8.80031 18.8592L19.8768 7.76605L21.9048 9.81159C20.6568 10.5197 19.8768 11.3851 18.9407 12.3292C18.7847 12.4865 18.5507 12.7226 18.3167 12.9586L17.3807 13.9027C16.8346 14.4534 16.5226 15.2402 16.5226 16.0269C16.5226 16.8137 16.8346 17.6004 17.3807 18.1511C17.9267 18.7019 18.7067 19.0166 19.4867 19.0166C20.2668 19.0166 21.0468 18.7019 21.5928 18.1511L24.0109 15.7122C24.6349 15.0828 25.571 15.5549 27.5991 16.735C28.3791 17.207 29.3151 17.7578 30.3292 18.2298L37.8955 25.8613C38.4415 26.412 38.4415 27.3561 37.8955 27.8282ZM37.8955 23.6584L33.6833 19.3313C34.3853 19.4886 35.0874 19.5673 35.7894 19.5673C36.0234 19.5673 36.2574 19.5673 36.4914 19.5673C36.9594 19.5673 37.2715 19.1739 37.1934 18.7019C37.1934 18.2298 36.8034 17.9151 36.3354 17.9938C33.0593 18.2298 30.4852 16.6563 28.3791 15.3975C26.351 14.2174 24.4789 13.0373 22.9189 14.6108L20.5008 17.0497C20.1888 17.3644 19.8768 17.4431 19.4867 17.4431C19.0967 17.4431 18.7067 17.2857 18.4727 17.0497C18.2387 16.8137 18.0827 16.4203 18.0827 16.0269C18.0827 15.6335 18.2387 15.2402 18.4727 15.0041L19.4087 14.06C19.6427 13.824 19.7988 13.6667 20.0328 13.4306C21.5148 11.9358 22.6069 10.8344 25.415 9.96894C26.117 9.81159 26.741 9.73292 27.3651 9.65424C28.7691 9.49689 30.2512 9.33954 31.7332 8.00207L32.0452 7.68737L42.8877 18.6232L37.8955 23.6584ZM45.3058 18.9379L44.5257 18.1511L33.1373 6.6646L36.8814 2.8882L49.0499 15.1615L45.3058 18.9379Z"/>
</mask>
<path d="M50.688 14.6108L37.4275 1.23602C37.1154 0.921325 36.6474 0.921325 36.3354 1.23602L31.4992 6.11387L30.6412 6.90062C29.5491 7.9234 28.4571 8.00207 27.209 8.15942C26.507 8.2381 25.805 8.31677 24.947 8.5528C24.3229 8.71015 23.7769 8.94617 23.3089 9.10352L15.5866 1.3147C15.2746 1 14.8066 1 14.4945 1.3147L1.23401 14.6894C0.921997 15.0041 0.921997 15.4762 1.23401 15.7909L6.0702 20.6687C6.22621 20.8261 6.38222 20.9048 6.61622 20.9048C6.85023 20.9048 7.00624 20.8261 7.16225 20.6687L7.70827 20.118L9.50234 21.9275C9.34633 22.0062 9.19033 22.1636 9.03432 22.3209L8.95632 22.3996C8.4103 22.9503 8.09828 23.7371 8.09828 24.5238C8.09828 25.3106 8.4103 26.0973 8.95632 26.648C9.50234 27.1988 10.2824 27.5135 11.0624 27.5135C11.1404 27.5135 11.1404 27.5135 11.2184 27.5135C11.2184 27.5921 11.2184 27.6708 11.2184 27.6708C11.2184 28.4576 11.5304 29.2443 12.0764 29.795C12.6225 30.3458 13.4025 30.6605 14.1825 30.6605C14.2605 30.6605 14.2605 30.6605 14.3385 30.6605C14.3385 30.7391 14.3385 30.7391 14.3385 30.8178C14.3385 31.6046 14.6505 32.3913 15.1966 32.942C15.7426 33.4928 16.5226 33.8075 17.3027 33.8075C17.3807 33.8075 17.3807 33.8075 17.4587 33.8075C17.4587 33.8861 17.4587 33.8861 17.4587 33.9648C17.4587 34.7516 17.7707 35.5383 18.3167 36.089C18.8627 36.6398 19.6427 36.9545 20.4228 36.9545C21.2028 36.9545 21.9828 36.6398 22.5289 36.089L22.7629 35.853C22.8409 35.7743 22.9969 35.617 23.0749 35.4596L25.727 38.1346C26.273 38.6853 27.053 39 27.8331 39C28.6131 39 29.3151 38.6853 29.9392 38.1346C30.5632 37.5052 30.7972 36.7184 30.7972 35.9317C30.8752 35.9317 30.8752 35.9317 30.9532 35.9317C31.7332 35.9317 32.4353 35.617 33.0593 35.0663C33.6053 34.5155 33.9173 33.7288 33.9173 32.942C33.9173 32.8634 33.9173 32.8634 33.9173 32.7847C33.9953 32.7847 33.9953 32.7847 34.0733 32.7847C34.8534 32.7847 35.5554 32.47 36.1794 31.9193C36.8034 31.2899 37.0374 30.5031 37.0374 29.7164C37.1154 29.7164 37.1154 29.7164 37.1934 29.7164C37.9735 29.7164 38.6755 29.4017 39.2995 28.8509C40.4696 27.6708 40.4696 25.8613 39.2995 24.6812L44.2917 19.646L45.0718 20.4327C45.2278 20.5901 45.3838 20.6687 45.6178 20.6687C45.8518 20.6687 46.0078 20.5901 46.1638 20.4327L51 15.5549C51 15.3975 51 14.9255 50.688 14.6108ZM2.87207 15.1615L15.0406 2.8882L18.7847 6.6646L6.61622 18.9379L2.87207 15.1615ZM10.0484 25.4679C9.81435 25.2319 9.65835 24.8385 9.65835 24.4451C9.65835 24.0518 9.81435 23.6584 10.0484 23.4224L10.1264 23.3437C10.3604 23.1077 10.7504 22.9503 11.1404 22.9503C11.5304 22.9503 11.9204 23.1077 12.1544 23.3437C12.3885 23.5797 12.5445 23.9731 12.5445 24.3665C12.5445 24.7598 12.3885 25.1532 12.1544 25.3892L12.0764 25.4679C11.5304 26.0186 10.5944 26.0186 10.0484 25.4679ZM13.1685 28.6936C12.9345 28.4576 12.7785 28.0642 12.7785 27.6708C12.7785 27.2774 12.9345 26.8841 13.1685 26.648L13.2465 26.5694L14.7285 25.0745C15.0406 24.7598 15.3526 24.6812 15.7426 24.6812C16.1326 24.6812 16.4446 24.8385 16.7566 25.0745C16.9906 25.3106 17.1466 25.7039 17.1466 26.0973C17.1466 26.4907 16.9906 26.8841 16.7566 27.1201L15.1186 28.7723C14.5725 29.2443 13.7145 29.2443 13.1685 28.6936ZM16.2886 31.8406C16.0546 31.6046 15.8986 31.2112 15.8986 30.8178C15.8986 30.4244 16.0546 30.0311 16.2886 29.795L17.3027 28.7723C17.5367 28.5362 17.9267 28.3789 18.3167 28.3789C18.7067 28.3789 19.0967 28.5362 19.3307 28.7723C19.8768 29.323 19.8768 30.2671 19.3307 30.8178L18.5507 31.6046L18.3167 31.8406C17.7707 32.3913 16.8346 32.3913 16.2886 31.8406ZM21.5928 34.7516L21.3588 34.9876C20.8128 35.5383 19.8768 35.5383 19.3307 34.9876C19.0967 34.7516 18.9407 34.3582 18.9407 33.9648C18.9407 33.5714 19.0967 33.1781 19.3307 32.942L19.5647 32.706C19.8768 32.3913 20.1888 32.3126 20.5788 32.3126C20.9688 32.3126 21.2808 32.47 21.5928 32.706C21.8268 32.942 21.9828 33.3354 21.9828 33.7288C22.0608 34.1222 21.9048 34.5155 21.5928 34.7516ZM37.8955 27.8282C37.3495 28.3789 36.4914 28.3789 35.9454 27.8282L33.1373 24.9959C32.8253 24.6812 32.3573 24.6812 32.0452 24.9959C31.7332 25.3106 31.7332 25.7826 32.0452 26.0973L34.8534 28.9296C35.3994 29.4803 35.3994 30.3458 34.8534 30.8965C34.3073 31.4472 33.4493 31.4472 32.9033 30.8965L30.0952 28.0642C29.7832 27.7495 29.3151 27.7495 29.0031 28.0642C28.6911 28.3789 28.6911 28.8509 29.0031 29.1656L31.8112 31.9979C32.0452 32.234 32.2012 32.6273 32.2012 32.942C32.2012 33.3354 32.0452 33.6501 31.8112 33.8861C31.2652 34.4369 30.4072 34.4369 29.8612 33.8861L27.053 31.0538C26.897 30.8965 26.663 30.8178 26.507 30.8178C26.273 30.8178 26.117 30.8965 25.961 31.0538C25.649 31.3685 25.649 31.8406 25.961 32.1553L28.7691 34.9876C29.3151 35.5383 29.3151 36.4037 28.7691 36.9545C28.2231 37.5052 27.3651 37.5052 26.819 36.9545L23.6209 33.8075V33.7288C23.6209 32.942 23.3089 32.1553 22.7629 31.6046C22.2949 31.1325 21.7488 30.8965 21.1248 30.7391C21.4368 29.7164 21.2808 28.4576 20.4228 27.6708C19.9548 27.1988 19.3307 26.9627 18.7067 26.8841C18.7847 26.5694 18.8627 26.3333 18.8627 26.0186C18.8627 25.2319 18.5507 24.4451 18.0047 23.8944C16.9126 22.793 15.2746 22.7143 14.1045 23.5797C13.9485 23.1077 13.7145 22.6356 13.3245 22.2422C12.7785 21.6915 11.9984 21.3768 11.2964 21.3768L8.80031 18.8592L19.8768 7.76605L21.9048 9.81159C20.6568 10.5197 19.8768 11.3851 18.9407 12.3292C18.7847 12.4865 18.5507 12.7226 18.3167 12.9586L17.3807 13.9027C16.8346 14.4534 16.5226 15.2402 16.5226 16.0269C16.5226 16.8137 16.8346 17.6004 17.3807 18.1511C17.9267 18.7019 18.7067 19.0166 19.4867 19.0166C20.2668 19.0166 21.0468 18.7019 21.5928 18.1511L24.0109 15.7122C24.6349 15.0828 25.571 15.5549 27.5991 16.735C28.3791 17.207 29.3151 17.7578 30.3292 18.2298L37.8955 25.8613C38.4415 26.412 38.4415 27.3561 37.8955 27.8282ZM37.8955 23.6584L33.6833 19.3313C34.3853 19.4886 35.0874 19.5673 35.7894 19.5673C36.0234 19.5673 36.2574 19.5673 36.4914 19.5673C36.9594 19.5673 37.2715 19.1739 37.1934 18.7019C37.1934 18.2298 36.8034 17.9151 36.3354 17.9938C33.0593 18.2298 30.4852 16.6563 28.3791 15.3975C26.351 14.2174 24.4789 13.0373 22.9189 14.6108L20.5008 17.0497C20.1888 17.3644 19.8768 17.4431 19.4867 17.4431C19.0967 17.4431 18.7067 17.2857 18.4727 17.0497C18.2387 16.8137 18.0827 16.4203 18.0827 16.0269C18.0827 15.6335 18.2387 15.2402 18.4727 15.0041L19.4087 14.06C19.6427 13.824 19.7988 13.6667 20.0328 13.4306C21.5148 11.9358 22.6069 10.8344 25.415 9.96894C26.117 9.81159 26.741 9.73292 27.3651 9.65424C28.7691 9.49689 30.2512 9.33954 31.7332 8.00207L32.0452 7.68737L42.8877 18.6232L37.8955 23.6584ZM45.3058 18.9379L44.5257 18.1511L33.1373 6.6646L36.8814 2.8882L49.0499 15.1615L45.3058 18.9379Z" fill="#EA5F32"/>
<path d="M50.688 14.6108L37.4275 1.23602C37.1154 0.921325 36.6474 0.921325 36.3354 1.23602L31.4992 6.11387L30.6412 6.90062C29.5491 7.9234 28.4571 8.00207 27.209 8.15942C26.507 8.2381 25.805 8.31677 24.947 8.5528C24.3229 8.71015 23.7769 8.94617 23.3089 9.10352L15.5866 1.3147C15.2746 1 14.8066 1 14.4945 1.3147L1.23401 14.6894C0.921997 15.0041 0.921997 15.4762 1.23401 15.7909L6.0702 20.6687C6.22621 20.8261 6.38222 20.9048 6.61622 20.9048C6.85023 20.9048 7.00624 20.8261 7.16225 20.6687L7.70827 20.118L9.50234 21.9275C9.34633 22.0062 9.19033 22.1636 9.03432 22.3209L8.95632 22.3996C8.4103 22.9503 8.09828 23.7371 8.09828 24.5238C8.09828 25.3106 8.4103 26.0973 8.95632 26.648C9.50234 27.1988 10.2824 27.5135 11.0624 27.5135C11.1404 27.5135 11.1404 27.5135 11.2184 27.5135C11.2184 27.5921 11.2184 27.6708 11.2184 27.6708C11.2184 28.4576 11.5304 29.2443 12.0764 29.795C12.6225 30.3458 13.4025 30.6605 14.1825 30.6605C14.2605 30.6605 14.2605 30.6605 14.3385 30.6605C14.3385 30.7391 14.3385 30.7391 14.3385 30.8178C14.3385 31.6046 14.6505 32.3913 15.1966 32.942C15.7426 33.4928 16.5226 33.8075 17.3027 33.8075C17.3807 33.8075 17.3807 33.8075 17.4587 33.8075C17.4587 33.8861 17.4587 33.8861 17.4587 33.9648C17.4587 34.7516 17.7707 35.5383 18.3167 36.089C18.8627 36.6398 19.6427 36.9545 20.4228 36.9545C21.2028 36.9545 21.9828 36.6398 22.5289 36.089L22.7629 35.853C22.8409 35.7743 22.9969 35.617 23.0749 35.4596L25.727 38.1346C26.273 38.6853 27.053 39 27.8331 39C28.6131 39 29.3151 38.6853 29.9392 38.1346C30.5632 37.5052 30.7972 36.7184 30.7972 35.9317C30.8752 35.9317 30.8752 35.9317 30.9532 35.9317C31.7332 35.9317 32.4353 35.617 33.0593 35.0663C33.6053 34.5155 33.9173 33.7288 33.9173 32.942C33.9173 32.8634 33.9173 32.8634 33.9173 32.7847C33.9953 32.7847 33.9953 32.7847 34.0733 32.7847C34.8534 32.7847 35.5554 32.47 36.1794 31.9193C36.8034 31.2899 37.0374 30.5031 37.0374 29.7164C37.1154 29.7164 37.1154 29.7164 37.1934 29.7164C37.9735 29.7164 38.6755 29.4017 39.2995 28.8509C40.4696 27.6708 40.4696 25.8613 39.2995 24.6812L44.2917 19.646L45.0718 20.4327C45.2278 20.5901 45.3838 20.6687 45.6178 20.6687C45.8518 20.6687 46.0078 20.5901 46.1638 20.4327L51 15.5549C51 15.3975 51 14.9255 50.688 14.6108ZM2.87207 15.1615L15.0406 2.8882L18.7847 6.6646L6.61622 18.9379L2.87207 15.1615ZM10.0484 25.4679C9.81435 25.2319 9.65835 24.8385 9.65835 24.4451C9.65835 24.0518 9.81435 23.6584 10.0484 23.4224L10.1264 23.3437C10.3604 23.1077 10.7504 22.9503 11.1404 22.9503C11.5304 22.9503 11.9204 23.1077 12.1544 23.3437C12.3885 23.5797 12.5445 23.9731 12.5445 24.3665C12.5445 24.7598 12.3885 25.1532 12.1544 25.3892L12.0764 25.4679C11.5304 26.0186 10.5944 26.0186 10.0484 25.4679ZM13.1685 28.6936C12.9345 28.4576 12.7785 28.0642 12.7785 27.6708C12.7785 27.2774 12.9345 26.8841 13.1685 26.648L13.2465 26.5694L14.7285 25.0745C15.0406 24.7598 15.3526 24.6812 15.7426 24.6812C16.1326 24.6812 16.4446 24.8385 16.7566 25.0745C16.9906 25.3106 17.1466 25.7039 17.1466 26.0973C17.1466 26.4907 16.9906 26.8841 16.7566 27.1201L15.1186 28.7723C14.5725 29.2443 13.7145 29.2443 13.1685 28.6936ZM16.2886 31.8406C16.0546 31.6046 15.8986 31.2112 15.8986 30.8178C15.8986 30.4244 16.0546 30.0311 16.2886 29.795L17.3027 28.7723C17.5367 28.5362 17.9267 28.3789 18.3167 28.3789C18.7067 28.3789 19.0967 28.5362 19.3307 28.7723C19.8768 29.323 19.8768 30.2671 19.3307 30.8178L18.5507 31.6046L18.3167 31.8406C17.7707 32.3913 16.8346 32.3913 16.2886 31.8406ZM21.5928 34.7516L21.3588 34.9876C20.8128 35.5383 19.8768 35.5383 19.3307 34.9876C19.0967 34.7516 18.9407 34.3582 18.9407 33.9648C18.9407 33.5714 19.0967 33.1781 19.3307 32.942L19.5647 32.706C19.8768 32.3913 20.1888 32.3126 20.5788 32.3126C20.9688 32.3126 21.2808 32.47 21.5928 32.706C21.8268 32.942 21.9828 33.3354 21.9828 33.7288C22.0608 34.1222 21.9048 34.5155 21.5928 34.7516ZM37.8955 27.8282C37.3495 28.3789 36.4914 28.3789 35.9454 27.8282L33.1373 24.9959C32.8253 24.6812 32.3573 24.6812 32.0452 24.9959C31.7332 25.3106 31.7332 25.7826 32.0452 26.0973L34.8534 28.9296C35.3994 29.4803 35.3994 30.3458 34.8534 30.8965C34.3073 31.4472 33.4493 31.4472 32.9033 30.8965L30.0952 28.0642C29.7832 27.7495 29.3151 27.7495 29.0031 28.0642C28.6911 28.3789 28.6911 28.8509 29.0031 29.1656L31.8112 31.9979C32.0452 32.234 32.2012 32.6273 32.2012 32.942C32.2012 33.3354 32.0452 33.6501 31.8112 33.8861C31.2652 34.4369 30.4072 34.4369 29.8612 33.8861L27.053 31.0538C26.897 30.8965 26.663 30.8178 26.507 30.8178C26.273 30.8178 26.117 30.8965 25.961 31.0538C25.649 31.3685 25.649 31.8406 25.961 32.1553L28.7691 34.9876C29.3151 35.5383 29.3151 36.4037 28.7691 36.9545C28.2231 37.5052 27.3651 37.5052 26.819 36.9545L23.6209 33.8075V33.7288C23.6209 32.942 23.3089 32.1553 22.7629 31.6046C22.2949 31.1325 21.7488 30.8965 21.1248 30.7391C21.4368 29.7164 21.2808 28.4576 20.4228 27.6708C19.9548 27.1988 19.3307 26.9627 18.7067 26.8841C18.7847 26.5694 18.8627 26.3333 18.8627 26.0186C18.8627 25.2319 18.5507 24.4451 18.0047 23.8944C16.9126 22.793 15.2746 22.7143 14.1045 23.5797C13.9485 23.1077 13.7145 22.6356 13.3245 22.2422C12.7785 21.6915 11.9984 21.3768 11.2964 21.3768L8.80031 18.8592L19.8768 7.76605L21.9048 9.81159C20.6568 10.5197 19.8768 11.3851 18.9407 12.3292C18.7847 12.4865 18.5507 12.7226 18.3167 12.9586L17.3807 13.9027C16.8346 14.4534 16.5226 15.2402 16.5226 16.0269C16.5226 16.8137 16.8346 17.6004 17.3807 18.1511C17.9267 18.7019 18.7067 19.0166 19.4867 19.0166C20.2668 19.0166 21.0468 18.7019 21.5928 18.1511L24.0109 15.7122C24.6349 15.0828 25.571 15.5549 27.5991 16.735C28.3791 17.207 29.3151 17.7578 30.3292 18.2298L37.8955 25.8613C38.4415 26.412 38.4415 27.3561 37.8955 27.8282ZM37.8955 23.6584L33.6833 19.3313C34.3853 19.4886 35.0874 19.5673 35.7894 19.5673C36.0234 19.5673 36.2574 19.5673 36.4914 19.5673C36.9594 19.5673 37.2715 19.1739 37.1934 18.7019C37.1934 18.2298 36.8034 17.9151 36.3354 17.9938C33.0593 18.2298 30.4852 16.6563 28.3791 15.3975C26.351 14.2174 24.4789 13.0373 22.9189 14.6108L20.5008 17.0497C20.1888 17.3644 19.8768 17.4431 19.4867 17.4431C19.0967 17.4431 18.7067 17.2857 18.4727 17.0497C18.2387 16.8137 18.0827 16.4203 18.0827 16.0269C18.0827 15.6335 18.2387 15.2402 18.4727 15.0041L19.4087 14.06C19.6427 13.824 19.7988 13.6667 20.0328 13.4306C21.5148 11.9358 22.6069 10.8344 25.415 9.96894C26.117 9.81159 26.741 9.73292 27.3651 9.65424C28.7691 9.49689 30.2512 9.33954 31.7332 8.00207L32.0452 7.68737L42.8877 18.6232L37.8955 23.6584ZM45.3058 18.9379L44.5257 18.1511L33.1373 6.6646L36.8814 2.8882L49.0499 15.1615L45.3058 18.9379Z" stroke="#EA5F32" stroke-width="0.5" mask="url(#path-1-outside-1)"/>
</svg>
