<svg width="36" height="33" viewBox="0 0 36 33" fill="none" xmlns="http://www.w3.org/2000/svg">
<path d="M35.4548 12.8705C34.2909 11.9968 33.1271 11.1193 31.9633 10.2455C31.35 9.78409 30.7404 9.32264 30.1271 8.86119C28.6566 7.75673 27.1861 6.64849 25.7156 5.54403C24.1676 4.37906 22.6232 3.21408 21.0752 2.05289C20.2512 1.43258 19.4384 0.785791 18.596 0.188174C18.585 0.180609 18.5702 0.169262 18.5591 0.161697C18.2709 -0.053899 17.7278 -0.053899 17.4396 0.161697C16.7598 0.676102 16.0763 1.18672 15.3965 1.70113C13.889 2.83585 12.3853 3.96678 10.8779 5.1015C9.3557 6.24756 7.8335 7.39362 6.315 8.5359C5.57237 9.0957 4.82975 9.65171 4.08712 10.2115C2.94917 11.0663 1.81491 11.9211 0.676953 12.776C0.632617 12.81 0.591976 12.8403 0.54764 12.8743C0.307488 13.0559 0.11906 13.2488 0.0377779 13.5513C-0.0361153 13.8237 -0.00286335 14.183 0.148618 14.4251C0.44419 14.8979 1.16465 15.208 1.66343 14.8336C2.82724 13.9598 3.99106 13.0823 5.15488 12.2086C5.76819 11.7472 6.37781 11.2857 6.99112 10.8242C8.46159 9.71979 9.93207 8.61155 11.4025 7.50709C12.9506 6.34212 14.495 5.17714 16.043 4.01595C16.8669 3.39564 17.713 2.79424 18.5221 2.15123C18.5332 2.14367 18.548 2.13232 18.5591 2.12476C18.1859 2.12476 17.8128 2.12476 17.4396 2.12476C18.1194 2.63916 18.8029 3.14978 19.4828 3.66419C20.9902 4.7989 22.4939 5.92984 24.0013 7.06455C25.5235 8.21062 27.0457 9.35668 28.5642 10.499C29.3068 11.0588 30.0495 11.6148 30.7921 12.1746C31.9301 13.0294 33.0643 13.8842 34.2023 14.739C34.2466 14.7731 34.2872 14.8033 34.3316 14.8374C34.5496 15 34.9375 15.0227 35.185 14.9508C35.4437 14.879 35.7208 14.6747 35.8464 14.4289C35.9831 14.1641 36.0496 13.8464 35.9572 13.5551C35.8686 13.2525 35.6986 13.0559 35.4548 12.8705Z" fill="#EA5F32"/>
<path d="M30.6986 11.2257C30.6986 11.8629 30.6986 12.5038 30.6986 13.141C30.6986 14.6733 30.6986 16.2018 30.6986 17.7341C30.6986 19.566 30.6986 21.3979 30.6986 23.2298C30.6986 24.8152 30.6986 26.4006 30.6986 27.9859C30.6986 28.7331 30.7062 29.4803 30.6986 30.2275C30.6986 30.3033 30.6948 30.3792 30.6833 30.455C30.6986 30.3526 30.7101 30.254 30.7254 30.1516C30.7062 30.2882 30.6718 30.4171 30.622 30.5461C30.6603 30.455 30.6986 30.364 30.7369 30.273C30.6986 30.364 30.6526 30.455 30.599 30.5385C30.5301 30.6409 30.4535 30.6561 30.6603 30.4664C30.6258 30.5006 30.5952 30.5423 30.5607 30.5764C30.5454 30.5916 30.4573 30.6826 30.4497 30.675C30.4497 30.675 30.7292 30.4816 30.5224 30.6143C30.4382 30.6674 30.3463 30.713 30.2544 30.7509C30.3463 30.713 30.4382 30.675 30.5301 30.6371C30.3999 30.6864 30.2697 30.7205 30.1319 30.7395C30.2352 30.7243 30.3348 30.713 30.4382 30.6978C30.1663 30.7281 29.8829 30.713 29.6072 30.713C29.0214 30.713 28.4316 30.713 27.8458 30.713C25.8966 30.713 23.9475 30.713 21.9984 30.713C19.6204 30.713 17.2424 30.713 14.8606 30.713C12.8196 30.713 10.7786 30.713 8.74139 30.713C7.76492 30.713 6.78845 30.7167 5.81198 30.713C5.73157 30.713 5.65115 30.7092 5.57074 30.6978C5.67413 30.713 5.77369 30.7243 5.87708 30.7395C5.73922 30.7205 5.60903 30.6864 5.47883 30.6371C5.57074 30.675 5.66264 30.713 5.75454 30.7509C5.66264 30.713 5.57074 30.6674 5.48649 30.6143C5.3831 30.5461 5.36778 30.4702 5.55925 30.675C5.52478 30.6409 5.48266 30.6106 5.4482 30.5764C5.43288 30.5612 5.34098 30.474 5.34864 30.4664C5.34864 30.4664 5.54393 30.7433 5.4099 30.5385C5.35629 30.455 5.31034 30.364 5.27205 30.273C5.31034 30.364 5.34864 30.455 5.38693 30.5461C5.33715 30.4171 5.30268 30.2882 5.28354 30.1516C5.29886 30.254 5.31034 30.3526 5.32566 30.455C5.29886 30.2351 5.31034 30.0037 5.31034 29.7837C5.31034 29.3324 5.31034 28.8773 5.31034 28.4259C5.31034 26.9126 5.31034 25.3993 5.31034 23.8822C5.31034 22.0503 5.31034 20.2183 5.31034 18.3864C5.31034 16.7859 5.31034 15.1853 5.31034 13.5886C5.31034 12.8111 5.33332 12.0297 5.31034 11.256C5.31034 11.2446 5.31034 11.2333 5.31034 11.2257C5.11888 11.5518 4.93124 11.8818 4.73978 12.208C5.19929 11.8742 5.65498 11.5405 6.1145 11.2067C7.21733 10.4064 8.31634 9.60236 9.41918 8.80209C10.7556 7.82734 12.0959 6.8526 13.4323 5.87786C14.5811 5.04344 15.7299 4.20524 16.8748 3.37083C17.4377 2.96121 18.0121 2.57055 18.5597 2.14197C18.5674 2.13438 18.575 2.13059 18.5827 2.1268C18.1959 2.1268 17.8092 2.1268 17.4224 2.1268C17.8819 2.46056 18.3376 2.79433 18.7971 3.12809C19.9 3.92837 20.999 4.73244 22.1018 5.53271C23.4382 6.50746 24.7785 7.4822 26.1149 8.45694C27.2637 9.29135 28.4125 10.1296 29.5575 10.964C30.1165 11.3736 30.668 11.8022 31.2424 12.1928C31.25 12.1966 31.2577 12.2042 31.2653 12.208C31.4913 12.3711 31.8933 12.3938 32.1499 12.3218C32.4179 12.2497 32.7051 12.0449 32.8353 11.7984C32.977 11.5329 33.0459 11.2143 32.9502 10.9222C32.8545 10.6226 32.6745 10.4254 32.4218 10.2433C31.9623 9.90958 31.5066 9.57581 31.0471 9.24205C29.9442 8.44177 28.8452 7.6377 27.7424 6.83743C26.4059 5.86268 25.0657 4.88794 23.7293 3.9132C22.5805 3.07879 21.4317 2.24058 20.2867 1.40617C19.7277 0.996552 19.1762 0.567968 18.6018 0.177312C18.5942 0.173519 18.5865 0.165934 18.5789 0.162141C18.2802 -0.0540471 17.7173 -0.0540471 17.4186 0.162141C16.7676 0.636238 16.1205 1.10654 15.4695 1.58064C14.0067 2.64641 12.5439 3.71218 11.0811 4.77795C9.53023 5.9082 7.97936 7.03465 6.4285 8.1649C5.51713 8.82864 4.60958 9.48858 3.69821 10.1523C3.53738 10.2699 3.37272 10.3799 3.25018 10.5392C3.05489 10.7895 3.00511 11.0664 3.00511 11.3622C3.00511 11.7263 3.00511 12.0904 3.00511 12.4545C3.00511 13.9641 3.00511 15.4774 3.00511 16.9869C3.00511 18.9591 3.00511 20.9314 3.00511 22.9036C3.00511 24.618 3.00511 26.3285 3.00511 28.0428C3.00511 28.7786 2.99362 29.5182 3.00511 30.254C3.02808 31.7825 4.28026 32.9924 5.81581 33C6.06089 33 6.30596 33 6.55104 33C7.78024 33 9.00562 33 10.2348 33C12.0691 33 13.9033 33 15.7375 33C17.7364 33 19.7391 33 21.738 33C23.465 33 25.1959 33 26.9229 33C27.9262 33 28.9295 33 29.9327 33C30.5071 33 31.0547 32.9317 31.5755 32.6549C32.4562 32.1846 32.9847 31.2326 33 30.254C33 30.2009 33 30.144 33 30.0909C33 29.0403 33 27.9897 33 26.9391C33 25.0996 33 23.2601 33 21.4207C33 19.4939 33 17.571 33 15.6443C33 14.3585 33 13.069 33 11.7832C33 11.5974 33 11.4115 33 11.2257C33 10.6302 32.4716 10.0613 31.8512 10.0878C31.227 10.1182 30.6986 10.5885 30.6986 11.2257Z" fill="#EA5F32"/>
<path d="M18.4997 16.7543C18.3428 16.7543 18.1895 16.7431 18.0325 16.7207C18.1334 16.7356 18.2306 16.7468 18.3315 16.7618C18.0475 16.7207 17.7709 16.6459 17.5055 16.5376C17.5952 16.575 17.6849 16.6123 17.7746 16.6497C17.5765 16.5675 17.3859 16.4666 17.2065 16.3508C17.1654 16.3246 17.1243 16.2947 17.0869 16.2686C16.9262 16.1602 17.3186 16.4629 17.1392 16.3097C17.0607 16.2387 16.9785 16.1714 16.9037 16.0967C16.8327 16.0257 16.7692 15.9547 16.7056 15.88C16.5449 15.6894 16.7916 16.007 16.743 15.9323C16.7131 15.8837 16.6757 15.8389 16.6458 15.7903C16.5262 15.6109 16.429 15.4204 16.3468 15.2223C16.3842 15.312 16.4216 15.4017 16.4589 15.4914C16.3505 15.2261 16.2758 14.9496 16.2347 14.6656C16.2496 14.7665 16.2608 14.8636 16.2758 14.9645C16.2347 14.6544 16.2347 14.3405 16.2758 14.0304C16.2608 14.1312 16.2496 14.2284 16.2347 14.3293C16.2758 14.0453 16.3505 13.7688 16.4589 13.5035C16.4216 13.5932 16.3842 13.6829 16.3468 13.7725C16.429 13.5745 16.53 13.3839 16.6458 13.2046C16.672 13.1635 16.7019 13.1224 16.7281 13.085C16.8364 12.9243 16.5337 13.3167 16.6869 13.1373C16.758 13.0589 16.8252 12.9766 16.9 12.9019C16.971 12.8309 17.042 12.7674 17.1168 12.7039C17.3074 12.5432 16.9897 12.7898 17.0644 12.7412C17.113 12.7114 17.1579 12.674 17.2065 12.6441C17.3859 12.5245 17.5765 12.4274 17.7746 12.3452C17.6849 12.3825 17.5952 12.4199 17.5055 12.4573C17.7709 12.3489 18.0475 12.2742 18.3315 12.2331C18.2306 12.248 18.1334 12.2592 18.0325 12.2742C18.3428 12.2331 18.6567 12.2331 18.967 12.2742C18.866 12.2592 18.7689 12.248 18.6679 12.2331C18.952 12.2742 19.2286 12.3489 19.494 12.4573C19.4043 12.4199 19.3146 12.3825 19.2249 12.3452C19.423 12.4274 19.6136 12.5283 19.793 12.6441C19.8341 12.6703 19.8752 12.7001 19.9126 12.7263C20.0733 12.8347 19.6809 12.532 19.8603 12.6852C19.9388 12.7562 20.021 12.8235 20.0958 12.8982C20.1668 12.9692 20.2303 13.0402 20.2939 13.1149C20.4546 13.3055 20.2079 12.9879 20.2565 13.0626C20.2864 13.1112 20.3238 13.156 20.3537 13.2046C20.4733 13.3839 20.5704 13.5745 20.6527 13.7725C20.6153 13.6829 20.5779 13.5932 20.5405 13.5035C20.6489 13.7688 20.7237 14.0453 20.7648 14.3293C20.7499 14.2284 20.7386 14.1312 20.7237 14.0304C20.7424 14.1873 20.7536 14.3405 20.7573 14.4974C20.7611 15.0841 21.2694 15.6446 21.8787 15.6184C22.4842 15.5922 23.0037 15.1252 23 14.4974C22.9888 13.1 22.3421 11.7884 21.2358 10.9365C20.1257 10.0808 18.6418 9.78189 17.285 10.163C15.9581 10.5367 14.8816 11.5119 14.3471 12.7749C13.8014 14.0677 13.9023 15.5922 14.6274 16.7991C15.4385 18.1555 16.9224 18.9888 18.496 19C19.0828 19.0037 19.6435 18.4806 19.6173 17.879C19.5949 17.2662 19.1314 16.758 18.4997 16.7543Z" fill="#EA5F32"/>
<path d="M18.5003 19.2457C18.6572 19.2457 18.8105 19.2569 18.9675 19.2793C18.8666 19.2644 18.7694 19.2532 18.6685 19.2382C18.9525 19.2793 19.2291 19.3541 19.4945 19.4624C19.4048 19.425 19.3151 19.3877 19.2254 19.3503C19.4235 19.4325 19.6141 19.5334 19.7935 19.6492C19.8346 19.6754 19.8757 19.7053 19.9131 19.7314C20.0738 19.8398 19.6814 19.5371 19.8608 19.6903C19.9393 19.7613 20.0215 19.8286 20.0963 19.9033C20.1673 19.9743 20.2308 20.0453 20.2944 20.12C20.4551 20.3106 20.2084 19.993 20.257 20.0677C20.2869 20.1163 20.3243 20.1611 20.3542 20.2097C20.4738 20.3891 20.571 20.5796 20.6532 20.7777C20.6158 20.688 20.5784 20.5983 20.5411 20.5086C20.6495 20.7739 20.7242 21.0504 20.7653 21.3344C20.7504 21.2335 20.7392 21.1364 20.7242 21.0355C20.7653 21.3456 20.7653 21.6595 20.7242 21.9696C20.7392 21.8688 20.7504 21.7716 20.7653 21.6707C20.7242 21.9547 20.6495 22.2312 20.5411 22.4965C20.5784 22.4068 20.6158 22.3171 20.6532 22.2275C20.571 22.4255 20.47 22.6161 20.3542 22.7954C20.328 22.8365 20.2981 22.8776 20.2719 22.915C20.1636 23.0757 20.4663 22.6833 20.3131 22.8627C20.242 22.9411 20.1748 23.0234 20.1 23.0981C20.029 23.1691 19.958 23.2326 19.8832 23.2961C19.6926 23.4568 20.0103 23.2102 19.9356 23.2588C19.887 23.2886 19.8421 23.326 19.7935 23.3559C19.6141 23.4755 19.4235 23.5726 19.2254 23.6548C19.3151 23.6175 19.4048 23.5801 19.4945 23.5427C19.2291 23.6511 18.9525 23.7258 18.6685 23.7669C18.7694 23.752 18.8666 23.7408 18.9675 23.7258C18.6572 23.7669 18.3433 23.7669 18.033 23.7258C18.134 23.7408 18.2311 23.752 18.3321 23.7669C18.048 23.7258 17.7714 23.6511 17.506 23.5427C17.5957 23.5801 17.6854 23.6175 17.7751 23.6548C17.577 23.5726 17.3864 23.4717 17.207 23.3559C17.1659 23.3297 17.1248 23.2999 17.0874 23.2737C16.9267 23.1653 17.3191 23.468 17.1397 23.3148C17.0612 23.2438 16.979 23.1765 16.9042 23.1018C16.8332 23.0308 16.7697 22.9598 16.7061 22.8851C16.5454 22.6945 16.7921 23.0121 16.7435 22.9374C16.7136 22.8888 16.6762 22.844 16.6463 22.7954C16.5267 22.6161 16.4296 22.4255 16.3473 22.2275C16.3847 22.3171 16.4221 22.4068 16.4595 22.4965C16.3511 22.2312 16.2763 21.9547 16.2352 21.6707C16.2501 21.7716 16.2614 21.8688 16.2763 21.9696C16.2576 21.8127 16.2464 21.6595 16.2427 21.5026C16.2389 20.9159 15.7306 20.3554 15.1213 20.3816C14.5158 20.4078 13.9963 20.8748 14 21.5026C14.0112 22.9 14.6579 24.2116 15.7642 25.0635C16.8743 25.9192 18.3582 26.2181 19.715 25.837C21.0419 25.4633 22.1184 24.4881 22.6529 23.2251C23.1986 21.9323 23.0977 20.4078 22.3726 19.2009C21.5615 17.8445 20.0776 17.0112 18.504 17C17.9172 16.9963 17.3565 17.5194 17.3827 18.121C17.4088 18.7375 17.8723 19.242 18.5003 19.2457Z" fill="#EA5F32"/>
<path d="M17.0069 10.0669C17.0069 10.5928 17.0069 11.1223 17.0069 11.6482C17.0069 12.9097 17.0069 14.1676 17.0069 15.4291C17.0069 16.9606 17.0069 18.4886 17.0069 20.0201C17.0069 21.3385 17.0069 22.6568 17.0069 23.9752C17.0069 24.6183 16.9936 25.2615 17.0069 25.9047C17.0069 25.9154 17.0069 25.9225 17.0069 25.9331C17.0069 26.491 17.4642 27.024 18.001 26.9992C18.5411 26.9743 18.9951 26.5301 18.9951 25.9331C18.9951 25.4072 18.9951 24.8777 18.9951 24.3518C18.9951 23.0903 18.9951 21.8324 18.9951 20.5709C18.9951 19.0394 18.9951 17.5114 18.9951 15.9799C18.9951 14.6615 18.9951 13.3432 18.9951 12.0248C18.9951 11.3817 19.0083 10.7385 18.9951 10.0953C18.9951 10.0846 18.9951 10.0775 18.9951 10.0669C18.9951 9.50898 18.5378 8.97596 18.001 9.00084C17.4608 9.02927 17.0069 9.4699 17.0069 10.0669Z" fill="#EA5F32"/>
</svg>
