<svg width="28" height="28" viewBox="0 0 28 28" fill="none" xmlns="http://www.w3.org/2000/svg">
<path d="M19.6112 28C16.3445 28 11.8743 26.5824 6.68207 21.223C0.939629 15.2759 -0.126333 10.4006 0.0112105 7.35789C0.114368 4.76466 1.14595 2.37889 2.76208 0.961253C3.79366 0.0622671 5.03155 -0.214344 6.33822 0.165996C8.71084 0.857524 10.9115 3.65821 11.4273 5.38703C12.0119 7.32331 10.7052 8.84467 9.63926 10.0894C9.15786 10.6426 8.43576 11.5071 8.50453 11.8182C8.67646 12.4752 10.9115 15.2067 14.7628 18.9064C16.1726 20.2549 16.6196 19.9091 17.548 18.941C17.7887 18.6989 17.995 18.4569 18.2013 18.2149C19.0266 17.2813 19.8863 16.3132 21.5712 16.1403C23.875 15.8983 26.6603 18.7681 27.5543 20.1166C28.7578 21.9146 27.348 24.6461 25.4224 26.2712C25.3536 26.2712 23.2217 28 19.6112 28ZM5.20348 2.0677C4.79085 2.0677 4.44699 2.206 4.10313 2.51719C2.89963 3.58906 2.10875 5.42161 2.03998 7.42704C1.93682 10.0548 2.89963 14.3423 8.16067 19.7708C16.1382 28.0346 22.362 26.0983 24.0813 24.6461C25.388 23.5396 26.2476 21.88 25.835 21.2576C24.8722 19.84 22.7403 18.1111 21.7775 18.2149C20.9178 18.284 20.5396 18.6989 19.7487 19.5979C19.5424 19.84 19.3017 20.1166 19.0266 20.3932C17.7543 21.7071 15.9319 22.9173 13.3186 20.4278C10.9459 18.1457 6.854 14.0311 6.47576 12.3369C6.16629 10.9884 7.12909 9.84739 8.05751 8.77552C9.0547 7.6345 9.67365 6.80467 9.43295 6.04398C9.0547 4.83381 7.33541 2.6555 5.75366 2.206C5.58173 2.10227 5.37541 2.0677 5.20348 2.0677Z" fill="#EA5F32"/>
</svg>
