<svg width="80" height="80" viewBox="0 0 80 80" fill="none" xmlns="http://www.w3.org/2000/svg">
<path d="M80 0H0V80H80V0Z" fill="#30BF39"/>
<path fill-rule="evenodd" clip-rule="evenodd" d="M19.7 60.4999C19.9 59.5999 20.0999 58.7999 20.2999 58.0999C20.9999 55.5999 21.6999 53.1999 22.2999 50.6999C22.3999 50.2999 22.4 49.7999 22.2 49.4999C16 37.5999 22.4 23.1999 35.5 20.0999C47.4 17.2999 58.1 25.2999 60 36.0999C62 47.2999 54.6999 57.8999 43.5999 59.8999C39.1999 60.5999 34.9999 59.9999 30.9 57.9999C30.5 57.7999 30 57.7999 29.7 57.8999C24.3 59.1999 20.7 60.1999 19.7 60.4999ZM24.4 55.7999C26.4 55.2999 28.3 54.7999 30.1 54.2999C30.6 54.1999 31 54.1999 31.5 54.4999C35 56.4999 38.7 57.2999 42.7 56.5999C51.9 55.0999 58.1999 46.4999 56.7999 37.2999C55.3999 27.7999 46.5 21.3999 37 23.1999C25.6 25.2999 19.5999 37.9999 25.2999 47.9999C25.8999 49.0999 26.1 49.9999 25.7 51.1999C25.1 52.6999 24.8 54.1999 24.4 55.7999Z" fill="white"/>
<path fill-rule="evenodd" clip-rule="evenodd" d="M45.4 49.5999C41.4 49.4999 35.0999 46.2999 30.7999 38.7999C29.2999 36.0999 29.5 33.0999 31.7 30.9999C32.5 30.2999 33.3999 30.4999 34.2999 30.5999C34.4999 30.5999 34.7 30.9999 34.9 31.1999C35.5 32.4999 36 33.7999 36.5 35.1999C36.8 35.8999 36.2999 36.5999 35.2999 37.7999C34.9999 38.1999 34.9 38.4999 35.2 38.9999C36.9 41.7999 39.2 43.8999 42.2 44.9999C42.6 45.1999 42.9999 45.0999 43.2999 44.6999C44.8999 42.6999 45.1 42.0999 45.9 42.5999C50 44.5999 50.2999 44.5999 50.2999 45.0999C50.3999 48.4999 47.3 49.6999 45.4 49.5999Z" fill="white"/>
</svg>
