<svg width="62" height="62" viewBox="0 0 62 62" fill="none" xmlns="http://www.w3.org/2000/svg">
<path d="M31 62C48.1208 62 62 48.1208 62 31C62 13.8792 48.1208 0 31 0C13.8792 0 0 13.8792 0 31C0 48.1208 13.8792 62 31 62Z" fill="#30BF39"/>
<path d="M39.4001 33.8001C39.0001 33.6001 36.9 32.4001 36.5 32.3001C36.1 32.1001 35.8 32.1001 35.5 32.5001C35.2001 32.9001 34.3 33.9001 34.1 34.1001C33.8 34.4001 33.6 34.4001 33.2001 34.2001C32.8001 34.0001 31.4 33.5001 29.8 31.9001C28.6 30.7001 27.7 29.3001 27.5 28.8001C27.3 28.4001 27.5 28.1001 27.7 27.9001C27.9 27.7001 28.1 27.4001 28.4 27.2001C28.7 27.0001 28.7 26.8001 28.9 26.5001C29.1 26.2001 29 26.0001 28.9 25.7001C28.8 25.4001 28 23.3001 27.7 22.4001C27.4 21.5001 27 21.7001 26.8 21.6001C26.5 21.6001 26.3 21.5001 26 21.5001C25.6 21.5001 25.1 21.7001 24.8 22.0001C24.4 22.4001 23.2 23.4001 23.2 25.5001C23.2 27.6001 24.6 29.8001 24.8 30.0001C25 30.3001 27.6001 34.9001 31.9001 36.8001C36.2001 38.7001 36.2001 38.1001 37 38.1001C37.8 38.1001 39.6 37.1001 40 36.2001C40.4 35.2001 40.4 34.3001 40.3 34.2001C40.1 34.2001 39.8001 34.1001 39.4001 33.8001ZM31.4001 44.1001C28.6001 44.1001 26 43.3001 23.7 41.8001L18.3 43.5001L20.1 38.3001C18.4 35.9001 17.4 33.0001 17.4 30.0001C17.4 22.2001 23.7 15.9001 31.5 15.9001C39.3 15.9001 45.5 22.2001 45.5 30.0001C45.5 37.8001 39.2001 44.1001 31.4001 44.1001ZM31.4001 13.1001C22.1001 13.1001 14.5 20.7001 14.5 30.0001C14.5 33.1001 15.3 36.1001 16.9 38.7001L13.8 47.8001L23.2 44.8001C25.7 46.2001 28.5001 46.9001 31.4001 46.9001C40.7001 46.9001 48.3 39.3001 48.3 30.0001C48.3 20.7001 40.8001 13.1001 31.4001 13.1001Z" fill="white"/>
</svg>
