<svg width="31" height="31" viewBox="0 0 31 31" fill="none" xmlns="http://www.w3.org/2000/svg">
<path d="M30.0198 19.4662H0.980237C0.438901 19.4662 0 19.0344 0 18.5018C0 17.9692 0.438901 17.5374 0.980237 17.5374H30.0198C30.5611 17.5374 31 17.9692 31 18.5018C31 19.0344 30.5611 19.4662 30.0198 19.4662Z" fill="#EA5F32"/>
<path d="M3.88332 31C3.70908 31 3.53264 30.9544 3.3731 30.8585C2.91117 30.5807 2.7656 29.9871 3.04791 29.5326L4.77068 26.7589C5.05299 26.3044 5.65583 26.1609 6.11826 26.4389C6.58019 26.7167 6.72576 27.3103 6.44345 27.7648L4.72069 30.5385C4.53591 30.8358 4.21366 31 3.88332 31Z" fill="#EA5F32"/>
<path d="M27.1168 30.9995C26.7864 30.9995 26.4642 30.8353 26.2794 30.5378L24.5566 27.764C24.2743 27.3096 24.4199 26.7159 24.8818 26.4382C25.344 26.1602 25.9473 26.3036 26.2294 26.7581L27.9522 29.5319C28.2345 29.9864 28.0889 30.58 27.627 30.8577C27.4674 30.9537 27.291 30.9995 27.1168 30.9995Z" fill="#EA5F32"/>
<path d="M28.0582 19.5542C27.5169 19.5542 27.078 19.1224 27.078 18.5898V6.37807C27.078 3.92478 25.2552 1.92888 23.0144 1.92888C21.6237 1.92888 20.342 2.70356 19.5855 4.00121C19.3162 4.46318 18.7178 4.62328 18.2475 4.35781C17.778 4.09283 17.6155 3.50356 17.8851 3.04136C18.9952 1.13707 20.9128 0 23.0146 0C26.3364 0 29.0387 2.86125 29.0387 6.37807V18.5898C29.0384 19.1224 28.5995 19.5542 28.0582 19.5542Z" fill="#EA5F32"/>
<path d="M18.6809 10.3525C18.4302 10.3525 18.1792 10.2584 17.9878 10.0701C17.6051 9.69353 17.6051 9.0828 17.9876 8.70618C19.2673 7.44687 19.2673 5.39816 17.9874 4.13884C16.7077 2.88001 14.6256 2.87977 13.3457 4.13884C12.9629 4.51545 12.3424 4.51545 11.9594 4.13884C11.5766 3.76223 11.5766 3.1515 11.9594 2.77489C14.0034 0.763549 17.3296 0.76379 19.3737 2.77489C21.4177 4.78622 21.4179 8.0588 19.3741 10.0699C19.1828 10.2582 18.9318 10.3525 18.6809 10.3525Z" fill="#EA5F32"/>
<path d="M20.206 11.9238C19.9553 11.9238 19.7041 11.8296 19.513 11.6415L10.3627 2.63846C9.97994 2.26184 9.97994 1.65111 10.3627 1.2745C10.7455 0.897887 11.3662 0.897887 11.749 1.2745L20.8991 10.2773C21.2818 10.6539 21.2818 11.2646 20.8991 11.6413C20.7079 11.8296 20.457 11.9238 20.206 11.9238Z" fill="#EA5F32"/>
<path d="M22.1572 29.1778H8.84309C5.04393 29.1778 1.953 26.1369 1.953 22.399V18.5227C1.953 17.9901 2.3919 17.5583 2.93324 17.5583C3.47457 17.5583 3.91347 17.9901 3.91347 18.5227V22.399C3.91347 25.0734 6.12489 27.2489 8.84309 27.2489H22.1572C24.8754 27.2489 27.0868 25.0734 27.0868 22.399V18.5227C27.0868 17.9901 27.5257 17.5583 28.067 17.5583C28.6083 17.5583 29.0472 17.9901 29.0472 18.5227V22.399C29.0472 26.1367 25.9563 29.1778 22.1572 29.1778Z" fill="#EA5F32"/>
</svg>
