<svg width="32" height="33" viewBox="0 0 32 33" fill="none" xmlns="http://www.w3.org/2000/svg">
<path d="M28.8379 9.77451C28.8379 9.22222 28.3902 8.77451 27.8379 8.77451C27.2856 8.77451 26.8379 9.22222 26.8379 9.77451H28.8379ZM27.8379 22.1012V23.1012C28.3902 23.1012 28.8379 22.6535 28.8379 22.1012H27.8379ZM9.50413 22.1012H8.50413C8.50413 22.6535 8.95184 23.1012 9.50413 23.1012V22.1012ZM10.5041 9.77451C10.5041 9.22222 10.0564 8.77451 9.50413 8.77451C8.95184 8.77451 8.50413 9.22222 8.50413 9.77451H10.5041ZM29.6033 12.2013C30.0391 12.5405 30.6674 12.4621 31.0066 12.0263C31.3458 11.5904 31.2675 10.9621 30.8316 10.6229L29.6033 12.2013ZM18.671 2.42576L19.2852 1.63659C18.924 1.35548 18.418 1.35548 18.0568 1.63659L18.671 2.42576ZM6.51038 10.6229C6.07454 10.9621 5.9962 11.5904 6.33541 12.0263C6.67461 12.4621 7.30291 12.5405 7.73875 12.2013L6.51038 10.6229ZM31 30.1587L31.7142 30.8587C32.0953 30.4699 32.0953 29.8476 31.7142 29.4588L31 30.1587ZM5.87889 30.1587L5.16317 29.4604C4.78413 29.8488 4.78413 30.4687 5.16317 30.8571L5.87889 30.1587ZM6.95981 32.6984C7.34552 33.0937 7.97864 33.1014 8.37392 32.7157C8.7692 32.33 8.77697 31.6969 8.39126 31.3016L6.95981 32.6984ZM8.39126 29.0159C8.77697 28.6206 8.76921 27.9875 8.37392 27.6018C7.97864 27.216 7.34552 27.2238 6.95981 27.6191L8.39126 29.0159ZM29.9095 27.6175C29.523 27.2231 28.8898 27.2167 28.4954 27.6033C28.101 27.9899 28.0946 28.623 28.4812 29.0174L29.9095 27.6175ZM28.4812 31.3C28.0946 31.6945 28.101 32.3276 28.4954 32.7142C28.8898 33.1008 29.523 33.0944 29.9095 32.7L28.4812 31.3ZM2.80463 26.631L2.09046 27.331C2.27854 27.5229 2.53593 27.631 2.80463 27.631C3.07333 27.631 3.33073 27.5229 3.51881 27.331L2.80463 26.631ZM2.80463 1L3.51725 0.298452C3.32929 0.107518 3.07256 1.19209e-07 2.80463 0C2.5367 -1.19209e-07 2.27998 0.107518 2.09201 0.298451L2.80463 1ZM0.287379 2.13157C-0.100076 2.52514 -0.0951189 3.15828 0.298451 3.54574C0.692021 3.93319 1.32517 3.92823 1.71262 3.53466L0.287379 2.13157ZM3.89664 3.53466C4.2841 3.92823 4.91724 3.93319 5.31081 3.54574C5.70438 3.15828 5.70934 2.52514 5.32188 2.13157L3.89664 3.53466ZM5.32344 25.4897C5.71002 25.0953 5.70366 24.4622 5.30923 24.0756C4.9148 23.689 4.28167 23.6954 3.89509 24.0898L5.32344 25.4897ZM1.71417 24.0898C1.32759 23.6954 0.69446 23.689 0.300032 24.0756C-0.0943954 24.4622 -0.100756 25.0953 0.285826 25.4897L1.71417 24.0898ZM26.8379 9.77451V22.1012H28.8379V9.77451H26.8379ZM27.8379 21.1012H9.50413V23.1012H27.8379V21.1012ZM10.5041 22.1012V9.77451H8.50413V22.1012H10.5041ZM30.8316 10.6229L19.2852 1.63659L18.0568 3.21492L29.6033 12.2013L30.8316 10.6229ZM18.0568 1.63659L6.51038 10.6229L7.73875 12.2013L19.2852 3.21492L18.0568 1.63659ZM31 29.1587H5.87889V31.1587H31V29.1587ZM8.39126 31.3016L6.59462 29.4604L5.16317 30.8571L6.95981 32.6984L8.39126 31.3016ZM6.59462 30.8571L8.39126 29.0159L6.95981 27.6191L5.16317 29.4604L6.59462 30.8571ZM28.4812 29.0174L30.2858 30.8587L31.7142 29.4588L29.9095 27.6175L28.4812 29.0174ZM30.2858 29.4588L28.4812 31.3L29.9095 32.7L31.7142 30.8587L30.2858 29.4588ZM3.80463 26.631V1H1.80463V26.631H3.80463ZM1.71262 3.53466L3.51725 1.70155L2.09201 0.298451L0.287379 2.13157L1.71262 3.53466ZM2.09201 1.70155L3.89664 3.53466L5.32188 2.13157L3.51725 0.298452L2.09201 1.70155ZM3.89509 24.0898L2.09046 25.931L3.51881 27.331L5.32344 25.4897L3.89509 24.0898ZM3.51881 25.931L1.71417 24.0898L0.285826 25.4897L2.09046 27.331L3.51881 25.931Z" fill="#EA5F32"/>
</svg>
