<svg width="33" height="33" viewBox="0 0 33 33" fill="none" xmlns="http://www.w3.org/2000/svg">
<mask id="path-1-outside-1" maskUnits="userSpaceOnUse" x="0" y="0" width="33" height="33" fill="black">
<rect fill="white" width="33" height="33"/>
<path d="M31.2619 32H1.7381C1.54234 32 1.3546 31.9222 1.21618 31.7838C1.07776 31.6454 1 31.4577 1 31.2619V20.1905C1 19.9947 1.07776 19.807 1.21618 19.6686C1.3546 19.5301 1.54234 19.4524 1.7381 19.4524C1.93385 19.4524 2.12159 19.5301 2.26001 19.6686C2.39843 19.807 2.47619 19.9947 2.47619 20.1905V30.5238H30.5238V2.47619H2.47619V12.8095C2.47619 13.0053 2.39843 13.193 2.26001 13.3314C2.12159 13.4699 1.93385 13.5476 1.7381 13.5476C1.54234 13.5476 1.3546 13.4699 1.21618 13.3314C1.07776 13.193 1 13.0053 1 12.8095V1.7381C1 1.54234 1.07776 1.3546 1.21618 1.21618C1.3546 1.07776 1.54234 1 1.7381 1H31.2619C31.4577 1 31.6454 1.07776 31.7838 1.21618C31.9222 1.3546 32 1.54234 32 1.7381V31.2619C32 31.4577 31.9222 31.6454 31.7838 31.7838C31.6454 31.9222 31.4577 32 31.2619 32Z"/>
<path d="M31.2619 13.5476H16.5C16.3042 13.5476 16.1165 13.4699 15.9781 13.3314C15.8397 13.193 15.7619 13.0053 15.7619 12.8095V9.11905C15.7619 8.92329 15.8397 8.73556 15.9781 8.59714C16.1165 8.45872 16.3042 8.38095 16.5 8.38095C16.6958 8.38095 16.8835 8.45872 17.0219 8.59714C17.1603 8.73556 17.2381 8.92329 17.2381 9.11905V12.0714H31.2619C31.4577 12.0714 31.6454 12.1492 31.7838 12.2876C31.9222 12.426 32 12.6138 32 12.8095C32 13.0053 31.9222 13.193 31.7838 13.3314C31.6454 13.4699 31.4577 13.5476 31.2619 13.5476Z"/>
<path d="M16.5 6.16667C16.3042 6.16667 16.1165 6.0889 15.9781 5.95048C15.8397 5.81206 15.7619 5.62433 15.7619 5.42857V1.7381C15.7619 1.54234 15.8397 1.3546 15.9781 1.21618C16.1165 1.07776 16.3042 1 16.5 1C16.6958 1 16.8835 1.07776 17.0219 1.21618C17.1603 1.3546 17.2381 1.54234 17.2381 1.7381V5.42857C17.2381 5.62433 17.1603 5.81206 17.0219 5.95048C16.8835 6.0889 16.6958 6.16667 16.5 6.16667Z"/>
<path d="M31.2619 32H16.5C16.3042 32 16.1165 31.9222 15.9781 31.7838C15.8397 31.6454 15.7619 31.4577 15.7619 31.2619V19.4524C15.7619 19.2566 15.8397 19.0689 15.9781 18.9305C16.1165 18.792 16.3042 18.7143 16.5 18.7143H20.1905C20.3862 18.7143 20.574 18.792 20.7124 18.9305C20.8508 19.0689 20.9286 19.2566 20.9286 19.4524C20.9286 19.6481 20.8508 19.8359 20.7124 19.9743C20.574 20.1127 20.3862 20.1905 20.1905 20.1905H17.2381V30.5238H30.5238V20.1905H23.881C23.6852 20.1905 23.4975 20.1127 23.359 19.9743C23.2206 19.8359 23.1429 19.6481 23.1429 19.4524C23.1429 19.2566 23.2206 19.0689 23.359 18.9305C23.4975 18.792 23.6852 18.7143 23.881 18.7143H31.2619C31.4577 18.7143 31.6454 18.792 31.7838 18.9305C31.9222 19.0689 32 19.2566 32 19.4524V31.2619C32 31.4577 31.9222 31.6454 31.7838 31.7838C31.6454 31.9222 31.4577 32 31.2619 32Z"/>
</mask>
<path d="M31.2619 32H1.7381C1.54234 32 1.3546 31.9222 1.21618 31.7838C1.07776 31.6454 1 31.4577 1 31.2619V20.1905C1 19.9947 1.07776 19.807 1.21618 19.6686C1.3546 19.5301 1.54234 19.4524 1.7381 19.4524C1.93385 19.4524 2.12159 19.5301 2.26001 19.6686C2.39843 19.807 2.47619 19.9947 2.47619 20.1905V30.5238H30.5238V2.47619H2.47619V12.8095C2.47619 13.0053 2.39843 13.193 2.26001 13.3314C2.12159 13.4699 1.93385 13.5476 1.7381 13.5476C1.54234 13.5476 1.3546 13.4699 1.21618 13.3314C1.07776 13.193 1 13.0053 1 12.8095V1.7381C1 1.54234 1.07776 1.3546 1.21618 1.21618C1.3546 1.07776 1.54234 1 1.7381 1H31.2619C31.4577 1 31.6454 1.07776 31.7838 1.21618C31.9222 1.3546 32 1.54234 32 1.7381V31.2619C32 31.4577 31.9222 31.6454 31.7838 31.7838C31.6454 31.9222 31.4577 32 31.2619 32Z" fill="#EA5F32"/>
<path d="M31.2619 13.5476H16.5C16.3042 13.5476 16.1165 13.4699 15.9781 13.3314C15.8397 13.193 15.7619 13.0053 15.7619 12.8095V9.11905C15.7619 8.92329 15.8397 8.73556 15.9781 8.59714C16.1165 8.45872 16.3042 8.38095 16.5 8.38095C16.6958 8.38095 16.8835 8.45872 17.0219 8.59714C17.1603 8.73556 17.2381 8.92329 17.2381 9.11905V12.0714H31.2619C31.4577 12.0714 31.6454 12.1492 31.7838 12.2876C31.9222 12.426 32 12.6138 32 12.8095C32 13.0053 31.9222 13.193 31.7838 13.3314C31.6454 13.4699 31.4577 13.5476 31.2619 13.5476Z" fill="#EA5F32"/>
<path d="M16.5 6.16667C16.3042 6.16667 16.1165 6.0889 15.9781 5.95048C15.8397 5.81206 15.7619 5.62433 15.7619 5.42857V1.7381C15.7619 1.54234 15.8397 1.3546 15.9781 1.21618C16.1165 1.07776 16.3042 1 16.5 1C16.6958 1 16.8835 1.07776 17.0219 1.21618C17.1603 1.3546 17.2381 1.54234 17.2381 1.7381V5.42857C17.2381 5.62433 17.1603 5.81206 17.0219 5.95048C16.8835 6.0889 16.6958 6.16667 16.5 6.16667Z" fill="#EA5F32"/>
<path d="M31.2619 32H16.5C16.3042 32 16.1165 31.9222 15.9781 31.7838C15.8397 31.6454 15.7619 31.4577 15.7619 31.2619V19.4524C15.7619 19.2566 15.8397 19.0689 15.9781 18.9305C16.1165 18.792 16.3042 18.7143 16.5 18.7143H20.1905C20.3862 18.7143 20.574 18.792 20.7124 18.9305C20.8508 19.0689 20.9286 19.2566 20.9286 19.4524C20.9286 19.6481 20.8508 19.8359 20.7124 19.9743C20.574 20.1127 20.3862 20.1905 20.1905 20.1905H17.2381V30.5238H30.5238V20.1905H23.881C23.6852 20.1905 23.4975 20.1127 23.359 19.9743C23.2206 19.8359 23.1429 19.6481 23.1429 19.4524C23.1429 19.2566 23.2206 19.0689 23.359 18.9305C23.4975 18.792 23.6852 18.7143 23.881 18.7143H31.2619C31.4577 18.7143 31.6454 18.792 31.7838 18.9305C31.9222 19.0689 32 19.2566 32 19.4524V31.2619C32 31.4577 31.9222 31.6454 31.7838 31.7838C31.6454 31.9222 31.4577 32 31.2619 32Z" fill="#EA5F32"/>
<path d="M31.875 31.2619C31.875 31.4245 31.8104 31.5805 31.6954 31.6954L31.8722 31.8722C32.0341 31.7103 32.125 31.4908 32.125 31.2619H31.875ZM31.6954 31.6954C31.5805 31.8104 31.4245 31.875 31.2619 31.875V32.125C31.4908 32.125 31.7103 32.0341 31.8722 31.8722L31.6954 31.6954ZM2.47619 20.1905H2.22619H2.47619ZM2.47619 30.5238H2.22619V30.7738H2.47619V30.5238ZM30.5238 30.5238V30.7738H30.7738V30.5238H30.5238ZM30.5238 2.47619H30.7738V2.22619H30.5238V2.47619ZM2.47619 2.47619V2.22619H2.22619V2.47619H2.47619ZM1.7381 1V1.25V1ZM17.2381 12.0714H16.9881V12.3214H17.2381V12.0714ZM16.5 1V1.25V1ZM17.2381 20.1905V19.9405H16.9881V20.1905H17.2381ZM17.2381 30.5238H16.9881V30.7738H17.2381V30.5238ZM30.5238 20.1905H30.7738V19.9405H30.5238V20.1905ZM31.2619 31.75H1.7381V32.25H31.2619V31.75ZM1.7381 31.75C1.60864 31.75 1.4845 31.6986 1.39296 31.607L1.03941 31.9606C1.22471 32.1459 1.47604 32.25 1.7381 32.25V31.75ZM1.39296 31.607C1.30142 31.5155 1.25 31.3914 1.25 31.2619H0.75C0.75 31.524 0.854103 31.7753 1.03941 31.9606L1.39296 31.607ZM1.25 31.2619V20.1905H0.75V31.2619H1.25ZM1.25 20.1905C1.25 20.061 1.30142 19.9369 1.39296 19.8453L1.03941 19.4918C0.854103 19.6771 0.75 19.9284 0.75 20.1905H1.25ZM1.39296 19.8453C1.4845 19.7538 1.60864 19.7024 1.7381 19.7024V19.2024C1.47604 19.2024 1.22471 19.3065 1.03941 19.4918L1.39296 19.8453ZM1.7381 19.7024C1.86755 19.7024 1.9917 19.7538 2.08323 19.8453L2.43678 19.4918C2.25148 19.3065 2.00015 19.2024 1.7381 19.2024V19.7024ZM2.08323 19.8453C2.17477 19.9369 2.22619 20.061 2.22619 20.1905H2.72619C2.72619 19.9284 2.62209 19.6771 2.43678 19.4918L2.08323 19.8453ZM2.22619 20.1905V30.5238H2.72619V20.1905H2.22619ZM2.47619 30.7738H30.5238V30.2738H2.47619V30.7738ZM30.7738 30.5238V2.47619H30.2738V30.5238H30.7738ZM30.5238 2.22619H2.47619V2.72619H30.5238V2.22619ZM2.22619 2.47619V12.8095H2.72619V2.47619H2.22619ZM2.22619 12.8095C2.22619 12.939 2.17477 13.0631 2.08323 13.1547L2.43678 13.5082C2.62209 13.3229 2.72619 13.0716 2.72619 12.8095H2.22619ZM2.08323 13.1547C1.9917 13.2462 1.86755 13.2976 1.7381 13.2976V13.7976C2.00015 13.7976 2.25148 13.6935 2.43678 13.5082L2.08323 13.1547ZM1.7381 13.2976C1.60864 13.2976 1.4845 13.2462 1.39296 13.1547L1.03941 13.5082C1.22471 13.6935 1.47604 13.7976 1.7381 13.7976V13.2976ZM1.39296 13.1547C1.30142 13.0631 1.25 12.939 1.25 12.8095H0.75C0.75 13.0716 0.854103 13.3229 1.03941 13.5082L1.39296 13.1547ZM1.25 12.8095V1.7381H0.75V12.8095H1.25ZM1.25 1.7381C1.25 1.60864 1.30142 1.4845 1.39296 1.39296L1.03941 1.03941C0.854103 1.22471 0.75 1.47604 0.75 1.7381H1.25ZM1.39296 1.39296C1.4845 1.30142 1.60864 1.25 1.7381 1.25V0.75C1.47604 0.75 1.22471 0.854103 1.03941 1.03941L1.39296 1.39296ZM1.7381 1.25H31.2619V0.75H1.7381V1.25ZM31.2619 1.25C31.3914 1.25 31.5155 1.30142 31.607 1.39296L31.9606 1.03941C31.7753 0.854103 31.524 0.75 31.2619 0.75V1.25ZM31.607 1.39296C31.6986 1.4845 31.75 1.60864 31.75 1.7381H32.25C32.25 1.47604 32.1459 1.22471 31.9606 1.03941L31.607 1.39296ZM31.75 1.7381V31.2619H32.25V1.7381H31.75ZM31.2619 13.2976H16.5V13.7976H31.2619V13.2976ZM16.5 13.2976C16.3705 13.2976 16.2464 13.2462 16.1549 13.1547L15.8013 13.5082C15.9866 13.6935 16.2379 13.7976 16.5 13.7976V13.2976ZM16.1549 13.1547C16.0633 13.0631 16.0119 12.939 16.0119 12.8095H15.5119C15.5119 13.0716 15.616 13.3229 15.8013 13.5082L16.1549 13.1547ZM16.0119 12.8095V9.11905H15.5119V12.8095H16.0119ZM16.0119 9.11905C16.0119 8.9896 16.0633 8.86545 16.1549 8.77391L15.8013 8.42036C15.616 8.60566 15.5119 8.85699 15.5119 9.11905H16.0119ZM16.1549 8.77391C16.2464 8.68238 16.3705 8.63095 16.5 8.63095V8.13095C16.2379 8.13095 15.9866 8.23505 15.8013 8.42036L16.1549 8.77391ZM16.5 8.63095C16.6295 8.63095 16.7536 8.68238 16.8451 8.77391L17.1987 8.42036C17.0134 8.23505 16.7621 8.13095 16.5 8.13095V8.63095ZM16.8451 8.77391C16.9367 8.86545 16.9881 8.9896 16.9881 9.11905H17.4881C17.4881 8.85699 17.384 8.60566 17.1987 8.42036L16.8451 8.77391ZM16.9881 9.11905V12.0714H17.4881V9.11905H16.9881ZM17.2381 12.3214H31.2619V11.8214H17.2381V12.3214ZM31.2619 12.3214C31.3914 12.3214 31.5155 12.3729 31.607 12.4644L31.9606 12.1108C31.7753 11.9255 31.524 11.8214 31.2619 11.8214V12.3214ZM31.607 12.4644C31.6986 12.5559 31.75 12.6801 31.75 12.8095H32.25C32.25 12.5475 32.1459 12.2961 31.9606 12.1108L31.607 12.4644ZM31.75 12.8095C31.75 12.939 31.6986 13.0631 31.607 13.1547L31.9606 13.5082C32.1459 13.3229 32.25 13.0716 32.25 12.8095H31.75ZM31.607 13.1547C31.5155 13.2462 31.3914 13.2976 31.2619 13.2976V13.7976C31.524 13.7976 31.7753 13.6935 31.9606 13.5082L31.607 13.1547ZM16.5 5.91667C16.3705 5.91667 16.2464 5.86524 16.1549 5.77371L15.8013 6.12726C15.9866 6.31256 16.2379 6.41667 16.5 6.41667V5.91667ZM16.1549 5.77371C16.0633 5.68217 16.0119 5.55802 16.0119 5.42857H15.5119C15.5119 5.69063 15.616 5.94196 15.8013 6.12726L16.1549 5.77371ZM16.0119 5.42857V1.7381H15.5119V5.42857H16.0119ZM16.0119 1.7381C16.0119 1.60864 16.0633 1.4845 16.1549 1.39296L15.8013 1.03941C15.616 1.22471 15.5119 1.47604 15.5119 1.7381H16.0119ZM16.1549 1.39296C16.2464 1.30142 16.3705 1.25 16.5 1.25V0.75C16.2379 0.75 15.9866 0.854103 15.8013 1.03941L16.1549 1.39296ZM16.5 1.25C16.6295 1.25 16.7536 1.30142 16.8451 1.39296L17.1987 1.03941C17.0134 0.854103 16.7621 0.75 16.5 0.75V1.25ZM16.8451 1.39296C16.9367 1.4845 16.9881 1.60864 16.9881 1.7381H17.4881C17.4881 1.47604 17.384 1.22471 17.1987 1.03941L16.8451 1.39296ZM16.9881 1.7381V5.42857H17.4881V1.7381H16.9881ZM16.9881 5.42857C16.9881 5.55802 16.9367 5.68217 16.8451 5.77371L17.1987 6.12726C17.384 5.94196 17.4881 5.69063 17.4881 5.42857H16.9881ZM16.8451 5.77371C16.7536 5.86524 16.6295 5.91667 16.5 5.91667V6.41667C16.7621 6.41667 17.0134 6.31256 17.1987 6.12726L16.8451 5.77371ZM31.2619 31.75H16.5V32.25H31.2619V31.75ZM16.5 31.75C16.3705 31.75 16.2464 31.6986 16.1549 31.607L15.8013 31.9606C15.9866 32.1459 16.2379 32.25 16.5 32.25V31.75ZM16.1549 31.607C16.0633 31.5155 16.0119 31.3914 16.0119 31.2619H15.5119C15.5119 31.524 15.616 31.7753 15.8013 31.9606L16.1549 31.607ZM16.0119 31.2619V19.4524H15.5119V31.2619H16.0119ZM16.0119 19.4524C16.0119 19.3229 16.0633 19.1988 16.1549 19.1072L15.8013 18.7537C15.616 18.939 15.5119 19.1903 15.5119 19.4524H16.0119ZM16.1549 19.1072C16.2464 19.0157 16.3705 18.9643 16.5 18.9643V18.4643C16.2379 18.4643 15.9866 18.5684 15.8013 18.7537L16.1549 19.1072ZM16.5 18.9643H20.1905V18.4643H16.5V18.9643ZM20.1905 18.9643C20.3199 18.9643 20.4441 19.0157 20.5356 19.1072L20.8892 18.7537C20.7039 18.5684 20.4525 18.4643 20.1905 18.4643V18.9643ZM20.5356 19.1072C20.6271 19.1988 20.6786 19.3229 20.6786 19.4524H21.1786C21.1786 19.1903 21.0745 18.939 20.8892 18.7537L20.5356 19.1072ZM20.6786 19.4524C20.6786 19.5818 20.6271 19.706 20.5356 19.7975L20.8892 20.1511C21.0745 19.9658 21.1786 19.7144 21.1786 19.4524H20.6786ZM20.5356 19.7975C20.4441 19.8891 20.3199 19.9405 20.1905 19.9405V20.4405C20.4525 20.4405 20.7039 20.3364 20.8892 20.1511L20.5356 19.7975ZM20.1905 19.9405H17.2381V20.4405H20.1905V19.9405ZM16.9881 20.1905V30.5238H17.4881V20.1905H16.9881ZM17.2381 30.7738H30.5238V30.2738H17.2381V30.7738ZM30.7738 30.5238V20.1905H30.2738V30.5238H30.7738ZM30.5238 19.9405H23.881V20.4405H30.5238V19.9405ZM23.881 19.9405C23.7515 19.9405 23.6274 19.8891 23.5358 19.7975L23.1823 20.1511C23.3676 20.3364 23.6189 20.4405 23.881 20.4405V19.9405ZM23.5358 19.7975C23.4443 19.706 23.3929 19.5818 23.3929 19.4524H22.8929C22.8929 19.7144 22.997 19.9658 23.1823 20.1511L23.5358 19.7975ZM23.3929 19.4524C23.3929 19.3229 23.4443 19.1988 23.5358 19.1072L23.1823 18.7537C22.997 18.939 22.8929 19.1903 22.8929 19.4524H23.3929ZM23.5358 19.1072C23.6274 19.0157 23.7515 18.9643 23.881 18.9643V18.4643C23.6189 18.4643 23.3676 18.5684 23.1823 18.7537L23.5358 19.1072ZM23.881 18.9643H31.2619V18.4643H23.881V18.9643ZM31.2619 18.9643C31.3914 18.9643 31.5155 19.0157 31.607 19.1072L31.9606 18.7537C31.7753 18.5684 31.524 18.4643 31.2619 18.4643V18.9643ZM31.607 19.1072C31.6986 19.1988 31.75 19.3229 31.75 19.4524H32.25C32.25 19.1903 32.1459 18.939 31.9606 18.7537L31.607 19.1072ZM31.75 19.4524V31.2619H32.25V19.4524H31.75Z" fill="#EA5F32" mask="url(#path-1-outside-1)"/>
</svg>
