<svg width="23" height="29" viewBox="0 0 23 29" fill="none" xmlns="http://www.w3.org/2000/svg">
<path d="M22.6982 19.7375L15.8868 7.44866C15.473 6.68443 14.6773 6.19532 13.7861 6.10361L8.78892 5.64507C8.62978 4.91141 8.34332 4.17775 7.96137 3.50523C7.29296 2.28245 6.33808 1.2431 5.31955 0.631713C4.11004 -0.0713799 2.90054 -0.193657 1.94566 0.295451C0.958963 0.78456 0.417868 1.82392 0.354209 3.16896C0.32238 4.3306 0.672501 5.64507 1.34091 6.89841C1.72286 7.60151 2.2003 8.24346 2.74139 8.76314L0.32238 12.9817C-0.0913982 13.7459 -0.123227 14.6324 0.32238 15.3967L7.10198 27.655C7.57942 28.5109 8.50246 29 9.45733 29C9.87111 29 10.2849 28.9083 10.6987 28.6943L21.6161 23.1307C22.8892 22.4887 23.3667 20.9603 22.6982 19.7375ZM2.32761 3.2301C2.35944 2.61872 2.55042 2.12961 2.86871 1.97676C3.187 1.82392 3.69627 1.91562 4.23736 2.25188C4.96943 2.67985 5.66967 3.47466 6.17894 4.39173C6.36991 4.728 6.52906 5.09483 6.65637 5.46166L6.43357 5.43109C5.38321 5.33938 4.36468 5.85906 3.85541 6.74557L3.75992 6.92898C3.53712 6.65386 3.31432 6.3176 3.09151 5.95077C2.58225 5.06426 2.32761 4.05547 2.32761 3.2301ZM20.6612 21.48L9.7438 27.0436C9.42551 27.1964 9.04356 27.0741 8.88441 26.799L2.07298 14.5102C1.97749 14.3267 1.97749 14.1128 2.07298 13.9293L4.33285 9.95534C4.9376 10.261 5.54235 10.4139 6.11528 10.4139C6.27442 10.4139 6.43357 10.4139 6.59271 10.3833C7.13381 10.2916 7.48393 9.8025 7.38844 9.28282C7.29295 8.76314 6.78369 8.39631 6.2426 8.51859C5.98796 8.54916 5.63784 8.48802 5.28772 8.3046L5.60601 7.72378C5.73333 7.5098 5.9243 7.38752 6.17894 7.38752C6.21077 7.38752 6.21077 7.38752 6.2426 7.38752L13.5951 8.02948C13.8179 8.06005 14.0089 8.18232 14.1044 8.36574L20.9158 20.624C21.075 20.9297 20.9795 21.2965 20.6612 21.48Z" fill="#EA5F32"/>
<path d="M15.2821 17.5671C14.6137 16.0386 12.7357 15.3967 11.2398 16.1609L10.4122 16.5889C9.77563 16.8946 9.01173 16.65 8.72527 16.0081C8.50246 15.4578 8.78892 14.7853 9.33002 14.5102L10.2849 14.0211C10.635 13.8376 11.0806 13.9293 11.3353 14.2045C11.3989 14.2962 11.5262 14.2962 11.6217 14.2656L12.7039 13.7154C12.8312 13.6542 12.863 13.5014 12.7994 13.3791C12.131 12.4009 10.7942 12.0341 9.64831 12.5232L9.07539 11.4838C9.01173 11.3615 8.85258 11.331 8.7571 11.3921L7.6749 11.9423C7.54759 12.0035 7.51576 12.1563 7.57942 12.248L8.15234 13.2874C6.91101 14.1433 6.52906 15.8246 7.42027 17.1086C8.24783 18.3313 9.9666 18.637 11.3034 17.9645L12.0037 17.5977C12.6402 17.292 13.4041 17.5365 13.6906 18.1785C13.9134 18.7287 13.6269 19.4012 13.0859 19.6764L12.131 20.1655C11.7809 20.3489 11.3353 20.2572 11.0806 19.9821C11.017 19.8904 10.8896 19.8904 10.7942 19.9209L9.71197 20.4712C9.58465 20.5323 9.55282 20.6852 9.61648 20.8074C10.2849 21.7857 11.6217 22.1525 12.7676 21.6634L13.3405 22.7027C13.4041 22.825 13.5633 22.8556 13.6588 22.7944L14.741 22.2442C14.8683 22.1831 14.9001 22.0302 14.8365 21.9385L14.2635 20.8686C15.3139 20.1043 15.7913 18.7593 15.2821 17.5671Z" fill="#EA5F32"/>
</svg>
