<svg width="35" height="31" viewBox="0 0 35 31" fill="none" xmlns="http://www.w3.org/2000/svg">
<path d="M35 30.1643V19.4994C35 19.38 34.96 19.2606 34.9201 19.181L31.0046 9.78947V3.18357C31.0046 1.43261 29.5662 0 27.8082 0H7.19178C5.43379 0 3.99543 1.43261 3.99543 3.18357V9.78947L0.0799088 19.181C0.0399544 19.2606 0 19.38 0 19.4994V30.1643C0 30.6021 0.359589 30.9602 0.799087 30.9602C1.23858 30.9602 1.59817 30.6021 1.59817 30.1643V26.3042H33.4018V30.2041C33.4018 30.6418 33.7614 31 34.2009 31C34.6404 31 35 30.6418 35 30.1643ZM7.19178 1.59178H27.8082C28.6872 1.59178 29.4064 2.30809 29.4064 3.18357V9.15276H27.4886V6.84467C27.4886 6.40693 27.129 6.04878 26.6895 6.04878H19.8573C19.4178 6.04878 19.0582 6.40693 19.0582 6.84467V9.15276H15.9418V6.84467C15.9418 6.40693 15.5822 6.04878 15.1427 6.04878H8.3105C7.871 6.04878 7.51141 6.40693 7.51141 6.84467V9.15276H5.59361V3.18357C5.59361 2.30809 6.31278 1.59178 7.19178 1.59178ZM25.8904 7.64056V12.0976H20.6564V7.64056H25.8904ZM14.3436 7.64056V12.0976H9.10959V7.64056H14.3436ZM5.31393 10.7445H7.51141V12.8935C7.51141 13.3312 7.871 13.6893 8.3105 13.6893H15.1427C15.5822 13.6893 15.9418 13.3312 15.9418 12.8935V10.7445H19.0582V12.8935C19.0582 13.3312 19.4178 13.6893 19.8573 13.6893H26.6895C27.129 13.6893 27.4886 13.3312 27.4886 12.8935V10.7445H29.6461L32.9623 18.7035H1.99772L5.31393 10.7445ZM1.59817 24.7125V20.2952H33.4018V24.7125H1.59817Z" fill="#EA5F32"/>
</svg>
