<svg width="35" height="30" viewBox="0 0 35 30" fill="none" xmlns="http://www.w3.org/2000/svg">
<path d="M33.9922 30H1.0075C0.659864 30 0.336772 29.8226 0.15288 29.5235C-0.0310111 29.2244 -0.050426 28.8513 0.102329 28.5343L4.83259 18.7113C5.07693 18.2039 5.68025 17.9933 6.18064 18.2414C6.6803 18.4899 6.88763 19.1923 6.6433 19.6997L2.62186 28.14H32.3343L28.3601 20.328H21.2286C20.6718 20.328 20.2209 19.7774 20.2209 19.212C20.2209 18.6465 20.6718 18.096 21.2286 18.096H28.9729C29.3491 18.096 29.6942 18.33 29.8675 18.6692L34.8871 28.5042C35.0487 28.8215 35.0362 29.2021 34.8534 29.5075C34.6707 29.8129 34.3443 30 33.9922 30Z" fill="#EA5F32"/>
<path d="M8.84853 19.956C8.58039 19.956 8.3302 19.7112 8.19576 19.475C8.06132 19.241 8.06022 18.8988 8.19319 18.6618L8.93975 17.3092C8.82143 17.2411 8.72106 17.1288 8.65292 17.0045C8.51116 16.7486 8.52837 16.4212 8.69725 16.1805L9.86653 14.5103L9.95225 14.3957C9.78484 14.3153 9.64857 14.1717 9.57641 13.9962C9.48703 13.7782 9.50058 13.5341 9.61377 13.3273L10.272 12.1328C10.2926 12.0971 10.312 12.067 10.334 12.0379L10.4189 11.9267C10.3713 11.8821 10.3288 11.8307 10.2933 11.7735C10.1537 11.5495 10.1372 11.2739 10.2482 11.035L12.7923 5.58522C12.9136 5.32556 13.1726 5.15481 13.4546 5.147L13.4909 5.14626C13.7656 5.14626 14.025 5.3144 14.1517 5.5748L16.7178 10.8892C16.8247 11.1098 16.82 11.3713 16.705 11.5886C16.6255 11.7389 16.4991 11.8568 16.3489 11.9249L16.5401 12.1901C16.5555 12.2117 16.5705 12.2347 16.5844 12.2585L17.1834 13.3199C17.2907 13.5107 17.3127 13.7384 17.2438 13.9459C17.1753 14.1543 17.0211 14.3224 16.8207 14.4072L16.7819 14.424L18.0563 16.0827C18.2307 16.3093 18.2655 16.6132 18.1471 16.8743C18.0526 17.083 17.875 17.2337 17.6636 17.2928L18.4179 18.6078C18.553 18.8452 18.5538 19.238 18.419 19.475C18.2856 19.7105 18.0347 19.956 17.7654 19.956H8.84853ZM16.4522 18.096L15.7426 16.9242C15.6108 16.6943 15.6067 16.4387 15.732 16.2047C15.8009 16.076 15.9053 15.9882 16.0287 15.9183L15.547 15.2989L14.9994 14.54C14.8624 14.3499 14.8199 14.1126 14.8825 13.8849C14.9437 13.6591 15.1027 13.4768 15.3177 13.3853L15.45 13.3295L15.2983 13.0609L14.3986 11.8162C14.2415 11.5994 14.2085 11.3103 14.3129 11.0618C14.4155 10.8174 14.6397 10.6422 14.8997 10.6046L13.4861 7.67772L12.0959 10.656C12.263 10.7266 12.4033 10.8572 12.4853 11.0268C12.611 11.2887 12.5784 11.6053 12.4026 11.8341L11.5611 12.9319L11.401 13.222L11.4285 13.2295C11.6717 13.2979 11.8641 13.4835 11.9436 13.7261C12.0234 13.9683 11.9791 14.2339 11.8252 14.4359L11.0794 15.4194L10.6973 15.9648C10.76 16.0169 10.8149 16.0794 10.8585 16.1504C11.0058 16.3907 11.012 16.6266 10.8739 16.8713L10.149 18.096H16.4522Z" fill="#EA5F32"/>
<path d="M13.5381 23.7307C13.1487 23.7307 12.833 23.41 12.8326 23.0142L12.8319 19.366C12.8319 18.9706 13.1476 18.6495 13.537 18.6495C13.9264 18.6495 14.2422 18.9698 14.2422 19.3656L14.2433 23.0138C14.2437 23.4096 13.9279 23.7303 13.5381 23.7307Z" fill="#EA5F32"/>
<path d="M28.1817 9.68801C25.5515 9.68801 23.4119 7.51479 23.4119 4.84419C23.4119 2.1736 25.5515 0 28.1817 0C30.8119 0 32.9515 2.17323 32.9515 4.84382C32.9515 7.51441 30.8119 9.68801 28.1817 9.68801ZM28.1817 2.04675C26.6629 2.04675 25.427 3.30151 25.427 4.84419C25.427 6.38688 26.6626 7.64164 28.1817 7.64164C29.7008 7.64164 30.9364 6.38688 30.9364 4.84419C30.9364 3.30151 29.7008 2.04675 28.1817 2.04675Z" fill="#EA5F32"/>
</svg>
