<svg width="28" height="33" viewBox="0 0 28 33" fill="none" xmlns="http://www.w3.org/2000/svg">
<path d="M14 29.859C13.711 29.859 13.422 29.7296 13.2615 29.4708L13.1973 29.3738C11.656 27.0769 3.82113 15.3015 3.82113 10.2549C3.82113 4.59369 8.41287 0 14.0321 0C15.3165 0 16.5688 0.2588 17.7248 0.711699L18.1743 0.905799C18.8486 1.2293 19.4909 1.58515 20.0688 2.03805C20.1973 2.1351 20.3257 2.23215 20.4542 2.3292C20.7753 2.588 21.0642 2.87915 21.3532 3.1703C21.8028 3.65555 22.2202 4.17314 22.5734 4.72309C22.6055 4.78779 22.6698 4.85249 22.7019 4.94954C22.734 5.01424 22.8624 5.24069 22.9587 5.37009C23.023 5.53184 23.1193 5.66124 23.1835 5.82299C23.2477 5.98474 23.312 6.11414 23.3762 6.27589C23.4404 6.43764 23.5046 6.59939 23.5688 6.76114C23.6973 7.08464 23.7936 7.40814 23.8578 7.73164C23.8899 7.89339 23.922 8.05514 23.9863 8.24924C24.1147 8.83154 24.1789 9.44619 24.1789 10.0608C24.1789 10.1579 24.1789 10.2226 24.1789 10.3196C24.1147 11.6783 23.7936 13.037 23.2477 14.2987C23.023 14.881 22.7661 15.528 22.4771 16.175C22.3165 16.5632 22.1239 16.9514 21.9312 17.3396C21.8028 17.5984 21.6743 17.8572 21.5459 18.1483L21.1285 18.9571L20.7431 19.7011C20.3578 20.4452 19.9083 21.2216 19.4266 22.0303C19.1376 22.5479 18.8486 23.0332 18.5597 23.5184C18.2707 24.0037 17.9817 24.4566 17.6927 24.8771L17.2753 25.5241C15.8624 27.7886 14.7707 29.4385 14.7386 29.4385C14.578 29.6973 14.289 29.8267 14 29.859ZM14 1.8116C9.37617 1.8116 5.6514 5.59654 5.61929 10.2226C5.61929 13.7487 10.5964 22.1597 14 27.271C14.4496 26.5917 15.0597 25.6212 15.7661 24.5213L16.1514 23.8743C16.4083 23.4214 16.6973 22.9685 16.9863 22.5156C17.2753 22.0303 17.5642 21.5451 17.8532 21.0598C18.3028 20.2511 18.7523 19.507 19.1376 18.763C19.2661 18.5042 19.4266 18.2454 19.5551 17.9866C19.6835 17.7278 19.812 17.469 19.9404 17.2102C20.0688 16.9514 20.1973 16.6926 20.3257 16.4338C20.5184 16.0456 20.6789 15.6897 20.8395 15.3015C21.1285 14.6869 21.3532 14.0722 21.578 13.5223C22.0275 12.4547 22.2844 11.3548 22.3808 10.1902C22.3808 10.1255 22.3808 10.0608 22.3808 9.96379C22.3808 9.47854 22.3165 8.96094 22.2202 8.47569C22.1881 8.34629 22.156 8.21689 22.1239 8.05514C22.0597 7.79634 21.9633 7.53754 21.867 7.27874C21.8349 7.14934 21.7707 7.01994 21.7064 6.89054C21.6422 6.76114 21.6101 6.63174 21.5459 6.50234C21.4817 6.37294 21.4175 6.24354 21.3532 6.14649C21.289 6.01709 21.2248 5.92004 21.1606 5.79064L21.0642 5.62889C20.7753 5.17599 20.4542 4.75544 20.0688 4.36724C19.8441 4.10844 19.5872 3.88199 19.3303 3.6879L19.0092 3.4291C18.5276 3.07325 18.0138 2.74975 17.4679 2.49095L17.0826 2.3292C16.0872 2.0057 15.0597 1.8116 14 1.8116ZM14 14.6222C11.4954 14.5251 9.56883 12.39 9.66516 9.89909C9.76149 7.53754 11.5918 5.66124 13.9358 5.53184H14C16.5046 5.53184 18.5275 7.56989 18.5275 10.0932C18.5275 12.5841 16.5046 14.6222 14 14.6222ZM14 7.34344C12.4909 7.34344 11.3028 8.57274 11.3028 10.0608C11.3028 11.5813 12.523 12.7782 14 12.7782C15.5092 12.7782 16.6973 11.5489 16.6973 10.0608C16.6973 8.57274 15.4771 7.34344 14 7.34344Z" fill="#EA5F32"/>
<path d="M23.4083 27.4328C21.6101 27.1416 19.8119 26.9475 17.9817 26.8828C17.5642 27.5622 17.1789 28.1768 16.8257 28.6621C21.6101 28.8238 24.5963 29.4385 25.7523 29.8914C24.3716 30.4413 20.422 31.1854 13.9679 31.1854C7.51376 31.1854 3.56422 30.4737 2.18349 29.8914C3.33945 29.4385 6.32569 28.8562 11.1101 28.6621C10.7569 28.1445 10.3716 27.5298 9.95413 26.8828C8.15596 26.9799 6.32569 27.1416 4.55963 27.4328C1.38073 27.9827 0 28.6944 0 29.8914C0 31.056 1.38073 31.8 4.59174 32.35C7.70642 32.8029 10.8532 33.0293 14 32.997C17.1468 33.0293 20.2936 32.8029 23.4083 32.35C26.6193 31.8324 28 31.056 28 29.8914C28 28.7268 26.6193 27.9827 23.4083 27.4328Z" fill="#EA5F32"/>
</svg>
